<svg width="80" height="80" viewBox="0 0 80 80" fill="none" xmlns="http://www.w3.org/2000/svg">
<circle cx="40" cy="40" r="40" fill="white"/>
<path d="M15.0226 57.1946C16.1086 55.3846 26.0633 52.8507 30.5882 51.4027C31.8552 51.0407 32.5792 50.6787 32.9412 50.3167C33.3032 49.5928 33.6651 48.3258 33.6651 46.8778C31.6742 44.7059 30.5882 42.1719 29.8643 40.181C29.5023 39.457 29.3213 38.552 29.3213 37.8281H29.1403C26.9683 37.8281 25.3394 36.1991 25.3394 34.0271C25.3394 32.9412 25.8823 31.8552 26.6063 31.1312C26.6063 31.1312 26.2443 23.8914 27.3303 21.1765C30.5882 12.1267 40 12.4887 40 12.4887C40 12.4887 49.4118 12.1267 52.6697 21.1765C53.5746 23.8914 53.3937 31.1312 53.3937 31.1312C54.1176 31.8552 54.6606 32.9412 54.6606 34.0271C54.6606 36.1991 53.0317 37.8281 50.8597 37.8281H50.6787C50.4977 38.733 50.3167 39.457 50.1357 40.181C49.4118 42.1719 48.3258 44.7059 46.3348 46.8778C46.3348 48.1448 46.6968 49.5928 47.0588 50.3167C47.2398 50.4977 48.1448 50.8597 49.4118 51.4027C54.1176 53.0317 64.0724 55.3846 64.9774 57.1946C65.1584 57.5566 66.7873 63.1674 68.4163 68.2353C75.6561 60.9955 80 51.0407 80 40C80 17.9185 62.0814 0 40 0C17.9185 0 0 17.9185 0 40C0 51.0407 4.52489 60.9955 11.5837 68.2353C13.2127 63.1674 14.8416 57.5566 15.0226 57.1946Z" fill="#F1F4F6"/>
</svg>
