<svg viewBox="0 0 24 24" fill="none" xmlns="http://www.w3.org/2000/svg">
    <rect width="24" height="24" rx="12" fill="white"/>
    <rect x="9.81812" y="17.4545" width="1.63636" height="1.63636" rx="0.818182" fill="#D2D2D2"/>
    <rect x="5.45459" y="10.3636" width="1.63636" height="6" rx="0.818182" fill="#D2D2D2"/>
    <rect width="1.63637" height="6" rx="0.818183" transform="matrix(-1 -8.74227e-08 -8.74229e-08 1 18.5454 10.3636)" fill="#D2D2D2"/>
    <rect x="12.5454" y="17.4545" width="1.63637" height="1.63636" rx="0.818182" fill="#D2D2D2"/>
    <rect x="7.09082" y="4.90912" width="9.81818" height="12" rx="4.90909" fill="#E2E2E2"/>
    <path fill-rule="evenodd" clip-rule="evenodd" d="M16.0465 5.78778C16.9092 6.66646 16.9092 8.08067 16.9092 10.9091C16.9092 13.7375 16.9092 15.1517 16.0465 16.0304C15.1838 16.9091 13.7953 16.9091 12.0001 16.9091C10.2049 16.9091 8.81641 16.9091 7.9537 16.0304C7.091 15.1517 7.091 13.7375 7.091 10.9091C7.091 8.08067 7.091 6.66646 7.9537 5.78778C8.81641 4.9091 10.2049 4.36365 12.0001 4.36365C13.7953 4.36365 15.1838 4.9091 16.0465 5.78778ZM14.538 7.32418C15.1419 7.93926 15.1419 8.92921 15.1419 10.9091C15.1419 12.889 15.1419 13.879 14.538 14.494C13.9341 15.1091 12.9622 15.1091 12.0001 15.1091C11.038 15.1091 10.0661 15.1091 9.46216 14.494C8.85827 13.879 8.85827 12.889 8.85827 10.9091C8.85827 8.92921 8.85827 7.93926 9.46216 7.32418C10.0661 6.70911 11.038 6.16365 12.0001 6.16365C12.9622 6.16365 13.9341 6.70911 14.538 7.32418Z" fill="#D2D2D2"/>
    <circle cx="6.5455" cy="9.8182" r="1.09091" fill="#D2D2D2"/>
    <circle cx="17.4544" cy="9.8182" r="1.09091" fill="#D2D2D2"/>
    <rect x="7.09082" y="7.63635" width="9.81818" height="0.545455" fill="#F7F7F7" fill-opacity="0.5"/>
</svg>

