<svg viewBox="0 0 200 200" xmlns="http://www.w3.org/2000/svg">
<path d="M31.9078 62.0698C32.484 63.7408 33.9437 65.1621 35.1537 65.2581C36.3637 65.3541 36.8823 64.0673 36.2869 62.3964C35.6915 60.7254 34.251 59.3041 33.041 59.2081C31.831 59.112 31.3124 60.3989 31.9078 62.0698Z" fill="#1A2EB2"/>
<path d="M50.1535 33.9552C53.1689 35.703 55.6081 39.9284 55.6081 43.4048C55.6081 46.8811 53.1497 48.2832 50.1151 46.5354C47.0997 44.7876 44.6604 40.5622 44.6604 37.0858C44.6604 33.6095 47.1189 32.2074 50.1535 33.9552Z" fill="#D4D8E2"/>
<path d="M82.2095 44.2367C86.3536 46.6387 89.7058 52.4457 89.7058 57.2233C89.7058 62.0008 86.3272 63.9277 82.1567 61.5257C78.0126 59.1237 74.6604 53.3167 74.6604 48.5392C74.6604 43.7616 78.039 41.8347 82.2095 44.2367Z" fill="#FAB404"/>
<path d="M142.021 49.0639C141.155 49.4494 140.509 50.058 140.11 50.7834C139.996 50.5462 139.877 50.3114 139.737 50.0789C137.248 45.9304 131.641 44.1585 127.22 46.1234C125.266 46.9919 123.871 48.4484 123.136 50.1606C122.078 49.1582 120.425 48.8155 119.067 49.4187C118.561 49.644 118.155 49.9783 117.862 50.3696C117.751 50.0775 117.616 49.7824 117.445 49.4971C115.933 46.9763 112.529 45.9051 109.849 47.0965C108.03 47.905 107.014 49.5412 107.011 51.2962C102.24 47.8742 95.7086 46.928 90.2402 49.3584C82.9977 52.5773 80.2806 60.5324 83.9213 67.4088C81.956 67.0105 79.8793 67.1637 78.0096 67.9946C73.5886 69.9595 72.021 74.9203 74.5101 79.0687C74.5905 79.2027 74.6767 79.3267 74.7635 79.4513C74.793 79.4937 74.8227 79.5364 74.8521 79.5794C74.0498 79.5143 73.2373 79.6344 72.4883 79.9673C70.2412 80.966 69.4463 83.4814 70.7114 85.59C71.9766 87.6986 74.8198 88.5971 77.0669 87.5984L146.597 56.6963C148.844 55.6976 149.639 53.1821 148.374 51.0735C147.109 48.9659 144.268 48.0673 142.021 49.0639Z" fill="#B9BED0"/>
<path d="M150.705 66.5363C149.962 66.8667 149.46 67.4446 149.233 68.1141C149.225 68.0992 149.217 68.0843 149.209 68.0695C149.202 68.0553 149.195 68.0412 149.188 68.027C149.175 67.998 149.161 67.969 149.143 67.94C147.631 65.4192 144.227 64.348 141.547 65.5394C139.491 66.453 138.459 68.4311 138.759 70.44C138.398 70.373 138.021 70.3997 137.683 70.5499C136.855 70.9178 136.563 71.8445 137.029 72.6214C137.089 72.7218 137.16 72.8172 137.24 72.9023C136.752 72.8851 136.251 72.9668 135.795 73.1696C134.286 73.8404 133.752 75.5303 134.602 76.9466C135.451 78.3629 137.362 78.9665 138.871 78.2957L153.784 71.6677C155.293 70.9969 155.827 69.307 154.977 67.8907C154.128 66.4744 152.218 65.8708 150.708 66.5416L150.705 66.5363Z" fill="#B9BED0"/>
<path d="M79.4094 120.302C83.8303 118.338 89.4376 120.11 91.9267 124.258L91.9211 124.26C94.3689 128.34 92.8935 133.193 88.6405 135.224L88.6468 135.234L42.9394 155.549C38.5185 157.514 32.9112 155.742 30.4221 151.593C27.933 147.445 29.5007 142.484 33.9216 140.519C34.1359 140.424 34.3485 140.349 34.5663 140.271L34.5827 140.266C34.0963 139.859 33.6754 139.384 33.3456 138.834C31.8363 136.319 32.7831 133.307 35.4694 132.113C36.6915 131.57 38.0634 131.503 39.338 131.82C39.8093 127.433 42.5817 123.47 47.1885 121.422C53.4341 118.647 61.0755 120.278 65.8841 124.975C66.1366 123.517 67.1074 122.222 68.6561 121.534C71.1228 120.438 74.1896 121.257 75.8462 123.352C76.642 122.075 77.8438 120.998 79.4094 120.302Z" fill="#B9BED0"/>
<path d="M142.021 48.0639C141.155 48.4494 140.509 49.058 140.11 49.7834C139.996 49.5462 139.877 49.3114 139.737 49.0789C137.248 44.9304 131.641 43.1585 127.22 45.1234C125.266 45.9919 123.871 47.4484 123.137 49.1606C122.079 48.1582 120.425 47.8155 119.067 48.4187C118.561 48.644 118.155 48.9783 117.862 49.3696C117.751 49.0775 117.616 48.7824 117.445 48.4971C115.933 45.9763 112.529 44.9051 109.849 46.0965C108.03 46.905 107.014 48.5412 107.011 50.2962C102.24 46.8742 95.7087 45.928 90.2402 48.3584C82.9978 51.5773 80.2806 59.5324 83.9214 66.4088C81.956 66.0105 79.8793 66.1637 78.0096 66.9946C73.5886 68.9595 72.021 73.9203 74.5101 78.0687C74.5905 78.2027 74.6768 78.3267 74.7635 78.4513C74.7779 78.472 74.7925 78.4929 74.8069 78.5137C74.822 78.5355 74.8371 78.5574 74.8522 78.5794C74.0498 78.5143 73.2373 78.6344 72.4883 78.9673C70.2412 79.966 69.4463 82.4814 70.7115 84.59C71.9766 86.6986 74.8199 87.5971 77.0669 86.5984L146.597 55.6963C148.844 54.6976 149.639 52.1821 148.374 50.0735C147.109 47.9659 144.268 47.0673 142.021 48.0639Z" fill="#EDEEF3"/>
<path d="M150.705 65.5363C149.962 65.8667 149.46 66.4446 149.233 67.1141C149.224 67.0991 149.216 67.0842 149.209 67.0693C149.202 67.0552 149.195 67.0411 149.188 67.027C149.175 66.9981 149.161 66.969 149.143 66.94C147.631 64.4192 144.227 63.348 141.547 64.5394C139.491 65.453 138.459 67.4311 138.759 69.44C138.398 69.373 138.021 69.3997 137.683 69.5499C136.855 69.9178 136.563 70.8445 137.029 71.6214C137.089 71.7218 137.16 71.8172 137.24 71.9023C136.752 71.8851 136.251 71.9668 135.795 72.1696C134.286 72.8404 133.752 74.5303 134.602 75.9466C135.452 77.3629 137.362 77.9665 138.871 77.2957L153.784 70.6677C155.293 69.9969 155.827 68.307 154.978 66.8907C154.128 65.4744 152.218 64.8708 150.708 65.5416L150.705 65.5363Z" fill="#EDEEF3"/>
<path d="M79.4094 119.302C83.8304 117.338 89.4376 119.11 91.9267 123.258L91.9211 123.26C94.3689 127.34 92.8935 132.193 88.6405 134.224L88.6469 134.234L42.9394 154.549C38.5185 156.514 32.9112 154.742 30.4221 150.593C27.9331 146.445 29.5007 141.484 33.9216 139.519C34.1359 139.424 34.3486 139.349 34.5664 139.271L34.5827 139.266C34.0963 138.859 33.6754 138.384 33.3456 137.834C31.8363 135.319 32.7831 132.307 35.4694 131.113C36.6915 130.57 38.0635 130.503 39.338 130.82C39.8093 126.433 42.5817 122.47 47.1885 120.422C53.4341 117.647 61.0755 119.278 65.8842 123.975C66.1366 122.517 67.1074 121.222 68.6561 120.534C71.1228 119.438 74.1896 120.257 75.8462 122.352C76.642 121.075 77.8438 119.998 79.4094 119.302Z" fill="#EDEEF3"/>
<path d="M115.425 58.3872L47.3456 88.6446C46.0835 89.2056 45.6733 90.682 46.4295 91.9423L88.0824 161.364C88.8386 162.624 90.4748 163.191 91.737 162.63L159.816 132.373C161.078 131.812 161.488 130.335 160.732 129.075L119.079 59.6535C118.323 58.3932 116.687 57.8262 115.425 58.3872Z" fill="#EDEEF3"/>
<path d="M46.721 92.4281L88.0825 161.364C88.8387 162.624 90.4748 163.191 91.737 162.63L159.441 132.54L159.732 133.025C160.488 134.286 160.078 135.762 158.816 136.323L90.737 166.581C89.4748 167.141 87.8387 166.575 87.0825 165.314L45.4296 95.8927C44.6734 94.6323 45.0835 93.1559 46.3457 92.595L46.721 92.4281Z" fill="#B9BED0"/>
<path d="M103.391 80.8633L58.9457 100.583C57.6836 101.144 57.2734 102.62 58.0296 103.881L58.1449 104.073C58.9011 105.333 60.5373 105.9 61.7995 105.339L106.244 85.6195C107.506 85.0586 107.917 83.5821 107.16 82.3218L107.045 82.1296C106.289 80.8693 104.653 80.3023 103.391 80.8633Z" fill="#D4D8E2"/>
<path d="M47.3456 88.6446L115.425 58.3872C116.687 57.8262 118.323 58.3932 119.079 59.6535L124.052 67.9409L51.4019 100.23L46.4295 91.9423C45.6733 90.682 46.0835 89.2056 47.3456 88.6446Z" fill="#D4D8E2"/>
<rect width="3.69777" height="3.69777" rx="1" transform="matrix(0.913812 -0.406138 0.514496 0.857493 53.6604 90.8236)" fill="#FAB404"/>
<path d="M119.455 73.3375L109.946 77.5637C108.684 78.1246 108.273 79.6011 109.03 80.8614L109.145 81.0536C109.901 82.3139 111.537 82.8808 112.799 82.3199L122.308 78.0938C123.57 77.5328 123.981 76.0564 123.224 74.796L123.109 74.6039C122.353 73.3436 120.717 72.7766 119.455 73.3375Z" fill="#FAB404"/>
<path fill-rule="evenodd" clip-rule="evenodd" d="M139.574 123.186C144.121 121.165 147.348 117.76 149.003 113.761L152.106 114.741C152.384 115.734 153.214 116.606 154.366 116.97L164.489 120.169C166.208 120.712 167.991 119.92 168.472 118.399C168.952 116.878 167.948 115.205 166.229 114.662L156.106 111.463C154.955 111.099 153.774 111.335 152.976 111.988L149.873 111.008C150.816 106.784 150.132 102.143 147.572 97.876C141.881 88.3904 129.072 84.3429 118.964 88.8356C108.855 93.3283 105.274 104.66 110.966 114.146C116.657 123.631 129.465 127.679 139.574 123.186ZM136.403 117.901C143.401 114.791 145.88 106.946 141.94 100.379C138 93.8121 129.133 91.0099 122.134 94.1203C115.136 97.2306 112.657 105.076 116.597 111.643C120.538 118.21 129.405 121.012 136.403 117.901Z" fill="#D4D8E2"/>
<path fill-rule="evenodd" clip-rule="evenodd" d="M140.574 121.186C145.121 119.165 148.348 115.76 150.003 111.761L153.106 112.741C153.384 113.734 154.214 114.606 155.366 114.97L165.489 118.169C167.208 118.712 168.991 117.92 169.472 116.399C169.952 114.878 168.948 113.205 167.229 112.662L157.106 109.463C155.955 109.099 154.774 109.335 153.976 109.988L150.873 109.008C151.816 104.784 151.132 100.143 148.572 95.876C142.881 86.3904 130.072 82.3429 119.964 86.8356C109.855 91.3283 106.274 102.66 111.966 112.146C117.657 121.631 130.465 125.679 140.574 121.186ZM137.403 115.901C144.401 112.791 146.88 104.946 142.94 98.379C139 91.8121 130.133 89.0099 123.134 92.1203C116.136 95.2306 113.657 103.076 117.597 109.643C121.538 116.21 130.405 119.012 137.403 115.901Z" fill="#EDEEF3"/>
</svg>
