<svg viewBox="0 0 201 201" xmlns="http://www.w3.org/2000/svg">
<path d="M37.1973 65.0105C37.7735 66.6814 39.2332 68.1027 40.4432 68.1988C41.6532 68.2948 42.1718 67.008 41.5764 65.337C40.981 63.666 39.5405 62.2448 38.3305 62.1487C37.1205 62.0527 36.6019 63.3395 37.1973 65.0105Z" fill="#6B89F6"/>
<path d="M55.4429 36.8958C58.4584 38.6436 60.8976 42.869 60.8976 46.3454C60.8976 49.8218 58.4392 51.2238 55.4045 49.4761C52.3891 47.7283 49.9499 43.5028 49.9499 40.0265C49.9499 36.5501 52.4083 35.148 55.4429 36.8958Z" fill="#ADC8D8"/>
<g filter="url(#filter0_d_2438_629)">
<path d="M147.311 52.0045C146.445 52.39 145.798 52.9986 145.399 53.7241C145.286 53.4868 145.166 53.2521 145.027 53.0195C142.538 48.8711 136.93 47.0991 132.509 49.064C130.555 49.9325 129.161 51.3891 128.426 53.1013C127.368 52.0988 125.714 51.7561 124.357 52.3593C123.85 52.5846 123.444 52.9189 123.151 53.3102C123.04 53.0182 122.906 52.7231 122.735 52.4377C121.222 49.9169 117.819 48.8457 115.138 50.0371C113.319 50.8456 112.303 52.4818 112.301 54.2369C107.529 50.8148 100.998 49.8686 95.5297 52.299C88.2872 55.5179 85.57 63.473 89.2108 70.3495C87.2455 69.9511 85.1688 70.1043 83.299 70.9353C78.8781 72.9002 77.3104 77.8609 79.7995 82.0094C79.8799 82.1434 79.9662 82.2673 80.0529 82.3919C80.0825 82.4344 80.1122 82.4771 80.1416 82.5201C79.3393 82.455 78.5268 82.5751 77.7777 82.908C75.5307 83.9067 74.7358 86.4221 76.0009 88.5307C77.2661 90.6393 80.1093 91.5378 82.3564 90.539L151.886 59.6369C154.133 58.6382 154.928 56.1228 153.663 54.0142C152.398 51.9065 149.557 51.0079 147.311 52.0045Z" fill="url(#paint0_linear_2438_629)"/>
<path d="M155.995 69.4769C155.251 69.8073 154.749 70.3853 154.523 71.0548C154.514 71.0399 154.506 71.025 154.498 71.0101C154.491 70.996 154.485 70.9818 154.478 70.9677C154.464 70.9387 154.45 70.9097 154.433 70.8806C152.92 68.3598 149.517 67.2886 146.836 68.48C144.78 69.3936 143.749 71.3717 144.048 73.3807C143.687 73.3136 143.311 73.3403 142.973 73.4905C142.145 73.8585 141.852 74.7852 142.318 75.562C142.378 75.6624 142.45 75.7578 142.529 75.843C142.041 75.8257 141.541 75.9075 141.085 76.1102C139.575 76.781 139.041 78.4709 139.891 79.8872C140.741 81.3035 142.651 81.9071 144.16 81.2363L159.073 74.6084C160.583 73.9376 161.117 72.2476 160.267 70.8313C159.417 69.415 157.507 68.8114 155.998 69.4822L155.995 69.4769Z" fill="url(#paint1_linear_2438_629)"/>
<path d="M84.6989 123.243C89.1198 121.278 94.7271 123.05 97.2161 127.199L97.2105 127.201C99.6584 131.281 98.1829 136.134 93.93 138.165L93.9363 138.175L48.2289 158.49C43.8079 160.454 38.2007 158.682 35.7116 154.534C33.2225 150.386 34.7901 145.425 39.2111 143.46C39.4254 143.365 39.638 143.289 39.8558 143.212L39.8721 143.206C39.3858 142.8 38.9648 142.324 38.6351 141.775C37.1258 139.259 38.0725 136.248 40.7589 135.054C41.981 134.511 43.3529 134.443 44.6275 134.76C45.0987 130.374 47.8712 126.411 52.478 124.363C58.7236 121.587 66.3649 123.218 71.1736 127.916C71.4261 126.458 72.3968 125.163 73.9456 124.475C76.4123 123.378 79.479 124.197 81.1357 126.293C81.9314 125.015 83.1332 123.939 84.6989 123.243Z" fill="url(#paint2_linear_2438_629)"/>
</g>
<path d="M147.313 51.0033C146.446 51.3888 145.798 51.9979 145.399 52.7241C145.286 52.4868 145.166 52.2521 145.027 52.0195C142.538 47.8711 136.93 46.0991 132.509 48.064C130.555 48.9325 129.161 50.3891 128.426 52.1013C127.368 51.0988 125.714 50.7561 124.357 51.3593C123.85 51.5846 123.444 51.9189 123.151 52.3102C123.04 52.0182 122.906 51.7231 122.735 51.4377C121.222 48.9169 117.819 47.8457 115.138 49.0371C113.319 49.8456 112.303 51.4818 112.301 53.2369C107.53 49.8148 100.998 48.8686 95.5297 51.299C88.2872 54.5179 85.57 62.473 89.2108 69.3495C87.2455 68.9511 85.1688 69.1043 83.299 69.9353C78.8781 71.9002 77.3105 76.8609 79.7996 81.0094C79.9074 81.1891 80.0257 81.3507 80.1416 81.5201C79.3393 81.455 78.5268 81.5751 77.7778 81.908C75.5307 82.9067 74.7358 85.4221 76.0009 87.5307C77.2661 89.6393 80.1093 90.5377 82.3564 89.539L151.886 58.6369C154.133 57.6382 154.928 55.1228 153.663 53.0142C152.398 50.9056 149.555 50.0071 147.308 51.0058L147.313 51.0033Z" fill="url(#paint3_linear_2438_629)"/>
<path d="M155.995 68.4769C155.251 68.8073 154.749 69.3853 154.523 70.0547C154.488 69.9966 154.468 69.9388 154.433 69.8806C152.92 67.3598 149.517 66.2886 146.836 67.48C144.781 68.3936 143.749 70.3717 144.048 72.3807C143.687 72.3136 143.311 72.3403 142.973 72.4905C142.145 72.8585 141.852 73.7852 142.318 74.562C142.378 74.6624 142.45 74.7578 142.529 74.843C142.041 74.8257 141.541 74.9075 141.085 75.1102C139.575 75.781 139.041 77.4709 139.891 78.8872C140.741 80.3035 142.651 80.9071 144.16 80.2363L159.073 73.6084C160.583 72.9376 161.117 71.2476 160.267 69.8313C159.417 68.415 157.507 67.8114 155.998 68.4822L155.995 68.4769Z" fill="url(#paint4_linear_2438_629)"/>
<g filter="url(#filter1_d_2438_629)">
<path d="M97.2162 126.199C94.7271 122.05 89.1198 120.278 84.6989 122.243C83.1333 122.939 81.9315 124.015 81.1357 125.293C79.4791 123.197 76.4123 122.378 73.9456 123.475C72.3969 124.163 71.4261 125.458 71.1736 126.916C66.365 122.218 58.7236 120.587 52.478 123.363C47.8712 125.411 45.0987 129.374 44.6275 133.76C43.3529 133.443 41.981 133.511 40.7589 134.054C38.0726 135.248 37.1258 138.259 38.6351 140.775C38.9649 141.324 39.3858 141.8 39.8721 142.206C39.6486 142.286 39.4307 142.362 39.2111 142.46C34.7902 144.425 33.2225 149.386 35.7116 153.534C38.2007 157.682 43.8079 159.454 48.2289 157.49L93.9363 137.175L93.93 137.165C98.183 135.134 99.6584 130.281 97.2105 126.201L97.2162 126.199Z" fill="url(#paint5_linear_2438_629)"/>
</g>
<g filter="url(#filter2_bd_2438_629)">
<path d="M120.714 61.3278L52.6351 91.5853C51.373 92.1462 50.9628 93.6226 51.719 94.883L93.3719 164.304C94.1281 165.565 95.7643 166.132 97.0264 165.571L165.106 135.313C166.368 134.752 166.778 133.276 166.022 132.016L124.369 62.5942C123.613 61.3338 121.976 60.7669 120.714 61.3278Z" fill="url(#paint6_linear_2438_629)"/>
</g>
<g filter="url(#filter3_bd_2438_629)">
<path d="M52.0105 95.3688L93.3719 164.305C94.1281 165.565 95.7643 166.132 97.0264 165.571L164.73 135.48L165.022 135.966C165.778 137.226 165.368 138.703 164.106 139.264L96.0264 169.521C94.7643 170.082 93.1281 169.515 92.3719 168.255L50.719 98.8333C49.9628 97.573 50.373 96.0966 51.6351 95.5356L52.0105 95.3688Z" fill="url(#paint7_linear_2438_629)"/>
</g>
<path d="M108.68 83.8039L64.2352 103.524C62.9731 104.085 62.5629 105.561 63.3191 106.821L63.4344 107.014C64.1906 108.274 65.8268 108.841 67.0889 108.28L111.534 88.5602C112.796 87.9992 113.206 86.5228 112.45 85.2625L112.335 85.0703C111.578 83.81 109.942 83.243 108.68 83.8039Z" fill="#ADC8D8"/>
<path d="M52.6351 91.5853L120.714 61.3278C121.976 60.7669 123.613 61.3338 124.369 62.5942L129.341 70.8815L56.6914 103.17L51.719 94.883C50.9628 93.6226 51.373 92.1462 52.6351 91.5853Z" fill="#ADC8D8"/>
<rect width="3.69777" height="3.69777" rx="1" transform="matrix(0.913812 -0.406138 0.514496 0.857493 58.9499 93.7643)" fill="#FFC000"/>
<path d="M124.744 76.2782L115.235 80.5043C113.973 81.0653 113.563 82.5417 114.319 83.802L114.434 83.9942C115.191 85.2545 116.827 85.8215 118.089 85.2605L127.598 81.0344C128.86 80.4734 129.27 78.997 128.514 77.7367L128.399 77.5445C127.642 76.2842 126.006 75.7172 124.744 76.2782Z" fill="#FFC000"/>
<path fill-rule="evenodd" clip-rule="evenodd" d="M144.863 126.127C149.411 124.106 152.637 120.7 154.293 116.702L157.395 117.682C157.673 118.675 158.504 119.547 159.656 119.911L169.779 123.11C171.498 123.653 173.28 122.86 173.761 121.34C174.242 119.819 173.238 118.146 171.519 117.603L161.396 114.404C160.244 114.04 159.063 114.276 158.265 114.929L155.163 113.948C156.106 109.725 155.422 105.084 152.862 100.817C147.17 91.3311 134.362 87.2835 124.253 91.7762C114.145 96.2689 110.564 107.601 116.255 117.086C121.946 126.572 134.755 130.619 144.863 126.127ZM141.693 120.842C148.691 117.732 151.17 109.887 147.23 103.32C143.29 96.7527 134.422 93.9506 127.424 97.0609C120.426 100.171 117.947 108.016 121.887 114.583C125.827 121.15 134.694 123.952 141.693 120.842Z" fill="url(#paint8_linear_2438_629)"/>
<path fill-rule="evenodd" clip-rule="evenodd" d="M145.863 124.127C150.411 122.106 153.637 118.7 155.293 114.702L158.395 115.682C158.673 116.675 159.504 117.547 160.656 117.911L170.779 121.11C172.498 121.653 174.28 120.86 174.761 119.34C175.242 117.819 174.238 116.146 172.519 115.603L162.396 112.404C161.244 112.04 160.063 112.276 159.265 112.929L156.163 111.948C157.106 107.725 156.422 103.084 153.862 98.8167C148.17 89.3311 135.362 85.2835 125.253 89.7762C115.145 94.2689 111.564 105.601 117.255 115.086C122.946 124.572 135.755 128.619 145.863 124.127ZM142.693 118.842C149.691 115.732 152.17 107.887 148.23 101.32C144.29 94.7527 135.422 91.9506 128.424 95.0609C121.426 98.1713 118.947 106.016 122.887 112.583C126.827 119.15 135.694 121.952 142.693 118.842Z" fill="#F3F7FA"/>
<defs>
<filter id="filter0_d_2438_629" x="14.5288" y="38.2625" width="166.142" height="151.029" filterUnits="userSpaceOnUse" color-interpolation-filters="sRGB">
<feFlood flood-opacity="0" result="BackgroundImageFix"/>
<feColorMatrix in="SourceAlpha" type="matrix" values="0 0 0 0 0 0 0 0 0 0 0 0 0 0 0 0 0 0 127 0" result="hardAlpha"/>
<feOffset dy="10"/>
<feGaussianBlur stdDeviation="10"/>
<feComposite in2="hardAlpha" operator="out"/>
<feColorMatrix type="matrix" values="0 0 0 0 0.35 0 0 0 0 0.54 0 0 0 0 0.65 0 0 0 0.05 0"/>
<feBlend mode="normal" in2="BackgroundImageFix" result="effect1_dropShadow_2438_629"/>
<feBlend mode="normal" in="SourceGraphic" in2="effect1_dropShadow_2438_629" result="shape"/>
</filter>
<filter id="filter1_d_2438_629" x="14.5288" y="111.442" width="103.865" height="76.8495" filterUnits="userSpaceOnUse" color-interpolation-filters="sRGB">
<feFlood flood-opacity="0" result="BackgroundImageFix"/>
<feColorMatrix in="SourceAlpha" type="matrix" values="0 0 0 0 0 0 0 0 0 0 0 0 0 0 0 0 0 0 127 0" result="hardAlpha"/>
<feOffset dy="10"/>
<feGaussianBlur stdDeviation="10"/>
<feComposite in2="hardAlpha" operator="out"/>
<feColorMatrix type="matrix" values="0 0 0 0 0.35 0 0 0 0 0.54 0 0 0 0 0.65 0 0 0 0.05 0"/>
<feBlend mode="normal" in2="BackgroundImageFix" result="effect1_dropShadow_2438_629"/>
<feBlend mode="normal" in="SourceGraphic" in2="effect1_dropShadow_2438_629" result="shape"/>
</filter>
<filter id="filter2_bd_2438_629" x="31.3398" y="51.1113" width="155.061" height="144.676" filterUnits="userSpaceOnUse" color-interpolation-filters="sRGB">
<feFlood flood-opacity="0" result="BackgroundImageFix"/>
<feGaussianBlur in="BackgroundImageFix" stdDeviation="2"/>
<feComposite in2="SourceAlpha" operator="in" result="effect1_backgroundBlur_2438_629"/>
<feColorMatrix in="SourceAlpha" type="matrix" values="0 0 0 0 0 0 0 0 0 0 0 0 0 0 0 0 0 0 127 0" result="hardAlpha"/>
<feOffset dy="10"/>
<feGaussianBlur stdDeviation="10"/>
<feComposite in2="hardAlpha" operator="out"/>
<feColorMatrix type="matrix" values="0 0 0 0 0.35 0 0 0 0 0.54 0 0 0 0 0.65 0 0 0 0.05 0"/>
<feBlend mode="normal" in2="effect1_backgroundBlur_2438_629" result="effect2_dropShadow_2438_629"/>
<feBlend mode="normal" in="SourceGraphic" in2="effect2_dropShadow_2438_629" result="shape"/>
</filter>
<filter id="filter3_bd_2438_629" x="30.3398" y="85.3688" width="155.061" height="114.369" filterUnits="userSpaceOnUse" color-interpolation-filters="sRGB">
<feFlood flood-opacity="0" result="BackgroundImageFix"/>
<feGaussianBlur in="BackgroundImageFix" stdDeviation="2"/>
<feComposite in2="SourceAlpha" operator="in" result="effect1_backgroundBlur_2438_629"/>
<feColorMatrix in="SourceAlpha" type="matrix" values="0 0 0 0 0 0 0 0 0 0 0 0 0 0 0 0 0 0 127 0" result="hardAlpha"/>
<feOffset dy="10"/>
<feGaussianBlur stdDeviation="10"/>
<feComposite in2="hardAlpha" operator="out"/>
<feColorMatrix type="matrix" values="0 0 0 0 0.35 0 0 0 0 0.54 0 0 0 0 0.65 0 0 0 0.05 0"/>
<feBlend mode="normal" in2="effect1_backgroundBlur_2438_629" result="effect2_dropShadow_2438_629"/>
<feBlend mode="normal" in="SourceGraphic" in2="effect2_dropShadow_2438_629" result="shape"/>
</filter>
<linearGradient id="paint0_linear_2438_629" x1="160.111" y1="103.67" x2="35.7248" y2="103.67" gradientUnits="userSpaceOnUse">
<stop stop-color="#ADC8D8"/>
<stop offset="1" stop-color="#DFEAF1"/>
</linearGradient>
<linearGradient id="paint1_linear_2438_629" x1="160.111" y1="103.67" x2="35.7248" y2="103.67" gradientUnits="userSpaceOnUse">
<stop stop-color="#ADC8D8"/>
<stop offset="1" stop-color="#DFEAF1"/>
</linearGradient>
<linearGradient id="paint2_linear_2438_629" x1="160.111" y1="103.67" x2="35.7248" y2="103.67" gradientUnits="userSpaceOnUse">
<stop stop-color="#ADC8D8"/>
<stop offset="1" stop-color="#DFEAF1"/>
</linearGradient>
<linearGradient id="paint3_linear_2438_629" x1="102.092" y1="48.3826" x2="113.724" y2="75.3406" gradientUnits="userSpaceOnUse">
<stop stop-color="#F6F9FA"/>
<stop offset="1" stop-color="#E3EDF2"/>
</linearGradient>
<linearGradient id="paint4_linear_2438_629" x1="146.219" y1="67.7542" x2="150.334" y2="77.3939" gradientUnits="userSpaceOnUse">
<stop stop-color="#F6F9FA"/>
<stop offset="1" stop-color="#E3EDF2"/>
</linearGradient>
<linearGradient id="paint5_linear_2438_629" x1="55.9482" y1="121.821" x2="67.4483" y2="148.678" gradientUnits="userSpaceOnUse">
<stop stop-color="#F6F9FA"/>
<stop offset="1" stop-color="#E3EDF2"/>
</linearGradient>
<linearGradient id="paint6_linear_2438_629" x1="86.9653" y1="76.3274" x2="118.747" y2="154.82" gradientUnits="userSpaceOnUse">
<stop stop-color="#F6F9FA"/>
<stop offset="1" stop-color="#E3EDF2"/>
</linearGradient>
<linearGradient id="paint7_linear_2438_629" x1="164.89" y1="132.482" x2="51.4308" y2="132.482" gradientUnits="userSpaceOnUse">
<stop stop-color="#ADC8D8"/>
<stop offset="1" stop-color="#DFEAF1"/>
</linearGradient>
<linearGradient id="paint8_linear_2438_629" x1="162.384" y1="101.052" x2="121.782" y2="125.414" gradientUnits="userSpaceOnUse">
<stop stop-color="#ADC8D8"/>
<stop offset="1" stop-color="#DFEAF1"/>
</linearGradient>
</defs>
</svg>
