<svg viewBox="0 0 201 201" xmlns="http://www.w3.org/2000/svg">
<path d="M101.31 66.0253C101.886 67.6962 103.346 69.1175 104.556 69.2135C105.766 69.3096 106.285 68.0227 105.689 66.3518C105.094 64.6808 103.653 63.2595 102.443 63.1635C101.233 63.0675 100.715 64.3543 101.31 66.0253Z" fill="#6B89F6"/>
<path d="M59.7131 31.9095C61.288 36.4231 65.2445 40.2836 68.5288 40.514C71.8132 40.7445 73.196 37.2874 71.6211 32.7738C70.0462 28.2603 66.0896 24.3998 62.8053 24.1693C59.521 23.9389 58.1381 27.396 59.7131 31.9095Z" fill="#FFC000"/>
<path d="M44.5557 56.9106C47.5711 58.6584 50.0103 62.8838 50.0103 66.3602C50.0103 69.8365 47.5519 71.2386 44.5173 69.4908C41.5019 67.743 39.0626 63.5176 39.0626 60.0412C39.0626 56.5649 41.5211 55.1628 44.5557 56.9106Z" fill="#E0E7EB"/>
<path d="M41.942 151.924V161.321C41.942 162.221 42.6791 162.954 43.5755 162.954H129.881C130.782 162.954 131.514 162.221 131.514 161.321V151.924H41.9465H41.942Z" fill="url(#paint0_linear_2438_810)"/>
<path d="M131.51 100.037C131.51 99.141 130.777 98.4038 129.876 98.4038H43.5709C42.6745 98.4038 41.9374 99.1364 41.9374 100.037V151.924H131.51V100.037Z" fill="url(#paint1_linear_2438_810)"/>
<path d="M102.32 162.954H71.5096V172.414H102.32V162.954Z" fill="url(#paint2_linear_2438_810)"/>
<path d="M109.3 172.414H64.1063V176.841H109.3V172.414Z" fill="url(#paint3_linear_2438_810)"/>
<path d="M102.32 162.954H71.5096V166.371H102.32V162.954Z" fill="#ADC8D8"/>
<path d="M126.896 103.063H46.5695V147.137H126.896V103.063Z" fill="url(#paint4_linear_2438_810)"/>
<path d="M78.2122 111.709L72.6245 117.301L67.0322 111.709L64.798 113.948L70.3857 119.535L64.798 125.123L67.0322 127.362L72.6245 121.77L78.2122 127.362L80.4464 125.123L74.8586 119.535L80.4464 113.948L78.2122 111.709Z" fill="#98BACD"/>
<path d="M108.654 113.948L106.419 111.709L100.827 117.301L95.2394 111.709L93.0052 113.948L98.5929 119.535L93.0052 125.123L95.2394 127.362L100.827 121.77L106.419 127.362L108.654 125.123L103.066 119.535L108.654 113.948Z" fill="#98BACD"/>
<path d="M98.7022 141.017C86.8714 132.849 74.8905 140.935 74.7722 141.017L73.2206 138.769C73.3571 138.674 86.8942 129.541 100.254 138.769L98.7022 141.017Z" fill="#98BACD"/>
<path d="M160.117 79.1334H119.62C118.614 79.1334 117.8 79.9479 117.8 80.9535V107.109C117.8 108.114 118.614 108.929 119.62 108.929H124.307L119.693 117.674L135.264 108.929H160.117C161.123 108.929 161.937 108.114 161.937 107.109V80.9535C161.937 79.9479 161.123 79.1334 160.117 79.1334Z" fill="url(#paint5_linear_2438_810)"/>
<defs>
<linearGradient id="paint0_linear_2438_810" x1="87.0864" y1="151.924" x2="87.0442" y2="162.882" gradientUnits="userSpaceOnUse">
<stop stop-color="#F6F9FA"/>
<stop offset="1" stop-color="#E3EDF2"/>
</linearGradient>
<linearGradient id="paint1_linear_2438_810" x1="87.0818" y1="98.4038" x2="86.0894" y2="151.557" gradientUnits="userSpaceOnUse">
<stop stop-color="#F6F9FA"/>
<stop offset="1" stop-color="#E3EDF2"/>
</linearGradient>
<linearGradient id="paint2_linear_2438_810" x1="86.9922" y1="163.027" x2="86.9779" y2="172.323" gradientUnits="userSpaceOnUse">
<stop stop-color="#ADC8D8"/>
<stop offset="1" stop-color="#DFEAF1"/>
</linearGradient>
<linearGradient id="paint3_linear_2438_810" x1="86.8838" y1="172.414" x2="86.8703" y2="176.813" gradientUnits="userSpaceOnUse">
<stop stop-color="#F6F9FA"/>
<stop offset="1" stop-color="#E3EDF2"/>
</linearGradient>
<linearGradient id="paint4_linear_2438_810" x1="88.6604" y1="147.137" x2="100.688" y2="107.267" gradientUnits="userSpaceOnUse">
<stop stop-color="#E3EDF2"/>
<stop offset="1" stop-color="#DBE6EC"/>
</linearGradient>
<linearGradient id="paint5_linear_2438_810" x1="140.928" y1="117.674" x2="155.768" y2="86.7617" gradientUnits="userSpaceOnUse">
<stop stop-color="#E3EDF2"/>
<stop offset="1" stop-color="#DBE6EC"/>
</linearGradient>
</defs>
</svg>
