<svg viewBox="0 0 180 180" xmlns="http://www.w3.org/2000/svg">
<path d="M52.4829 111.565C49.2523 118.263 57.364 120.036 64.2867 118.466L65.7515 112.088C62.6747 109.123 55.7135 104.867 52.4829 111.565Z" fill="#C2950E"/>
<mask id="mask0_5582_28579" style="mask-type:alpha" maskUnits="userSpaceOnUse" x="29" y="29" width="123" height="122">
<circle cx="90.7515" cy="90" r="61" fill="#D9D9D9"/>
</mask>
<g mask="url(#mask0_5582_28579)">
<path d="M129.589 141.384C132.09 140.886 133.797 138.56 133.522 136.024L131.614 118.697C131.124 114.187 127.732 111.032 123.282 111.919C118.8 112.813 116.69 116.666 118.025 121.038L123.917 137.994C124.656 140.413 127.108 141.879 129.589 141.384Z" fill="#ECC2A7"/>
</g>
<path d="M53.6105 117.127C51.7192 115.416 51.4478 112.543 52.9851 110.508L63.5127 96.6145C66.2472 92.994 70.7774 92.027 74.1416 95.0713C77.531 98.1384 77.3644 102.528 73.9753 105.596L60.2188 117.127C58.3431 118.824 55.4863 118.824 53.6105 117.127Z" fill="#ECC2A7"/>
<path d="M123.568 91.8869C131.306 93.8348 128.751 111.124 132.661 119.629C134.576 123.793 117.397 126.062 117.397 126.062C117.397 126.062 115.761 114.47 110.83 105.809C105.555 96.5443 115.276 89.7702 123.568 91.8869Z" fill="url(#paint0_linear_5582_28579)"/>
<path d="M70.4586 91.5602C62.7785 90.2429 48.215 107.307 55.5125 108.441C65.2378 109.953 61.2472 119.075 61.2472 119.075C61.2472 119.075 64.6677 123.065 79.117 106.131C84.6878 99.6015 78.6957 92.9506 70.4586 91.5602Z" fill="url(#paint1_linear_5582_28579)"/>
<path d="M55.7003 117.984C54.68 118.139 53.5551 118.009 52.4713 117.545C50.5281 116.796 43.3521 117.13 50.963 105.768C56.4575 97.5651 59.575 90.3387 60.8839 86.9541C61.4051 85.6065 62.0252 84.1162 63.454 83.9016C64.4108 83.7578 65.6203 83.8753 66.8407 84.3584C69.0617 85.2375 68.8275 87.176 68.4494 88.5367C68.3516 88.8883 68.2178 89.2261 68.0651 89.5576C64.8493 96.5414 61.9667 108.449 61.1121 110.608C59.9544 113.532 58.8003 117.514 55.7003 117.984Z" fill="#ECC2A7"/>
<mask id="mask1_5582_28579" style="mask-type:alpha" maskUnits="userSpaceOnUse" x="29" y="29" width="123" height="122">
<path d="M151.751 90C151.751 123.689 124.441 151 90.7515 151C57.0621 151 29.7515 123.689 29.7515 90C29.7515 56.3106 57.0621 29 90.7515 29C124.441 29 151.751 56.3106 151.751 90Z" fill="#D9D9D9"/>
</mask>
<g mask="url(#mask1_5582_28579)">
<path d="M121.667 90.2378C113.837 87.7666 105.14 84.8061 95.5904 84.5778C86.0403 84.8061 77.3433 87.7666 69.5138 90.2378C67.8593 90.7754 67.5114 93.5507 68.6716 94.8469C70.8602 97.292 73.1504 101.425 73.1504 108.013C74.5933 143.015 72.8213 155.613 71.9181 162.034L71.918 162.035C71.8747 162.343 71.8334 162.636 71.7945 162.918C71.4841 165.165 72.7843 167.243 74.9144 168.024C81.557 170.463 85.6553 171.346 95.5904 171.333C105.525 171.346 109.624 170.463 116.266 168.024C118.396 167.242 119.697 165.165 119.386 162.918C119.347 162.636 119.306 162.342 119.263 162.034C118.359 155.613 116.587 143.015 118.03 108.013C118.03 101.425 120.321 97.292 122.509 94.8469C123.669 93.5507 123.321 90.7754 121.667 90.2378Z" fill="url(#paint2_linear_5582_28579)"/>
</g>
<path d="M84.7541 87.3526C83.6227 89.2814 85.1781 103.807 89.5123 103.557C96.9423 103.13 105.924 88.1919 105.806 86.1402C105.688 84.0885 100.879 82.6966 95.066 83.0314C89.2527 83.3662 84.6359 85.3008 84.7541 87.3526Z" fill="white"/>
<path d="M94.4036 69.4031C94.3186 69.408 94.2341 69.4144 94.15 69.4225C94.0655 69.4242 93.9809 69.4274 93.8959 69.4323C90.113 69.6502 86.8408 70.577 87.4893 74.0013C88.7919 79.3344 89.2362 82.3669 89.1278 84.2477C87.8136 84.8112 87.0305 85.5098 87.0717 86.2255C86.1972 87.6426 87.1003 99.6766 90.4357 99.4846C96.1534 99.1553 103.359 86.7972 103.272 85.2926C103.229 84.5474 102.301 83.9233 100.831 83.5145C100.519 81.6528 100.618 78.5967 101.292 73.2064C101.543 69.7303 98.1865 69.1852 94.4036 69.4031Z" fill="url(#paint3_linear_5582_28579)"/>
<path d="M105.27 59.1682C105.401 58.2997 105.538 57.3979 105.685 56.4604C107.269 46.4102 99.1619 38.2484 90.0273 41.5958C86.109 43.045 82.6768 44.3822 81.2892 48.3812C80.5171 58.5557 80.517 58.5557 80.5171 62.5615C80.5171 66.5674 81.6988 70.3399 82.9921 75.4255C82.9921 76.8681 83.1521 80.8433 88.5932 81.4806C94.0342 82.118 95.496 82.0185 98.9527 77.4404C100.656 75.1843 103.275 72.238 103.275 72.238C103.4 72.2277 104.76 72.2024 105.105 71.7415C106.35 70.0816 105.754 69.4243 108.17 66.5674C109.71 64.7472 109.855 61.833 106.965 60.9582C106.306 60.7858 106.307 60.4206 105.649 60.6615C106.927 59.0982 105.169 59.8297 105.27 59.1682Z" fill="url(#paint4_linear_5582_28579)"/>
<path d="M102.409 53.9775C102.121 51.6884 99.1013 50.4601 95.7922 50.8804C94.728 51.0156 93.552 51.165 92.3018 51.2603C88.5395 51.5029 85.4162 50.6587 83.183 49.2205C83.183 49.2205 79.9411 49.2205 81.0933 58.5556C79.9411 56.2665 78.2127 51.2603 81.0052 47.3131C78.0944 43.7899 78.8659 38.7615 85.1276 35.7777C85.0279 38.7657 90.3713 38.9672 95.7727 39.1709C98.6145 39.2781 101.472 39.3859 103.562 39.9004C109.624 41.3928 113.502 45.3935 113.502 52.9042C113.502 56.2665 108.747 61.9892 108.747 61.9892C106.533 61.9892 103.548 62.9688 102.62 60.9586C102.342 60.3549 102.195 59.641 102.259 58.9683C102.431 57.1822 102.558 55.1583 102.409 53.9775Z" fill="#171A2A"/>
<path d="M46.7515 110C49.0217 108.314 57.7244 85.0465 60.7515 81" stroke="#838383"/>
<path d="M66.1765 86.3285C65.2757 86.4587 64.7317 85.8297 64.7317 85.8297C64.7317 85.8297 62.6302 86.1665 61.2709 84.2029C61.0065 83.8189 60.8686 83.2725 60.9003 82.6638C61.034 80.147 64.0628 76.5423 73.0359 78.868C73.1632 80.1671 71.5798 80.6782 72.2176 82.4876C72.5316 83.3735 72.6829 84.4166 72.4678 85.2148C72.2469 86.0433 71.6275 86.6064 70.3741 86.4514C68.077 87.6615 66.8839 86.8898 66.1765 86.3285Z" fill="#E0B498"/>
<path d="M62.0595 84.8273C61.7883 84.8349 61.5534 84.8176 61.4996 84.8173C61.3564 84.8205 59.9445 84.181 59.4993 82.6705C59.0544 81.1629 59.4249 78.8243 59.9519 77.7249C60.4825 76.6281 60.9569 76.3936 61.4904 76.2928C61.511 76.2907 61.5284 76.2859 61.5489 76.2807C62.072 76.1662 62.7413 75.7681 63.5239 75.0803C63.5239 75.0803 64.1491 74.8865 62.7322 77.9046C61.3186 80.9253 62.4968 83.2986 63.0397 84.3722C63.1137 84.7348 62.5336 84.8164 62.0595 84.8273Z" fill="#ECC2A7"/>
<path d="M63.5718 84.9134C63.5715 84.9105 63.5685 84.9108 63.5685 84.9108C63.291 84.8294 63.0872 84.7376 63.0444 84.7002C62.8727 84.545 61.9752 83.2254 61.8729 81.0228C61.7705 78.8201 63.3619 76.3832 63.4297 74.9772C63.4297 74.9772 63.9393 74.8222 64.5295 74.7484C64.5324 74.7481 64.5324 74.7481 64.5354 74.7478C64.9744 74.9733 66.2186 74.6997 66.8335 73.7491C66.8335 73.7491 67.2679 74.2166 65.8882 77.4189C64.5053 80.6185 65.3745 81.3835 65.6941 83.6349C65.9373 85.3276 64.4138 85.1621 63.5718 84.9134Z" fill="#ECC2A7"/>
<path d="M66.3594 84.3378C66.1194 84.3002 65.9477 84.2318 65.867 84.1746C65.6187 84.0007 64.9447 82.6188 64.8862 80.692C64.835 79.0626 66.519 75.6288 66.8329 73.7494C66.8329 73.7494 66.9452 73.7079 67.12 73.6656C67.3997 73.5976 67.8347 73.528 68.206 73.6203C68.6183 74.2752 70.1746 75.2097 71.0975 74.6058C71.05 74.6943 70.2781 76.1117 69.398 78.6917C68.4881 81.3585 69.7699 83.351 68.4635 83.974C67.5931 84.3902 66.8372 84.419 66.3594 84.3378Z" fill="#ECC2A7"/>
<path d="M68.7268 83.633C68.0484 81.7801 68.4127 79.4391 69.1208 77.5573C69.669 76.1158 70.4189 74.9452 71.0569 74.4758C71.0569 74.4758 72.3016 74.6049 72.7315 75.1712C74.0468 80.7338 71.7884 82.2533 71.2093 82.8867C70.9035 83.22 70.4143 83.513 69.9217 83.6601C69.4878 83.792 69.0467 83.8053 68.7268 83.633Z" fill="#E3BAA0"/>
<g style="mix-blend-mode:darken">
<path d="M66.3596 84.3378C66.1196 84.3003 65.9479 84.2318 65.8672 84.1746C65.6189 84.0007 64.9449 82.6188 64.8864 80.692C64.8352 79.0626 66.5192 75.6288 66.8331 73.7494C66.8331 73.7494 66.9454 73.7079 67.1202 73.6656C68.3751 75.9443 64.0096 79.0001 65.8136 82.5815C65.7121 83.1497 65.9682 83.8836 66.3596 84.3378Z" fill="black" fill-opacity="0.04"/>
</g>
<g style="mix-blend-mode:darken">
<path d="M63.5683 84.9108C63.2908 84.8294 63.0871 84.7376 63.0442 84.7002C62.8726 84.5451 61.9751 83.2254 61.8727 81.0228C61.7703 78.8201 63.3618 76.3832 63.4295 74.9772C63.4295 74.9772 63.9392 74.8222 64.5293 74.7485C64.5569 76.4935 62.5474 78.8489 62.7612 80.8878C62.9863 83.0357 63.4429 83.4562 63.4429 83.4562C63.4429 83.4562 62.7798 84.0866 63.5683 84.9108Z" fill="black" fill-opacity="0.04"/>
</g>
<g style="mix-blend-mode:darken">
<path d="M62.0595 84.8273C61.7883 84.8349 61.5534 84.8176 61.4996 84.8173C61.3564 84.8205 59.9445 84.181 59.4993 82.6705C59.0544 81.163 59.4249 78.8243 59.9519 77.7249C60.4824 76.6281 60.9569 76.3936 61.4904 76.2928C61.511 76.2907 61.5284 76.2859 61.5489 76.2807C61.7658 76.4966 61.8642 76.895 61.5012 77.6222C60.699 79.2335 59.0142 80.9524 60.9214 83.2373C60.7123 83.9484 61.3698 84.5476 62.0595 84.8273Z" fill="black" fill-opacity="0.04"/>
</g>
<path d="M69.9221 83.66C69.2183 82.4482 70.4502 82.0834 70.333 80.9651C70.204 79.7348 71.7914 78.8852 72.2558 77.5838C72.7196 76.2793 71.7924 75.3296 71.7067 75.3386C71.621 75.3476 71.3902 75.3121 71.3902 75.3121C71.3902 75.3121 70.9263 75.5336 69.1213 77.5575C69.6695 76.116 70.4194 74.9454 71.0574 74.476C71.0574 74.476 72.3021 74.6051 72.732 75.1714C74.0473 80.734 71.7889 82.2535 71.2098 82.8869C70.904 83.22 70.4147 83.5128 69.9221 83.66Z" fill="#ECC2A7"/>
<path d="M71.0528 86.0721C71.0528 86.0721 67.6917 85.8815 66.4648 85.2674C65.238 84.6534 65.3502 83.5289 65.8816 83.0109C66.4159 82.4926 67.5246 82.3494 68.4706 82.4501C69.4165 82.5509 72.0779 81.8259 72.0779 81.8259C72.455 82.4874 72.1696 82.7574 72.3391 83.0349L72.3424 83.0376C72.4935 83.2813 72.5714 83.5982 72.5815 84.3787C72.5901 85.031 72.36 85.4309 72.0779 85.6753C71.6318 86.0651 71.0528 86.0721 71.0528 86.0721Z" fill="#E3BAA0"/>
<path d="M67.856 85.1424C66.9006 85.2069 66.2242 85.1703 65.8012 84.3288C65.3782 83.4873 66.1095 82.8498 66.8099 82.7764C67.5134 82.7026 68.2292 82.9736 68.2292 82.9736C68.213 83.0172 68.1964 83.0605 68.1831 83.1038C67.9001 83.8821 67.8398 84.3628 67.8527 84.9401C67.8506 85.0057 67.8548 85.0739 67.856 85.1424Z" fill="#F1D5C3"/>
<path d="M71.1418 82.5979C71.5365 82.9899 71.7425 83.5733 71.7066 84.1402C71.6726 84.7073 71.3963 85.2614 70.9559 85.602C71.1319 85.3882 71.2779 85.1567 71.3795 84.908C71.4796 84.6592 71.5431 84.397 71.5583 84.131C71.5941 83.5978 71.4423 83.062 71.1418 82.5979Z" fill="#DCA480"/>
<path d="M67.2788 82.6417C66.9553 82.7314 66.6134 82.7398 66.2805 82.6995C65.9483 82.654 65.6198 82.5588 65.3303 82.389C65.6599 82.4489 65.9766 82.5129 66.2997 82.5525C66.622 82.5969 66.9448 82.6159 67.2788 82.6417Z" fill="#DCA480"/>
<path d="M64.4069 83.3552C64.1702 83.469 63.9013 83.4972 63.6422 83.4843C63.5122 83.4746 63.3825 83.4569 63.2571 83.4199C63.1319 83.3841 63.0077 83.3377 62.8997 83.2626C63.157 83.2978 63.402 83.322 63.6515 83.3365C63.9008 83.3538 64.1461 83.3556 64.4069 83.3552Z" fill="#DCA480"/>
<path d="M61.6992 83.2742C61.5491 83.3353 61.3866 83.3587 61.2261 83.3687C61.0648 83.3803 60.9036 83.37 60.7438 83.3522C60.5846 83.3305 60.4259 83.3011 60.2725 83.2502C60.1206 83.1998 59.9644 83.1396 59.8424 83.0311C59.9933 83.0848 60.1456 83.1128 60.2997 83.1394C60.4541 83.163 60.6076 83.1876 60.7626 83.2052C61.0722 83.2434 61.379 83.2758 61.6992 83.2742Z" fill="#DCA480"/>
<path d="M71.1453 81.1318C70.7966 81.2541 70.4069 81.2685 70.0416 81.1917C69.8588 81.1528 69.679 81.0971 69.5114 81.0151C69.3435 80.9351 69.1821 80.8395 69.0458 80.7133C69.3834 80.8604 69.7217 80.9769 70.0718 81.0465C70.2458 81.085 70.4226 81.1076 70.601 81.1216C70.78 81.1397 70.9596 81.1309 71.1453 81.1318Z" fill="#DCA480"/>
<path d="M71.1334 80.2001C70.9665 80.1444 70.806 80.0908 70.6399 80.0538C70.4734 80.02 70.3083 79.9859 70.1395 79.967C69.8028 79.9229 69.4633 79.9063 69.114 79.8899C69.2822 79.8375 69.457 79.8151 69.6319 79.8031C69.8072 79.7902 69.9835 79.7997 70.1586 79.8197C70.5062 79.867 70.8582 79.9795 71.1334 80.2001Z" fill="#DCA480"/>
<path opacity="0.35" d="M65.5151 85.3778C65.6298 85.516 65.7158 85.6548 65.8105 85.7885C65.9035 85.924 65.9952 86.0527 66.106 86.1916C66.0158 86.1734 65.9386 86.1232 65.8687 86.0683C65.7974 86.0133 65.7402 85.9443 65.6882 85.8724C65.6394 85.7984 65.5962 85.7208 65.5684 85.6368C65.5389 85.5539 65.518 85.468 65.5151 85.3778Z" fill="#DCA480"/>
<path opacity="0.68" d="M67.8527 84.9398C67.5354 84.5079 67.334 83.6966 68.1831 83.1035C67.9002 83.882 67.8398 84.3625 67.8527 84.9398Z" fill="#F9F9F9"/>
<path d="M91.7515 102C91.7515 102 75.1413 82.6667 71.7515 82" stroke="#838383"/>
<g filter="url(#filter0_d_5582_28579)">
<rect x="43.8979" y="110.256" width="50.8333" height="23.0444" rx="2" transform="rotate(-11.5979 43.8979 110.256)" fill="white"/>
</g>
<rect x="46.0888" y="111.701" width="47.1222" height="19.3333" rx="1.5" transform="rotate(-11.5979 46.0888 111.701)" stroke="#838383"/>
<path d="M58.4376 118.355L55.7376 118.91L55.3732 117.134C55.2672 116.617 55.1714 116.302 55.0857 116.189C55.0034 116.07 54.8639 116.031 54.6672 116.071C54.4449 116.117 54.3198 116.223 54.2918 116.391C54.2638 116.559 54.3028 116.901 54.4088 117.417L55.3806 122.152C55.4823 122.648 55.5785 122.965 55.6694 123.104C55.7603 123.243 55.9105 123.29 56.12 123.247C56.3209 123.206 56.4358 123.104 56.4647 122.94C56.4978 122.776 56.457 122.415 56.3425 121.857L56.0801 120.578L58.7801 120.024L58.8615 120.421C59.0778 121.475 59.1542 122.238 59.0907 122.71C59.0315 123.181 58.7752 123.637 58.3216 124.075C57.8723 124.513 57.2672 124.81 56.5061 124.966C55.7152 125.129 55.0343 125.122 54.4635 124.946C53.8927 124.77 53.4731 124.451 53.2047 123.99C52.9355 123.525 52.6983 122.793 52.4932 121.793L51.882 118.815C51.7312 118.08 51.644 117.525 51.6203 117.149C51.5958 116.769 51.6748 116.383 51.8573 115.992C52.044 115.599 52.342 115.26 52.7513 114.975C53.164 114.684 53.6633 114.479 54.249 114.359C55.0442 114.196 55.7315 114.212 56.3109 114.408C56.8903 114.604 57.3077 114.912 57.5632 115.332C57.8179 115.748 58.043 116.433 58.2386 117.386L58.4376 118.355Z" fill="#746F6F"/>
<path d="M61.1936 113.157L62.8672 121.311L64.509 120.975L64.9277 123.015L60.5859 123.906L58.4936 113.711L61.1936 113.157Z" fill="#746F6F"/>
<path d="M70.6854 117.43C70.8956 118.454 71.019 119.186 71.0556 119.624C71.0956 120.058 71.0214 120.478 70.8329 120.884C70.6488 121.289 70.3559 121.632 69.9543 121.911C69.5527 122.19 69.059 122.39 68.4733 122.51C67.9174 122.624 67.3991 122.639 66.9183 122.554C66.4409 122.464 66.0309 122.268 65.6883 121.966C65.3457 121.665 65.1056 121.309 64.9682 120.9C64.8307 120.491 64.6543 119.761 64.4389 118.712L64.0809 116.968C63.8707 115.943 63.7456 115.214 63.7056 114.781C63.669 114.342 63.7428 113.92 63.927 113.515C64.1154 113.108 64.4104 112.766 64.812 112.486C65.2136 112.207 65.7073 112.007 66.2931 111.887C66.8489 111.773 67.3655 111.761 67.8429 111.851C68.3238 111.936 68.7355 112.13 69.0781 112.431C69.4207 112.733 69.6607 113.088 69.7981 113.497C69.9356 113.907 70.112 114.636 70.3274 115.686L70.6854 117.43ZM67.2979 114.634C67.2005 114.16 67.1107 113.863 67.0284 113.744C66.9496 113.62 66.8267 113.576 66.66 113.61C66.5189 113.639 66.4211 113.716 66.3665 113.841C66.3154 113.961 66.3437 114.283 66.4513 114.808L67.4284 119.568C67.5498 120.16 67.6483 120.521 67.7238 120.649C67.8035 120.777 67.9332 120.823 68.1127 120.786C68.2966 120.748 68.3978 120.645 68.4164 120.474C68.4349 120.304 68.3826 119.919 68.2594 119.319L67.2979 114.634Z" fill="#746F6F"/>
<path d="M76.8274 113.164L74.3198 113.678L74.1648 112.923C74.0924 112.57 74.0142 112.352 73.9303 112.269C73.8463 112.185 73.7295 112.159 73.5799 112.19C73.4174 112.223 73.3068 112.314 73.248 112.461C73.1935 112.608 73.1933 112.814 73.2476 113.078C73.3174 113.418 73.417 113.665 73.5464 113.817C73.6715 113.971 73.9685 114.127 74.4375 114.284C75.7828 114.739 76.6576 115.159 77.0619 115.544C77.4662 115.929 77.7708 116.621 77.9759 117.62C78.125 118.346 78.1472 118.9 78.0425 119.28C77.9421 119.659 77.6681 120.017 77.2204 120.354C76.7718 120.687 76.2183 120.921 75.5599 121.056C74.8373 121.204 74.1919 121.197 73.6238 121.033C73.0598 120.869 72.6561 120.595 72.4126 120.212C72.1691 119.829 71.969 119.255 71.8122 118.491L71.6752 117.824L74.1828 117.309L74.4374 118.55C74.5158 118.932 74.6004 119.17 74.6912 119.265C74.7863 119.36 74.9236 119.388 75.1032 119.351C75.2827 119.315 75.4011 119.218 75.4581 119.062C75.5195 118.905 75.5222 118.69 75.4662 118.417C75.343 117.817 75.179 117.442 74.9744 117.291C74.7655 117.141 74.281 116.919 73.521 116.625C72.7602 116.326 72.2505 116.1 71.9919 115.948C71.7334 115.795 71.4957 115.56 71.2788 115.241C71.0662 114.921 70.9043 114.491 70.7932 113.949C70.6329 113.169 70.6162 112.577 70.7431 112.175C70.8742 111.772 71.1457 111.423 71.5575 111.128C71.9685 110.83 72.4947 110.614 73.136 110.483C73.8372 110.339 74.4564 110.328 74.9938 110.449C75.5354 110.57 75.9202 110.784 76.1482 111.092C76.3796 111.394 76.5784 111.951 76.7447 112.761L76.8274 113.164Z" fill="#746F6F"/>
<path d="M77.2716 109.857L81.7737 108.933L82.1924 110.973L80.3903 111.343L80.787 113.276L82.4737 112.93L82.8718 114.87L81.1851 115.216L81.6451 117.458L83.6268 117.051L84.0456 119.091L79.3639 120.052L77.2716 109.857Z" fill="#746F6F"/>
<path d="M82.7357 108.736L84.7558 108.321C86.0599 108.053 86.9527 107.932 87.4343 107.955C87.9202 107.978 88.3104 108.099 88.6049 108.319C88.8995 108.538 89.1108 108.808 89.2387 109.127C89.3657 109.442 89.5283 110.082 89.7265 111.048L90.4593 114.618C90.6471 115.534 90.728 116.156 90.702 116.485C90.6793 116.809 90.5771 117.081 90.3952 117.302C90.2125 117.519 89.9681 117.696 89.6621 117.833C89.3552 117.966 88.879 118.099 88.2334 118.232L84.828 118.931L82.7357 108.736ZM85.7936 109.926L87.17 116.632C87.559 116.552 87.783 116.428 87.8417 116.258C87.8996 116.084 87.8588 115.657 87.7192 114.977L86.9063 111.017C86.8116 110.555 86.7359 110.262 86.6792 110.138C86.6226 110.014 86.5348 109.933 86.4158 109.897C86.296 109.856 86.0886 109.865 85.7936 109.926Z" fill="#746F6F"/>
<defs>
<filter id="filter0_d_5582_28579" x="43.2588" y="99.3973" width="57.7065" height="36.0718" filterUnits="userSpaceOnUse" color-interpolation-filters="sRGB">
<feFlood flood-opacity="0" result="BackgroundImageFix"/>
<feColorMatrix in="SourceAlpha" type="matrix" values="0 0 0 0 0 0 0 0 0 0 0 0 0 0 0 0 0 0 127 0" result="hardAlpha"/>
<feOffset dx="1" dy="1"/>
<feGaussianBlur stdDeviation="1"/>
<feComposite in2="hardAlpha" operator="out"/>
<feColorMatrix type="matrix" values="0 0 0 0 0 0 0 0 0 0 0 0 0 0 0 0 0 0 0.25 0"/>
<feBlend mode="normal" in2="BackgroundImageFix" result="effect1_dropShadow_5582_28579"/>
<feBlend mode="normal" in="SourceGraphic" in2="effect1_dropShadow_5582_28579" result="shape"/>
</filter>
<linearGradient id="paint0_linear_5582_28579" x1="119.097" y1="91.5646" x2="122.164" y2="125.625" gradientUnits="userSpaceOnUse">
<stop stop-color="#FFD34F"/>
<stop offset="1" stop-color="#E5AC00"/>
</linearGradient>
<linearGradient id="paint1_linear_5582_28579" x1="73.0824" y1="92.0782" x2="60.7967" y2="118.933" gradientUnits="userSpaceOnUse">
<stop stop-color="#FFD34F"/>
<stop offset="1" stop-color="#E5AC00"/>
</linearGradient>
<linearGradient id="paint2_linear_5582_28579" x1="96.3231" y1="84.5778" x2="100.356" y2="170.918" gradientUnits="userSpaceOnUse">
<stop stop-color="#FFD34F"/>
<stop offset="0.572917" stop-color="#E9B10B"/>
<stop offset="1" stop-color="#E1A900"/>
</linearGradient>
<linearGradient id="paint3_linear_5582_28579" x1="94.9342" y1="83.0394" x2="96.0039" y2="101.614" gradientUnits="userSpaceOnUse">
<stop stop-color="#E6AF8B"/>
<stop offset="1" stop-color="#ECC2A7"/>
</linearGradient>
<linearGradient id="paint4_linear_5582_28579" x1="94.6335" y1="40.833" x2="94.6335" y2="82.7255" gradientUnits="userSpaceOnUse">
<stop stop-color="#F5BB96"/>
<stop offset="1" stop-color="#ECC2A7"/>
</linearGradient>
</defs>
</svg>
