<svg width="180" height="180" viewBox="0 0 180 180" fill="none" xmlns="http://www.w3.org/2000/svg">
<circle cx="90" cy="90" r="61" fill="url(#paint0_radial_1018_10499)"/>
<path d="M52.7314 111.565C49.5008 118.263 57.6125 120.036 64.5352 118.466L66 112.088C62.9232 109.123 55.962 104.867 52.7314 111.565Z" fill="#C2950E"/>
<mask id="mask0_1018_10499" style="mask-type:alpha" maskUnits="userSpaceOnUse" x="29" y="29" width="122" height="122">
<circle cx="90" cy="90" r="61" fill="#D9D9D9"/>
</mask>
<g mask="url(#mask0_1018_10499)">
<path d="M128.838 141.385C131.339 140.886 133.046 138.56 132.77 136.024L130.862 118.697C130.373 114.187 126.981 111.032 122.531 111.919C118.048 112.813 115.939 116.666 117.274 121.038L123.165 137.994C123.904 140.413 126.357 141.879 128.838 141.385Z" fill="#ECC2A7"/>
</g>
<path d="M53.8589 117.127C51.9677 115.416 51.6963 112.543 53.2335 110.508L63.7611 96.6145C66.4956 92.994 71.0258 92.027 74.39 95.0713C77.7794 98.1384 77.6128 102.528 74.2237 105.596L60.4672 117.127C58.5915 118.824 55.7347 118.824 53.8589 117.127Z" fill="#ECC2A7"/>
<path d="M123.816 91.8869C131.554 93.8348 129 111.124 132.909 119.629C134.824 123.793 117.645 126.062 117.645 126.062C117.645 126.062 116.009 114.47 111.078 105.809C105.803 96.5443 115.524 89.7702 123.816 91.8869Z" fill="url(#paint1_linear_1018_10499)"/>
<path d="M70.7068 91.5602C63.0267 90.2429 48.4632 107.307 55.7607 108.441C65.486 109.953 61.4954 119.075 61.4954 119.075C61.4954 119.075 64.9159 123.065 79.3652 106.131C84.936 99.6015 78.9438 92.9506 70.7068 91.5602Z" fill="url(#paint2_linear_1018_10499)"/>
<path d="M55.9486 117.984C54.9283 118.139 53.8034 118.009 52.7196 117.545C50.7764 116.796 43.6004 117.13 51.2113 105.768C56.7058 97.5651 59.8233 90.3387 61.1322 86.9541C61.6534 85.6065 62.2735 84.1162 63.7023 83.9016C64.6591 83.7578 65.8685 83.8753 67.0889 84.3584C69.31 85.2375 69.0758 87.176 68.6976 88.5367C68.5999 88.8883 68.4661 89.2261 68.3134 89.5576C65.0976 96.5414 62.215 108.449 61.3604 110.608C60.2026 113.532 59.0486 117.514 55.9486 117.984Z" fill="#ECC2A7"/>
<mask id="mask1_1018_10499" style="mask-type:alpha" maskUnits="userSpaceOnUse" x="29" y="29" width="122" height="122">
<circle cx="90" cy="90" r="61" fill="#D9D9D9"/>
</mask>
<g mask="url(#mask1_1018_10499)">
<path d="M122.515 90.2378C114.686 87.7666 105.989 84.8061 96.4389 84.5778C86.8888 84.8061 78.1918 87.7666 70.3623 90.2378C68.7078 90.7754 68.3599 93.5507 69.5201 94.8469C71.7087 97.292 73.999 101.425 73.999 108.013C75.4418 143.015 73.6698 155.613 72.7666 162.034L72.7665 162.035C72.7232 162.343 72.6819 162.636 72.643 162.918C72.3326 165.165 73.6328 167.243 75.7629 168.024C82.4055 170.463 86.5038 171.346 96.4389 171.333C106.374 171.346 110.472 170.463 117.115 168.024C119.245 167.242 120.545 165.165 120.235 162.918C120.196 162.636 120.154 162.342 120.111 162.034C119.208 155.613 117.436 143.015 118.879 108.013C118.879 101.425 121.169 97.292 123.358 94.8469C124.518 93.5507 124.17 90.7754 122.515 90.2378Z" fill="url(#paint3_linear_1018_10499)"/>
</g>
<path d="M85.0025 87.3525C83.8711 89.2813 85.4265 103.807 89.7607 103.557C97.1907 103.13 106.172 88.1919 106.054 86.1402C105.936 84.0884 101.128 82.6966 95.3144 83.0313C89.5011 83.3661 84.8843 85.3008 85.0025 87.3525Z" fill="white"/>
<path d="M94.6519 69.403C94.5669 69.4079 94.4824 69.4144 94.3983 69.4225C94.3138 69.4241 94.2292 69.4274 94.1441 69.4323C90.3613 69.6501 87.0891 70.5769 87.7376 74.0012C89.0402 79.3343 89.4844 82.3668 89.3761 84.2477C88.0619 84.8112 87.2788 85.5097 87.32 86.2255C86.4455 87.6425 87.3486 99.6766 90.684 99.4845C96.4017 99.1552 103.607 86.7971 103.52 85.2925C103.477 84.5474 102.549 83.9233 101.079 83.5145C100.768 81.6528 100.866 78.5967 101.541 73.2063C101.792 69.7302 98.4348 69.1852 94.6519 69.403Z" fill="url(#paint4_linear_1018_10499)"/>
<path d="M105.518 59.1683C105.65 58.2997 105.787 57.3979 105.933 56.4604C107.518 46.4102 99.4105 38.2485 90.2759 41.5959C86.3576 43.045 82.9253 44.3823 81.5377 48.3812C80.7656 58.5557 80.7656 58.5557 80.7656 62.5616C80.7657 66.5674 81.9473 70.3399 83.2406 75.4256C83.2406 76.8682 83.4006 80.8433 88.8417 81.4807C94.2827 82.118 95.7445 82.0185 99.2012 77.4404C100.905 75.1843 103.524 72.238 103.524 72.238C103.649 72.2277 105.008 72.2024 105.354 71.7415C106.599 70.0817 106.003 69.4243 108.419 66.5674C109.958 64.7472 110.104 61.833 107.213 60.9582C106.554 60.7858 106.556 60.4206 105.898 60.6616C107.176 59.0982 105.418 59.8297 105.518 59.1683Z" fill="url(#paint5_linear_1018_10499)"/>
<path d="M102.658 53.9775C102.37 51.6884 99.3498 50.4601 96.0408 50.8804C94.9765 51.0156 93.8005 51.165 92.5504 51.2603C88.788 51.5029 85.6648 50.6587 83.4315 49.2205C83.4315 49.2205 80.1896 49.2205 81.3418 58.5556C80.1896 56.2665 78.4613 51.2603 81.2537 47.3131C78.3429 43.7899 79.1144 38.7615 85.3761 35.7777C85.2765 38.7657 90.6198 38.9672 96.0213 39.1709C98.8631 39.2781 101.721 39.3859 103.811 39.9004C109.873 41.3928 113.751 45.3935 113.751 52.9042C113.751 56.2665 108.995 61.9892 108.995 61.9892C106.781 61.9892 103.797 62.9688 102.869 60.9586C102.59 60.3549 102.443 59.641 102.508 58.9683C102.68 57.1822 102.807 55.1583 102.658 53.9775Z" fill="#171A2A"/>
<path d="M47 110C49.2703 108.314 57.973 85.0465 61 81" stroke="#838383"/>
<path d="M66.4254 86.3285C65.5246 86.4586 64.9806 85.8297 64.9806 85.8297C64.9806 85.8297 62.8791 86.1664 61.5198 84.2029C61.2554 83.8189 61.1175 83.2725 61.1492 82.6637C61.2829 80.147 64.3117 76.5423 73.2848 78.868C73.4121 80.167 71.8287 80.6782 72.4666 82.4876C72.7805 83.3734 72.9318 84.4166 72.7167 85.2147C72.4958 86.0432 71.8764 86.6063 70.623 86.4514C68.3259 87.6615 67.1328 86.8897 66.4254 86.3285Z" fill="#E0B498"/>
<path d="M62.3081 84.8272C62.0369 84.8348 61.8021 84.8176 61.7482 84.8173C61.6051 84.8204 60.1932 84.1809 59.7479 82.6705C59.303 81.1629 59.6736 78.8243 60.2006 77.7249C60.7311 76.6281 61.2056 76.3935 61.739 76.2928C61.7597 76.2906 61.777 76.2858 61.7976 76.2807C62.3206 76.1662 62.9899 75.768 63.7725 75.0803C63.7725 75.0803 64.3977 74.8865 62.9809 77.9046C61.5673 80.9253 62.7455 83.2985 63.2884 84.3722C63.3624 84.7348 62.7823 84.8164 62.3081 84.8272Z" fill="#ECC2A7"/>
<path d="M63.8204 84.9135C63.8201 84.9105 63.8172 84.9109 63.8172 84.9109C63.5396 84.8295 63.3359 84.7376 63.293 84.7002C63.1214 84.5451 62.2239 83.2254 62.1215 81.0228C62.0192 78.8202 63.6106 76.3832 63.6784 74.9773C63.6784 74.9773 64.188 74.8223 64.7781 74.7485C64.7811 74.7482 64.7811 74.7482 64.784 74.7479C65.2231 74.9734 66.4673 74.6997 67.0821 73.7492C67.0821 73.7492 67.5166 74.2167 66.1369 77.4189C64.754 80.6185 65.6231 81.3835 65.9428 83.635C66.186 85.3276 64.6625 85.1621 63.8204 84.9135Z" fill="#ECC2A7"/>
<path d="M66.608 84.3377C66.3681 84.3002 66.1964 84.2317 66.1157 84.1745C65.8674 84.0007 65.1934 82.6187 65.1348 80.6919C65.0836 79.0626 66.7676 75.6288 67.0816 73.7493C67.0816 73.7493 67.1939 73.7078 67.3686 73.6655C67.6484 73.5975 68.0833 73.5279 68.4546 73.6203C68.867 74.2751 70.4232 75.2096 71.3462 74.6058C71.2986 74.6942 70.5267 76.1116 69.6467 78.6917C68.7368 81.3584 70.0185 83.3509 68.7122 83.9739C67.8417 84.3902 67.0858 84.4189 66.608 84.3377Z" fill="#ECC2A7"/>
<path d="M68.9757 83.633C68.2973 81.7801 68.6616 79.4391 69.3697 77.5573C69.9179 76.1158 70.6678 74.9452 71.3058 74.4758C71.3058 74.4758 72.5505 74.6049 72.9804 75.1712C74.2957 80.7338 72.0373 82.2533 71.4582 82.8867C71.1524 83.22 70.6632 83.513 70.1706 83.6601C69.7367 83.792 69.2956 83.8053 68.9757 83.633Z" fill="#E3BAA0"/>
<g style="mix-blend-mode:darken">
<path d="M66.6081 84.3378C66.3681 84.3003 66.1964 84.2318 66.1157 84.1747C65.8674 84.0008 65.1935 82.6188 65.1349 80.692C65.0837 79.0627 66.7677 75.6289 67.0817 73.7495C67.0817 73.7495 67.1939 73.7079 67.3687 73.6656C68.6236 75.9443 64.2582 79.0001 66.0621 82.5815C65.9606 83.1498 66.2168 83.8837 66.6081 84.3378Z" fill="black" fill-opacity="0.04"/>
</g>
<g style="mix-blend-mode:darken">
<path d="M63.8171 84.9109C63.5396 84.8295 63.3359 84.7376 63.293 84.7003C63.1214 84.5451 62.2239 83.2255 62.1215 81.0228C62.0191 78.8202 63.6106 76.3833 63.6783 74.9773C63.6783 74.9773 64.188 74.8223 64.7781 74.7485C64.8057 76.4936 62.7962 78.849 63.0099 80.8878C63.2351 83.0357 63.6917 83.4563 63.6917 83.4563C63.6917 83.4563 63.0286 84.0866 63.8171 84.9109Z" fill="black" fill-opacity="0.04"/>
</g>
<g style="mix-blend-mode:darken">
<path d="M62.3081 84.8273C62.0369 84.8349 61.8021 84.8177 61.7482 84.8174C61.6051 84.8205 60.1932 84.181 59.7479 82.6705C59.303 81.163 59.6735 78.8243 60.2006 77.7249C60.7311 76.6282 61.2056 76.3936 61.739 76.2929C61.7597 76.2907 61.777 76.2859 61.7976 76.2808C62.0145 76.4966 62.1129 76.895 61.7498 77.6222C60.9476 79.2335 59.2628 80.9524 61.1701 83.2373C60.961 83.9484 61.6184 84.5476 62.3081 84.8273Z" fill="black" fill-opacity="0.04"/>
</g>
<path d="M70.171 83.6601C69.4672 82.4482 70.6992 82.0835 70.5819 80.9652C70.4529 79.7349 72.0403 78.8853 72.5047 77.5839C72.9685 76.2793 72.0413 75.3297 71.9556 75.3387C71.8699 75.3476 71.6391 75.3121 71.6391 75.3121C71.6391 75.3121 71.1752 75.5337 69.3702 77.5575C69.9184 76.116 70.6683 74.9455 71.3063 74.476C71.3063 74.476 72.551 74.6051 72.9809 75.1715C74.2962 80.7341 72.0378 82.2535 71.4587 82.887C71.1529 83.22 70.6636 83.5128 70.171 83.6601Z" fill="#ECC2A7"/>
<path d="M71.3015 86.0721C71.3015 86.0721 67.9403 85.8815 66.7135 85.2674C65.4867 84.6534 65.5988 83.5289 66.1302 83.0109C66.6646 82.4926 67.7733 82.3494 68.7192 82.4501C69.6652 82.5509 72.3266 81.8259 72.3266 81.8259C72.7037 82.4874 72.4182 82.7574 72.5878 83.0349L72.591 83.0376C72.7422 83.2813 72.8201 83.5982 72.8302 84.3787C72.8388 85.031 72.6087 85.4309 72.3266 85.6753C71.8805 86.0651 71.3015 86.0721 71.3015 86.0721Z" fill="#E3BAA0"/>
<path d="M68.1049 85.1424C67.1495 85.2069 66.4731 85.1703 66.0501 84.3288C65.6271 83.4873 66.3584 82.8498 67.0588 82.7764C67.7623 82.7026 68.4781 82.9736 68.4781 82.9736C68.4619 83.0172 68.4453 83.0606 68.432 83.1038C68.149 83.8821 68.0887 84.3628 68.1016 84.9401C68.0995 85.0058 68.1037 85.0739 68.1049 85.1424Z" fill="#F1D5C3"/>
<path d="M71.3906 82.5979C71.7853 82.9899 71.9913 83.5733 71.9554 84.1402C71.9213 84.7073 71.6451 85.2614 71.2047 85.602C71.3807 85.3882 71.5267 85.1567 71.6282 84.908C71.7284 84.6592 71.7919 84.397 71.8071 84.131C71.8428 83.5978 71.6911 83.062 71.3906 82.5979Z" fill="#DCA480"/>
<path d="M67.5276 82.6417C67.2041 82.7314 66.8622 82.7398 66.5293 82.6995C66.1971 82.654 65.8686 82.5588 65.579 82.389C65.9087 82.4489 66.2254 82.5129 66.5485 82.5525C66.8708 82.5969 67.1936 82.6159 67.5276 82.6417Z" fill="#DCA480"/>
<path d="M64.6554 83.3553C64.4187 83.469 64.1499 83.4972 63.8907 83.4844C63.7607 83.4747 63.631 83.4569 63.5057 83.42C63.3805 83.3842 63.2562 83.3377 63.1482 83.2626C63.4056 83.2978 63.6505 83.322 63.9 83.3365C64.1493 83.3539 64.3947 83.3556 64.6554 83.3553Z" fill="#DCA480"/>
<path d="M61.9477 83.2742C61.7976 83.3352 61.6351 83.3587 61.4746 83.3686C61.3134 83.3803 61.1521 83.37 60.9924 83.3522C60.8331 83.3305 60.6744 83.3011 60.5211 83.2502C60.3691 83.1998 60.213 83.1395 60.0909 83.0311C60.2418 83.0848 60.3942 83.1127 60.5482 83.1394C60.7026 83.163 60.8562 83.1876 61.0111 83.2052C61.3208 83.2434 61.6276 83.2758 61.9477 83.2742Z" fill="#DCA480"/>
<path d="M71.3942 81.1318C71.0455 81.2541 70.6558 81.2684 70.2905 81.1917C70.1077 81.1527 69.9279 81.097 69.7603 81.0151C69.5924 80.935 69.431 80.8394 69.2947 80.7133C69.6323 80.8604 69.9706 80.9768 70.3207 81.0465C70.4947 81.085 70.6715 81.1076 70.8499 81.1216C71.0289 81.1397 71.2085 81.1309 71.3942 81.1318Z" fill="#DCA480"/>
<path d="M71.3823 80.2002C71.2154 80.1445 71.0549 80.0909 70.8888 80.0538C70.7223 80.0201 70.5572 79.9859 70.3884 79.967C70.0517 79.9229 69.7122 79.9064 69.3629 79.8899C69.5311 79.8375 69.7059 79.8151 69.8808 79.8032C70.0561 79.7903 70.2324 79.7997 70.4075 79.8198C70.7551 79.867 71.1071 79.9795 71.3823 80.2002Z" fill="#DCA480"/>
<path opacity="0.35" d="M65.7639 85.3777C65.8785 85.516 65.9646 85.6547 66.0593 85.7884C66.1523 85.9239 66.2439 86.0527 66.3547 86.1916C66.2646 86.1734 66.1874 86.1231 66.1175 86.0682C66.0462 86.0133 65.989 85.9443 65.937 85.8724C65.8882 85.7984 65.845 85.7208 65.8172 85.6368C65.7877 85.5539 65.7667 85.468 65.7639 85.3777Z" fill="#DCA480"/>
<path opacity="0.68" d="M68.1017 84.9398C67.7845 84.5079 67.583 83.6966 68.4321 83.1035C68.1492 83.882 68.0889 84.3625 68.1017 84.9398Z" fill="#F9F9F9"/>
<path d="M92 102C92 102 75.3898 82.6667 72 82" stroke="#838383"/>
<g filter="url(#filter0_d_1018_10499)">
<rect x="44.147" y="110.256" width="50.8333" height="23.0444" rx="2" transform="rotate(-11.5979 44.147 110.256)" fill="white"/>
</g>
<rect x="46.3376" y="111.701" width="47.1222" height="19.3333" rx="1.5" transform="rotate(-11.5979 46.3376 111.701)" stroke="#838383"/>
<path d="M58.6863 118.355L55.9863 118.91L55.6219 117.134C55.5159 116.617 55.42 116.302 55.3343 116.189C55.252 116.07 55.1126 116.031 54.9159 116.071C54.6936 116.117 54.5684 116.223 54.5404 116.391C54.5125 116.559 54.5515 116.901 54.6574 117.417L55.6293 122.152C55.7309 122.648 55.8272 122.965 55.9181 123.104C56.009 123.243 56.1591 123.29 56.3686 123.247C56.5696 123.206 56.6845 123.104 56.7133 122.94C56.7464 122.776 56.7057 122.415 56.5911 121.857L56.3288 120.578L59.0287 120.024L59.1102 120.421C59.3264 121.475 59.4028 122.238 59.3394 122.71C59.2802 123.181 59.0238 123.637 58.5703 124.075C58.121 124.513 57.5158 124.81 56.7548 124.966C55.9638 125.129 55.283 125.122 54.7122 124.946C54.1414 124.77 53.7218 124.451 53.4534 123.99C53.1841 123.525 52.947 122.793 52.7419 121.793L52.1306 118.815C51.9799 118.08 51.8926 117.525 51.869 117.149C51.8445 116.769 51.9235 116.383 52.1059 115.992C52.2927 115.599 52.5907 115.26 53 114.975C53.4127 114.684 53.9119 114.479 54.4977 114.359C55.2929 114.196 55.9802 114.212 56.5596 114.408C57.1389 114.604 57.5564 114.912 57.8119 115.332C58.0666 115.748 58.2917 116.433 58.4872 117.386L58.6863 118.355Z" fill="#746F6F"/>
<path d="M61.4422 113.157L63.1158 121.311L64.7576 120.975L65.1763 123.015L60.8346 123.906L58.7423 113.711L61.4422 113.157Z" fill="#746F6F"/>
<path d="M70.9341 117.43C71.1443 118.454 71.2677 119.186 71.3043 119.624C71.3442 120.058 71.27 120.478 71.0816 120.884C70.8974 121.289 70.6045 121.632 70.2029 121.911C69.8013 122.19 69.3077 122.39 68.7219 122.51C68.1661 122.624 67.6478 122.639 67.1669 122.554C66.6895 122.464 66.2795 122.268 65.9369 121.966C65.5943 121.665 65.3543 121.309 65.2168 120.9C65.0794 120.491 64.903 119.761 64.6876 118.712L64.3296 116.968C64.1194 115.943 63.9943 115.214 63.9543 114.781C63.9177 114.342 63.9915 113.92 64.1756 113.515C64.3641 113.108 64.6591 112.766 65.0607 112.486C65.4623 112.207 65.956 112.007 66.5417 111.887C67.0975 111.773 67.6142 111.761 68.0916 111.851C68.5724 111.936 68.9841 112.13 69.3267 112.431C69.6693 112.733 69.9093 113.088 70.0468 113.497C70.1843 113.907 70.3607 114.636 70.5761 115.686L70.9341 117.43ZM67.5466 114.634C67.4492 114.16 67.3594 113.863 67.2771 113.744C67.1982 113.62 67.0754 113.576 66.9087 113.61C66.7676 113.639 66.6697 113.716 66.6152 113.841C66.564 113.961 66.5923 114.283 66.7 114.808L67.677 119.568C67.7985 120.16 67.897 120.521 67.9724 120.649C68.0522 120.777 68.1818 120.823 68.3614 120.786C68.5452 120.748 68.6465 120.645 68.665 120.474C68.6836 120.304 68.6313 119.919 68.5081 119.319L67.5466 114.634Z" fill="#746F6F"/>
<path d="M77.0761 113.164L74.5685 113.678L74.4134 112.923C74.341 112.57 74.2629 112.352 74.1789 112.269C74.095 112.185 73.9782 112.159 73.8285 112.19C73.6661 112.223 73.5554 112.314 73.4966 112.461C73.4421 112.608 73.442 112.814 73.4963 113.078C73.5661 113.418 73.6656 113.665 73.795 113.817C73.9201 113.971 74.2172 114.127 74.6861 114.284C76.0314 114.739 76.9062 115.159 77.3105 115.544C77.7148 115.929 78.0195 116.621 78.2246 117.62C78.3736 118.346 78.3958 118.9 78.2912 119.28C78.1908 119.659 77.9168 120.017 77.469 120.354C77.0205 120.687 76.467 120.921 75.8085 121.056C75.086 121.204 74.4406 121.197 73.8724 121.033C73.3085 120.869 72.9048 120.595 72.6613 120.212C72.4178 119.829 72.2177 119.255 72.0609 118.491L71.9239 117.824L74.4314 117.309L74.686 118.55C74.7644 118.932 74.849 119.17 74.9398 119.265C75.0349 119.36 75.1723 119.388 75.3518 119.351C75.5314 119.315 75.6497 119.218 75.7068 119.062C75.7682 118.905 75.7708 118.69 75.7148 118.417C75.5916 117.817 75.4277 117.442 75.223 117.291C75.0141 117.141 74.5297 116.919 73.7697 116.625C73.0088 116.326 72.4991 116.1 72.2406 115.948C71.982 115.795 71.7443 115.56 71.5274 115.241C71.3148 114.921 71.153 114.491 71.0418 113.949C70.8816 113.169 70.8649 112.577 70.9917 112.175C71.1229 111.772 71.3943 111.423 71.8062 111.128C72.2172 110.83 72.7433 110.614 73.3847 110.483C74.0858 110.339 74.7051 110.328 75.2424 110.449C75.7841 110.57 76.1689 110.784 76.3968 111.092C76.6282 111.394 76.8271 111.951 76.9934 112.761L77.0761 113.164Z" fill="#746F6F"/>
<path d="M77.5202 109.857L82.0223 108.933L82.4411 110.973L80.6389 111.343L81.0357 113.276L82.7224 112.93L83.1204 114.87L81.4337 115.216L81.8938 117.458L83.8755 117.051L84.2942 119.091L79.6126 120.052L77.5202 109.857Z" fill="#746F6F"/>
<path d="M82.9843 108.736L85.0045 108.321C86.3085 108.053 87.2013 107.932 87.6829 107.955C88.1688 107.978 88.559 108.099 88.8536 108.319C89.1482 108.538 89.3594 108.808 89.4873 109.127C89.6144 109.442 89.777 110.082 89.9752 111.048L90.7079 114.618C90.8957 115.534 90.9766 116.156 90.9506 116.485C90.928 116.809 90.8258 117.081 90.6439 117.302C90.4612 117.519 90.2168 117.696 89.9108 117.833C89.6039 117.966 89.1277 118.099 88.4821 118.232L85.0766 118.931L82.9843 108.736ZM86.0423 109.926L87.4186 116.632C87.8077 116.552 88.0316 116.428 88.0904 116.258C88.1483 116.084 88.1075 115.657 87.9679 114.977L87.155 111.017C87.0602 110.555 86.9845 110.262 86.9279 110.138C86.8713 110.014 86.7835 109.933 86.6645 109.897C86.5447 109.856 86.3373 109.865 86.0423 109.926Z" fill="#746F6F"/>
<defs>
<filter id="filter0_d_1018_10499" x="43.5078" y="99.3973" width="57.7067" height="36.0719" filterUnits="userSpaceOnUse" color-interpolation-filters="sRGB">
<feFlood flood-opacity="0" result="BackgroundImageFix"/>
<feColorMatrix in="SourceAlpha" type="matrix" values="0 0 0 0 0 0 0 0 0 0 0 0 0 0 0 0 0 0 127 0" result="hardAlpha"/>
<feOffset dx="1" dy="1"/>
<feGaussianBlur stdDeviation="1"/>
<feComposite in2="hardAlpha" operator="out"/>
<feColorMatrix type="matrix" values="0 0 0 0 0 0 0 0 0 0 0 0 0 0 0 0 0 0 0.25 0"/>
<feBlend mode="normal" in2="BackgroundImageFix" result="effect1_dropShadow_1018_10499"/>
<feBlend mode="normal" in="SourceGraphic" in2="effect1_dropShadow_1018_10499" result="shape"/>
</filter>
<radialGradient id="paint0_radial_1018_10499" cx="0" cy="0" r="1" gradientUnits="userSpaceOnUse" gradientTransform="translate(90 90) rotate(90) scale(61)">
<stop stop-color="#D9D9D9"/>
<stop offset="1" stop-color="#D9D9D9" stop-opacity="0.18"/>
</radialGradient>
<linearGradient id="paint1_linear_1018_10499" x1="119.345" y1="91.5646" x2="122.412" y2="125.625" gradientUnits="userSpaceOnUse">
<stop stop-color="#FFD34F"/>
<stop offset="1" stop-color="#E5AC00"/>
</linearGradient>
<linearGradient id="paint2_linear_1018_10499" x1="73.3305" y1="92.0782" x2="61.0449" y2="118.933" gradientUnits="userSpaceOnUse">
<stop stop-color="#FFD34F"/>
<stop offset="1" stop-color="#E5AC00"/>
</linearGradient>
<linearGradient id="paint3_linear_1018_10499" x1="97.1716" y1="84.5778" x2="101.204" y2="170.918" gradientUnits="userSpaceOnUse">
<stop stop-color="#FFD34F"/>
<stop offset="0.572917" stop-color="#E9B10B"/>
<stop offset="1" stop-color="#E1A900"/>
</linearGradient>
<linearGradient id="paint4_linear_1018_10499" x1="95.1825" y1="83.0393" x2="96.2522" y2="101.614" gradientUnits="userSpaceOnUse">
<stop stop-color="#E6AF8B"/>
<stop offset="1" stop-color="#ECC2A7"/>
</linearGradient>
<linearGradient id="paint5_linear_1018_10499" x1="94.882" y1="40.833" x2="94.882" y2="82.7256" gradientUnits="userSpaceOnUse">
<stop stop-color="#F5BB96"/>
<stop offset="1" stop-color="#ECC2A7"/>
</linearGradient>
</defs>
</svg>
