<svg width="222" height="144" viewBox="0 0 222 144" fill="none" xmlns="http://www.w3.org/2000/svg">
<path d="M142.758 55.6746L152.167 84.5239C152.867 86.5457 155.355 87.3233 156.988 85.9236L185.137 62.6731C185.137 62.6731 155.2 51.009 155.2 51.6311C155.277 52.2532 142.758 55.6746 142.758 55.6746Z" fill="#5168B8"/>
<path d="M217.097 0.231171C198.668 7.54069 139.336 31.8021 116.863 41.0556C113.909 42.2998 114.064 46.4989 117.097 47.5097L142.758 55.6746L152.167 84.4461C152.556 85.6125 153.489 86.3124 154.577 86.5457C155.433 86.7012 156.755 63.2952 156.755 63.2952C156.755 63.2952 183.738 83.2797 196.491 92.7665C199.679 95.0994 204.111 93.3109 204.889 89.5006C208.699 69.8271 218.264 20.76 221.452 3.96369C221.918 1.31982 219.43 -0.701958 217.097 0.231171Z" fill="#99AFFF"/>
<path d="M154.578 86.5457C155.433 86.7012 156.755 63.2952 156.755 63.2952L201.079 21.6932C201.39 21.3821 201.001 20.9156 200.69 21.1489L142.836 55.7524L152.245 84.5239C152.556 85.6126 153.489 86.3124 154.578 86.5457Z" fill="#708FFF"/>
<path d="M1 143C31.4045 142.922 71.9179 125.737 80.005 92.7665C83.2709 79.4694 80.3938 65.2391 69.8183 55.519C56.5212 43.2328 41.9022 54.4304 45.4792 71.6155C51.389 99.7649 85.7593 120.605 111.887 120.838C126.973 120.994 141.125 113.762 146.568 98.9873" stroke="#99AFFF" stroke-width="2" stroke-miterlimit="10" stroke-dasharray="5 5"/>
</svg>
