<svg width="180" height="182" viewBox="0 0 180 182" fill="none" xmlns="http://www.w3.org/2000/svg">
<path d="M81.4914 148.362L85.7855 146.244L81.4913 136.099L77.1972 138.217L81.4914 148.362Z" fill="white"/>
<path d="M82.3292 145.496C84.1872 144.929 85.3322 144.339 85.3322 144.339C85.5228 144.281 85.7484 145.904 86.6884 146.489C87.6283 147.073 87.3315 148.616 87.3315 148.616C87.5283 149.038 86.8853 149.37 86.4407 149.506C84.9566 149.959 85.1769 149.892 83.7864 150.316L83.6154 149.751C80.9611 150.562 82.4491 150.688 74.3797 153.327C72.474 153.909 72.0687 152.903 72.8374 152.461C76.1662 150.619 78.2434 148.95 80.045 145.613C80.1784 145.365 80.4712 146.063 82.3292 145.496Z" fill="#171A2A"/>
<path d="M77.1512 138.24L81.4321 136.128L84.0864 142.162C82.7638 143.385 81.8134 143.845 79.7461 144.303L77.1512 138.24Z" fill="#ECC2A7"/>
<path d="M42.8435 136.613L46.9861 139.014L52.9852 129.781L48.8427 127.38L42.8435 136.613Z" fill="white"/>
<path d="M45.6776 135.714C47.1814 136.947 48.3067 137.574 48.3067 137.574C48.4609 137.7 47.2433 138.793 47.2831 139.903C47.3228 141.013 45.881 141.626 45.881 141.626C45.6418 142.025 45.009 141.674 44.6491 141.379C43.448 140.393 43.6262 140.539 42.5008 139.616L42.8735 139.159C40.7252 137.396 41.4488 138.708 34.7738 133.448C33.2314 132.183 33.8381 131.284 34.631 131.679C38.0083 133.429 40.5454 134.231 44.3096 133.874C44.5884 133.847 44.1739 134.48 45.6776 135.714Z" fill="#171A2A"/>
<path d="M48.799 127.354L52.9285 129.748L49.417 135.324C47.6687 134.903 46.7595 134.366 45.2301 132.896L48.799 127.354Z" fill="#ECC2A7"/>
<path d="M172.36 77.5462L167.077 114.845L166.568 118.568H163.194L163.703 114.845L168.986 77.5462H172.36Z" fill="#C4C4C4"/>
<path d="M28.257 77.5462L22.9742 114.845L22.465 118.568H19.0916L19.6008 114.845L24.8836 77.5462H28.257Z" fill="#C4C4C4"/>
<path d="M150.782 114.845L150.272 118.568L147.408 155.289H144.099L146.899 118.568L147.408 114.845H150.782Z" fill="#DFDFDF"/>
<path d="M6.68308 114.845L6.1739 118.568L3.30972 155.289H0L2.80053 118.568L3.30972 114.845H6.68308Z" fill="#DFDFDF"/>
<path d="M23.6756 114.845L24.1848 118.568L27.049 155.289H30.3587L27.5581 118.568L27.049 114.845H23.6756Z" fill="#C4C4C4"/>
<path d="M167.776 114.845L168.285 118.568L171.149 155.289H174.459L171.659 118.568L171.149 114.845H167.776Z" fill="#C4C4C4"/>
<path d="M177.2 82.7461H23.1704L26.0346 72.3462H180L177.2 82.7461Z" fill="#C4C4C4"/>
<path d="M173.635 82.7464H19.606L22.4702 72.3464H176.499L173.635 82.7464Z" fill="#DFDFDF"/>
<path d="M175.036 95.7142H21.0066L23.8708 85.3143H177.9L175.036 95.7142Z" fill="#C4C4C4"/>
<path d="M171.535 95.7146H17.5058L20.37 85.3146H174.335L171.535 95.7146Z" fill="#DFDFDF"/>
<path d="M172.871 108.682H18.8416L21.7057 98.282H175.735L172.871 108.682Z" fill="#C4C4C4"/>
<path d="M169.371 108.682H15.3417L18.2059 98.282H172.235L169.371 108.682Z" fill="#DFDFDF"/>
<path d="M154.667 114.845H1.33791V118.568H154.667V114.845Z" fill="#DFDFDF"/>
<path d="M175.731 114.845H154.663V118.568H175.731V114.845Z" fill="#C4C4C4"/>
<path d="M74.5854 81.9257C73.2219 81.3491 72.5244 79.8268 72.978 78.4177L76.093 68.7918C76.8998 66.2851 79.1978 64.8896 81.6232 65.9152C84.0668 66.9485 84.8143 69.3862 83.543 71.7149L78.207 80.6628C77.5034 81.9516 75.9378 82.4975 74.5854 81.9257Z" fill="#ECC2A7"/>
<path d="M43.0045 100.348L42.1851 114.968L34.837 115.055L34.5911 112.136L33.9232 103.306L33.6781 100.458L43.0045 100.348Z" fill="#F65855"/>
<path d="M43.7763 99.8405L32.8961 99.9688L32.9069 100.895L43.7871 100.766L43.7763 99.8405Z" fill="#FFC107"/>
<path d="M43.0614 98.9226L33.5236 99.0351L33.5344 99.9611L43.0722 99.8486L43.0614 98.9226Z" fill="#FFC107"/>
<path d="M37.6912 103.351L37.7939 112.187L34.2611 112.229L33.5931 103.399L37.6912 103.351Z" fill="#FFC107"/>
<path d="M77.8761 80.338C77.8632 79.7392 77.6775 79.1088 77.3042 78.5351C76.6833 77.4983 74.4371 76.1081 70.4199 78.8423C68.4373 80.0547 63.1318 84.5266 60.9445 86.3913C60.3004 86.9405 59.5181 87.4639 59.373 88.2979C59.2857 88.8001 59.3653 89.4122 59.7541 90.0481C60.4774 91.2308 61.5627 90.9044 62.3032 90.553C62.4946 90.4622 62.6745 90.3521 62.8489 90.2319C66.5231 87.6993 73.0458 84.8684 74.1955 84.1652C75.7531 83.2127 77.9153 82.1573 77.8761 80.338Z" fill="#ECC2A7"/>
<path d="M84.8101 56.2957C80.1967 55.8897 78.3069 65.8926 74.5446 69.8262C72.7023 71.7523 81.6901 76.2821 81.6901 76.2821C81.6901 76.2821 84.7929 70.215 89.1448 66.3907C93.8004 62.2995 89.7596 56.7147 84.8101 56.2957Z" fill="#FAB404"/>
<path d="M129.195 73.263C129.812 71.9174 129.3 70.3233 128.014 69.5894L119.22 64.5879C116.933 63.2825 114.295 63.8034 113.197 66.197C112.091 68.6085 113.185 70.912 115.694 71.7725L125.67 74.775C127.059 75.2513 128.583 74.5976 129.195 73.263Z" fill="#ECC2A7"/>
<path d="M98.4447 54.9377C105.953 55.2186 111.29 57.6364 109.461 60.6387C104.675 68.4922 108.04 80.3354 109.956 87.6651C111.289 92.7658 112.622 97.8645 111.696 103.135C111.602 103.182 111.505 103.224 111.405 103.261C107.56 104.684 103.864 105.206 98.1073 105.213C92.3511 105.235 93.0554 105.349 89.2032 103.945C87.9679 103.495 87.2115 102.293 87.3879 100.99C87.41 100.827 87.4335 100.656 87.4582 100.478C87.5441 99.8552 87.6809 99.1316 87.8449 98.2644C88.6617 93.9462 85.751 85.4363 85.0114 68.5422C84.482 64.5667 83.4933 58.8975 86.8267 56.8136C90.5908 54.4605 96.2116 54.387 97.9777 54.924C98.1338 54.9273 98.2894 54.9319 98.4447 54.9377Z" fill="#FAB404"/>
<path d="M84.9604 67.235C85.1984 66.1647 86.259 65.4899 87.3293 65.7279L89.6596 66.246C90.7299 66.484 91.4046 67.5446 91.1666 68.6149V68.6149C90.9287 69.6852 89.8681 70.36 88.7978 70.122L86.4675 69.6039C85.3972 69.3659 84.7225 68.3053 84.9604 67.235V67.235Z" fill="white"/>
<g filter="url(#filter0_b_7998_12009)">
<path d="M88.0535 67.2758C88.0275 67.27 88.0008 67.291 87.9937 67.3227L87.9778 67.3945C87.9707 67.4262 87.986 67.4566 88.012 67.4624L88.0708 67.4755C88.0968 67.4812 88.1235 67.4602 88.1306 67.4285L88.1465 67.3567C88.1536 67.325 88.1383 67.2946 88.1123 67.2888L88.0535 67.2758Z" fill="#FAB404"/>
<path d="M89.4102 67.6377C89.4173 67.606 89.4441 67.585 89.47 67.5907L89.5288 67.6038C89.5548 67.6096 89.5701 67.64 89.5631 67.6717L89.3013 68.8488C89.2943 68.8805 89.2675 68.9016 89.2415 68.8958L89.1828 68.8827C89.1568 68.8769 89.1415 68.8465 89.1485 68.8148L89.4102 67.6377Z" fill="#FAB404"/>
<path d="M87.9107 67.696C87.9178 67.6643 87.9446 67.6432 87.9705 67.649L88.0293 67.6621C88.0553 67.6679 88.0706 67.6982 88.0636 67.73L87.8848 68.5339C87.8778 68.5656 87.851 68.5866 87.825 68.5808L87.7662 68.5678C87.7403 68.562 87.7249 68.5316 87.732 68.4999L87.9107 67.696Z" fill="#FAB404"/>
<path d="M88.365 67.345C88.3391 67.3393 88.3123 67.3603 88.3052 67.392L88.2733 67.5356C88.2707 67.5475 88.2606 67.5553 88.2509 67.5532L88.2156 67.5453C88.1897 67.5396 88.1629 67.5606 88.1558 67.5923L88.1479 67.6282C88.1408 67.6599 88.1562 67.6903 88.1821 67.6961L88.2174 67.7039C88.2271 67.7061 88.2329 67.7175 88.2302 67.7294L88.0435 68.5691C88.0365 68.6009 88.0518 68.6312 88.0778 68.637L88.1365 68.6501C88.1625 68.6559 88.1893 68.6348 88.1963 68.6031L88.3831 67.7633C88.3857 67.7514 88.3957 67.7436 88.4055 67.7457L88.5289 67.7732C88.5549 67.7789 88.5816 67.7579 88.5887 67.7262L88.5967 67.6903C88.6037 67.6586 88.5884 67.6282 88.5624 67.6224L88.439 67.595C88.4292 67.5928 88.4235 67.5814 88.4261 67.5695L88.4581 67.426C88.4651 67.3943 88.4498 67.3639 88.4238 67.3581L88.365 67.345Z" fill="#FAB404"/>
<path fill-rule="evenodd" clip-rule="evenodd" d="M86.737 68.2139C86.76 68.1978 86.7667 68.1627 86.7539 68.1374L86.7245 68.0792C86.7102 68.0508 86.6773 68.0461 86.6507 68.0621C86.6037 68.0904 86.55 68.1015 86.497 68.0897C86.406 68.0695 86.3418 67.9873 86.3257 67.8852C86.3233 67.8707 86.3351 67.8579 86.3473 67.8606L86.8735 67.9776C86.8811 67.9793 86.8887 67.9787 86.8959 67.9762C86.9073 67.9737 86.9181 67.9655 86.9249 67.9517C86.9287 67.9455 86.9316 67.9384 86.9333 67.9306L86.9493 67.8588C86.9506 67.853 86.9511 67.8473 86.951 67.8417C86.9509 67.8401 86.951 67.8385 86.9512 67.8369C86.9794 67.6011 86.8581 67.3866 86.663 67.3432C86.452 67.2963 86.2345 67.4672 86.1772 67.7248C86.1199 67.9825 86.2445 68.2294 86.4555 68.2763C86.5535 68.2981 86.6529 68.2729 86.737 68.2139ZM86.3887 67.6739C86.3766 67.6712 86.3714 67.6546 86.3796 67.6424C86.4375 67.5569 86.5305 67.5096 86.6215 67.5298C86.7125 67.5501 86.7767 67.6323 86.7929 67.7343C86.7952 67.7489 86.7834 67.7617 86.7713 67.759L86.3887 67.6739Z" fill="#FAB404"/>
<path fill-rule="evenodd" clip-rule="evenodd" d="M88.9933 68.6353C89.0061 68.6607 88.9994 68.6957 88.9764 68.7118C88.8923 68.7708 88.7929 68.796 88.6949 68.7742C88.4839 68.7273 88.3593 68.4804 88.4166 68.2227C88.4739 67.9651 88.6914 67.7942 88.9024 67.8411C89.0975 67.8845 89.2188 68.099 89.1906 68.3349C89.1904 68.3365 89.1903 68.3381 89.1904 68.3397C89.1905 68.3452 89.19 68.351 89.1887 68.3567L89.1727 68.4285C89.171 68.4363 89.1681 68.4434 89.1643 68.4497C89.1575 68.4635 89.1467 68.4717 89.1353 68.4741C89.1281 68.4766 89.1205 68.4772 89.1129 68.4755L88.5867 68.3585C88.5745 68.3558 88.5627 68.3686 88.5651 68.3832C88.5812 68.4852 88.6454 68.5674 88.7364 68.5876C88.7894 68.5994 88.8431 68.5883 88.8901 68.5601C88.9167 68.5441 88.9496 68.5487 88.9639 68.5771L88.9933 68.6353ZM88.619 68.1403C88.6108 68.1526 88.616 68.1692 88.6282 68.1719L89.0107 68.2569C89.0228 68.2596 89.0346 68.2468 89.0323 68.2322C89.0161 68.1302 88.9519 68.048 88.8609 68.0278C88.7699 68.0075 88.6769 68.0548 88.619 68.1403Z" fill="#FAB404"/>
<path d="M85.3056 66.7052C85.2786 66.7078 85.2567 66.736 85.2567 66.7681L85.2536 67.9606C85.2535 67.9863 85.2674 68.0067 85.2867 68.0126L85.2885 68.0131L85.2906 68.0136L85.3419 68.0249L85.344 68.0254L85.3454 68.0257C85.3655 68.0288 85.3869 68.0161 85.3978 67.9927L85.7491 67.2369L85.7469 68.0703C85.7468 68.0962 85.7609 68.1167 85.7804 68.1224L85.7818 68.1228L85.784 68.1232L85.8352 68.1346L85.8373 68.1351L85.8392 68.1355C85.8591 68.1384 85.8804 68.1257 85.8912 68.1024L86.3937 67.0209C86.4072 66.9918 86.3993 66.957 86.3761 66.9432L86.3234 66.912C86.3001 66.8982 86.2702 66.9106 86.2567 66.9398L85.9406 67.62C85.9312 67.6402 85.9065 67.6347 85.9065 67.6124L85.9085 66.8623C85.9086 66.8364 85.8944 66.8158 85.8748 66.8102L85.8735 66.8099L85.8715 66.8095L85.8193 66.7978L85.8185 66.7976L85.8172 66.7974L85.816 66.7971C85.7958 66.7939 85.7743 66.8066 85.7634 66.8301L85.4473 67.5103C85.4379 67.5305 85.4132 67.525 85.4132 67.5027L85.4152 66.7527C85.4152 66.7205 85.3935 66.6966 85.3665 66.6992L85.3056 66.7052Z" fill="#FAB404"/>
<path fill-rule="evenodd" clip-rule="evenodd" d="M87.1708 67.1398C87.1779 67.1081 87.2047 67.087 87.2306 67.0928L87.2894 67.1059C87.3154 67.1117 87.3307 67.142 87.3237 67.1738L87.2455 67.5254C87.2415 67.5431 87.256 67.5573 87.2704 67.5507C87.3384 67.5199 87.4125 67.5099 87.4859 67.5262C87.6969 67.5731 87.8215 67.82 87.7642 68.0777C87.7069 68.3353 87.4894 68.5062 87.2784 68.4593C87.2029 68.4425 87.1385 68.4001 87.0895 68.3408C87.0811 68.3306 87.0652 68.3361 87.0619 68.3509C87.0549 68.3826 87.0281 68.4036 87.0021 68.3979L86.9434 68.3848C86.9174 68.379 86.9021 68.3486 86.9091 68.3169L87.1708 67.1398ZM87.3199 68.2727C87.1933 68.2445 87.1185 68.0964 87.1529 67.9418C87.1873 67.7872 87.3178 67.6847 87.4444 67.7128C87.571 67.741 87.6457 67.8891 87.6114 68.0437C87.577 68.1983 87.4465 68.3008 87.3199 68.2727Z" fill="#FAB404"/>
</g>
<path d="M91.2851 55.1884C90.6057 56.0707 90.4671 63.344 92.6239 63.4914C96.3213 63.744 101.691 56.9251 101.761 55.9041C101.831 54.8831 99.5422 53.8952 96.6494 53.6975C93.7565 53.4999 91.3548 54.1674 91.2851 55.1884Z" fill="white"/>
<path d="M97.1731 46.9233C97.1308 46.9204 97.0886 46.9183 97.0466 46.9171C97.0048 46.9126 96.9627 46.9089 96.9204 46.906C95.0379 46.7774 93.3635 47.031 93.4701 48.7632C93.7806 51.4793 93.8107 53.0052 93.6397 53.9276C92.9552 54.124 92.5247 54.4202 92.5004 54.7763C91.9799 55.4218 91.6746 61.4235 93.3344 61.5368C96.1797 61.7312 100.511 56.0758 100.562 55.327C100.587 54.9562 100.168 54.5899 99.4672 54.2962C99.4295 53.357 99.669 51.8533 100.339 49.2324C100.68 47.5308 99.0556 47.0519 97.1731 46.9233Z" fill="url(#paint0_linear_7998_12009)"/>
<path d="M102.576 38.9818C102.594 38.4743 102.612 37.9473 102.633 37.3991C102.87 31.522 97.7016 27.3694 92.7125 29.895C90.5733 30.986 88.7039 31.9806 88.178 34.3691C88.4136 40.264 88.4136 40.264 88.6799 42.5648C88.9461 44.8656 89.871 46.9544 90.9468 49.7901C91.0427 50.6186 91.3981 52.8913 94.5448 52.8982C97.6914 52.9051 98.5188 52.7514 100.187 49.8937C101.009 48.4855 102.307 46.6203 102.307 46.6203C102.378 46.6061 102.803 46.5933 103.131 46.5552C104.011 46.4534 103.534 44.8406 104.723 43.0402C105.481 41.8931 105.37 40.2096 103.662 39.898C103.275 39.8425 103.252 39.6327 102.892 39.8145C103.517 38.8322 102.563 39.3684 102.576 38.9818Z" fill="url(#paint1_linear_7998_12009)"/>
<path d="M100.6 36.1893C100.283 34.8935 98.4784 34.3874 96.6185 34.8472C96.0203 34.9951 95.3593 35.1586 94.6523 35.2958C92.5219 35.6835 90.6839 35.4048 89.3142 34.7262C89.3142 34.7262 87.4646 34.9402 88.7423 40.2259C87.9328 38.9872 86.6141 36.2259 87.9449 33.7744C86.0501 31.9429 86.1561 29.0039 89.5303 26.8767C89.672 28.5995 92.734 28.3625 95.8292 28.123C97.4577 27.9969 99.0954 27.8702 100.322 28.0277C103.879 28.4848 106.358 30.5266 106.857 34.8405C107.081 36.7717 104.748 40.3726 104.748 40.3726V40.3726C103.485 40.5187 101.848 41.2748 101.187 40.1893C100.986 39.8602 100.853 39.458 100.846 39.0657C100.825 38.0285 100.763 36.8577 100.6 36.1893Z" fill="#171A2A"/>
<path d="M102.194 41.3342C102.734 40.086 104.082 39.137 104.791 39.4439C105.501 39.7509 105.638 41.0117 105.098 42.2599C104.558 43.5082 103.936 43.3672 103.227 43.0602C102.517 42.7533 101.654 42.5825 102.194 41.3342Z" fill="#EFBFA1"/>
<path d="M62.8672 109.396C62.8067 109.221 62.7517 109.042 62.7027 108.86C61.6582 104.975 63.7288 101.044 67.3276 100.079C70.9264 99.115 74.6906 101.483 75.7352 105.368C75.7352 105.368 77.3868 107.691 78.3577 111.028C79.3286 114.364 81.2953 124.537 83.1472 131.249C85.637 137.945 87.6267 139.408 87.6267 139.408C87.6267 139.408 87.3007 141.04 81.3499 142.736C75.3991 144.432 76.5576 143.366 76.5576 143.366C76.5576 143.366 76.3164 142.494 74.3516 137.979C71.1656 130.658 65.848 119.463 62.8482 109.401L62.8672 109.396Z" fill="#111320"/>
<path d="M124.781 70.4113C124.563 70.9691 124.492 71.6225 124.617 72.2955C124.792 73.4914 126.332 75.6377 131.091 74.6563C133.387 74.2984 140.003 72.2075 142.739 71.326C143.545 71.0664 144.468 70.8835 144.922 70.1693C145.196 69.7392 145.357 69.1434 145.243 68.407C145.029 67.0371 143.902 66.9216 143.083 66.9616C142.871 66.972 142.663 67.0045 142.456 67.0485C138.091 67.9755 130.981 68.0839 129.649 68.2914C127.845 68.5726 125.444 68.7164 124.781 70.4113Z" fill="#ECC2A7"/>
<path d="M143.858 72.2429C142.372 71.2244 142.33 70.0057 142.29 68.2846C142.27 67.4202 143.323 66.3583 144.746 66.8325C145.72 67.1571 149.406 68.3487 151.703 68.1157C152.65 68.1034 155.385 69.9985 156.512 70.5826C157.461 71.0748 158.87 70.9847 158.136 71.7078C157.402 72.4309 156.58 72.5414 154.193 71.5312C151.246 70.2844 150.491 70.6652 149.259 70.75C148.028 70.8348 147.048 71.5748 147.794 72.4201C148.39 73.0964 149.047 74.0172 148.859 74.9394C148.615 76.1357 147.271 75.0567 147.072 74.7117C146.822 74.2806 145.344 73.2615 143.858 72.2429Z" fill="#ECC2A7"/>
<path d="M105.041 57.1759C109.002 54.7682 115.096 62.9076 120.201 64.7711C122.701 65.6836 116.628 73.7293 116.628 73.7293C116.628 73.7293 111.176 69.6591 105.589 68.1547C99.6127 66.5454 100.783 59.744 105.041 57.1759Z" fill="#FAB404"/>
<path d="M85.7948 113.88L86.6238 113.97C88.3381 114.154 90.0335 114.327 91.6446 114.424L91.6552 114.425L91.6671 114.426C95.3417 114.648 99.8894 114.431 103.135 113.945C103.89 113.949 104.656 113.833 105.413 113.585C105.715 113.486 106.007 113.369 106.288 113.235C106.633 113.108 106.901 112.974 107.078 112.834C107.14 112.785 107.196 112.734 107.25 112.683C110.137 110.73 111.549 106.837 110.466 103.115C109.173 98.6712 106.066 97.6252 100.731 97.4943L66.298 97.9622C63.6787 97.9566 60.8092 100.68 62.7993 108.908C64.356 112.44 66.3124 111.106 70.0052 111.106C72.9595 111.106 82.3243 113.293 85.7948 113.88Z" fill="#111320"/>
<path d="M87.5235 111.289L88.3395 111.461C90.0271 111.814 91.6972 112.153 93.2907 112.409L93.3011 112.412L93.3129 112.414C96.9474 112.999 101.494 113.233 104.772 113.07C105.523 113.149 106.296 113.11 107.074 112.938C107.385 112.87 107.687 112.782 107.98 112.676C108.335 112.585 108.615 112.478 108.805 112.356C108.872 112.313 108.933 112.268 108.992 112.223C112.058 110.565 113.849 106.831 113.139 103.02C112.293 98.4701 109.305 97.1216 104.009 96.4629L69.699 93.5185C67.0931 93.2535 63.9681 95.679 65.1334 104.064C66.3326 107.733 68.4116 106.599 72.0863 106.965C75.026 107.257 84.1282 110.361 87.5235 111.289Z" fill="#171A2A"/>
<path d="M61.0031 97.238C61.1004 97.0801 61.2038 96.9243 61.3137 96.7711C63.6577 93.5013 68.0111 92.6124 71.0374 94.7857C74.0636 96.9589 74.6167 101.371 72.2727 104.641C72.2727 104.641 71.5219 107.391 69.5558 110.256C67.5896 113.121 60.965 121.089 56.9457 126.774C53.3431 132.943 53.4717 135.409 53.4717 135.409C53.4717 135.409 52.0031 136.19 46.9203 132.661C41.8375 129.132 43.3965 129.353 43.3965 129.353C43.3965 129.353 43.9183 128.614 46.1664 124.233C49.8117 117.13 55.1037 105.922 60.9872 97.2265L61.0031 97.238Z" fill="#171A2A"/>
<path d="M63.3521 91.7365C63.4403 89.9373 62.4953 89.1664 61.1493 88.0931C60.4735 87.5539 58.9908 87.7497 58.5072 89.1698C58.1762 90.1418 56.8951 93.7968 55.3194 95.4852C54.7369 96.2314 54.5905 99.556 54.374 100.806C54.1916 101.86 53.2675 102.927 54.2871 102.78C55.3068 102.634 55.8922 102.046 56.5325 99.5338C57.3227 96.4335 58.083 96.0623 58.8955 95.1333C59.708 94.2044 60.8901 93.8719 61.1121 94.9769C61.2897 95.8609 61.6253 96.941 62.4732 97.3495C63.5731 97.8794 63.5272 96.1564 63.3734 95.7887C63.1812 95.3291 63.264 93.5358 63.3521 91.7365Z" fill="#ECC2A7"/>
<defs>
<filter id="filter0_b_7998_12009" x="75.2536" y="56.699" width="24.3112" height="22.1977" filterUnits="userSpaceOnUse" color-interpolation-filters="sRGB">
<feFlood flood-opacity="0" result="BackgroundImageFix"/>
<feGaussianBlur in="BackgroundImageFix" stdDeviation="5"/>
<feComposite in2="SourceAlpha" operator="in" result="effect1_backgroundBlur_7998_12009"/>
<feBlend mode="normal" in="SourceGraphic" in2="effect1_backgroundBlur_7998_12009" result="shape"/>
</filter>
<linearGradient id="paint0_linear_7998_12009" x1="96.5837" y1="53.6932" x2="95.9523" y2="62.9368" gradientUnits="userSpaceOnUse">
<stop stop-color="#E6AF8B"/>
<stop offset="1" stop-color="#ECC2A7"/>
</linearGradient>
<linearGradient id="paint1_linear_7998_12009" x1="95.2897" y1="29.1528" x2="98.0737" y2="53.2145" gradientUnits="userSpaceOnUse">
<stop stop-color="#F5BB96"/>
<stop offset="1" stop-color="#ECC2A7"/>
</linearGradient>
</defs>
</svg>
