<!-- Generated by IcoMoon.io -->
<svg version="1.1" xmlns="http://www.w3.org/2000/svg" width="32" height="32" viewBox="0 0 32 32">
<title>calendar_md</title>
<path d="M11.667 2.667v1.667h8.667v-1.667c0-0.552 0.448-1 1-1s1 0.448 1 1v1.667h3c2.019 0 3.667 1.648 3.667 3.667v17.333c0 2.019-1.648 3.667-3.667 3.667h-18.667c-2.019 0-3.667-1.648-3.667-3.667v-17.333c0-2.019 1.648-3.667 3.667-3.667h3v-1.667c0-0.552 0.448-1 1-1s1 0.448 1 1zM9.667 6.333h-3c-0.914 0-1.667 0.752-1.667 1.667v3h22v-3c0-0.914-0.752-1.667-1.667-1.667h-3v1.667c0 0.552-0.448 1-1 1s-1-0.448-1-1v-1.667h-8.667v1.667c0 0.552-0.448 1-1 1s-1-0.448-1-1v-1.667zM5 13v12.333c0 0.914 0.752 1.667 1.667 1.667h18.667c0.914 0 1.667-0.752 1.667-1.667v-12.333h-22z"></path>
</svg>
