<svg width="200" height="200" viewBox="0 0 200 200" fill="none" xmlns="http://www.w3.org/2000/svg">
<g opacity="0.7" filter="url(#filter0_f_9874_28895)">
<ellipse cx="99.5" cy="135" rx="56.5" ry="20" fill="#E54F4C" style="fill:#E54F4C;fill:color(display-p3 0.8980 0.3098 0.2980);fill-opacity:1;"/>
</g>
<g filter="url(#filter1_f_9874_28895)">
<path d="M42.3862 88.8956C39.2414 77.1594 46.2063 65.0959 57.9425 61.9512L111.614 47.57C123.35 44.4252 135.414 51.3901 138.558 63.1263L153.144 117.562C156.146 128.765 149.498 140.28 138.295 143.281L82.6917 158.18C71.4889 161.182 59.9739 154.534 56.9721 143.331L42.3862 88.8956Z" fill="url(#paint0_linear_9874_28895)" style=""/>
</g>
<rect x="37.7297" y="68.0325" width="97.6745" height="97.6745" rx="20" transform="rotate(-15 37.7297 68.0325)" fill="url(#paint1_linear_9874_28895)" style=""/>
<path d="M66.6727 125.531C68.8231 124.954 71.034 126.23 71.6102 128.38L73.6968 136.168C74.2731 138.318 76.483 139.594 78.6332 139.018L86.4208 136.931C88.5711 136.355 90.7812 137.632 91.3575 139.782C91.9333 141.933 90.6576 144.143 88.5074 144.719L80.7199 146.805C74.2688 148.534 67.638 144.705 65.9093 138.255L63.8226 130.467C63.2465 128.317 64.5226 126.107 66.6727 125.531Z" fill="url(#paint2_linear_9874_28895)" style=""/>
<path d="M136.759 106.751C138.91 106.175 141.12 107.451 141.696 109.601L143.782 117.388C145.511 123.84 141.682 130.47 135.232 132.199L127.444 134.286C125.294 134.862 123.084 133.586 122.508 131.436C121.931 129.285 123.207 127.074 125.357 126.498L133.145 124.412C135.295 123.835 136.571 121.625 135.995 119.475L133.908 111.688C133.332 109.537 134.609 107.327 136.759 106.751Z" fill="url(#paint3_linear_9874_28895)" style=""/>
<path d="M71.7002 97.2989C70.9325 96.1043 72.296 94.7144 73.4489 95.516L90.1152 107.107C91.4141 108.011 93.1981 107.688 94.0994 106.389L100.302 97.4469C101.203 96.1475 102.986 95.8258 104.285 96.7285L121.386 108.619C122.497 109.392 121.871 111.164 120.549 110.989L110.617 109.669C110.159 109.608 109.693 109.66 109.259 109.818L89.6508 116.966C87.1377 117.881 84.3241 116.934 82.8755 114.681L71.7002 97.2989Z" fill="url(#paint4_linear_9874_28895)" style=""/>
<path d="M116.842 95.6318C117.984 93.7065 120.856 94.1293 121.441 96.3086C122.024 98.4878 119.749 100.292 117.797 99.1967C116.541 98.491 116.107 96.8717 116.842 95.6318Z" fill="url(#paint5_linear_9874_28895)" style=""/>
<path d="M73.3044 88.4393C72.2691 87.7192 72.7305 86.07 73.9697 86.0603L110.691 85.773C111.759 85.7649 112.743 86.3531 113.243 87.2971L113.775 88.3013C114.278 89.249 114.21 90.3989 113.6 91.2797L112.916 92.2653C112.014 93.5644 110.231 93.886 108.933 92.9837L102.846 88.7502C101.548 87.8471 99.7635 88.1693 98.8621 89.4688L92.6597 98.4107C91.7584 99.7101 89.9754 100.032 88.6766 99.1291L73.3044 88.4393Z" fill="url(#paint6_linear_9874_28895)" style=""/>
<path d="M67.6414 66.8456C69.7916 66.2695 72.0014 67.5456 72.5778 69.6957C73.1539 71.846 71.8784 74.057 69.728 74.6332L61.9405 76.7198C59.7904 77.2961 58.5145 79.506 59.0905 81.6562L61.1771 89.4438C61.7533 91.5941 60.4764 93.8042 58.326 94.3805C56.1758 94.9563 53.9658 93.6806 53.3896 91.5304L51.3029 83.7429C49.5745 77.2918 53.4029 70.661 59.8538 68.9323L67.6414 66.8456Z" fill="url(#paint7_linear_9874_28895)" style=""/>
<path d="M114.365 54.3259C120.817 52.5975 127.447 56.4259 129.176 62.8768L131.263 70.6644C131.839 72.8146 130.563 75.0244 128.413 75.6008C126.262 76.1769 124.051 74.9014 123.475 72.751L121.389 64.9635C120.812 62.8134 118.602 61.5375 116.452 62.1135L108.665 64.2001C106.514 64.7763 104.304 63.4994 103.728 61.349C103.152 59.1988 104.428 56.9888 106.578 56.4126L114.365 54.3259Z" fill="url(#paint8_linear_9874_28895)" style=""/>
<circle cx="125.005" cy="58" r="17.875" fill="#272C3B" style="fill:#272C3B;fill:color(display-p3 0.1529 0.1725 0.2314);fill-opacity:1;"/>
<path fill-rule="evenodd" clip-rule="evenodd" d="M130.699 79.2504C142.435 76.1056 149.4 64.0422 146.255 52.306C143.11 40.5697 131.047 33.6049 119.311 36.7496C107.574 39.8944 100.61 51.9578 103.754 63.694C106.899 75.4303 118.962 82.3951 130.699 79.2504ZM112.322 50.6775C112.929 49.6252 114.275 49.2647 115.327 49.8722L124.199 54.9947L129.322 46.1223C129.929 45.07 131.275 44.7095 132.327 45.317C133.379 45.9245 133.74 47.27 133.132 48.3223L128.01 57.1947L136.882 62.3173C137.935 62.9248 138.295 64.2703 137.688 65.3225C137.08 66.3748 135.735 66.7353 134.682 66.1278L125.81 61.0053L120.687 69.8778C120.08 70.93 118.734 71.2905 117.682 70.683C116.63 70.0755 116.269 68.73 116.877 67.6778L121.999 58.8053L113.127 53.6827C112.075 53.0752 111.714 51.7297 112.322 50.6775Z" fill="url(#paint9_linear_9874_28895)" style=""/>
<defs>
<filter id="filter0_f_9874_28895" x="3" y="75" width="193" height="120" filterUnits="userSpaceOnUse" color-interpolation-filters="sRGB">
<feFlood flood-opacity="0" result="BackgroundImageFix"/>
<feBlend mode="normal" in="SourceGraphic" in2="BackgroundImageFix" result="shape"/>
<feGaussianBlur stdDeviation="20" result="effect1_foregroundBlur_9874_28895"/>
</filter>
<filter id="filter1_f_9874_28895" x="31.6311" y="36.8149" width="132.234" height="132.086" filterUnits="userSpaceOnUse" color-interpolation-filters="sRGB">
<feFlood flood-opacity="0" result="BackgroundImageFix"/>
<feBlend mode="normal" in="SourceGraphic" in2="BackgroundImageFix" result="shape"/>
<feGaussianBlur stdDeviation="5" result="effect1_foregroundBlur_9874_28895"/>
</filter>
<linearGradient id="paint0_linear_9874_28895" x1="92.4896" y1="94.7573" x2="66.1966" y2="155.999" gradientUnits="userSpaceOnUse">
<stop offset="0.0113416" stop-color="#525B75" style="stop-color:#525B75;stop-color:color(display-p3 0.3202 0.3566 0.4587);stop-opacity:1;"/>
<stop offset="1" stop-color="#FF635E" style="stop-color:#FF635E;stop-color:color(display-p3 1.0000 0.3882 0.3686);stop-opacity:1;"/>
</linearGradient>
<linearGradient id="paint1_linear_9874_28895" x1="86.567" y1="68.0325" x2="86.567" y2="165.707" gradientUnits="userSpaceOnUse">
<stop stop-color="#272C3A" style="stop-color:#272C3A;stop-color:color(display-p3 0.1529 0.1725 0.2275);stop-opacity:1;"/>
<stop offset="1" stop-color="#33394C" style="stop-color:#33394C;stop-color:color(display-p3 0.2000 0.2235 0.2980);stop-opacity:1;"/>
</linearGradient>
<linearGradient id="paint2_linear_9874_28895" x1="69.0391" y1="149.935" x2="126.046" y2="51.1961" gradientUnits="userSpaceOnUse">
<stop stop-color="#E75149" style="stop-color:#E75149;stop-color:color(display-p3 0.9059 0.3176 0.2863);stop-opacity:1;"/>
<stop offset="1" stop-color="#F9A31F" style="stop-color:#F9A31F;stop-color:color(display-p3 0.9765 0.6392 0.1216);stop-opacity:1;"/>
</linearGradient>
<linearGradient id="paint3_linear_9874_28895" x1="69.0391" y1="149.935" x2="126.046" y2="51.1961" gradientUnits="userSpaceOnUse">
<stop stop-color="#E75149" style="stop-color:#E75149;stop-color:color(display-p3 0.9059 0.3176 0.2863);stop-opacity:1;"/>
<stop offset="1" stop-color="#F9A31F" style="stop-color:#F9A31F;stop-color:color(display-p3 0.9765 0.6392 0.1216);stop-opacity:1;"/>
</linearGradient>
<linearGradient id="paint4_linear_9874_28895" x1="69.0391" y1="149.935" x2="126.046" y2="51.1961" gradientUnits="userSpaceOnUse">
<stop stop-color="#E75149" style="stop-color:#E75149;stop-color:color(display-p3 0.9059 0.3176 0.2863);stop-opacity:1;"/>
<stop offset="1" stop-color="#F9A31F" style="stop-color:#F9A31F;stop-color:color(display-p3 0.9765 0.6392 0.1216);stop-opacity:1;"/>
</linearGradient>
<linearGradient id="paint5_linear_9874_28895" x1="69.0391" y1="149.935" x2="126.046" y2="51.1961" gradientUnits="userSpaceOnUse">
<stop stop-color="#E75149" style="stop-color:#E75149;stop-color:color(display-p3 0.9059 0.3176 0.2863);stop-opacity:1;"/>
<stop offset="1" stop-color="#F9A31F" style="stop-color:#F9A31F;stop-color:color(display-p3 0.9765 0.6392 0.1216);stop-opacity:1;"/>
</linearGradient>
<linearGradient id="paint6_linear_9874_28895" x1="69.0391" y1="149.935" x2="126.046" y2="51.1961" gradientUnits="userSpaceOnUse">
<stop stop-color="#E75149" style="stop-color:#E75149;stop-color:color(display-p3 0.9059 0.3176 0.2863);stop-opacity:1;"/>
<stop offset="1" stop-color="#F9A31F" style="stop-color:#F9A31F;stop-color:color(display-p3 0.9765 0.6392 0.1216);stop-opacity:1;"/>
</linearGradient>
<linearGradient id="paint7_linear_9874_28895" x1="69.0391" y1="149.935" x2="126.046" y2="51.1961" gradientUnits="userSpaceOnUse">
<stop stop-color="#E75149" style="stop-color:#E75149;stop-color:color(display-p3 0.9059 0.3176 0.2863);stop-opacity:1;"/>
<stop offset="1" stop-color="#F9A31F" style="stop-color:#F9A31F;stop-color:color(display-p3 0.9765 0.6392 0.1216);stop-opacity:1;"/>
</linearGradient>
<linearGradient id="paint8_linear_9874_28895" x1="69.0391" y1="149.935" x2="126.046" y2="51.1961" gradientUnits="userSpaceOnUse">
<stop stop-color="#E75149" style="stop-color:#E75149;stop-color:color(display-p3 0.9059 0.3176 0.2863);stop-opacity:1;"/>
<stop offset="1" stop-color="#F9A31F" style="stop-color:#F9A31F;stop-color:color(display-p3 0.9765 0.6392 0.1216);stop-opacity:1;"/>
</linearGradient>
<linearGradient id="paint9_linear_9874_28895" x1="119.311" y1="36.7496" x2="130.699" y2="79.2504" gradientUnits="userSpaceOnUse">
<stop stop-color="#F9A51E" style="stop-color:#F9A51E;stop-color:color(display-p3 0.9765 0.6473 0.1176);stop-opacity:1;"/>
<stop offset="1" stop-color="#E7504A" style="stop-color:#E7504A;stop-color:color(display-p3 0.9059 0.3137 0.2902);stop-opacity:1;"/>
</linearGradient>
</defs>
</svg>
