<svg width="200" height="200" viewBox="0 0 200 200" fill="none" xmlns="http://www.w3.org/2000/svg">
<g opacity="0.7" filter="url(#filter0_f_9874_28913)">
<ellipse cx="99.5" cy="135" rx="56.5" ry="20" fill="#24A850" style="fill:#24A850;fill:color(display-p3 0.1400 0.6600 0.3133);fill-opacity:1;"/>
</g>
<g filter="url(#filter1_f_9874_28913)">
<path d="M42.3864 88.8957C39.2417 77.1595 46.2065 65.0961 57.9427 61.9514L111.614 47.5701C123.351 44.4254 135.414 51.3902 138.559 63.1264L153.145 117.562C156.146 128.765 149.498 140.28 138.295 143.281L82.692 158.18C71.4892 161.182 59.9741 154.534 56.9723 143.331L42.3864 88.8957Z" fill="url(#paint0_linear_9874_28913)" style=""/>
</g>
<rect x="37.7295" y="68.0326" width="97.6745" height="97.6745" rx="20" transform="rotate(-15 37.7295 68.0326)" fill="url(#paint1_linear_9874_28913)" style=""/>
<path d="M66.6729 125.531C68.8233 124.954 71.0342 126.23 71.6104 128.38L73.6971 136.168C74.2733 138.318 76.4832 139.594 78.6335 139.018L86.421 136.931C88.5714 136.355 90.7815 137.632 91.3577 139.782C91.9335 141.933 90.6579 144.143 88.5077 144.719L80.7201 146.805C74.2691 148.534 67.6382 144.705 65.9095 138.254L63.8229 130.467C63.2467 128.317 64.5228 126.107 66.6729 125.531Z" fill="url(#paint2_linear_9874_28913)" style=""/>
<path d="M136.76 106.751C138.91 106.175 141.12 107.451 141.696 109.601L143.783 117.388C145.511 123.839 141.683 130.47 135.232 132.199L127.444 134.286C125.294 134.862 123.084 133.586 122.508 131.436C121.932 129.285 123.207 127.074 125.358 126.498L133.145 124.412C135.295 123.835 136.571 121.625 135.995 119.475L133.908 111.688C133.332 109.537 134.609 107.327 136.76 106.751Z" fill="url(#paint3_linear_9874_28913)" style=""/>
<path d="M71.7005 97.2989C70.9328 96.1043 72.2963 94.7143 73.4492 95.516L90.1155 107.107C91.4143 108.011 93.1983 107.688 94.0997 106.389L100.302 97.4469C101.204 96.1475 102.986 95.8258 104.285 96.7285L121.386 108.619C122.498 109.392 121.872 111.164 120.55 110.989L110.617 109.669C110.16 109.608 109.693 109.66 109.26 109.818L89.6511 116.966C87.1379 117.881 84.3243 116.934 82.8758 114.681L71.7005 97.2989Z" fill="url(#paint4_linear_9874_28913)" style=""/>
<path d="M116.842 95.6318C117.984 93.7065 120.856 94.1293 121.441 96.3086C122.025 98.4878 119.749 100.292 117.798 99.1967C116.541 98.491 116.108 96.8717 116.842 95.6318Z" fill="url(#paint5_linear_9874_28913)" style=""/>
<path d="M73.3047 88.4393C72.2694 87.7192 72.7308 86.07 73.97 86.0603L110.692 85.773C111.759 85.7649 112.743 86.3531 113.244 87.2971L113.776 88.3013C114.278 89.249 114.211 90.3989 113.6 91.2797L112.916 92.2652C112.015 93.5644 110.232 93.886 108.933 92.9837L102.847 88.7502C101.548 87.847 99.7637 88.1693 98.8623 89.4687L92.66 98.4107C91.7587 99.7101 89.9756 100.032 88.6768 99.1291L73.3047 88.4393Z" fill="url(#paint6_linear_9874_28913)" style=""/>
<path d="M67.6416 66.8456C69.7918 66.2695 72.0016 67.5456 72.578 69.6956C73.1542 71.846 71.8787 74.0569 69.7283 74.6331L61.9408 76.7198C59.7906 77.2961 58.5147 79.506 59.0907 81.6562L61.1774 89.4437C61.7536 91.5941 60.4766 93.8042 58.3263 94.3804C56.176 94.9563 53.966 93.6806 53.3899 91.5304L51.3032 83.7429C49.5748 77.2918 53.4031 70.661 59.8541 68.9323L67.6416 66.8456Z" fill="url(#paint7_linear_9874_28913)" style=""/>
<path d="M114.366 54.3259C120.817 52.5975 127.448 56.4259 129.176 62.8768L131.263 70.6644C131.839 72.8146 130.563 75.0243 128.413 75.6008C126.263 76.1769 124.052 74.9014 123.475 72.751L121.389 64.9635C120.812 62.8133 118.603 61.5375 116.452 62.1135L108.665 64.2001C106.514 64.7763 104.304 63.4994 103.728 61.349C103.152 59.1988 104.428 56.9887 106.578 56.4126L114.366 54.3259Z" fill="url(#paint8_linear_9874_28913)" style=""/>
<circle cx="125.005" cy="58.0001" r="17.875" transform="rotate(-15 125.005 58.0001)" fill="#272C3A" style="fill:#272C3A;fill:color(display-p3 0.1529 0.1725 0.2275);fill-opacity:1;"/>
<path fill-rule="evenodd" clip-rule="evenodd" d="M119.31 36.7497C131.047 33.605 143.11 40.5698 146.255 52.3061C149.4 64.0423 142.435 76.1057 130.698 79.2504C118.962 82.3952 106.899 75.4303 103.754 63.6941C100.609 51.9578 107.574 39.8944 119.31 36.7497ZM135.197 47.4104C134.121 46.7893 132.745 47.1578 132.124 48.2339L123.349 63.432L115.499 58.9L115.294 58.7952C114.254 58.3278 113.009 58.7146 112.426 59.7235C111.805 60.7995 112.174 62.1754 113.25 62.7967L122.182 67.9536C123.736 68.8509 125.723 68.3184 126.621 66.7641L136.02 50.4837C136.642 49.4075 136.273 48.0317 135.197 47.4104Z" fill="url(#paint9_linear_9874_28913)" style=""/>
<defs>
<filter id="filter0_f_9874_28913" x="3" y="75" width="193" height="120" filterUnits="userSpaceOnUse" color-interpolation-filters="sRGB">
<feFlood flood-opacity="0" result="BackgroundImageFix"/>
<feBlend mode="normal" in="SourceGraphic" in2="BackgroundImageFix" result="shape"/>
<feGaussianBlur stdDeviation="20" result="effect1_foregroundBlur_9874_28913"/>
</filter>
<filter id="filter1_f_9874_28913" x="31.6313" y="36.815" width="132.234" height="132.086" filterUnits="userSpaceOnUse" color-interpolation-filters="sRGB">
<feFlood flood-opacity="0" result="BackgroundImageFix"/>
<feBlend mode="normal" in="SourceGraphic" in2="BackgroundImageFix" result="shape"/>
<feGaussianBlur stdDeviation="5" result="effect1_foregroundBlur_9874_28913"/>
</filter>
<linearGradient id="paint0_linear_9874_28913" x1="92.4898" y1="94.7574" x2="66.1968" y2="155.999" gradientUnits="userSpaceOnUse">
<stop offset="0.0113416" stop-color="#525B75" style="stop-color:#525B75;stop-color:color(display-p3 0.3198 0.3572 0.4602);stop-opacity:1;"/>
<stop offset="1" stop-color="#07960B" style="stop-color:#07960B;stop-color:color(display-p3 0.0275 0.5882 0.0431);stop-opacity:1;"/>
</linearGradient>
<linearGradient id="paint1_linear_9874_28913" x1="86.5667" y1="68.0326" x2="86.5667" y2="165.707" gradientUnits="userSpaceOnUse">
<stop stop-color="#272C3A" style="stop-color:#272C3A;stop-color:color(display-p3 0.1529 0.1725 0.2275);stop-opacity:1;"/>
<stop offset="1" stop-color="#33394C" style="stop-color:#33394C;stop-color:color(display-p3 0.2000 0.2235 0.2980);stop-opacity:1;"/>
</linearGradient>
<linearGradient id="paint2_linear_9874_28913" x1="69.0394" y1="149.935" x2="126.046" y2="51.1961" gradientUnits="userSpaceOnUse">
<stop stop-color="#07950A" style="stop-color:#07950A;stop-color:color(display-p3 0.0275 0.5843 0.0392);stop-opacity:1;"/>
<stop offset="1" stop-color="#0ABD0D" style="stop-color:#0ABD0D;stop-color:color(display-p3 0.0392 0.7412 0.0510);stop-opacity:1;"/>
</linearGradient>
<linearGradient id="paint3_linear_9874_28913" x1="69.0394" y1="149.935" x2="126.046" y2="51.1961" gradientUnits="userSpaceOnUse">
<stop stop-color="#07950A" style="stop-color:#07950A;stop-color:color(display-p3 0.0275 0.5843 0.0392);stop-opacity:1;"/>
<stop offset="1" stop-color="#0ABD0D" style="stop-color:#0ABD0D;stop-color:color(display-p3 0.0392 0.7412 0.0510);stop-opacity:1;"/>
</linearGradient>
<linearGradient id="paint4_linear_9874_28913" x1="69.0394" y1="149.935" x2="126.046" y2="51.1961" gradientUnits="userSpaceOnUse">
<stop stop-color="#07950A" style="stop-color:#07950A;stop-color:color(display-p3 0.0275 0.5843 0.0392);stop-opacity:1;"/>
<stop offset="1" stop-color="#0ABD0D" style="stop-color:#0ABD0D;stop-color:color(display-p3 0.0392 0.7412 0.0510);stop-opacity:1;"/>
</linearGradient>
<linearGradient id="paint5_linear_9874_28913" x1="69.0394" y1="149.935" x2="126.046" y2="51.1961" gradientUnits="userSpaceOnUse">
<stop stop-color="#07950A" style="stop-color:#07950A;stop-color:color(display-p3 0.0275 0.5843 0.0392);stop-opacity:1;"/>
<stop offset="1" stop-color="#0ABD0D" style="stop-color:#0ABD0D;stop-color:color(display-p3 0.0392 0.7412 0.0510);stop-opacity:1;"/>
</linearGradient>
<linearGradient id="paint6_linear_9874_28913" x1="69.0394" y1="149.935" x2="126.046" y2="51.1961" gradientUnits="userSpaceOnUse">
<stop stop-color="#07950A" style="stop-color:#07950A;stop-color:color(display-p3 0.0275 0.5843 0.0392);stop-opacity:1;"/>
<stop offset="1" stop-color="#0ABD0D" style="stop-color:#0ABD0D;stop-color:color(display-p3 0.0392 0.7412 0.0510);stop-opacity:1;"/>
</linearGradient>
<linearGradient id="paint7_linear_9874_28913" x1="69.0394" y1="149.935" x2="126.046" y2="51.1961" gradientUnits="userSpaceOnUse">
<stop stop-color="#07950A" style="stop-color:#07950A;stop-color:color(display-p3 0.0275 0.5843 0.0392);stop-opacity:1;"/>
<stop offset="1" stop-color="#0ABD0D" style="stop-color:#0ABD0D;stop-color:color(display-p3 0.0392 0.7412 0.0510);stop-opacity:1;"/>
</linearGradient>
<linearGradient id="paint8_linear_9874_28913" x1="69.0394" y1="149.935" x2="126.046" y2="51.1961" gradientUnits="userSpaceOnUse">
<stop stop-color="#07950A" style="stop-color:#07950A;stop-color:color(display-p3 0.0275 0.5843 0.0392);stop-opacity:1;"/>
<stop offset="1" stop-color="#0ABD0D" style="stop-color:#0ABD0D;stop-color:color(display-p3 0.0392 0.7412 0.0510);stop-opacity:1;"/>
</linearGradient>
<linearGradient id="paint9_linear_9874_28913" x1="109.448" y1="84.9444" x2="140.561" y2="31.0557" gradientUnits="userSpaceOnUse">
<stop stop-color="#07960A" style="stop-color:#07960A;stop-color:color(display-p3 0.0275 0.5882 0.0392);stop-opacity:1;"/>
<stop offset="1" stop-color="#0CE40F" style="stop-color:#0CE40F;stop-color:color(display-p3 0.0471 0.8941 0.0588);stop-opacity:1;"/>
</linearGradient>
</defs>
</svg>
