<svg width="120" height="120" viewBox="0 0 120 120" fill="none" xmlns="http://www.w3.org/2000/svg">
<path d="M37.284 94.8H38.136V98.004C37.744 98.348 37.28 98.612 36.744 98.796C36.208 98.98 35.644 99.072 35.052 99.072C34.212 99.072 33.456 98.888 32.784 98.52C32.112 98.152 31.584 97.644 31.2 96.996C30.816 96.34 30.624 95.608 30.624 94.8C30.624 93.992 30.816 93.264 31.2 92.616C31.584 91.96 32.112 91.448 32.784 91.08C33.456 90.712 34.216 90.528 35.064 90.528C35.704 90.528 36.292 90.632 36.828 90.84C37.364 91.04 37.816 91.34 38.184 91.74L37.632 92.304C36.968 91.648 36.124 91.32 35.1 91.32C34.42 91.32 33.804 91.472 33.252 91.776C32.708 92.072 32.28 92.488 31.968 93.024C31.656 93.552 31.5 94.144 31.5 94.8C31.5 95.456 31.656 96.048 31.968 96.576C32.28 97.104 32.708 97.52 33.252 97.824C33.796 98.128 34.408 98.28 35.088 98.28C35.952 98.28 36.684 98.064 37.284 97.632V94.8ZM46.3853 99L44.4653 96.3C44.2493 96.324 44.0253 96.336 43.7933 96.336H41.5373V99H40.6493V90.6H43.7933C44.8653 90.6 45.7053 90.856 46.3133 91.368C46.9213 91.88 47.2253 92.584 47.2253 93.48C47.2253 94.136 47.0573 94.692 46.7213 95.148C46.3933 95.596 45.9213 95.92 45.3053 96.12L47.3573 99H46.3853ZM43.7693 95.58C44.6013 95.58 45.2373 95.396 45.6773 95.028C46.1173 94.66 46.3372 94.144 46.3372 93.48C46.3372 92.8 46.1173 92.28 45.6773 91.92C45.2373 91.552 44.6013 91.368 43.7693 91.368H41.5373V95.58H43.7693ZM54.5891 96.756H49.9091L48.9011 99H47.9771L51.8171 90.6H52.6931L56.5331 99H55.5971L54.5891 96.756ZM54.2651 96.036L52.2491 91.524L50.2331 96.036H54.2651ZM58.8107 91.368V94.668H63.1547V95.436H58.8107V99H57.9227V90.6H63.6827V91.368H58.8107ZM70.386 96.756H65.706L64.698 99H63.774L67.614 90.6H68.49L72.33 99H71.394L70.386 96.756ZM70.062 96.036L68.046 91.524L66.03 96.036H70.062ZM80.7396 90.6V99H80.0076L74.6076 92.184V99H73.7196V90.6H74.4516L79.8636 97.416V90.6H80.7396ZM88.7493 96.756H84.0693L83.0613 99H82.1373L85.9773 90.6H86.8533L90.6933 99H89.7573L88.7493 96.756ZM88.4253 96.036L86.4093 91.524L84.3933 96.036H88.4253Z" fill="black"/>
<path d="M79.909 49.4104C79.842 48.6718 79.7127 47.8197 79.4637 46.8776C79.2147 45.9402 78.8459 44.9128 78.3144 43.8429C77.7733 42.7824 77.0694 41.6746 76.1595 40.6047C75.8052 40.1833 75.4173 39.7715 74.9959 39.3643C75.6232 36.9025 74.2345 34.7721 74.2345 34.7721C71.8402 34.6253 70.3174 35.5059 69.7524 35.9131C69.6566 35.8752 69.5656 35.8326 69.4699 35.7947C69.0628 35.629 68.6414 35.4775 68.2105 35.345C67.7795 35.2124 67.3389 35.0893 66.8888 34.9804C66.4387 34.8763 65.979 34.7863 65.5145 34.7153C65.4331 34.7011 65.3517 34.6916 65.2703 34.6822C64.2263 31.3777 61.2239 30 61.2239 30C57.8815 32.0973 57.2446 35.0325 57.2446 35.0325C57.2446 35.0325 57.2302 35.0988 57.211 35.2077C57.0243 35.2597 56.8423 35.3118 56.6556 35.3686C56.397 35.4444 56.148 35.5391 55.8894 35.629C55.6356 35.7284 55.3818 35.8231 55.128 35.932C54.6252 36.145 54.1224 36.3865 53.634 36.6563C53.1599 36.9215 52.6954 37.2102 52.2405 37.5227C52.1734 37.4943 52.1256 37.4706 52.1256 37.4706C47.495 35.7237 43.3816 37.8257 43.3816 37.8257C43.0081 42.6972 45.23 45.765 45.6705 46.3189C45.5604 46.6219 45.4598 46.9249 45.364 47.2326C45.0193 48.3357 44.7655 49.4672 44.6075 50.6413C44.5835 50.807 44.5644 50.9774 44.5452 51.1478C40.269 53.2356 39 57.5201 39 57.5201C42.5723 61.5821 46.7336 61.833 46.7336 61.833C46.7384 61.8283 46.7432 61.8283 46.7432 61.8235C47.2747 62.7562 47.8876 63.6462 48.5724 64.4747C48.8597 64.8203 49.1662 65.1564 49.4775 65.4784C48.175 69.1569 49.6594 72.2247 49.6594 72.2247C53.634 72.3714 56.2485 70.5061 56.7944 70.0753C57.1919 70.2079 57.5893 70.3262 57.9964 70.4304C59.2175 70.7428 60.4673 70.9227 61.7171 70.9796C62.0284 70.9938 62.3396 70.9985 62.6557 70.9985H62.8089L62.9095 70.9938L63.1058 70.989L63.3021 70.9796L63.3069 70.9843C65.1793 73.626 68.4738 74 68.4738 74C70.8155 71.5571 70.9495 69.1379 70.9495 68.6124C70.9495 68.6124 70.9495 68.5935 70.9495 68.5793C70.9495 68.5367 70.9495 68.5035 70.9495 68.5035C70.9495 68.4657 70.9448 68.4325 70.9448 68.3899C71.438 68.0491 71.9073 67.6845 72.3478 67.2916C73.2864 66.4536 74.1052 65.4973 74.7852 64.47C74.8475 64.3753 74.9097 64.2759 74.972 64.1765C77.6249 64.328 79.4924 62.5526 79.4924 62.5526C79.0519 59.821 77.4764 58.4906 77.1508 58.235C77.1508 58.235 77.1364 58.2255 77.1173 58.2113C77.0981 58.1971 77.0885 58.1876 77.0885 58.1876C77.0694 58.1782 77.0502 58.164 77.0311 58.1498C77.0454 57.9841 77.0598 57.8231 77.0694 57.6574C77.0885 57.3639 77.0981 57.0704 77.0981 56.7768V56.5591V56.4502V56.3934C77.0981 56.3176 77.0981 56.346 77.0981 56.3176L77.0885 56.133L77.0742 55.8868C77.0694 55.8016 77.0646 55.7258 77.055 55.6501C77.0502 55.5743 77.0406 55.4986 77.0311 55.4229L77.0023 55.1956L76.9688 54.9684C76.9257 54.6701 76.8635 54.3719 76.7964 54.0736C76.5187 52.8948 76.0542 51.7775 75.4412 50.7738C74.8283 49.7702 74.0621 48.8801 73.205 48.1321C72.343 47.3794 71.3805 46.7781 70.3701 46.3284C69.3597 45.8786 68.2967 45.5898 67.2384 45.4573C66.7116 45.391 66.1801 45.3626 65.6581 45.3673L65.4618 45.3721H65.4139C65.3996 45.3721 65.3421 45.3721 65.3469 45.3721L65.2655 45.3768L65.0739 45.391C65.0021 45.3957 64.9255 45.4005 64.8584 45.4099C64.5903 45.4336 64.3221 45.4715 64.0635 45.5236C63.0148 45.7177 62.0236 46.0917 61.1473 46.6077C60.2758 47.1237 59.5144 47.7723 58.8966 48.5014C58.2789 49.2352 57.8 50.0448 57.4696 50.8827C57.1392 51.7207 56.9573 52.587 56.9046 53.4297C56.8902 53.638 56.8854 53.8511 56.8902 54.0547C56.8902 54.1067 56.8902 54.1588 56.895 54.2109L56.8998 54.3813C56.9094 54.4807 56.9142 54.5849 56.9237 54.6843C56.9668 55.1104 57.0434 55.5175 57.1584 55.9152C57.3882 56.7011 57.7569 57.416 58.2167 58.0219C58.6716 58.6279 59.2175 59.1298 59.7969 59.5227C60.3763 59.9156 60.994 60.195 61.607 60.3701C62.2199 60.55 62.8281 60.6258 63.4027 60.6258C63.4745 60.6258 63.5464 60.6258 63.6182 60.621C63.6565 60.621 63.6948 60.6163 63.7331 60.6163C63.7714 60.6163 63.8097 60.6116 63.848 60.6116C63.9103 60.6068 63.9678 60.5974 64.03 60.5926C64.0444 60.5926 64.0635 60.5879 64.0827 60.5879L64.1402 60.5784C64.1785 60.5737 64.212 60.569 64.2503 60.5642C64.3269 60.5548 64.3892 60.5406 64.461 60.5264C64.528 60.5122 64.5951 60.5027 64.6621 60.4838C64.7962 60.4553 64.9207 60.4175 65.0452 60.3749C65.2942 60.2944 65.5288 60.195 65.7491 60.0861C65.9694 59.9725 66.1705 59.8494 66.3573 59.7215C66.41 59.6837 66.4626 59.6458 66.5153 59.6032C66.7164 59.447 66.7499 59.1582 66.5871 58.9641C66.4483 58.7936 66.204 58.751 66.0125 58.8552C65.9646 58.8788 65.9167 58.9073 65.8688 58.9309C65.7012 59.0114 65.5288 59.0824 65.3421 59.144C65.1553 59.2008 64.9638 59.2481 64.7627 59.286C64.6621 59.3002 64.5616 59.3144 64.4562 59.3239C64.4035 59.3286 64.3509 59.3333 64.303 59.3333C64.2503 59.3333 64.1976 59.3381 64.1497 59.3381C64.1018 59.3381 64.0492 59.3381 64.0013 59.3333C63.939 59.3286 63.8768 59.3286 63.8145 59.3239C63.8145 59.3239 63.781 59.3239 63.8097 59.3239H63.7906L63.7475 59.3191C63.7188 59.3144 63.69 59.3144 63.6661 59.3097C63.6086 59.3049 63.5559 59.2955 63.4985 59.2907C63.0484 59.2292 62.5934 59.1014 62.1577 58.9025C61.7171 58.7084 61.2957 58.4338 60.9174 58.0977C60.5391 57.7616 60.2087 57.3544 59.9501 56.8952C59.6915 56.436 59.5096 55.9294 59.4234 55.3944C59.3803 55.1293 59.3611 54.85 59.3707 54.5802C59.3755 54.5044 59.3755 54.4334 59.3803 54.3576C59.3803 54.3766 59.3803 54.3482 59.3803 54.3434V54.315L59.3851 54.2582C59.3899 54.2204 59.3899 54.1872 59.3946 54.1493C59.409 54.0026 59.433 53.8558 59.4569 53.7091C59.6628 52.5444 60.2518 51.4082 61.1664 50.5466C61.3963 50.3335 61.6405 50.13 61.9039 49.9548C62.1672 49.7749 62.445 49.6187 62.7323 49.4861C63.0244 49.3536 63.3261 49.2447 63.6374 49.1642C63.9486 49.0837 64.2694 49.0269 64.5903 48.9985C64.7531 48.9843 64.9159 48.9796 65.0787 48.9796C65.1218 48.9796 65.1553 48.9796 65.1889 48.9796L65.3229 48.9843L65.4043 48.989C65.4379 48.989 65.4043 48.989 65.4187 48.989H65.4522L65.5863 48.9985C65.9359 49.0269 66.2854 49.0742 66.6302 49.1547C67.3198 49.3062 67.9902 49.5571 68.6175 49.898C69.8673 50.5845 70.9352 51.6544 71.5864 52.9468C71.9168 53.5907 72.1467 54.2819 72.2616 54.9968C72.2904 55.1767 72.3095 55.3566 72.3239 55.5365L72.3334 55.6738L72.3382 55.8111C72.343 55.8584 72.343 55.901 72.343 55.9484C72.343 55.9957 72.3478 56.043 72.343 56.0762V56.1945L72.3382 56.3271C72.3335 56.417 72.3287 56.5591 72.3239 56.649C72.3095 56.8479 72.2904 57.042 72.2664 57.2408C72.2425 57.4349 72.2089 57.629 72.1754 57.8231C72.1371 58.0172 72.094 58.2066 72.0461 58.396C71.9504 58.7747 71.8259 59.1534 71.6774 59.518C71.3853 60.2518 70.9926 60.9477 70.5234 61.5916C69.58 62.8745 68.2919 63.9208 66.8266 64.5836C66.0939 64.9103 65.3181 65.1517 64.528 65.2795C64.1306 65.3458 63.7283 65.3837 63.3261 65.3979L63.2495 65.4026H63.1872H63.0579H62.8616H62.761C62.8137 65.4026 62.7515 65.4026 62.7562 65.4026H62.7179C62.5025 65.3979 62.287 65.3884 62.0715 65.3695C61.2095 65.3079 60.3619 65.1564 59.5383 64.9197C58.7147 64.683 57.915 64.3658 57.1584 63.9682C55.6452 63.1681 54.2948 62.0745 53.2365 60.7536C52.705 60.0955 52.2405 59.3901 51.8574 58.6469C51.4743 57.9036 51.1726 57.1224 50.9476 56.3271C50.7273 55.527 50.5884 54.7127 50.5357 53.889L50.5262 53.7327L50.5214 53.6949V53.6617V53.5954L50.5166 53.4581V53.425V53.3777V53.283L50.5118 53.0936V53.0557C50.5118 53.0605 50.5118 53.0605 50.5118 53.0415V52.9658C50.5118 52.8664 50.5166 52.7669 50.5166 52.6628C50.5309 52.2556 50.5645 51.839 50.6219 51.4224C50.6746 51.0058 50.7464 50.5845 50.8326 50.1678C50.9188 49.7512 51.0242 49.3394 51.1391 48.9369C51.3737 48.1274 51.6658 47.3415 52.0154 46.5982C52.7098 45.1117 53.6196 43.8003 54.7162 42.7493C54.9891 42.4842 55.2717 42.2333 55.5686 42.0013C55.8607 41.7693 56.1671 41.5515 56.4832 41.348C56.7944 41.1444 57.1201 40.955 57.4553 40.7846C57.6181 40.6946 57.7905 40.6189 57.9581 40.5384C58.0443 40.5005 58.1305 40.4627 58.2167 40.4248C58.3028 40.3869 58.389 40.349 58.4752 40.3159C58.82 40.1691 59.1792 40.0508 59.5383 39.9372C59.6293 39.9088 59.7203 39.8851 59.8113 39.8567C59.9022 39.8283 59.9932 39.8093 60.0842 39.7809C60.2662 39.7289 60.4529 39.6862 60.6349 39.6436C60.7259 39.62 60.8217 39.601 60.9126 39.5821C61.0036 39.5632 61.0994 39.5442 61.1904 39.5253C61.2861 39.5063 61.3771 39.4921 61.4729 39.4732L61.6118 39.4495L61.7506 39.4306C61.8464 39.4164 61.9374 39.4022 62.0332 39.388C62.1385 39.3691 62.2439 39.3643 62.3492 39.3454C62.4354 39.3359 62.5791 39.317 62.6653 39.3075C62.7323 39.3028 62.7993 39.2933 62.8664 39.2886L63.0005 39.2744L63.0675 39.2696L63.1441 39.2649C63.2495 39.2602 63.3548 39.2507 63.465 39.246L63.623 39.2365C63.623 39.2365 63.6804 39.2365 63.6326 39.2365H63.6661L63.7331 39.2318C63.8241 39.227 63.9151 39.2223 64.0061 39.2176C64.3652 39.2081 64.7244 39.2081 65.0835 39.2176C65.797 39.246 66.4961 39.3217 67.1761 39.4495C68.5361 39.7005 69.8146 40.1313 70.9735 40.6994C72.1323 41.258 73.1715 41.9492 74.0717 42.6972C74.1292 42.7446 74.1818 42.7919 74.2393 42.8393C74.292 42.8866 74.3494 42.9339 74.4021 42.9813C74.5123 43.076 74.6176 43.1754 74.723 43.2701C74.8283 43.3648 74.9289 43.4642 75.0294 43.5636C75.13 43.663 75.2305 43.7624 75.3215 43.8618C75.7046 44.2643 76.059 44.6667 76.375 45.0738C77.0167 45.8881 77.5291 46.7119 77.9361 47.4883C77.9601 47.5356 77.9888 47.583 78.0127 47.635C78.0367 47.6824 78.0606 47.7297 78.0846 47.7818C78.1324 47.8765 78.1803 47.9712 78.2234 48.0658C78.2665 48.1605 78.3144 48.2552 78.3527 48.3452C78.3958 48.4399 78.4341 48.5298 78.4724 48.6198C78.6257 48.9843 78.7645 49.3299 78.8747 49.6566C79.0614 50.1821 79.2003 50.6602 79.3056 51.0768C79.3487 51.2425 79.5068 51.3514 79.6792 51.3372C79.8563 51.323 79.9952 51.1762 80 51.0011C79.9713 50.5277 79.9617 50.0069 79.909 49.4104Z" fill="url(#paint0_linear)"/>
<defs>
<linearGradient id="paint0_linear" x1="59.483" y1="83.8859" x2="59.483" y2="43.6941" gradientUnits="userSpaceOnUse">
<stop stop-color="#FFF100"/>
<stop offset="1" stop-color="#F05A28"/>
</linearGradient>
</defs>
</svg>
