<svg width="120" height="120" viewBox="0 0 120 120" fill="none" xmlns="http://www.w3.org/2000/svg">
<path d="M23.684 106.072C23.06 106.072 22.46 105.972 21.884 105.772C21.316 105.572 20.876 105.308 20.564 104.98L20.912 104.296C21.216 104.6 21.62 104.848 22.124 105.04C22.628 105.224 23.148 105.316 23.684 105.316C24.436 105.316 25 105.18 25.376 104.908C25.752 104.628 25.94 104.268 25.94 103.828C25.94 103.492 25.836 103.224 25.628 103.024C25.428 102.824 25.18 102.672 24.884 102.568C24.588 102.456 24.176 102.336 23.648 102.208C23.016 102.048 22.512 101.896 22.136 101.752C21.76 101.6 21.436 101.372 21.164 101.068C20.9 100.764 20.768 100.352 20.768 99.832C20.768 99.408 20.88 99.024 21.104 98.68C21.328 98.328 21.672 98.048 22.136 97.84C22.6 97.632 23.176 97.528 23.864 97.528C24.344 97.528 24.812 97.596 25.268 97.732C25.732 97.86 26.132 98.04 26.468 98.272L26.168 98.98C25.816 98.748 25.44 98.576 25.04 98.464C24.64 98.344 24.248 98.284 23.864 98.284C23.128 98.284 22.572 98.428 22.196 98.716C21.828 98.996 21.644 99.36 21.644 99.808C21.644 100.144 21.744 100.416 21.944 100.624C22.152 100.824 22.408 100.98 22.712 101.092C23.024 101.196 23.44 101.312 23.96 101.44C24.576 101.592 25.072 101.744 25.448 101.896C25.832 102.04 26.156 102.264 26.42 102.568C26.684 102.864 26.816 103.268 26.816 103.78C26.816 104.204 26.7 104.592 26.468 104.944C26.244 105.288 25.896 105.564 25.424 105.772C24.952 105.972 24.372 106.072 23.684 106.072ZM32.1348 106.072C31.0468 106.072 30.1988 105.76 29.5908 105.136C28.9828 104.512 28.6788 103.604 28.6788 102.412V97.6H29.5668V102.376C29.5668 103.352 29.7868 104.08 30.2268 104.56C30.6668 105.04 31.3028 105.28 32.1348 105.28C32.9748 105.28 33.6148 105.04 34.0548 104.56C34.4948 104.08 34.7148 103.352 34.7148 102.376V97.6H35.5788V102.412C35.5788 103.604 35.2748 104.512 34.6668 105.136C34.0668 105.76 33.2228 106.072 32.1348 106.072ZM41.3987 97.6C42.4707 97.6 43.3107 97.856 43.9187 98.368C44.5267 98.88 44.8307 99.584 44.8307 100.48C44.8307 101.376 44.5267 102.08 43.9187 102.592C43.3107 103.096 42.4707 103.348 41.3987 103.348H39.1427V106H38.2547V97.6H41.3987ZM41.3747 102.568C42.2067 102.568 42.8427 102.388 43.2827 102.028C43.7227 101.66 43.9427 101.144 43.9427 100.48C43.9427 99.8 43.7227 99.28 43.2827 98.92C42.8427 98.552 42.2067 98.368 41.3747 98.368H39.1427V102.568H41.3747ZM52.6908 105.232V106H46.7508V97.6H52.5108V98.368H47.6388V101.356H51.9828V102.112H47.6388V105.232H52.6908ZM60.5142 106L58.5942 103.3C58.3782 103.324 58.1542 103.336 57.9222 103.336H55.6662V106H54.7782V97.6H57.9222C58.9942 97.6 59.8342 97.856 60.4422 98.368C61.0502 98.88 61.3542 99.584 61.3542 100.48C61.3542 101.136 61.1862 101.692 60.8502 102.148C60.5222 102.596 60.0502 102.92 59.4342 103.12L61.4862 106H60.5142ZM57.8982 102.58C58.7302 102.58 59.3662 102.396 59.8062 102.028C60.2462 101.66 60.4662 101.144 60.4662 100.48C60.4662 99.8 60.2462 99.28 59.8062 98.92C59.3662 98.552 58.7302 98.368 57.8982 98.368H55.6662V102.58H57.8982ZM70.434 97.6L66.714 106H65.838L62.118 97.6H63.078L66.294 104.896L69.534 97.6H70.434ZM71.6532 97.6H72.5412V106H71.6532V97.6ZM77.5903 106.072C76.9663 106.072 76.3663 105.972 75.7903 105.772C75.2223 105.572 74.7823 105.308 74.4703 104.98L74.8183 104.296C75.1223 104.6 75.5263 104.848 76.0303 105.04C76.5343 105.224 77.0543 105.316 77.5903 105.316C78.3423 105.316 78.9063 105.18 79.2823 104.908C79.6583 104.628 79.8463 104.268 79.8463 103.828C79.8463 103.492 79.7423 103.224 79.5343 103.024C79.3343 102.824 79.0863 102.672 78.7903 102.568C78.4943 102.456 78.0823 102.336 77.5543 102.208C76.9223 102.048 76.4183 101.896 76.0423 101.752C75.6663 101.6 75.3423 101.372 75.0703 101.068C74.8063 100.764 74.6743 100.352 74.6743 99.832C74.6743 99.408 74.7863 99.024 75.0103 98.68C75.2343 98.328 75.5783 98.048 76.0423 97.84C76.5063 97.632 77.0823 97.528 77.7703 97.528C78.2503 97.528 78.7183 97.596 79.1743 97.732C79.6383 97.86 80.0383 98.04 80.3743 98.272L80.0742 98.98C79.7223 98.748 79.3463 98.576 78.9463 98.464C78.5463 98.344 78.1543 98.284 77.7703 98.284C77.0343 98.284 76.4783 98.428 76.1023 98.716C75.7343 98.996 75.5503 99.36 75.5503 99.808C75.5503 100.144 75.6503 100.416 75.8503 100.624C76.0583 100.824 76.3143 100.98 76.6183 101.092C76.9303 101.196 77.3463 101.312 77.8663 101.44C78.4823 101.592 78.9783 101.744 79.3543 101.896C79.7383 102.04 80.0623 102.264 80.3263 102.568C80.5903 102.864 80.7223 103.268 80.7223 103.78C80.7223 104.204 80.6063 104.592 80.3743 104.944C80.1503 105.288 79.8023 105.564 79.3303 105.772C78.8583 105.972 78.2783 106.072 77.5903 106.072ZM86.3291 106.072C85.4971 106.072 84.7411 105.888 84.0611 105.52C83.3891 105.144 82.8611 104.632 82.4771 103.984C82.1011 103.336 81.9131 102.608 81.9131 101.8C81.9131 100.992 82.1011 100.264 82.4771 99.616C82.8611 98.968 83.3891 98.46 84.0611 98.092C84.7411 97.716 85.4971 97.528 86.3291 97.528C87.1611 97.528 87.9091 97.712 88.5731 98.08C89.2451 98.448 89.7731 98.96 90.1571 99.616C90.5411 100.264 90.7331 100.992 90.7331 101.8C90.7331 102.608 90.5411 103.34 90.1571 103.996C89.7731 104.644 89.2451 105.152 88.5731 105.52C87.9091 105.888 87.1611 106.072 86.3291 106.072ZM86.3291 105.28C86.9931 105.28 87.5931 105.132 88.1291 104.836C88.6651 104.532 89.0851 104.116 89.3891 103.588C89.6931 103.052 89.8451 102.456 89.8451 101.8C89.8451 101.144 89.6931 100.552 89.3891 100.024C89.0851 99.488 88.6651 99.072 88.1291 98.776C87.5931 98.472 86.9931 98.32 86.3291 98.32C85.6651 98.32 85.0611 98.472 84.5171 98.776C83.9811 99.072 83.5571 99.488 83.2451 100.024C82.9411 100.552 82.7891 101.144 82.7891 101.8C82.7891 102.456 82.9411 103.052 83.2451 103.588C83.5571 104.116 83.9811 104.532 84.5171 104.836C85.0611 105.132 85.6651 105.28 86.3291 105.28ZM98.4595 106L96.5395 103.3C96.3235 103.324 96.0995 103.336 95.8675 103.336H93.6115V106H92.7235V97.6H95.8675C96.9395 97.6 97.7795 97.856 98.3875 98.368C98.9955 98.88 99.2995 99.584 99.2995 100.48C99.2995 101.136 99.1315 101.692 98.7955 102.148C98.4675 102.596 97.9955 102.92 97.3795 103.12L99.4315 106H98.4595ZM95.8435 102.58C96.6755 102.58 97.3115 102.396 97.7515 102.028C98.1915 101.66 98.4115 101.144 98.4115 100.48C98.4115 99.8 98.1915 99.28 97.7515 98.92C97.3115 98.552 96.6755 98.368 95.8435 98.368H93.6115V102.58H95.8435Z" fill="black"/>
<rect x="31" y="22" width="12" height="3" rx="1.5" fill="#E9E9E9"/>
<rect x="31" y="48" width="12" height="3" rx="1.5" fill="#E9E9E9"/>
<rect x="31" y="74" width="12" height="3" rx="1.5" fill="#E9E9E9"/>
<rect x="45" y="22" width="17" height="3" rx="1.5" fill="#E9E9E9"/>
<rect x="45" y="48" width="17" height="3" rx="1.5" fill="#E9E9E9"/>
<rect x="45" y="74" width="17" height="3" rx="1.5" fill="#E9E9E9"/>
<rect x="65" y="22" width="45" height="3" rx="1.5" fill="#E9E9E9"/>
<rect x="65" y="48" width="45" height="3" rx="1.5" fill="#E9E9E9"/>
<rect x="65" y="74" width="45" height="3" rx="1.5" fill="#E9E9E9"/>
<rect x="31" y="17" width="79" height="3" rx="1.5" fill="#E9E9E9"/>
<rect x="31" y="43" width="79" height="3" rx="1.5" fill="#E9E9E9"/>
<rect x="31" y="69" width="79" height="3" rx="1.5" fill="#E9E9E9"/>
<path d="M18 13C13.5849 13 10 16.5849 10 21C10 25.4151 13.5849 29 18 29C22.4151 29 26 25.4151 26 21C26 16.5975 22.4025 13 18 13ZM16.8176 23.0503C17.1195 23.3396 17.4843 23.6415 17.8994 23.7044C17.912 23.717 17.9245 23.717 17.9497 23.717C17.9623 23.717 17.9748 23.717 18 23.717C18.0126 23.717 18.0252 23.717 18.0503 23.717C18.0755 23.717 18.0881 23.717 18.1006 23.7044C18.5157 23.6415 18.8805 23.3522 19.1824 23.0503C19.195 23.5031 19.2704 23.956 19.2704 24.4088C19.2579 25.0377 18.6541 25.5912 18.0126 25.6164C17.3711 25.5912 16.7547 25.0377 16.7547 24.4088C16.7296 23.956 16.805 23.5031 16.8176 23.0503ZM15.7484 21.239C15.4843 20.7484 15.4843 20.283 15.522 19.7421C15.5472 19.2264 15.5723 18.7233 15.6101 18.2201C15.6855 18.2201 15.7736 18.2075 15.8616 18.1824C15.9874 18.1321 16.0503 18.0314 16.0755 17.9182C16.2138 18.0063 16.4025 18.0314 16.5535 17.9686C16.5912 17.956 16.6164 17.9182 16.6415 17.8679C16.8679 18.2453 17.283 18.4088 17.7484 18.3711C17.9874 18.3585 18.2893 18.1195 18.4654 17.8553C18.5157 17.9308 18.6038 17.9937 18.717 18.044C18.8931 18.1195 19.0692 18.0943 19.2201 18.0189C19.283 18.1195 19.3837 18.2075 19.522 18.283C19.8365 18.434 20.1006 18.434 20.3774 18.3082C20.4151 18.7862 20.4277 19.2641 20.4528 19.7547C20.478 20.2956 20.4906 20.761 20.2264 21.2516C19.9371 21.7799 19.673 22.2956 19.2201 22.7107C18.8679 23.0377 18.4906 23.478 17.9748 23.5157C17.4717 23.478 17.0818 23.0377 16.7296 22.7107C16.3019 22.283 16.0377 21.7799 15.7484 21.239ZM23.3333 26.4088C23.1195 26.0314 22.9057 25.6415 22.7296 25.2516C22.4654 24.6604 21.912 24.6352 21.3333 24.4717C20.6918 24.283 20.0629 24.0314 19.434 23.8302C19.434 23.8302 19.434 23.8302 19.4214 23.8302C19.3837 23.5031 19.3585 23.1887 19.3711 22.8616V22.8491C19.7359 22.4717 20.0377 22.0943 20.2767 21.6164C20.3899 21.3774 20.5283 21.1509 20.6164 20.912C20.6164 20.8994 20.6164 20.8994 20.6164 20.8868C21.1572 20.9874 21.0063 20.044 21.1321 19.7547C21.195 19.6038 21.2201 19.478 21.2076 19.3648C21.8113 19.4528 22.0377 18.4591 21.6101 18.1321C21.8113 17.9811 21.9623 17.6918 21.9371 17.478C21.8868 17 21.7107 16.6604 21.2453 16.4717C21.3208 16.3711 21.3459 16.2453 21.2956 16.1069C21.2201 15.8931 21.0315 15.7673 20.8302 15.7673C20.8805 15.5157 20.8428 15.239 20.7296 15.1006C20.478 14.8113 20 14.5849 19.6352 14.7484C19.6101 14.6604 19.5723 14.5849 19.522 14.5346C19.4214 14.434 19.2579 14.434 19.1195 14.4969C19.0566 14.3208 18.9308 14.1698 18.7547 14.1195C18.6415 14.0943 18.5031 14.1069 18.3774 14.1447C18.2013 14.0063 17.9245 14.0566 17.7484 14.195C17.5975 14.1069 17.4088 14.0692 17.2704 14.1195C17.0943 14.1698 16.956 14.3208 16.9057 14.4969C16.7673 14.4465 16.6038 14.434 16.5031 14.5346C16.4528 14.5849 16.4151 14.6604 16.3899 14.7484C16.0252 14.5723 15.5346 14.7987 15.2956 15.1006C15.1824 15.239 15.1447 15.5157 15.195 15.7673C14.9811 15.7673 14.7925 15.8931 14.7296 16.1069C14.6792 16.2453 14.717 16.3711 14.7799 16.4717C14.3145 16.6478 14.1384 16.9874 14.0881 17.478C14.0629 17.6918 14.2138 17.9811 14.4151 18.1321C13.9748 18.4591 14.2013 19.4528 14.8176 19.3648C14.805 19.478 14.8302 19.6164 14.8931 19.7547C15.0189 20.0314 14.8805 20.9623 15.3962 20.8868V20.8994C15.4843 21.1509 15.6226 21.3774 15.7359 21.6038C15.9874 22.0943 16.2893 22.4591 16.6415 22.8365V22.8491C16.6541 23.1761 16.6289 23.4906 16.5912 23.8176H16.5786C15.9371 24.0063 15.3208 24.2704 14.6792 24.4591C14.1006 24.6226 13.5472 24.6478 13.283 25.239C13.1069 25.6289 12.8931 26.0189 12.6792 26.3962C11.283 25.0126 10.4277 23.1006 10.4277 21C10.4277 16.8113 13.8365 13.4025 18.0252 13.4025C22.2138 13.4025 25.6226 16.8113 25.6226 21C25.5975 23.1132 24.7296 25.0252 23.3333 26.4088ZM20.6793 20.0189C20.6667 19.7421 20.6541 19.4654 20.6415 19.1887C21.0063 19.1258 21.0315 19.5031 20.9182 19.7673C20.8931 19.8176 20.8805 19.8679 20.8679 19.9308C20.8554 20.044 20.8805 20.6855 20.6667 20.6981C20.7044 20.4717 20.6918 20.2453 20.6793 20.0189ZM15.3208 20.6855C15.1195 20.6478 15.1447 20.044 15.1321 19.9308C15.1321 19.8805 15.1069 19.8176 15.0818 19.7673C14.9686 19.5157 14.9937 19.1384 15.3459 19.1887C15.3333 19.4654 15.3208 19.7421 15.3082 20.0189C15.2956 20.2453 15.283 20.4591 15.3208 20.6855Z" fill="#E9E9E9"/>
<path d="M18.5155 22.3082C18.6035 22.2704 18.6916 22.2327 18.7293 22.1698C18.7671 22.1069 18.7922 22.0566 18.8048 21.9937C18.8174 21.9811 18.8174 21.9685 18.8174 21.956C18.8299 21.9434 18.8425 21.9308 18.8425 21.9056C18.8425 21.8176 18.8174 21.717 18.6916 21.6792C18.5784 21.6415 18.4777 21.6038 18.3394 21.6038C18.1884 21.6038 18.0752 21.6667 17.9872 21.7421C17.9117 21.6667 17.7985 21.6038 17.635 21.6038C17.4966 21.6038 17.396 21.6289 17.2828 21.6792C17.157 21.7295 17.1318 21.8302 17.1318 21.9056C17.1318 21.9308 17.1444 21.9434 17.157 21.956C17.157 21.9685 17.157 21.9811 17.1696 21.9937C17.1821 22.0566 17.2073 22.1195 17.245 22.1698C17.2828 22.2327 17.3708 22.2704 17.4589 22.3082C17.5972 22.3585 17.8111 22.3836 17.9746 22.3585C18.1507 22.3836 18.3771 22.3585 18.5155 22.3082Z" fill="#E9E9E9"/>
<path d="M18 39C13.5849 39 10 42.5849 10 47C10 51.4151 13.5849 55 18 55C22.4151 55 26 51.4151 26 47C26 42.5975 22.4025 39 18 39ZM16.8176 49.0503C17.1195 49.3396 17.4843 49.6415 17.8994 49.7044C17.912 49.717 17.9245 49.717 17.9497 49.717C17.9623 49.717 17.9748 49.717 18 49.717C18.0126 49.717 18.0252 49.717 18.0503 49.717C18.0755 49.717 18.0881 49.717 18.1006 49.7044C18.5157 49.6415 18.8805 49.3522 19.1824 49.0503C19.195 49.5031 19.2704 49.956 19.2704 50.4088C19.2579 51.0377 18.6541 51.5912 18.0126 51.6164C17.3711 51.5912 16.7547 51.0377 16.7547 50.4088C16.7296 49.956 16.805 49.5031 16.8176 49.0503ZM15.7484 47.239C15.4843 46.7484 15.4843 46.283 15.522 45.7421C15.5472 45.2264 15.5723 44.7233 15.6101 44.2201C15.6855 44.2201 15.7736 44.2075 15.8616 44.1824C15.9874 44.1321 16.0503 44.0314 16.0755 43.9182C16.2138 44.0063 16.4025 44.0314 16.5535 43.9686C16.5912 43.956 16.6164 43.9182 16.6415 43.8679C16.8679 44.2453 17.283 44.4088 17.7484 44.3711C17.9874 44.3585 18.2893 44.1195 18.4654 43.8553C18.5157 43.9308 18.6038 43.9937 18.717 44.044C18.8931 44.1195 19.0692 44.0943 19.2201 44.0189C19.283 44.1195 19.3837 44.2075 19.522 44.283C19.8365 44.434 20.1006 44.434 20.3774 44.3082C20.4151 44.7862 20.4277 45.2641 20.4528 45.7547C20.478 46.2956 20.4906 46.761 20.2264 47.2516C19.9371 47.7799 19.673 48.2956 19.2201 48.7107C18.8679 49.0377 18.4906 49.478 17.9748 49.5157C17.4717 49.478 17.0818 49.0377 16.7296 48.7107C16.3019 48.283 16.0377 47.7799 15.7484 47.239ZM23.3333 52.4088C23.1195 52.0314 22.9057 51.6415 22.7296 51.2516C22.4654 50.6604 21.912 50.6352 21.3333 50.4717C20.6918 50.283 20.0629 50.0314 19.434 49.8302C19.434 49.8302 19.434 49.8302 19.4214 49.8302C19.3837 49.5031 19.3585 49.1887 19.3711 48.8616V48.8491C19.7359 48.4717 20.0377 48.0943 20.2767 47.6164C20.3899 47.3774 20.5283 47.1509 20.6164 46.912C20.6164 46.8994 20.6164 46.8994 20.6164 46.8868C21.1572 46.9874 21.0063 46.044 21.1321 45.7547C21.195 45.6038 21.2201 45.478 21.2076 45.3648C21.8113 45.4528 22.0377 44.4591 21.6101 44.1321C21.8113 43.9811 21.9623 43.6918 21.9371 43.478C21.8868 43 21.7107 42.6604 21.2453 42.4717C21.3208 42.3711 21.3459 42.2453 21.2956 42.1069C21.2201 41.8931 21.0315 41.7673 20.8302 41.7673C20.8805 41.5157 20.8428 41.239 20.7296 41.1006C20.478 40.8113 20 40.5849 19.6352 40.7484C19.6101 40.6604 19.5723 40.5849 19.522 40.5346C19.4214 40.434 19.2579 40.434 19.1195 40.4969C19.0566 40.3208 18.9308 40.1698 18.7547 40.1195C18.6415 40.0943 18.5031 40.1069 18.3774 40.1447C18.2013 40.0063 17.9245 40.0566 17.7484 40.195C17.5975 40.1069 17.4088 40.0692 17.2704 40.1195C17.0943 40.1698 16.956 40.3208 16.9057 40.4969C16.7673 40.4465 16.6038 40.434 16.5031 40.5346C16.4528 40.5849 16.4151 40.6604 16.3899 40.7484C16.0252 40.5723 15.5346 40.7987 15.2956 41.1006C15.1824 41.239 15.1447 41.5157 15.195 41.7673C14.9811 41.7673 14.7925 41.8931 14.7296 42.1069C14.6792 42.2453 14.717 42.3711 14.7799 42.4717C14.3145 42.6478 14.1384 42.9874 14.0881 43.478C14.0629 43.6918 14.2138 43.9811 14.4151 44.1321C13.9748 44.4591 14.2013 45.4528 14.8176 45.3648C14.805 45.478 14.8302 45.6164 14.8931 45.7547C15.0189 46.0314 14.8805 46.9623 15.3962 46.8868V46.8994C15.4843 47.1509 15.6226 47.3774 15.7359 47.6038C15.9874 48.0943 16.2893 48.4591 16.6415 48.8365V48.8491C16.6541 49.1761 16.6289 49.4906 16.5912 49.8176H16.5786C15.9371 50.0063 15.3208 50.2704 14.6792 50.4591C14.1006 50.6226 13.5472 50.6478 13.283 51.239C13.1069 51.6289 12.8931 52.0189 12.6792 52.3962C11.283 51.0126 10.4277 49.1006 10.4277 47C10.4277 42.8113 13.8365 39.4025 18.0252 39.4025C22.2138 39.4025 25.6226 42.8113 25.6226 47C25.5975 49.1132 24.7296 51.0252 23.3333 52.4088ZM20.6793 46.0189C20.6667 45.7421 20.6541 45.4654 20.6415 45.1887C21.0063 45.1258 21.0315 45.5031 20.9182 45.7673C20.8931 45.8176 20.8805 45.8679 20.8679 45.9308C20.8554 46.044 20.8805 46.6855 20.6667 46.6981C20.7044 46.4717 20.6918 46.2453 20.6793 46.0189ZM15.3208 46.6855C15.1195 46.6478 15.1447 46.044 15.1321 45.9308C15.1321 45.8805 15.1069 45.8176 15.0818 45.7673C14.9686 45.5157 14.9937 45.1384 15.3459 45.1887C15.3333 45.4654 15.3208 45.7421 15.3082 46.0189C15.2956 46.2453 15.283 46.4591 15.3208 46.6855Z" fill="#E9E9E9"/>
<path d="M18.5155 48.3082C18.6035 48.2704 18.6916 48.2327 18.7293 48.1698C18.7671 48.1069 18.7922 48.0566 18.8048 47.9937C18.8174 47.9811 18.8174 47.9685 18.8174 47.956C18.8299 47.9434 18.8425 47.9308 18.8425 47.9056C18.8425 47.8176 18.8174 47.717 18.6916 47.6792C18.5784 47.6415 18.4777 47.6038 18.3394 47.6038C18.1884 47.6038 18.0752 47.6667 17.9872 47.7421C17.9117 47.6667 17.7985 47.6038 17.635 47.6038C17.4966 47.6038 17.396 47.6289 17.2828 47.6792C17.157 47.7295 17.1318 47.8302 17.1318 47.9056C17.1318 47.9308 17.1444 47.9434 17.157 47.956C17.157 47.9685 17.157 47.9811 17.1696 47.9937C17.1821 48.0566 17.2073 48.1195 17.245 48.1698C17.2828 48.2327 17.3708 48.2704 17.4589 48.3082C17.5972 48.3585 17.8111 48.3836 17.9746 48.3585C18.1507 48.3836 18.3771 48.3585 18.5155 48.3082Z" fill="#E9E9E9"/>
<path d="M18 65C13.5849 65 10 68.5849 10 73C10 77.4151 13.5849 81 18 81C22.4151 81 26 77.4151 26 73C26 68.5975 22.4025 65 18 65ZM16.8176 75.0503C17.1195 75.3396 17.4843 75.6415 17.8994 75.7044C17.912 75.717 17.9245 75.717 17.9497 75.717C17.9623 75.717 17.9748 75.717 18 75.717C18.0126 75.717 18.0252 75.717 18.0503 75.717C18.0755 75.717 18.0881 75.717 18.1006 75.7044C18.5157 75.6415 18.8805 75.3522 19.1824 75.0503C19.195 75.5031 19.2704 75.956 19.2704 76.4088C19.2579 77.0377 18.6541 77.5912 18.0126 77.6164C17.3711 77.5912 16.7547 77.0377 16.7547 76.4088C16.7296 75.956 16.805 75.5031 16.8176 75.0503ZM15.7484 73.239C15.4843 72.7484 15.4843 72.283 15.522 71.7421C15.5472 71.2264 15.5723 70.7233 15.6101 70.2201C15.6855 70.2201 15.7736 70.2075 15.8616 70.1824C15.9874 70.1321 16.0503 70.0314 16.0755 69.9182C16.2138 70.0063 16.4025 70.0314 16.5535 69.9686C16.5912 69.956 16.6164 69.9182 16.6415 69.8679C16.8679 70.2453 17.283 70.4088 17.7484 70.3711C17.9874 70.3585 18.2893 70.1195 18.4654 69.8553C18.5157 69.9308 18.6038 69.9937 18.717 70.044C18.8931 70.1195 19.0692 70.0943 19.2201 70.0189C19.283 70.1195 19.3837 70.2075 19.522 70.283C19.8365 70.434 20.1006 70.434 20.3774 70.3082C20.4151 70.7862 20.4277 71.2641 20.4528 71.7547C20.478 72.2956 20.4906 72.761 20.2264 73.2516C19.9371 73.7799 19.673 74.2956 19.2201 74.7107C18.8679 75.0377 18.4906 75.478 17.9748 75.5157C17.4717 75.478 17.0818 75.0377 16.7296 74.7107C16.3019 74.283 16.0377 73.7799 15.7484 73.239ZM23.3333 78.4088C23.1195 78.0314 22.9057 77.6415 22.7296 77.2516C22.4654 76.6604 21.912 76.6352 21.3333 76.4717C20.6918 76.283 20.0629 76.0314 19.434 75.8302C19.434 75.8302 19.434 75.8302 19.4214 75.8302C19.3837 75.5031 19.3585 75.1887 19.3711 74.8616V74.8491C19.7359 74.4717 20.0377 74.0943 20.2767 73.6164C20.3899 73.3774 20.5283 73.1509 20.6164 72.912C20.6164 72.8994 20.6164 72.8994 20.6164 72.8868C21.1572 72.9874 21.0063 72.044 21.1321 71.7547C21.195 71.6038 21.2201 71.478 21.2076 71.3648C21.8113 71.4528 22.0377 70.4591 21.6101 70.1321C21.8113 69.9811 21.9623 69.6918 21.9371 69.478C21.8868 69 21.7107 68.6604 21.2453 68.4717C21.3208 68.3711 21.3459 68.2453 21.2956 68.1069C21.2201 67.8931 21.0315 67.7673 20.8302 67.7673C20.8805 67.5157 20.8428 67.239 20.7296 67.1006C20.478 66.8113 20 66.5849 19.6352 66.7484C19.6101 66.6604 19.5723 66.5849 19.522 66.5346C19.4214 66.434 19.2579 66.434 19.1195 66.4969C19.0566 66.3208 18.9308 66.1698 18.7547 66.1195C18.6415 66.0943 18.5031 66.1069 18.3774 66.1447C18.2013 66.0063 17.9245 66.0566 17.7484 66.195C17.5975 66.1069 17.4088 66.0692 17.2704 66.1195C17.0943 66.1698 16.956 66.3208 16.9057 66.4969C16.7673 66.4465 16.6038 66.434 16.5031 66.5346C16.4528 66.5849 16.4151 66.6604 16.3899 66.7484C16.0252 66.5723 15.5346 66.7987 15.2956 67.1006C15.1824 67.239 15.1447 67.5157 15.195 67.7673C14.9811 67.7673 14.7925 67.8931 14.7296 68.1069C14.6792 68.2453 14.717 68.3711 14.7799 68.4717C14.3145 68.6478 14.1384 68.9874 14.0881 69.478C14.0629 69.6918 14.2138 69.9811 14.4151 70.1321C13.9748 70.4591 14.2013 71.4528 14.8176 71.3648C14.805 71.478 14.8302 71.6164 14.8931 71.7547C15.0189 72.0314 14.8805 72.9623 15.3962 72.8868V72.8994C15.4843 73.1509 15.6226 73.3774 15.7359 73.6038C15.9874 74.0943 16.2893 74.4591 16.6415 74.8365V74.8491C16.6541 75.1761 16.6289 75.4906 16.5912 75.8176H16.5786C15.9371 76.0063 15.3208 76.2704 14.6792 76.4591C14.1006 76.6226 13.5472 76.6478 13.283 77.239C13.1069 77.6289 12.8931 78.0189 12.6792 78.3962C11.283 77.0126 10.4277 75.1006 10.4277 73C10.4277 68.8113 13.8365 65.4025 18.0252 65.4025C22.2138 65.4025 25.6226 68.8113 25.6226 73C25.5975 75.1132 24.7296 77.0252 23.3333 78.4088ZM20.6793 72.0189C20.6667 71.7421 20.6541 71.4654 20.6415 71.1887C21.0063 71.1258 21.0315 71.5031 20.9182 71.7673C20.8931 71.8176 20.8805 71.8679 20.8679 71.9308C20.8554 72.044 20.8805 72.6855 20.6667 72.6981C20.7044 72.4717 20.6918 72.2453 20.6793 72.0189ZM15.3208 72.6855C15.1195 72.6478 15.1447 72.044 15.1321 71.9308C15.1321 71.8805 15.1069 71.8176 15.0818 71.7673C14.9686 71.5157 14.9937 71.1384 15.3459 71.1887C15.3333 71.4654 15.3208 71.7421 15.3082 72.0189C15.2956 72.2453 15.283 72.4591 15.3208 72.6855Z" fill="#E9E9E9"/>
<path d="M18.5155 74.3082C18.6035 74.2704 18.6916 74.2327 18.7293 74.1698C18.7671 74.1069 18.7922 74.0566 18.8048 73.9937C18.8174 73.9811 18.8174 73.9685 18.8174 73.956C18.8299 73.9434 18.8425 73.9308 18.8425 73.9056C18.8425 73.8176 18.8174 73.717 18.6916 73.6792C18.5784 73.6415 18.4777 73.6038 18.3394 73.6038C18.1884 73.6038 18.0752 73.6667 17.9872 73.7421C17.9117 73.6667 17.7985 73.6038 17.635 73.6038C17.4966 73.6038 17.396 73.6289 17.2828 73.6792C17.157 73.7295 17.1318 73.8302 17.1318 73.9056C17.1318 73.9308 17.1444 73.9434 17.157 73.956C17.157 73.9685 17.157 73.9811 17.1696 73.9937C17.1821 74.0566 17.2073 74.1195 17.245 74.1698C17.2828 74.2327 17.3708 74.2704 17.4589 74.3082C17.5972 74.3585 17.8111 74.3836 17.9746 74.3585C18.1507 74.3836 18.3771 74.3585 18.5155 74.3082Z" fill="#E9E9E9"/>
<circle cx="24" cy="15" r="2" fill="#5AAD44"/>
<circle cx="24" cy="41" r="2" fill="#5AAD44"/>
<circle cx="24" cy="67" r="2" fill="#FF4444"/>
</svg>
