<svg width="120" height="120" viewBox="0 0 120 120" fill="none" xmlns="http://www.w3.org/2000/svg">
<path d="M40.388 97.6V106H39.512V102.124H34.256V106H33.368V97.6H34.256V101.344H39.512V97.6H40.388ZM43.1297 97.6H44.0177V106H43.1297V97.6ZM49.0668 106.072C48.4428 106.072 47.8428 105.972 47.2668 105.772C46.6988 105.572 46.2588 105.308 45.9468 104.98L46.2948 104.296C46.5988 104.6 47.0028 104.848 47.5068 105.04C48.0108 105.224 48.5308 105.316 49.0668 105.316C49.8188 105.316 50.3828 105.18 50.7588 104.908C51.1348 104.628 51.3228 104.268 51.3228 103.828C51.3228 103.492 51.2188 103.224 51.0108 103.024C50.8108 102.824 50.5628 102.672 50.2668 102.568C49.9708 102.456 49.5588 102.336 49.0308 102.208C48.3988 102.048 47.8948 101.896 47.5188 101.752C47.1428 101.6 46.8188 101.372 46.5468 101.068C46.2828 100.764 46.1508 100.352 46.1508 99.832C46.1508 99.408 46.2628 99.024 46.4868 98.68C46.7108 98.328 47.0548 98.048 47.5188 97.84C47.9828 97.632 48.5588 97.528 49.2468 97.528C49.7268 97.528 50.1948 97.596 50.6508 97.732C51.1148 97.86 51.5148 98.04 51.8508 98.272L51.5508 98.98C51.1988 98.748 50.8228 98.576 50.4228 98.464C50.0228 98.344 49.6308 98.284 49.2468 98.284C48.5108 98.284 47.9548 98.428 47.5788 98.716C47.2108 98.996 47.0268 99.36 47.0268 99.808C47.0268 100.144 47.1268 100.416 47.3268 100.624C47.5348 100.824 47.7908 100.98 48.0948 101.092C48.4068 101.196 48.8228 101.312 49.3428 101.44C49.9588 101.592 50.4548 101.744 50.8308 101.896C51.2148 102.04 51.5388 102.264 51.8028 102.568C52.0668 102.864 52.1988 103.268 52.1988 103.78C52.1988 104.204 52.0828 104.592 51.8508 104.944C51.6268 105.288 51.2788 105.564 50.8068 105.772C50.3348 105.972 49.7548 106.072 49.0668 106.072ZM55.6484 98.368H52.6964V97.6H59.4884V98.368H56.5364V106H55.6484V98.368ZM64.4619 106.072C63.6299 106.072 62.8739 105.888 62.1939 105.52C61.5219 105.144 60.9939 104.632 60.6099 103.984C60.2339 103.336 60.0459 102.608 60.0459 101.8C60.0459 100.992 60.2339 100.264 60.6099 99.616C60.9939 98.968 61.5219 98.46 62.1939 98.092C62.8739 97.716 63.6299 97.528 64.4619 97.528C65.2939 97.528 66.0419 97.712 66.7059 98.08C67.3779 98.448 67.9059 98.96 68.2899 99.616C68.6739 100.264 68.8659 100.992 68.8659 101.8C68.8659 102.608 68.6739 103.34 68.2899 103.996C67.9059 104.644 67.3779 105.152 66.7059 105.52C66.0419 105.888 65.2939 106.072 64.4619 106.072ZM64.4619 105.28C65.1259 105.28 65.7259 105.132 66.2619 104.836C66.7979 104.532 67.2179 104.116 67.5219 103.588C67.8259 103.052 67.9779 102.456 67.9779 101.8C67.9779 101.144 67.8259 100.552 67.5219 100.024C67.2179 99.488 66.7979 99.072 66.2619 98.776C65.7259 98.472 65.1259 98.32 64.4619 98.32C63.7979 98.32 63.1939 98.472 62.6499 98.776C62.1139 99.072 61.6899 99.488 61.3779 100.024C61.0739 100.552 60.9219 101.144 60.9219 101.8C60.9219 102.456 61.0739 103.052 61.3779 103.588C61.6899 104.116 62.1139 104.532 62.6499 104.836C63.1939 105.132 63.7979 105.28 64.4619 105.28ZM76.5923 106L74.6723 103.3C74.4563 103.324 74.2323 103.336 74.0003 103.336H71.7443V106H70.8563V97.6H74.0003C75.0723 97.6 75.9123 97.856 76.5203 98.368C77.1283 98.88 77.4323 99.584 77.4323 100.48C77.4323 101.136 77.2643 101.692 76.9283 102.148C76.6003 102.596 76.1283 102.92 75.5123 103.12L77.5643 106H76.5923ZM73.9763 102.58C74.8083 102.58 75.4443 102.396 75.8843 102.028C76.3243 101.66 76.5443 101.144 76.5443 100.48C76.5443 99.8 76.3243 99.28 75.8843 98.92C75.4443 98.552 74.8083 98.368 73.9763 98.368H71.7443V102.58H73.9763ZM82.291 103.096V106H81.415V103.096L78.055 97.6H79.003L81.883 102.316L84.763 97.6H85.651L82.291 103.096Z" fill="black"/>
<rect x="31" y="19" width="12" height="3" rx="1.5" fill="#E9E9E9"/>
<rect x="31" y="75" width="12" height="3" rx="1.5" fill="#E9E9E9"/>
<rect x="31" y="47" width="12" height="3" rx="1.5" fill="#E9E9E9"/>
<rect x="45" y="19" width="17" height="3" rx="1.5" fill="#E9E9E9"/>
<rect x="45" y="75" width="17" height="3" rx="1.5" fill="#E9E9E9"/>
<rect x="45" y="47" width="17" height="3" rx="1.5" fill="#E9E9E9"/>
<rect x="65" y="19" width="45" height="3" rx="1.5" fill="#E9E9E9"/>
<rect x="65" y="75" width="45" height="3" rx="1.5" fill="#E9E9E9"/>
<rect x="65" y="47" width="45" height="3" rx="1.5" fill="#E9E9E9"/>
<rect x="31" y="14" width="79" height="3" rx="1.5" fill="#E9E9E9"/>
<rect x="31" y="70" width="79" height="3" rx="1.5" fill="#E9E9E9"/>
<rect x="31" y="42" width="79" height="3" rx="1.5" fill="#E9E9E9"/>
<path fill-rule="evenodd" clip-rule="evenodd" d="M22.6669 21.0667L22.1336 20.5334C21.6003 20 20.8003 20 20.2669 20.5334L20.0003 20.8C19.8003 21 19.4669 21.0667 19.2003 20.9334C18.3336 20.5334 17.5336 20 16.8003 19.2667C16.0669 18.5334 15.5336 17.7334 15.1336 16.8667C15.0003 16.6 15.0669 16.2667 15.2669 16L15.5336 15.7333C16.0669 15.2 16.0669 14.4 15.5336 13.8667L15.0003 13.3333C14.4669 12.8 13.6669 12.8 13.1336 13.3333L12.6669 13.8C12.2003 14.2667 11.9336 15 12.1336 15.7333C12.4669 17.4667 13.4669 19.4 15.1336 21C16.7336 22.6 18.6669 23.6667 20.4003 24C21.1336 24.1334 21.8003 23.9334 22.3336 23.4L22.8003 22.9334C23.1336 22.4667 23.1336 21.6 22.6669 21.0667Z" fill="#4CAF50"/>
<path fill-rule="evenodd" clip-rule="evenodd" d="M22.6669 77.0667L22.1336 76.5334C21.6003 76 20.8003 76 20.2669 76.5334L20.0003 76.8C19.8003 77 19.4669 77.0667 19.2003 76.9334C18.3336 76.5334 17.5336 76 16.8003 75.2667C16.0669 74.5334 15.5336 73.7334 15.1336 72.8667C15.0003 72.6 15.0669 72.2667 15.2669 72L15.5336 71.7333C16.0669 71.2 16.0669 70.4 15.5336 69.8667L15.0003 69.3333C14.4669 68.8 13.6669 68.8 13.1336 69.3333L12.6669 69.8C12.2003 70.2667 11.9336 71 12.1336 71.7333C12.4669 73.4667 13.4669 75.4 15.1336 77C16.7336 78.6 18.6669 79.6667 20.4003 80C21.1336 80.1334 21.8003 79.9334 22.3336 79.4L22.8003 78.9334C23.1336 78.4667 23.1336 77.6 22.6669 77.0667Z" fill="#4CAF50"/>
<path fill-rule="evenodd" clip-rule="evenodd" d="M22.6669 49.0667L22.1336 48.5333C21.6003 48 20.8003 48 20.2669 48.5333L20.0003 48.8C19.8003 49 19.4669 49.0667 19.2003 48.9333C18.3336 48.5333 17.5336 48 16.8003 47.2667C16.0669 46.5333 15.5336 45.7333 15.1336 44.8667C15.0003 44.6 15.0669 44.2667 15.2669 44L15.5336 43.7333C16.0669 43.2 16.0669 42.4 15.5336 41.8667L15.0003 41.3333C14.4669 40.8 13.6669 40.8 13.1336 41.3333L12.6669 41.8C12.2003 42.2667 11.9336 43 12.1336 43.7333C12.4669 45.4667 13.4669 47.4 15.1336 49C16.7336 50.6 18.6669 51.6667 20.4003 52C21.1336 52.1333 21.8003 51.9333 22.3336 51.4L22.8003 50.9333C23.1336 50.4667 23.1336 49.6 22.6669 49.0667Z" fill="#FF4444"/>
</svg>
