<svg width="120" height="120" viewBox="0 0 120 120" fill="none" xmlns="http://www.w3.org/2000/svg">
<path d="M46.636 103.756H41.956L40.948 106H40.024L43.864 97.6H44.74L48.58 106H47.644L46.636 103.756ZM46.312 103.036L44.296 98.524L42.28 103.036H46.312ZM53.1778 106.072C52.0898 106.072 51.2418 105.76 50.6338 105.136C50.0258 104.512 49.7218 103.604 49.7218 102.412V97.6H50.6098V102.376C50.6098 103.352 50.8298 104.08 51.2698 104.56C51.7098 105.04 52.3458 105.28 53.1778 105.28C54.0178 105.28 54.6578 105.04 55.0978 104.56C55.5378 104.08 55.7578 103.352 55.7578 102.376V97.6H56.6218V102.412C56.6218 103.604 56.3178 104.512 55.7098 105.136C55.1098 105.76 54.2658 106.072 53.1778 106.072ZM59.2977 97.6H62.7177C63.6057 97.6 64.3897 97.78 65.0697 98.14C65.7497 98.492 66.2777 98.988 66.6537 99.628C67.0297 100.26 67.2177 100.984 67.2177 101.8C67.2177 102.616 67.0297 103.344 66.6537 103.984C66.2777 104.616 65.7497 105.112 65.0697 105.472C64.3897 105.824 63.6057 106 62.7177 106H59.2977V97.6ZM62.6697 105.232C63.4057 105.232 64.0497 105.088 64.6017 104.8C65.1537 104.504 65.5817 104.1 65.8857 103.588C66.1897 103.068 66.3417 102.472 66.3417 101.8C66.3417 101.128 66.1897 100.536 65.8857 100.024C65.5817 99.504 65.1537 99.1 64.6017 98.812C64.0497 98.516 63.4057 98.368 62.6697 98.368H60.1857V105.232H62.6697ZM69.2118 97.6H70.0998V106H69.2118V97.6ZM74.4648 98.368H71.5128V97.6H78.3048V98.368H75.3528V106H74.4648V98.368Z" fill="black"/>
<path d="M106.077 19.7379L106.077 19.7379L107.411 19.9409L106.416 20.9572C106.416 20.9572 106.416 20.9572 106.416 20.9573C106.416 20.9574 106.415 20.9574 106.415 20.9575C106.103 21.2763 105.971 21.7211 106.041 22.1464L106.041 22.1477L106.266 23.5234L105.148 22.908C105.148 22.908 105.148 22.9079 105.148 22.9078C105.148 22.9077 105.148 22.9077 105.148 22.9076C104.744 22.685 104.256 22.6856 103.853 22.9076C103.853 22.9076 103.853 22.9076 103.853 22.9076L102.735 23.5232L102.96 22.148C102.96 22.1479 102.96 22.1478 102.96 22.1477C103.03 21.7202 102.897 21.2753 102.585 20.9575C102.585 20.9574 102.585 20.9573 102.585 20.9572L101.59 19.9409L102.924 19.7379L102.924 19.7379C103.383 19.668 103.758 19.3705 103.946 18.9718C103.946 18.9716 103.946 18.9715 103.946 18.9714L104.501 17.7943L105.056 18.9723C105.056 18.9723 105.056 18.9723 105.056 18.9723C105.243 19.3709 105.619 19.6682 106.077 19.7379ZM101.908 24.7095L101.886 24.7388L101.908 24.7095Z" stroke="#EAEAEA" stroke-width="2"/>
<path d="M60.1826 16.1238C60.2425 15.997 60.3659 15.9166 60.5008 15.9166C60.6357 15.9166 60.7593 15.997 60.819 16.1238L61.9603 18.5461C62.0119 18.6557 62.112 18.7317 62.2277 18.7493L64.7799 19.1377C64.9138 19.158 65.0246 19.2562 65.0663 19.3906C65.108 19.525 65.0732 19.6729 64.9765 19.7715L63.1298 21.6572C63.0462 21.7425 63.008 21.8656 63.0276 21.9861L63.4634 24.6488C63.486 24.7884 63.4316 24.9292 63.3221 25.0125C63.2127 25.0953 63.0681 25.1063 62.9483 25.0409L60.6654 23.7836C60.5621 23.7266 60.4385 23.7266 60.3351 23.7836L58.0522 25.0407C57.9327 25.1063 57.7878 25.0955 57.6784 25.0125C57.569 24.9294 57.5145 24.7884 57.5372 24.6488L57.9731 21.9861C57.9928 21.8656 57.9545 21.7425 57.8708 21.6572L56.0241 19.7715C55.9274 19.6727 55.8926 19.525 55.9344 19.3906C55.9761 19.2562 56.087 19.158 56.2209 19.1377L58.7736 18.7493C58.8891 18.7317 58.9891 18.6557 59.0408 18.5459L60.1826 16.1238Z" fill="#FFC107"/>
<path d="M71.1826 16.1238C71.2425 15.997 71.3659 15.9166 71.5008 15.9166C71.6357 15.9166 71.7593 15.997 71.819 16.1238L72.9603 18.5461C73.0119 18.6557 73.112 18.7317 73.2277 18.7493L75.7799 19.1377C75.9138 19.158 76.0246 19.2562 76.0663 19.3906C76.108 19.525 76.0732 19.6729 75.9765 19.7715L74.1298 21.6572C74.0462 21.7425 74.008 21.8656 74.0276 21.9861L74.4634 24.6488C74.486 24.7884 74.4316 24.9292 74.3221 25.0125C74.2127 25.0953 74.0681 25.1063 73.9483 25.0409L71.6654 23.7836C71.5621 23.7266 71.4385 23.7266 71.3351 23.7836L69.0522 25.0407C68.9327 25.1063 68.7878 25.0955 68.6784 25.0125C68.569 24.9294 68.5145 24.7884 68.5372 24.6488L68.9731 21.9861C68.9928 21.8656 68.9545 21.7425 68.8708 21.6572L67.0241 19.7715C66.9274 19.6727 66.8926 19.525 66.9344 19.3906C66.9761 19.2562 67.087 19.158 67.2209 19.1377L69.7736 18.7493C69.8891 18.7317 69.9891 18.6557 70.0408 18.5459L71.1826 16.1238Z" fill="#FFC107"/>
<path d="M82.1826 16.1238C82.2425 15.997 82.3659 15.9166 82.5008 15.9166C82.6357 15.9166 82.7593 15.997 82.819 16.1238L83.9603 18.5461C84.0119 18.6557 84.112 18.7317 84.2277 18.7493L86.7799 19.1377C86.9138 19.158 87.0246 19.2562 87.0663 19.3906C87.108 19.525 87.0732 19.6729 86.9765 19.7715L85.1298 21.6572C85.0462 21.7425 85.008 21.8656 85.0276 21.9861L85.4634 24.6488C85.486 24.7884 85.4316 24.9292 85.3221 25.0125C85.2127 25.0953 85.0681 25.1063 84.9483 25.0409L82.6654 23.7836C82.5621 23.7266 82.4385 23.7266 82.3351 23.7836L80.0522 25.0407C79.9327 25.1063 79.7878 25.0955 79.6784 25.0125C79.569 24.9294 79.5145 24.7884 79.5372 24.6488L79.9731 21.9861C79.9928 21.8656 79.9545 21.7425 79.8708 21.6572L78.0241 19.7715C77.9274 19.6727 77.8926 19.525 77.9344 19.3906C77.9761 19.2562 78.087 19.158 78.2209 19.1377L80.7736 18.7493C80.8891 18.7317 80.9891 18.6557 81.0408 18.5459L82.1826 16.1238Z" fill="#FFC107"/>
<path d="M93.1826 16.1238C93.2425 15.997 93.3659 15.9166 93.5008 15.9166C93.6357 15.9166 93.7593 15.997 93.819 16.1238L94.9603 18.5461C95.0119 18.6557 95.112 18.7317 95.2277 18.7493L97.7799 19.1377C97.9138 19.158 98.0246 19.2562 98.0663 19.3906C98.108 19.525 98.0732 19.6729 97.9765 19.7715L96.1298 21.6572C96.0462 21.7425 96.008 21.8656 96.0276 21.9861L96.4634 24.6488C96.486 24.7884 96.4316 24.9292 96.3221 25.0125C96.2127 25.0953 96.0681 25.1063 95.9483 25.0409L93.6654 23.7836C93.5621 23.7266 93.4385 23.7266 93.3351 23.7836L91.0522 25.0407C90.9327 25.1063 90.7878 25.0955 90.6784 25.0125C90.569 24.9294 90.5145 24.7884 90.5372 24.6488L90.9731 21.9861C90.9928 21.8656 90.9545 21.7425 90.8708 21.6572L89.0241 19.7715C88.9274 19.6727 88.8926 19.525 88.9344 19.3906C88.9761 19.2562 89.087 19.158 89.2209 19.1377L91.7736 18.7493C91.8891 18.7317 91.9891 18.6557 92.0408 18.5459L93.1826 16.1238Z" fill="#FFC107"/>
<path d="M106.077 46.7379L106.077 46.7379L107.411 46.9409L106.416 47.9572C106.416 47.9572 106.416 47.9572 106.416 47.9573C106.416 47.9574 106.415 47.9574 106.415 47.9575C106.103 48.2763 105.971 48.7211 106.041 49.1464L106.041 49.1477L106.266 50.5234L105.148 49.908C105.148 49.908 105.148 49.9079 105.148 49.9078C105.148 49.9077 105.148 49.9077 105.148 49.9076C104.744 49.685 104.256 49.6856 103.853 49.9076C103.853 49.9076 103.853 49.9076 103.853 49.9076L102.735 50.5232L102.96 49.148C102.96 49.1479 102.96 49.1478 102.96 49.1477C103.03 48.7202 102.897 48.2753 102.585 47.9575C102.585 47.9574 102.585 47.9573 102.585 47.9572L101.59 46.9409L102.924 46.7379L102.924 46.7379C103.383 46.668 103.758 46.3705 103.946 45.9718C103.946 45.9716 103.946 45.9715 103.946 45.9714L104.501 44.7943L105.056 45.9723C105.056 45.9723 105.056 45.9723 105.056 45.9723C105.243 46.3709 105.619 46.6682 106.077 46.7379ZM101.908 51.7095L101.886 51.7388L101.908 51.7095Z" stroke="#EAEAEA" stroke-width="2"/>
<path d="M60.1826 43.1238C60.2425 42.997 60.3659 42.9166 60.5008 42.9166C60.6357 42.9166 60.7593 42.997 60.819 43.1238L61.9603 45.5461C62.0119 45.6557 62.112 45.7317 62.2277 45.7493L64.7799 46.1377C64.9138 46.158 65.0246 46.2562 65.0663 46.3906C65.108 46.525 65.0732 46.6729 64.9765 46.7715L63.1298 48.6572C63.0462 48.7425 63.008 48.8656 63.0276 48.9861L63.4634 51.6488C63.486 51.7884 63.4316 51.9292 63.3221 52.0125C63.2127 52.0953 63.0681 52.1063 62.9483 52.0409L60.6654 50.7836C60.5621 50.7266 60.4385 50.7266 60.3351 50.7836L58.0522 52.0407C57.9327 52.1063 57.7878 52.0955 57.6784 52.0125C57.569 51.9294 57.5145 51.7884 57.5372 51.6488L57.9731 48.9861C57.9928 48.8656 57.9545 48.7425 57.8708 48.6572L56.0241 46.7715C55.9274 46.6727 55.8926 46.525 55.9344 46.3906C55.9761 46.2562 56.087 46.158 56.2209 46.1377L58.7736 45.7493C58.8891 45.7317 58.9891 45.6557 59.0408 45.5459L60.1826 43.1238Z" fill="#FFC107"/>
<path d="M71.1826 43.1238C71.2425 42.997 71.3659 42.9166 71.5008 42.9166C71.6357 42.9166 71.7593 42.997 71.819 43.1238L72.9603 45.5461C73.0119 45.6557 73.112 45.7317 73.2277 45.7493L75.7799 46.1377C75.9138 46.158 76.0246 46.2562 76.0663 46.3906C76.108 46.525 76.0732 46.6729 75.9765 46.7715L74.1298 48.6572C74.0462 48.7425 74.008 48.8656 74.0276 48.9861L74.4634 51.6488C74.486 51.7884 74.4316 51.9292 74.3221 52.0125C74.2127 52.0953 74.0681 52.1063 73.9483 52.0409L71.6654 50.7836C71.5621 50.7266 71.4385 50.7266 71.3351 50.7836L69.0522 52.0407C68.9327 52.1063 68.7878 52.0955 68.6784 52.0125C68.569 51.9294 68.5145 51.7884 68.5372 51.6488L68.9731 48.9861C68.9928 48.8656 68.9545 48.7425 68.8708 48.6572L67.0241 46.7715C66.9274 46.6727 66.8926 46.525 66.9344 46.3906C66.9761 46.2562 67.087 46.158 67.2209 46.1377L69.7736 45.7493C69.8891 45.7317 69.9891 45.6557 70.0408 45.5459L71.1826 43.1238Z" fill="#FFC107"/>
<path d="M82.1826 43.1238C82.2425 42.997 82.3659 42.9166 82.5008 42.9166C82.6357 42.9166 82.7593 42.997 82.819 43.1238L83.9603 45.5461C84.0119 45.6557 84.112 45.7317 84.2277 45.7493L86.7799 46.1377C86.9138 46.158 87.0246 46.2562 87.0663 46.3906C87.108 46.525 87.0732 46.6729 86.9765 46.7715L85.1298 48.6572C85.0462 48.7425 85.008 48.8656 85.0276 48.9861L85.4634 51.6488C85.486 51.7884 85.4316 51.9292 85.3221 52.0125C85.2127 52.0953 85.0681 52.1063 84.9483 52.0409L82.6654 50.7836C82.5621 50.7266 82.4385 50.7266 82.3351 50.7836L80.0522 52.0407C79.9327 52.1063 79.7878 52.0955 79.6784 52.0125C79.569 51.9294 79.5145 51.7884 79.5372 51.6488L79.9731 48.9861C79.9928 48.8656 79.9545 48.7425 79.8708 48.6572L78.0241 46.7715C77.9274 46.6727 77.8926 46.525 77.9344 46.3906C77.9761 46.2562 78.087 46.158 78.2209 46.1377L80.7736 45.7493C80.8891 45.7317 80.9891 45.6557 81.0408 45.5459L82.1826 43.1238Z" fill="#FFC107"/>
<path d="M93.1826 43.1238C93.2425 42.997 93.3659 42.9166 93.5008 42.9166C93.6357 42.9166 93.7593 42.997 93.819 43.1238L94.9603 45.5461C95.0119 45.6557 95.112 45.7317 95.2277 45.7493L97.7799 46.1377C97.9138 46.158 98.0246 46.2562 98.0663 46.3906C98.108 46.525 98.0732 46.6729 97.9765 46.7715L96.1298 48.6572C96.0462 48.7425 96.008 48.8656 96.0276 48.9861L96.4634 51.6488C96.486 51.7884 96.4316 51.9292 96.3221 52.0125C96.2127 52.0953 96.0681 52.1063 95.9483 52.0409L93.6654 50.7836C93.5621 50.7266 93.4385 50.7266 93.3351 50.7836L91.0522 52.0407C90.9327 52.1063 90.7878 52.0955 90.6784 52.0125C90.569 51.9294 90.5145 51.7884 90.5372 51.6488L90.9731 48.9861C90.9928 48.8656 90.9545 48.7425 90.8708 48.6572L89.0241 46.7715C88.9274 46.6727 88.8926 46.525 88.9344 46.3906C88.9761 46.2562 89.087 46.158 89.2209 46.1377L91.7736 45.7493C91.8891 45.7317 91.9891 45.6557 92.0408 45.5459L93.1826 43.1238Z" fill="#FFC107"/>
<path d="M106.077 71.7379L106.077 71.7379L107.411 71.9409L106.416 72.9572C106.416 72.9572 106.416 72.9572 106.416 72.9573C106.416 72.9574 106.415 72.9574 106.415 72.9575C106.103 73.2763 105.971 73.7211 106.041 74.1464L106.041 74.1477L106.266 75.5234L105.148 74.908C105.148 74.908 105.148 74.9079 105.148 74.9078C105.148 74.9077 105.148 74.9077 105.148 74.9076C104.744 74.685 104.256 74.6856 103.853 74.9076C103.853 74.9076 103.853 74.9076 103.853 74.9076L102.735 75.5232L102.96 74.148C102.96 74.1479 102.96 74.1478 102.96 74.1477C103.03 73.7202 102.897 73.2753 102.585 72.9575C102.585 72.9574 102.585 72.9573 102.585 72.9572L101.59 71.9409L102.924 71.7379L102.924 71.7379C103.383 71.668 103.758 71.3705 103.946 70.9718C103.946 70.9716 103.946 70.9715 103.946 70.9714L104.501 69.7943L105.056 70.9723C105.056 70.9723 105.056 70.9723 105.056 70.9723C105.243 71.3709 105.619 71.6682 106.077 71.7379ZM101.908 76.7095L101.886 76.7388L101.908 76.7095Z" stroke="#EAEAEA" stroke-width="2"/>
<path d="M60.1826 68.1238C60.2425 67.997 60.3659 67.9166 60.5008 67.9166C60.6357 67.9166 60.7593 67.997 60.819 68.1238L61.9603 70.5461C62.0119 70.6557 62.112 70.7317 62.2277 70.7493L64.7799 71.1377C64.9138 71.158 65.0246 71.2562 65.0663 71.3906C65.108 71.525 65.0732 71.6729 64.9765 71.7715L63.1298 73.6572C63.0462 73.7425 63.008 73.8656 63.0276 73.9861L63.4634 76.6488C63.486 76.7884 63.4316 76.9292 63.3221 77.0125C63.2127 77.0953 63.0681 77.1063 62.9483 77.0409L60.6654 75.7836C60.5621 75.7266 60.4385 75.7266 60.3351 75.7836L58.0522 77.0407C57.9327 77.1063 57.7878 77.0955 57.6784 77.0125C57.569 76.9294 57.5145 76.7884 57.5372 76.6488L57.9731 73.9861C57.9928 73.8656 57.9545 73.7425 57.8708 73.6572L56.0241 71.7715C55.9274 71.6727 55.8926 71.525 55.9344 71.3906C55.9761 71.2562 56.087 71.158 56.2209 71.1377L58.7736 70.7493C58.8891 70.7317 58.9891 70.6557 59.0408 70.5459L60.1826 68.1238Z" fill="#FFC107"/>
<path d="M71.1826 68.1238C71.2425 67.997 71.3659 67.9166 71.5008 67.9166C71.6357 67.9166 71.7593 67.997 71.819 68.1238L72.9603 70.5461C73.0119 70.6557 73.112 70.7317 73.2277 70.7493L75.7799 71.1377C75.9138 71.158 76.0246 71.2562 76.0663 71.3906C76.108 71.525 76.0732 71.6729 75.9765 71.7715L74.1298 73.6572C74.0462 73.7425 74.008 73.8656 74.0276 73.9861L74.4634 76.6488C74.486 76.7884 74.4316 76.9292 74.3221 77.0125C74.2127 77.0953 74.0681 77.1063 73.9483 77.0409L71.6654 75.7836C71.5621 75.7266 71.4385 75.7266 71.3351 75.7836L69.0522 77.0407C68.9327 77.1063 68.7878 77.0955 68.6784 77.0125C68.569 76.9294 68.5145 76.7884 68.5372 76.6488L68.9731 73.9861C68.9928 73.8656 68.9545 73.7425 68.8708 73.6572L67.0241 71.7715C66.9274 71.6727 66.8926 71.525 66.9344 71.3906C66.9761 71.2562 67.087 71.158 67.2209 71.1377L69.7736 70.7493C69.8891 70.7317 69.9891 70.6557 70.0408 70.5459L71.1826 68.1238Z" fill="#FFC107"/>
<path d="M82.1826 68.1238C82.2425 67.997 82.3659 67.9166 82.5008 67.9166C82.6357 67.9166 82.7593 67.997 82.819 68.1238L83.9603 70.5461C84.0119 70.6557 84.112 70.7317 84.2277 70.7493L86.7799 71.1377C86.9138 71.158 87.0246 71.2562 87.0663 71.3906C87.108 71.525 87.0732 71.6729 86.9765 71.7715L85.1298 73.6572C85.0462 73.7425 85.008 73.8656 85.0276 73.9861L85.4634 76.6488C85.486 76.7884 85.4316 76.9292 85.3221 77.0125C85.2127 77.0953 85.0681 77.1063 84.9483 77.0409L82.6654 75.7836C82.5621 75.7266 82.4385 75.7266 82.3351 75.7836L80.0522 77.0407C79.9327 77.1063 79.7878 77.0955 79.6784 77.0125C79.569 76.9294 79.5145 76.7884 79.5372 76.6488L79.9731 73.9861C79.9928 73.8656 79.9545 73.7425 79.8708 73.6572L78.0241 71.7715C77.9274 71.6727 77.8926 71.525 77.9344 71.3906C77.9761 71.2562 78.087 71.158 78.2209 71.1377L80.7736 70.7493C80.8891 70.7317 80.9891 70.6557 81.0408 70.5459L82.1826 68.1238Z" fill="#FFC107"/>
<path d="M93.1826 68.1238C93.2425 67.997 93.3659 67.9166 93.5008 67.9166C93.6357 67.9166 93.7593 67.997 93.819 68.1238L94.9603 70.5461C95.0119 70.6557 95.112 70.7317 95.2277 70.7493L97.7799 71.1377C97.9138 71.158 98.0246 71.2562 98.0663 71.3906C98.108 71.525 98.0732 71.6729 97.9765 71.7715L96.1298 73.6572C96.0462 73.7425 96.008 73.8656 96.0276 73.9861L96.4634 76.6488C96.486 76.7884 96.4316 76.9292 96.3221 77.0125C96.2127 77.0953 96.0681 77.1063 95.9483 77.0409L93.6654 75.7836C93.5621 75.7266 93.4385 75.7266 93.3351 75.7836L91.0522 77.0407C90.9327 77.1063 90.7878 77.0955 90.6784 77.0125C90.569 76.9294 90.5145 76.7884 90.5372 76.6488L90.9731 73.9861C90.9928 73.8656 90.9545 73.7425 90.8708 73.6572L89.0241 71.7715C88.9274 71.6727 88.8926 71.525 88.9344 71.3906C88.9761 71.2562 89.087 71.158 89.2209 71.1377L91.7736 70.7493C91.8891 70.7317 91.9891 70.6557 92.0408 70.5459L93.1826 68.1238Z" fill="#FFC107"/>
<rect x="31" y="22" width="9" height="3" rx="1.5" fill="#E9E9E9"/>
<rect x="31" y="48" width="9" height="3" rx="1.5" fill="#E9E9E9"/>
<rect x="31" y="74" width="9" height="3" rx="1.5" fill="#E9E9E9"/>
<rect x="41" y="22" width="9" height="3" rx="1.5" fill="#E9E9E9"/>
<rect x="41" y="48" width="9" height="3" rx="1.5" fill="#E9E9E9"/>
<rect x="41" y="74" width="9" height="3" rx="1.5" fill="#E9E9E9"/>
<rect x="31" y="17" width="19" height="3" rx="1.5" fill="#E9E9E9"/>
<rect x="31" y="43" width="19" height="3" rx="1.5" fill="#E9E9E9"/>
<rect x="31" y="69" width="19" height="3" rx="1.5" fill="#E9E9E9"/>
<path d="M18 13C13.5849 13 10 16.5849 10 21C10 25.4151 13.5849 29 18 29C22.4151 29 26 25.4151 26 21C26 16.5975 22.4025 13 18 13ZM16.8176 23.0503C17.1195 23.3396 17.4843 23.6415 17.8994 23.7044C17.912 23.717 17.9245 23.717 17.9497 23.717C17.9623 23.717 17.9748 23.717 18 23.717C18.0126 23.717 18.0252 23.717 18.0503 23.717C18.0755 23.717 18.0881 23.717 18.1006 23.7044C18.5157 23.6415 18.8805 23.3522 19.1824 23.0503C19.195 23.5031 19.2704 23.956 19.2704 24.4088C19.2579 25.0377 18.6541 25.5912 18.0126 25.6164C17.3711 25.5912 16.7547 25.0377 16.7547 24.4088C16.7296 23.956 16.805 23.5031 16.8176 23.0503ZM15.7484 21.239C15.4843 20.7484 15.4843 20.283 15.522 19.7421C15.5472 19.2264 15.5723 18.7233 15.6101 18.2201C15.6855 18.2201 15.7736 18.2075 15.8616 18.1824C15.9874 18.1321 16.0503 18.0314 16.0755 17.9182C16.2138 18.0063 16.4025 18.0314 16.5535 17.9686C16.5912 17.956 16.6164 17.9182 16.6415 17.8679C16.8679 18.2453 17.283 18.4088 17.7484 18.3711C17.9874 18.3585 18.2893 18.1195 18.4654 17.8553C18.5157 17.9308 18.6038 17.9937 18.717 18.044C18.8931 18.1195 19.0692 18.0943 19.2201 18.0189C19.283 18.1195 19.3837 18.2075 19.522 18.283C19.8365 18.434 20.1006 18.434 20.3774 18.3082C20.4151 18.7862 20.4277 19.2641 20.4528 19.7547C20.478 20.2956 20.4906 20.761 20.2264 21.2516C19.9371 21.7799 19.673 22.2956 19.2201 22.7107C18.8679 23.0377 18.4906 23.478 17.9748 23.5157C17.4717 23.478 17.0818 23.0377 16.7296 22.7107C16.3019 22.283 16.0377 21.7799 15.7484 21.239ZM23.3333 26.4088C23.1195 26.0314 22.9057 25.6415 22.7296 25.2516C22.4654 24.6604 21.912 24.6352 21.3333 24.4717C20.6918 24.283 20.0629 24.0314 19.434 23.8302C19.434 23.8302 19.434 23.8302 19.4214 23.8302C19.3837 23.5031 19.3585 23.1887 19.3711 22.8616V22.8491C19.7359 22.4717 20.0377 22.0943 20.2767 21.6164C20.3899 21.3774 20.5283 21.1509 20.6164 20.912C20.6164 20.8994 20.6164 20.8994 20.6164 20.8868C21.1572 20.9874 21.0063 20.044 21.1321 19.7547C21.195 19.6038 21.2201 19.478 21.2076 19.3648C21.8113 19.4528 22.0377 18.4591 21.6101 18.1321C21.8113 17.9811 21.9623 17.6918 21.9371 17.478C21.8868 17 21.7107 16.6604 21.2453 16.4717C21.3208 16.3711 21.3459 16.2453 21.2956 16.1069C21.2201 15.8931 21.0315 15.7673 20.8302 15.7673C20.8805 15.5157 20.8428 15.239 20.7296 15.1006C20.478 14.8113 20 14.5849 19.6352 14.7484C19.6101 14.6604 19.5723 14.5849 19.522 14.5346C19.4214 14.434 19.2579 14.434 19.1195 14.4969C19.0566 14.3208 18.9308 14.1698 18.7547 14.1195C18.6415 14.0943 18.5031 14.1069 18.3774 14.1447C18.2013 14.0063 17.9245 14.0566 17.7484 14.195C17.5975 14.1069 17.4088 14.0692 17.2704 14.1195C17.0943 14.1698 16.956 14.3208 16.9057 14.4969C16.7673 14.4465 16.6038 14.434 16.5031 14.5346C16.4528 14.5849 16.4151 14.6604 16.3899 14.7484C16.0252 14.5723 15.5346 14.7987 15.2956 15.1006C15.1824 15.239 15.1447 15.5157 15.195 15.7673C14.9811 15.7673 14.7925 15.8931 14.7296 16.1069C14.6792 16.2453 14.717 16.3711 14.7799 16.4717C14.3145 16.6478 14.1384 16.9874 14.0881 17.478C14.0629 17.6918 14.2138 17.9811 14.4151 18.1321C13.9748 18.4591 14.2013 19.4528 14.8176 19.3648C14.805 19.478 14.8302 19.6164 14.8931 19.7547C15.0189 20.0314 14.8805 20.9623 15.3962 20.8868V20.8994C15.4843 21.1509 15.6226 21.3774 15.7359 21.6038C15.9874 22.0943 16.2893 22.4591 16.6415 22.8365V22.8491C16.6541 23.1761 16.6289 23.4906 16.5912 23.8176H16.5786C15.9371 24.0063 15.3208 24.2704 14.6792 24.4591C14.1006 24.6226 13.5472 24.6478 13.283 25.239C13.1069 25.6289 12.8931 26.0189 12.6792 26.3962C11.283 25.0126 10.4277 23.1006 10.4277 21C10.4277 16.8113 13.8365 13.4025 18.0252 13.4025C22.2138 13.4025 25.6226 16.8113 25.6226 21C25.5975 23.1132 24.7296 25.0252 23.3333 26.4088ZM20.6793 20.0189C20.6667 19.7421 20.6541 19.4654 20.6415 19.1887C21.0063 19.1258 21.0315 19.5031 20.9182 19.7673C20.8931 19.8176 20.8805 19.8679 20.8679 19.9308C20.8554 20.044 20.8805 20.6855 20.6667 20.6981C20.7044 20.4717 20.6918 20.2453 20.6793 20.0189ZM15.3208 20.6855C15.1195 20.6478 15.1447 20.044 15.1321 19.9308C15.1321 19.8805 15.1069 19.8176 15.0818 19.7673C14.9686 19.5157 14.9937 19.1384 15.3459 19.1887C15.3333 19.4654 15.3208 19.7421 15.3082 20.0189C15.2956 20.2453 15.283 20.4591 15.3208 20.6855Z" fill="#E9E9E9"/>
<path d="M18.5155 22.3082C18.6035 22.2704 18.6916 22.2327 18.7293 22.1698C18.7671 22.1069 18.7922 22.0566 18.8048 21.9937C18.8174 21.9811 18.8174 21.9685 18.8174 21.956C18.8299 21.9434 18.8425 21.9308 18.8425 21.9056C18.8425 21.8176 18.8174 21.717 18.6916 21.6792C18.5784 21.6415 18.4777 21.6038 18.3394 21.6038C18.1884 21.6038 18.0752 21.6667 17.9872 21.7421C17.9117 21.6667 17.7985 21.6038 17.635 21.6038C17.4966 21.6038 17.396 21.6289 17.2828 21.6792C17.157 21.7295 17.1318 21.8302 17.1318 21.9056C17.1318 21.9308 17.1444 21.9434 17.157 21.956C17.157 21.9685 17.157 21.9811 17.1696 21.9937C17.1821 22.0566 17.2073 22.1195 17.245 22.1698C17.2828 22.2327 17.3708 22.2704 17.4589 22.3082C17.5972 22.3585 17.8111 22.3836 17.9746 22.3585C18.1507 22.3836 18.3771 22.3585 18.5155 22.3082Z" fill="#E9E9E9"/>
<path d="M18 39C13.5849 39 10 42.5849 10 47C10 51.4151 13.5849 55 18 55C22.4151 55 26 51.4151 26 47C26 42.5975 22.4025 39 18 39ZM16.8176 49.0503C17.1195 49.3396 17.4843 49.6415 17.8994 49.7044C17.912 49.717 17.9245 49.717 17.9497 49.717C17.9623 49.717 17.9748 49.717 18 49.717C18.0126 49.717 18.0252 49.717 18.0503 49.717C18.0755 49.717 18.0881 49.717 18.1006 49.7044C18.5157 49.6415 18.8805 49.3522 19.1824 49.0503C19.195 49.5031 19.2704 49.956 19.2704 50.4088C19.2579 51.0377 18.6541 51.5912 18.0126 51.6164C17.3711 51.5912 16.7547 51.0377 16.7547 50.4088C16.7296 49.956 16.805 49.5031 16.8176 49.0503ZM15.7484 47.239C15.4843 46.7484 15.4843 46.283 15.522 45.7421C15.5472 45.2264 15.5723 44.7233 15.6101 44.2201C15.6855 44.2201 15.7736 44.2075 15.8616 44.1824C15.9874 44.1321 16.0503 44.0314 16.0755 43.9182C16.2138 44.0063 16.4025 44.0314 16.5535 43.9686C16.5912 43.956 16.6164 43.9182 16.6415 43.8679C16.8679 44.2453 17.283 44.4088 17.7484 44.3711C17.9874 44.3585 18.2893 44.1195 18.4654 43.8553C18.5157 43.9308 18.6038 43.9937 18.717 44.044C18.8931 44.1195 19.0692 44.0943 19.2201 44.0189C19.283 44.1195 19.3837 44.2075 19.522 44.283C19.8365 44.434 20.1006 44.434 20.3774 44.3082C20.4151 44.7862 20.4277 45.2641 20.4528 45.7547C20.478 46.2956 20.4906 46.761 20.2264 47.2516C19.9371 47.7799 19.673 48.2956 19.2201 48.7107C18.8679 49.0377 18.4906 49.478 17.9748 49.5157C17.4717 49.478 17.0818 49.0377 16.7296 48.7107C16.3019 48.283 16.0377 47.7799 15.7484 47.239ZM23.3333 52.4088C23.1195 52.0314 22.9057 51.6415 22.7296 51.2516C22.4654 50.6604 21.912 50.6352 21.3333 50.4717C20.6918 50.283 20.0629 50.0314 19.434 49.8302C19.434 49.8302 19.434 49.8302 19.4214 49.8302C19.3837 49.5031 19.3585 49.1887 19.3711 48.8616V48.8491C19.7359 48.4717 20.0377 48.0943 20.2767 47.6164C20.3899 47.3774 20.5283 47.1509 20.6164 46.912C20.6164 46.8994 20.6164 46.8994 20.6164 46.8868C21.1572 46.9874 21.0063 46.044 21.1321 45.7547C21.195 45.6038 21.2201 45.478 21.2076 45.3648C21.8113 45.4528 22.0377 44.4591 21.6101 44.1321C21.8113 43.9811 21.9623 43.6918 21.9371 43.478C21.8868 43 21.7107 42.6604 21.2453 42.4717C21.3208 42.3711 21.3459 42.2453 21.2956 42.1069C21.2201 41.8931 21.0315 41.7673 20.8302 41.7673C20.8805 41.5157 20.8428 41.239 20.7296 41.1006C20.478 40.8113 20 40.5849 19.6352 40.7484C19.6101 40.6604 19.5723 40.5849 19.522 40.5346C19.4214 40.434 19.2579 40.434 19.1195 40.4969C19.0566 40.3208 18.9308 40.1698 18.7547 40.1195C18.6415 40.0943 18.5031 40.1069 18.3774 40.1447C18.2013 40.0063 17.9245 40.0566 17.7484 40.195C17.5975 40.1069 17.4088 40.0692 17.2704 40.1195C17.0943 40.1698 16.956 40.3208 16.9057 40.4969C16.7673 40.4465 16.6038 40.434 16.5031 40.5346C16.4528 40.5849 16.4151 40.6604 16.3899 40.7484C16.0252 40.5723 15.5346 40.7987 15.2956 41.1006C15.1824 41.239 15.1447 41.5157 15.195 41.7673C14.9811 41.7673 14.7925 41.8931 14.7296 42.1069C14.6792 42.2453 14.717 42.3711 14.7799 42.4717C14.3145 42.6478 14.1384 42.9874 14.0881 43.478C14.0629 43.6918 14.2138 43.9811 14.4151 44.1321C13.9748 44.4591 14.2013 45.4528 14.8176 45.3648C14.805 45.478 14.8302 45.6164 14.8931 45.7547C15.0189 46.0314 14.8805 46.9623 15.3962 46.8868V46.8994C15.4843 47.1509 15.6226 47.3774 15.7359 47.6038C15.9874 48.0943 16.2893 48.4591 16.6415 48.8365V48.8491C16.6541 49.1761 16.6289 49.4906 16.5912 49.8176H16.5786C15.9371 50.0063 15.3208 50.2704 14.6792 50.4591C14.1006 50.6226 13.5472 50.6478 13.283 51.239C13.1069 51.6289 12.8931 52.0189 12.6792 52.3962C11.283 51.0126 10.4277 49.1006 10.4277 47C10.4277 42.8113 13.8365 39.4025 18.0252 39.4025C22.2138 39.4025 25.6226 42.8113 25.6226 47C25.5975 49.1132 24.7296 51.0252 23.3333 52.4088ZM20.6793 46.0189C20.6667 45.7421 20.6541 45.4654 20.6415 45.1887C21.0063 45.1258 21.0315 45.5031 20.9182 45.7673C20.8931 45.8176 20.8805 45.8679 20.8679 45.9308C20.8554 46.044 20.8805 46.6855 20.6667 46.6981C20.7044 46.4717 20.6918 46.2453 20.6793 46.0189ZM15.3208 46.6855C15.1195 46.6478 15.1447 46.044 15.1321 45.9308C15.1321 45.8805 15.1069 45.8176 15.0818 45.7673C14.9686 45.5157 14.9937 45.1384 15.3459 45.1887C15.3333 45.4654 15.3208 45.7421 15.3082 46.0189C15.2956 46.2453 15.283 46.4591 15.3208 46.6855Z" fill="#E9E9E9"/>
<path d="M18.5155 48.3082C18.6035 48.2704 18.6916 48.2327 18.7293 48.1698C18.7671 48.1069 18.7922 48.0566 18.8048 47.9937C18.8174 47.9811 18.8174 47.9685 18.8174 47.956C18.8299 47.9434 18.8425 47.9308 18.8425 47.9056C18.8425 47.8176 18.8174 47.717 18.6916 47.6792C18.5784 47.6415 18.4777 47.6038 18.3394 47.6038C18.1884 47.6038 18.0752 47.6667 17.9872 47.7421C17.9117 47.6667 17.7985 47.6038 17.635 47.6038C17.4966 47.6038 17.396 47.6289 17.2828 47.6792C17.157 47.7295 17.1318 47.8302 17.1318 47.9056C17.1318 47.9308 17.1444 47.9434 17.157 47.956C17.157 47.9685 17.157 47.9811 17.1696 47.9937C17.1821 48.0566 17.2073 48.1195 17.245 48.1698C17.2828 48.2327 17.3708 48.2704 17.4589 48.3082C17.5972 48.3585 17.8111 48.3836 17.9746 48.3585C18.1507 48.3836 18.3771 48.3585 18.5155 48.3082Z" fill="#E9E9E9"/>
<path d="M18 65C13.5849 65 10 68.5849 10 73C10 77.4151 13.5849 81 18 81C22.4151 81 26 77.4151 26 73C26 68.5975 22.4025 65 18 65ZM16.8176 75.0503C17.1195 75.3396 17.4843 75.6415 17.8994 75.7044C17.912 75.717 17.9245 75.717 17.9497 75.717C17.9623 75.717 17.9748 75.717 18 75.717C18.0126 75.717 18.0252 75.717 18.0503 75.717C18.0755 75.717 18.0881 75.717 18.1006 75.7044C18.5157 75.6415 18.8805 75.3522 19.1824 75.0503C19.195 75.5031 19.2704 75.956 19.2704 76.4088C19.2579 77.0377 18.6541 77.5912 18.0126 77.6164C17.3711 77.5912 16.7547 77.0377 16.7547 76.4088C16.7296 75.956 16.805 75.5031 16.8176 75.0503ZM15.7484 73.239C15.4843 72.7484 15.4843 72.283 15.522 71.7421C15.5472 71.2264 15.5723 70.7233 15.6101 70.2201C15.6855 70.2201 15.7736 70.2075 15.8616 70.1824C15.9874 70.1321 16.0503 70.0314 16.0755 69.9182C16.2138 70.0063 16.4025 70.0314 16.5535 69.9686C16.5912 69.956 16.6164 69.9182 16.6415 69.8679C16.8679 70.2453 17.283 70.4088 17.7484 70.3711C17.9874 70.3585 18.2893 70.1195 18.4654 69.8553C18.5157 69.9308 18.6038 69.9937 18.717 70.044C18.8931 70.1195 19.0692 70.0943 19.2201 70.0189C19.283 70.1195 19.3837 70.2075 19.522 70.283C19.8365 70.434 20.1006 70.434 20.3774 70.3082C20.4151 70.7862 20.4277 71.2641 20.4528 71.7547C20.478 72.2956 20.4906 72.761 20.2264 73.2516C19.9371 73.7799 19.673 74.2956 19.2201 74.7107C18.8679 75.0377 18.4906 75.478 17.9748 75.5157C17.4717 75.478 17.0818 75.0377 16.7296 74.7107C16.3019 74.283 16.0377 73.7799 15.7484 73.239ZM23.3333 78.4088C23.1195 78.0314 22.9057 77.6415 22.7296 77.2516C22.4654 76.6604 21.912 76.6352 21.3333 76.4717C20.6918 76.283 20.0629 76.0314 19.434 75.8302C19.434 75.8302 19.434 75.8302 19.4214 75.8302C19.3837 75.5031 19.3585 75.1887 19.3711 74.8616V74.8491C19.7359 74.4717 20.0377 74.0943 20.2767 73.6164C20.3899 73.3774 20.5283 73.1509 20.6164 72.912C20.6164 72.8994 20.6164 72.8994 20.6164 72.8868C21.1572 72.9874 21.0063 72.044 21.1321 71.7547C21.195 71.6038 21.2201 71.478 21.2076 71.3648C21.8113 71.4528 22.0377 70.4591 21.6101 70.1321C21.8113 69.9811 21.9623 69.6918 21.9371 69.478C21.8868 69 21.7107 68.6604 21.2453 68.4717C21.3208 68.3711 21.3459 68.2453 21.2956 68.1069C21.2201 67.8931 21.0315 67.7673 20.8302 67.7673C20.8805 67.5157 20.8428 67.239 20.7296 67.1006C20.478 66.8113 20 66.5849 19.6352 66.7484C19.6101 66.6604 19.5723 66.5849 19.522 66.5346C19.4214 66.434 19.2579 66.434 19.1195 66.4969C19.0566 66.3208 18.9308 66.1698 18.7547 66.1195C18.6415 66.0943 18.5031 66.1069 18.3774 66.1447C18.2013 66.0063 17.9245 66.0566 17.7484 66.195C17.5975 66.1069 17.4088 66.0692 17.2704 66.1195C17.0943 66.1698 16.956 66.3208 16.9057 66.4969C16.7673 66.4465 16.6038 66.434 16.5031 66.5346C16.4528 66.5849 16.4151 66.6604 16.3899 66.7484C16.0252 66.5723 15.5346 66.7987 15.2956 67.1006C15.1824 67.239 15.1447 67.5157 15.195 67.7673C14.9811 67.7673 14.7925 67.8931 14.7296 68.1069C14.6792 68.2453 14.717 68.3711 14.7799 68.4717C14.3145 68.6478 14.1384 68.9874 14.0881 69.478C14.0629 69.6918 14.2138 69.9811 14.4151 70.1321C13.9748 70.4591 14.2013 71.4528 14.8176 71.3648C14.805 71.478 14.8302 71.6164 14.8931 71.7547C15.0189 72.0314 14.8805 72.9623 15.3962 72.8868V72.8994C15.4843 73.1509 15.6226 73.3774 15.7359 73.6038C15.9874 74.0943 16.2893 74.4591 16.6415 74.8365V74.8491C16.6541 75.1761 16.6289 75.4906 16.5912 75.8176H16.5786C15.9371 76.0063 15.3208 76.2704 14.6792 76.4591C14.1006 76.6226 13.5472 76.6478 13.283 77.239C13.1069 77.6289 12.8931 78.0189 12.6792 78.3962C11.283 77.0126 10.4277 75.1006 10.4277 73C10.4277 68.8113 13.8365 65.4025 18.0252 65.4025C22.2138 65.4025 25.6226 68.8113 25.6226 73C25.5975 75.1132 24.7296 77.0252 23.3333 78.4088ZM20.6793 72.0189C20.6667 71.7421 20.6541 71.4654 20.6415 71.1887C21.0063 71.1258 21.0315 71.5031 20.9182 71.7673C20.8931 71.8176 20.8805 71.8679 20.8679 71.9308C20.8554 72.044 20.8805 72.6855 20.6667 72.6981C20.7044 72.4717 20.6918 72.2453 20.6793 72.0189ZM15.3208 72.6855C15.1195 72.6478 15.1447 72.044 15.1321 71.9308C15.1321 71.8805 15.1069 71.8176 15.0818 71.7673C14.9686 71.5157 14.9937 71.1384 15.3459 71.1887C15.3333 71.4654 15.3208 71.7421 15.3082 72.0189C15.2956 72.2453 15.283 72.4591 15.3208 72.6855Z" fill="#E9E9E9"/>
<path d="M18.5155 74.3082C18.6035 74.2704 18.6916 74.2327 18.7293 74.1698C18.7671 74.1069 18.7922 74.0566 18.8048 73.9937C18.8174 73.9811 18.8174 73.9685 18.8174 73.956C18.8299 73.9434 18.8425 73.9308 18.8425 73.9056C18.8425 73.8176 18.8174 73.717 18.6916 73.6792C18.5784 73.6415 18.4777 73.6038 18.3394 73.6038C18.1884 73.6038 18.0752 73.6667 17.9872 73.7421C17.9117 73.6667 17.7985 73.6038 17.635 73.6038C17.4966 73.6038 17.396 73.6289 17.2828 73.6792C17.157 73.7295 17.1318 73.8302 17.1318 73.9056C17.1318 73.9308 17.1444 73.9434 17.157 73.956C17.157 73.9685 17.157 73.9811 17.1696 73.9937C17.1821 74.0566 17.2073 74.1195 17.245 74.1698C17.2828 74.2327 17.3708 74.2704 17.4589 74.3082C17.5972 74.3585 17.8111 74.3836 17.9746 74.3585C18.1507 74.3836 18.3771 74.3585 18.5155 74.3082Z" fill="#E9E9E9"/>
</svg>
