<svg width="120" height="120" viewBox="0 0 120 120" fill="none" xmlns="http://www.w3.org/2000/svg">
<path d="M42.636 103.756H37.956L36.948 106H36.024L39.864 97.6H40.74L44.58 106H43.644L42.636 103.756ZM42.312 103.036L40.296 98.524L38.28 103.036H42.312ZM45.9696 97.6H49.3896C50.2776 97.6 51.0616 97.78 51.7416 98.14C52.4216 98.492 52.9496 98.988 53.3256 99.628C53.7016 100.26 53.8896 100.984 53.8896 101.8C53.8896 102.616 53.7016 103.344 53.3256 103.984C52.9496 104.616 52.4216 105.112 51.7416 105.472C51.0616 105.824 50.2776 106 49.3896 106H45.9696V97.6ZM49.3416 105.232C50.0776 105.232 50.7216 105.088 51.2736 104.8C51.8256 104.504 52.2536 104.1 52.5576 103.588C52.8616 103.068 53.0136 102.472 53.0136 101.8C53.0136 101.128 52.8616 100.536 52.5576 100.024C52.2536 99.504 51.8256 99.1 51.2736 98.812C50.7216 98.516 50.0776 98.368 49.3416 98.368H46.8576V105.232H49.3416ZM64.6076 97.6V106H63.7556V99.28L60.4556 104.932H60.0356L56.7356 99.316V106H55.8836V97.6H56.6156L60.2636 103.828L63.8756 97.6H64.6076ZM67.3446 97.6H68.2326V106H67.3446V97.6ZM77.9857 97.6V106H77.2537L71.8537 99.184V106H70.9657V97.6H71.6977L77.1097 104.416V97.6H77.9857Z" fill="black"/>
<path d="M60 15C55.5849 15 52 18.5849 52 23C52 27.4151 55.5849 31 60 31C64.4151 31 68 27.4151 68 23C68 18.5975 64.4025 15 60 15ZM58.8176 25.0503C59.1195 25.3396 59.4843 25.6415 59.8994 25.7044C59.912 25.717 59.9245 25.717 59.9497 25.717C59.9623 25.717 59.9748 25.717 60 25.717C60.0126 25.717 60.0252 25.717 60.0503 25.717C60.0755 25.717 60.0881 25.717 60.1006 25.7044C60.5157 25.6415 60.8805 25.3522 61.1824 25.0503C61.195 25.5031 61.2704 25.956 61.2704 26.4088C61.2579 27.0377 60.6541 27.5912 60.0126 27.6164C59.3711 27.5912 58.7547 27.0377 58.7547 26.4088C58.7296 25.956 58.805 25.5031 58.8176 25.0503ZM57.7484 23.239C57.4843 22.7484 57.4843 22.283 57.522 21.7421C57.5472 21.2264 57.5723 20.7233 57.6101 20.2201C57.6855 20.2201 57.7736 20.2075 57.8616 20.1824C57.9874 20.1321 58.0503 20.0314 58.0755 19.9182C58.2138 20.0063 58.4025 20.0314 58.5535 19.9686C58.5912 19.956 58.6164 19.9182 58.6415 19.8679C58.8679 20.2453 59.283 20.4088 59.7484 20.3711C59.9874 20.3585 60.2893 20.1195 60.4654 19.8553C60.5157 19.9308 60.6038 19.9937 60.717 20.044C60.8931 20.1195 61.0692 20.0943 61.2201 20.0189C61.283 20.1195 61.3837 20.2075 61.522 20.283C61.8365 20.434 62.1006 20.434 62.3774 20.3082C62.4151 20.7862 62.4277 21.2641 62.4528 21.7547C62.478 22.2956 62.4906 22.761 62.2264 23.2516C61.9371 23.7799 61.673 24.2956 61.2201 24.7107C60.8679 25.0377 60.4906 25.478 59.9748 25.5157C59.4717 25.478 59.0818 25.0377 58.7296 24.7107C58.3019 24.283 58.0377 23.7799 57.7484 23.239ZM65.3333 28.4088C65.1195 28.0314 64.9057 27.6415 64.7296 27.2516C64.4654 26.6604 63.912 26.6352 63.3333 26.4717C62.6918 26.283 62.0629 26.0314 61.434 25.8302C61.434 25.8302 61.434 25.8302 61.4214 25.8302C61.3837 25.5031 61.3585 25.1887 61.3711 24.8616V24.8491C61.7359 24.4717 62.0377 24.0943 62.2767 23.6164C62.3899 23.3774 62.5283 23.1509 62.6164 22.912C62.6164 22.8994 62.6164 22.8994 62.6164 22.8868C63.1572 22.9874 63.0063 22.044 63.1321 21.7547C63.195 21.6038 63.2201 21.478 63.2076 21.3648C63.8113 21.4528 64.0377 20.4591 63.6101 20.1321C63.8113 19.9811 63.9623 19.6918 63.9371 19.478C63.8868 19 63.7107 18.6604 63.2453 18.4717C63.3208 18.3711 63.3459 18.2453 63.2956 18.1069C63.2201 17.8931 63.0315 17.7673 62.8302 17.7673C62.8805 17.5157 62.8428 17.239 62.7296 17.1006C62.478 16.8113 62 16.5849 61.6352 16.7484C61.6101 16.6604 61.5723 16.5849 61.522 16.5346C61.4214 16.434 61.2579 16.434 61.1195 16.4969C61.0566 16.3208 60.9308 16.1698 60.7547 16.1195C60.6415 16.0943 60.5031 16.1069 60.3774 16.1447C60.2013 16.0063 59.9245 16.0566 59.7484 16.195C59.5975 16.1069 59.4088 16.0692 59.2704 16.1195C59.0943 16.1698 58.956 16.3208 58.9057 16.4969C58.7673 16.4465 58.6038 16.434 58.5031 16.5346C58.4528 16.5849 58.4151 16.6604 58.3899 16.7484C58.0252 16.5723 57.5346 16.7987 57.2956 17.1006C57.1824 17.239 57.1447 17.5157 57.195 17.7673C56.9811 17.7673 56.7925 17.8931 56.7296 18.1069C56.6792 18.2453 56.717 18.3711 56.7799 18.4717C56.3145 18.6478 56.1384 18.9874 56.0881 19.478C56.0629 19.6918 56.2138 19.9811 56.4151 20.1321C55.9748 20.4591 56.2013 21.4528 56.8176 21.3648C56.805 21.478 56.8302 21.6164 56.8931 21.7547C57.0189 22.0314 56.8805 22.9623 57.3962 22.8868V22.8994C57.4843 23.1509 57.6226 23.3774 57.7359 23.6038C57.9874 24.0943 58.2893 24.4591 58.6415 24.8365V24.8491C58.6541 25.1761 58.6289 25.4906 58.5912 25.8176H58.5786C57.9371 26.0063 57.3208 26.2704 56.6792 26.4591C56.1006 26.6226 55.5472 26.6478 55.283 27.239C55.1069 27.6289 54.8931 28.0189 54.6792 28.3962C53.283 27.0126 52.4277 25.1006 52.4277 23C52.4277 18.8113 55.8365 15.4025 60.0252 15.4025C64.2138 15.4025 67.6226 18.8113 67.6226 23C67.5975 25.1132 66.7296 27.0252 65.3333 28.4088ZM62.6793 22.0189C62.6667 21.7421 62.6541 21.4654 62.6415 21.1887C63.0063 21.1258 63.0315 21.5031 62.9182 21.7673C62.8931 21.8176 62.8805 21.8679 62.8679 21.9308C62.8554 22.044 62.8805 22.6855 62.6667 22.6981C62.7044 22.4717 62.6918 22.2453 62.6793 22.0189ZM57.3208 22.6855C57.1195 22.6478 57.1447 22.044 57.1321 21.9308C57.1321 21.8805 57.1069 21.8176 57.0818 21.7673C56.9686 21.5157 56.9937 21.1384 57.3459 21.1887C57.3333 21.4654 57.3208 21.7421 57.3082 22.0189C57.2956 22.2453 57.283 22.4591 57.3208 22.6855Z" fill="#E9E9E9"/>
<path d="M60.5155 24.3082C60.6035 24.2704 60.6916 24.2327 60.7293 24.1698C60.7671 24.1069 60.7922 24.0566 60.8048 23.9937C60.8174 23.9811 60.8174 23.9685 60.8174 23.956C60.8299 23.9434 60.8425 23.9308 60.8425 23.9056C60.8425 23.8176 60.8174 23.717 60.6916 23.6792C60.5784 23.6415 60.4777 23.6038 60.3394 23.6038C60.1884 23.6038 60.0752 23.6667 59.9872 23.7421C59.9117 23.6667 59.7985 23.6038 59.635 23.6038C59.4966 23.6038 59.396 23.6289 59.2828 23.6792C59.157 23.7295 59.1318 23.8302 59.1318 23.9056C59.1318 23.9308 59.1444 23.9434 59.157 23.956C59.157 23.9685 59.157 23.9811 59.1696 23.9937C59.1821 24.0566 59.2073 24.1195 59.245 24.1698C59.2828 24.2327 59.3708 24.2704 59.4589 24.3082C59.5972 24.3585 59.8111 24.3836 59.9746 24.3585C60.1507 24.3836 60.3771 24.3585 60.5155 24.3082Z" fill="#E9E9E9"/>
<path d="M70 34C65.5849 34 62 37.5849 62 42C62 46.4151 65.5849 50 70 50C74.4151 50 78 46.4151 78 42C78 37.5975 74.4025 34 70 34ZM68.8176 44.0503C69.1195 44.3396 69.4843 44.6415 69.8994 44.7044C69.912 44.717 69.9245 44.717 69.9497 44.717C69.9623 44.717 69.9748 44.717 70 44.717C70.0126 44.717 70.0252 44.717 70.0503 44.717C70.0755 44.717 70.0881 44.717 70.1006 44.7044C70.5157 44.6415 70.8805 44.3522 71.1824 44.0503C71.195 44.5031 71.2704 44.956 71.2704 45.4088C71.2579 46.0377 70.6541 46.5912 70.0126 46.6164C69.3711 46.5912 68.7547 46.0377 68.7547 45.4088C68.7296 44.956 68.805 44.5031 68.8176 44.0503ZM67.7484 42.239C67.4843 41.7484 67.4843 41.283 67.522 40.7421C67.5472 40.2264 67.5723 39.7233 67.6101 39.2201C67.6855 39.2201 67.7736 39.2075 67.8616 39.1824C67.9874 39.1321 68.0503 39.0314 68.0755 38.9182C68.2138 39.0063 68.4025 39.0314 68.5535 38.9686C68.5912 38.956 68.6164 38.9182 68.6415 38.8679C68.8679 39.2453 69.283 39.4088 69.7484 39.3711C69.9874 39.3585 70.2893 39.1195 70.4654 38.8553C70.5157 38.9308 70.6038 38.9937 70.717 39.044C70.8931 39.1195 71.0692 39.0943 71.2201 39.0189C71.283 39.1195 71.3837 39.2075 71.522 39.283C71.8365 39.434 72.1006 39.434 72.3774 39.3082C72.4151 39.7862 72.4277 40.2641 72.4528 40.7547C72.478 41.2956 72.4906 41.761 72.2264 42.2516C71.9371 42.7799 71.673 43.2956 71.2201 43.7107C70.8679 44.0377 70.4906 44.478 69.9748 44.5157C69.4717 44.478 69.0818 44.0377 68.7296 43.7107C68.3019 43.283 68.0377 42.7799 67.7484 42.239ZM75.3333 47.4088C75.1195 47.0314 74.9057 46.6415 74.7296 46.2516C74.4654 45.6604 73.912 45.6352 73.3333 45.4717C72.6918 45.283 72.0629 45.0314 71.434 44.8302C71.434 44.8302 71.434 44.8302 71.4214 44.8302C71.3837 44.5031 71.3585 44.1887 71.3711 43.8616V43.8491C71.7359 43.4717 72.0377 43.0943 72.2767 42.6164C72.3899 42.3774 72.5283 42.1509 72.6164 41.912C72.6164 41.8994 72.6164 41.8994 72.6164 41.8868C73.1572 41.9874 73.0063 41.044 73.1321 40.7547C73.195 40.6038 73.2201 40.478 73.2076 40.3648C73.8113 40.4528 74.0377 39.4591 73.6101 39.1321C73.8113 38.9811 73.9623 38.6918 73.9371 38.478C73.8868 38 73.7107 37.6604 73.2453 37.4717C73.3208 37.3711 73.3459 37.2453 73.2956 37.1069C73.2201 36.8931 73.0315 36.7673 72.8302 36.7673C72.8805 36.5157 72.8428 36.239 72.7296 36.1006C72.478 35.8113 72 35.5849 71.6352 35.7484C71.6101 35.6604 71.5723 35.5849 71.522 35.5346C71.4214 35.434 71.2579 35.434 71.1195 35.4969C71.0566 35.3208 70.9308 35.1698 70.7547 35.1195C70.6415 35.0943 70.5031 35.1069 70.3774 35.1447C70.2013 35.0063 69.9245 35.0566 69.7484 35.195C69.5975 35.1069 69.4088 35.0692 69.2704 35.1195C69.0943 35.1698 68.956 35.3208 68.9057 35.4969C68.7673 35.4465 68.6038 35.434 68.5031 35.5346C68.4528 35.5849 68.4151 35.6604 68.3899 35.7484C68.0252 35.5723 67.5346 35.7987 67.2956 36.1006C67.1824 36.239 67.1447 36.5157 67.195 36.7673C66.9811 36.7673 66.7925 36.8931 66.7296 37.1069C66.6792 37.2453 66.717 37.3711 66.7799 37.4717C66.3145 37.6478 66.1384 37.9874 66.0881 38.478C66.0629 38.6918 66.2138 38.9811 66.4151 39.1321C65.9748 39.4591 66.2013 40.4528 66.8176 40.3648C66.805 40.478 66.8302 40.6164 66.8931 40.7547C67.0189 41.0314 66.8805 41.9623 67.3962 41.8868V41.8994C67.4843 42.1509 67.6226 42.3774 67.7359 42.6038C67.9874 43.0943 68.2893 43.4591 68.6415 43.8365V43.8491C68.6541 44.1761 68.6289 44.4906 68.5912 44.8176H68.5786C67.9371 45.0063 67.3208 45.2704 66.6792 45.4591C66.1006 45.6226 65.5472 45.6478 65.283 46.239C65.1069 46.6289 64.8931 47.0189 64.6792 47.3962C63.283 46.0126 62.4277 44.1006 62.4277 42C62.4277 37.8113 65.8365 34.4025 70.0252 34.4025C74.2138 34.4025 77.6226 37.8113 77.6226 42C77.5975 44.1132 76.7296 46.0252 75.3333 47.4088ZM72.6793 41.0189C72.6667 40.7421 72.6541 40.4654 72.6415 40.1887C73.0063 40.1258 73.0315 40.5031 72.9182 40.7673C72.8931 40.8176 72.8805 40.8679 72.8679 40.9308C72.8554 41.044 72.8805 41.6855 72.6667 41.6981C72.7044 41.4717 72.6918 41.2453 72.6793 41.0189ZM67.3208 41.6855C67.1195 41.6478 67.1447 41.044 67.1321 40.9308C67.1321 40.8805 67.1069 40.8176 67.0818 40.7673C66.9686 40.5157 66.9937 40.1384 67.3459 40.1887C67.3333 40.4654 67.3208 40.7421 67.3082 41.0189C67.2956 41.2453 67.283 41.4591 67.3208 41.6855Z" fill="#E9E9E9"/>
<path d="M70.5155 43.3082C70.6035 43.2704 70.6916 43.2327 70.7293 43.1698C70.7671 43.1069 70.7922 43.0566 70.8048 42.9937C70.8174 42.9811 70.8174 42.9685 70.8174 42.956C70.8299 42.9434 70.8425 42.9308 70.8425 42.9056C70.8425 42.8176 70.8174 42.717 70.6916 42.6792C70.5784 42.6415 70.4777 42.6038 70.3394 42.6038C70.1884 42.6038 70.0752 42.6667 69.9872 42.7421C69.9117 42.6667 69.7985 42.6038 69.635 42.6038C69.4966 42.6038 69.396 42.6289 69.2828 42.6792C69.157 42.7295 69.1318 42.8302 69.1318 42.9056C69.1318 42.9308 69.1444 42.9434 69.157 42.956C69.157 42.9685 69.157 42.9811 69.1696 42.9937C69.1821 43.0566 69.2073 43.1195 69.245 43.1698C69.2828 43.2327 69.3708 43.2704 69.4589 43.3082C69.5972 43.3585 69.8111 43.3836 69.9746 43.3585C70.1507 43.3836 70.3771 43.3585 70.5155 43.3082Z" fill="#E9E9E9"/>
<path d="M81 15C76.5849 15 73 18.5849 73 23C73 27.4151 76.5849 31 81 31C85.4151 31 89 27.4151 89 23C89 18.5975 85.4025 15 81 15ZM79.8176 25.0503C80.1195 25.3396 80.4843 25.6415 80.8994 25.7044C80.912 25.717 80.9245 25.717 80.9497 25.717C80.9623 25.717 80.9748 25.717 81 25.717C81.0126 25.717 81.0252 25.717 81.0503 25.717C81.0755 25.717 81.0881 25.717 81.1006 25.7044C81.5157 25.6415 81.8805 25.3522 82.1824 25.0503C82.195 25.5031 82.2704 25.956 82.2704 26.4088C82.2579 27.0377 81.6541 27.5912 81.0126 27.6164C80.3711 27.5912 79.7547 27.0377 79.7547 26.4088C79.7296 25.956 79.805 25.5031 79.8176 25.0503ZM78.7484 23.239C78.4843 22.7484 78.4843 22.283 78.522 21.7421C78.5472 21.2264 78.5723 20.7233 78.6101 20.2201C78.6855 20.2201 78.7736 20.2075 78.8616 20.1824C78.9874 20.1321 79.0503 20.0314 79.0755 19.9182C79.2138 20.0063 79.4025 20.0314 79.5535 19.9686C79.5912 19.956 79.6164 19.9182 79.6415 19.8679C79.8679 20.2453 80.283 20.4088 80.7484 20.3711C80.9874 20.3585 81.2893 20.1195 81.4654 19.8553C81.5157 19.9308 81.6038 19.9937 81.717 20.044C81.8931 20.1195 82.0692 20.0943 82.2201 20.0189C82.283 20.1195 82.3837 20.2075 82.522 20.283C82.8365 20.434 83.1006 20.434 83.3774 20.3082C83.4151 20.7862 83.4277 21.2641 83.4528 21.7547C83.478 22.2956 83.4906 22.761 83.2264 23.2516C82.9371 23.7799 82.673 24.2956 82.2201 24.7107C81.8679 25.0377 81.4906 25.478 80.9748 25.5157C80.4717 25.478 80.0818 25.0377 79.7296 24.7107C79.3019 24.283 79.0377 23.7799 78.7484 23.239ZM86.3333 28.4088C86.1195 28.0314 85.9057 27.6415 85.7296 27.2516C85.4654 26.6604 84.912 26.6352 84.3333 26.4717C83.6918 26.283 83.0629 26.0314 82.434 25.8302C82.434 25.8302 82.434 25.8302 82.4214 25.8302C82.3837 25.5031 82.3585 25.1887 82.3711 24.8616V24.8491C82.7359 24.4717 83.0377 24.0943 83.2767 23.6164C83.3899 23.3774 83.5283 23.1509 83.6164 22.912C83.6164 22.8994 83.6164 22.8994 83.6164 22.8868C84.1572 22.9874 84.0063 22.044 84.1321 21.7547C84.195 21.6038 84.2201 21.478 84.2076 21.3648C84.8113 21.4528 85.0377 20.4591 84.6101 20.1321C84.8113 19.9811 84.9623 19.6918 84.9371 19.478C84.8868 19 84.7107 18.6604 84.2453 18.4717C84.3208 18.3711 84.3459 18.2453 84.2956 18.1069C84.2201 17.8931 84.0315 17.7673 83.8302 17.7673C83.8805 17.5157 83.8428 17.239 83.7296 17.1006C83.478 16.8113 83 16.5849 82.6352 16.7484C82.6101 16.6604 82.5723 16.5849 82.522 16.5346C82.4214 16.434 82.2579 16.434 82.1195 16.4969C82.0566 16.3208 81.9308 16.1698 81.7547 16.1195C81.6415 16.0943 81.5031 16.1069 81.3774 16.1447C81.2013 16.0063 80.9245 16.0566 80.7484 16.195C80.5975 16.1069 80.4088 16.0692 80.2704 16.1195C80.0943 16.1698 79.956 16.3208 79.9057 16.4969C79.7673 16.4465 79.6038 16.434 79.5031 16.5346C79.4528 16.5849 79.4151 16.6604 79.3899 16.7484C79.0252 16.5723 78.5346 16.7987 78.2956 17.1006C78.1824 17.239 78.1447 17.5157 78.195 17.7673C77.9811 17.7673 77.7925 17.8931 77.7296 18.1069C77.6792 18.2453 77.717 18.3711 77.7799 18.4717C77.3145 18.6478 77.1384 18.9874 77.0881 19.478C77.0629 19.6918 77.2138 19.9811 77.4151 20.1321C76.9748 20.4591 77.2013 21.4528 77.8176 21.3648C77.805 21.478 77.8302 21.6164 77.8931 21.7547C78.0189 22.0314 77.8805 22.9623 78.3962 22.8868V22.8994C78.4843 23.1509 78.6226 23.3774 78.7359 23.6038C78.9874 24.0943 79.2893 24.4591 79.6415 24.8365V24.8491C79.6541 25.1761 79.6289 25.4906 79.5912 25.8176H79.5786C78.9371 26.0063 78.3208 26.2704 77.6792 26.4591C77.1006 26.6226 76.5472 26.6478 76.283 27.239C76.1069 27.6289 75.8931 28.0189 75.6792 28.3962C74.283 27.0126 73.4277 25.1006 73.4277 23C73.4277 18.8113 76.8365 15.4025 81.0252 15.4025C85.2138 15.4025 88.6226 18.8113 88.6226 23C88.5975 25.1132 87.7296 27.0252 86.3333 28.4088ZM83.6793 22.0189C83.6667 21.7421 83.6541 21.4654 83.6415 21.1887C84.0063 21.1258 84.0315 21.5031 83.9182 21.7673C83.8931 21.8176 83.8805 21.8679 83.8679 21.9308C83.8554 22.044 83.8805 22.6855 83.6667 22.6981C83.7044 22.4717 83.6918 22.2453 83.6793 22.0189ZM78.3208 22.6855C78.1195 22.6478 78.1447 22.044 78.1321 21.9308C78.1321 21.8805 78.1069 21.8176 78.0818 21.7673C77.9686 21.5157 77.9937 21.1384 78.3459 21.1887C78.3333 21.4654 78.3208 21.7421 78.3082 22.0189C78.2956 22.2453 78.283 22.4591 78.3208 22.6855Z" fill="#E9E9E9"/>
<path d="M81.5155 24.3082C81.6035 24.2704 81.6916 24.2327 81.7293 24.1698C81.7671 24.1069 81.7922 24.0566 81.8048 23.9937C81.8174 23.9811 81.8174 23.9685 81.8174 23.956C81.8299 23.9434 81.8425 23.9308 81.8425 23.9056C81.8425 23.8176 81.8174 23.717 81.6916 23.6792C81.5784 23.6415 81.4777 23.6038 81.3394 23.6038C81.1884 23.6038 81.0752 23.6667 80.9872 23.7421C80.9117 23.6667 80.7985 23.6038 80.635 23.6038C80.4966 23.6038 80.396 23.6289 80.2828 23.6792C80.157 23.7295 80.1318 23.8302 80.1318 23.9056C80.1318 23.9308 80.1444 23.9434 80.157 23.956C80.157 23.9685 80.157 23.9811 80.1696 23.9937C80.1821 24.0566 80.2073 24.1195 80.245 24.1698C80.2828 24.2327 80.3708 24.2704 80.4589 24.3082C80.5972 24.3585 80.8111 24.3836 80.9746 24.3585C81.1507 24.3836 81.3771 24.3585 81.5155 24.3082Z" fill="#E9E9E9"/>
<path d="M39 15C34.5849 15 31 18.5849 31 23C31 27.4151 34.5849 31 39 31C43.4151 31 47 27.4151 47 23C47 18.5975 43.4025 15 39 15ZM37.8176 25.0503C38.1195 25.3396 38.4843 25.6415 38.8994 25.7044C38.912 25.717 38.9245 25.717 38.9497 25.717C38.9623 25.717 38.9748 25.717 39 25.717C39.0126 25.717 39.0252 25.717 39.0503 25.717C39.0755 25.717 39.0881 25.717 39.1006 25.7044C39.5157 25.6415 39.8805 25.3522 40.1824 25.0503C40.195 25.5031 40.2704 25.956 40.2704 26.4088C40.2579 27.0377 39.6541 27.5912 39.0126 27.6164C38.3711 27.5912 37.7547 27.0377 37.7547 26.4088C37.7296 25.956 37.805 25.5031 37.8176 25.0503ZM36.7484 23.239C36.4843 22.7484 36.4843 22.283 36.522 21.7421C36.5472 21.2264 36.5723 20.7233 36.6101 20.2201C36.6855 20.2201 36.7736 20.2075 36.8616 20.1824C36.9874 20.1321 37.0503 20.0314 37.0755 19.9182C37.2138 20.0063 37.4025 20.0314 37.5535 19.9686C37.5912 19.956 37.6164 19.9182 37.6415 19.8679C37.8679 20.2453 38.283 20.4088 38.7484 20.3711C38.9874 20.3585 39.2893 20.1195 39.4654 19.8553C39.5157 19.9308 39.6038 19.9937 39.717 20.044C39.8931 20.1195 40.0692 20.0943 40.2201 20.0189C40.283 20.1195 40.3837 20.2075 40.522 20.283C40.8365 20.434 41.1006 20.434 41.3774 20.3082C41.4151 20.7862 41.4277 21.2641 41.4528 21.7547C41.478 22.2956 41.4906 22.761 41.2264 23.2516C40.9371 23.7799 40.673 24.2956 40.2201 24.7107C39.8679 25.0377 39.4906 25.478 38.9748 25.5157C38.4717 25.478 38.0818 25.0377 37.7296 24.7107C37.3019 24.283 37.0377 23.7799 36.7484 23.239ZM44.3333 28.4088C44.1195 28.0314 43.9057 27.6415 43.7296 27.2516C43.4654 26.6604 42.912 26.6352 42.3333 26.4717C41.6918 26.283 41.0629 26.0314 40.434 25.8302C40.434 25.8302 40.434 25.8302 40.4214 25.8302C40.3837 25.5031 40.3585 25.1887 40.3711 24.8616V24.8491C40.7359 24.4717 41.0377 24.0943 41.2767 23.6164C41.3899 23.3774 41.5283 23.1509 41.6164 22.912C41.6164 22.8994 41.6164 22.8994 41.6164 22.8868C42.1572 22.9874 42.0063 22.044 42.1321 21.7547C42.195 21.6038 42.2201 21.478 42.2076 21.3648C42.8113 21.4528 43.0377 20.4591 42.6101 20.1321C42.8113 19.9811 42.9623 19.6918 42.9371 19.478C42.8868 19 42.7107 18.6604 42.2453 18.4717C42.3208 18.3711 42.3459 18.2453 42.2956 18.1069C42.2201 17.8931 42.0315 17.7673 41.8302 17.7673C41.8805 17.5157 41.8428 17.239 41.7296 17.1006C41.478 16.8113 41 16.5849 40.6352 16.7484C40.6101 16.6604 40.5723 16.5849 40.522 16.5346C40.4214 16.434 40.2579 16.434 40.1195 16.4969C40.0566 16.3208 39.9308 16.1698 39.7547 16.1195C39.6415 16.0943 39.5031 16.1069 39.3774 16.1447C39.2013 16.0063 38.9245 16.0566 38.7484 16.195C38.5975 16.1069 38.4088 16.0692 38.2704 16.1195C38.0943 16.1698 37.956 16.3208 37.9057 16.4969C37.7673 16.4465 37.6038 16.434 37.5031 16.5346C37.4528 16.5849 37.4151 16.6604 37.3899 16.7484C37.0252 16.5723 36.5346 16.7987 36.2956 17.1006C36.1824 17.239 36.1447 17.5157 36.195 17.7673C35.9811 17.7673 35.7925 17.8931 35.7296 18.1069C35.6792 18.2453 35.717 18.3711 35.7799 18.4717C35.3145 18.6478 35.1384 18.9874 35.0881 19.478C35.0629 19.6918 35.2138 19.9811 35.4151 20.1321C34.9748 20.4591 35.2013 21.4528 35.8176 21.3648C35.805 21.478 35.8302 21.6164 35.8931 21.7547C36.0189 22.0314 35.8805 22.9623 36.3962 22.8868V22.8994C36.4843 23.1509 36.6226 23.3774 36.7359 23.6038C36.9874 24.0943 37.2893 24.4591 37.6415 24.8365V24.8491C37.6541 25.1761 37.6289 25.4906 37.5912 25.8176H37.5786C36.9371 26.0063 36.3208 26.2704 35.6792 26.4591C35.1006 26.6226 34.5472 26.6478 34.283 27.239C34.1069 27.6289 33.8931 28.0189 33.6792 28.3962C32.283 27.0126 31.4277 25.1006 31.4277 23C31.4277 18.8113 34.8365 15.4025 39.0252 15.4025C43.2138 15.4025 46.6226 18.8113 46.6226 23C46.5975 25.1132 45.7296 27.0252 44.3333 28.4088ZM41.6793 22.0189C41.6667 21.7421 41.6541 21.4654 41.6415 21.1887C42.0063 21.1258 42.0315 21.5031 41.9182 21.7673C41.8931 21.8176 41.8805 21.8679 41.8679 21.9308C41.8554 22.044 41.8805 22.6855 41.6667 22.6981C41.7044 22.4717 41.6918 22.2453 41.6793 22.0189ZM36.3208 22.6855C36.1195 22.6478 36.1447 22.044 36.1321 21.9308C36.1321 21.8805 36.1069 21.8176 36.0818 21.7673C35.9686 21.5157 35.9937 21.1384 36.3459 21.1887C36.3333 21.4654 36.3208 21.7421 36.3082 22.0189C36.2956 22.2453 36.283 22.4591 36.3208 22.6855Z" fill="#E9E9E9"/>
<path d="M39.5155 24.3082C39.6035 24.2704 39.6916 24.2327 39.7293 24.1698C39.7671 24.1069 39.7922 24.0566 39.8048 23.9937C39.8174 23.9811 39.8174 23.9685 39.8174 23.956C39.8299 23.9434 39.8425 23.9308 39.8425 23.9056C39.8425 23.8176 39.8174 23.717 39.6916 23.6792C39.5784 23.6415 39.4777 23.6038 39.3394 23.6038C39.1884 23.6038 39.0752 23.6667 38.9872 23.7421C38.9117 23.6667 38.7985 23.6038 38.635 23.6038C38.4966 23.6038 38.396 23.6289 38.2828 23.6792C38.157 23.7295 38.1318 23.8302 38.1318 23.9056C38.1318 23.9308 38.1444 23.9434 38.157 23.956C38.157 23.9685 38.157 23.9811 38.1696 23.9937C38.1821 24.0566 38.2073 24.1195 38.245 24.1698C38.2828 24.2327 38.3708 24.2704 38.4589 24.3082C38.5972 24.3585 38.8111 24.3836 38.9746 24.3585C39.1507 24.3836 39.3771 24.3585 39.5155 24.3082Z" fill="#E9E9E9"/>
<path d="M49 34C44.5849 34 41 37.5849 41 42C41 46.4151 44.5849 50 49 50C53.4151 50 57 46.4151 57 42C57 37.5975 53.4025 34 49 34ZM47.8176 44.0503C48.1195 44.3396 48.4843 44.6415 48.8994 44.7044C48.912 44.717 48.9245 44.717 48.9497 44.717C48.9623 44.717 48.9748 44.717 49 44.717C49.0126 44.717 49.0252 44.717 49.0503 44.717C49.0755 44.717 49.0881 44.717 49.1006 44.7044C49.5157 44.6415 49.8805 44.3522 50.1824 44.0503C50.195 44.5031 50.2704 44.956 50.2704 45.4088C50.2579 46.0377 49.6541 46.5912 49.0126 46.6164C48.3711 46.5912 47.7547 46.0377 47.7547 45.4088C47.7296 44.956 47.805 44.5031 47.8176 44.0503ZM46.7484 42.239C46.4843 41.7484 46.4843 41.283 46.522 40.7421C46.5472 40.2264 46.5723 39.7233 46.6101 39.2201C46.6855 39.2201 46.7736 39.2075 46.8616 39.1824C46.9874 39.1321 47.0503 39.0314 47.0755 38.9182C47.2138 39.0063 47.4025 39.0314 47.5535 38.9686C47.5912 38.956 47.6164 38.9182 47.6415 38.8679C47.8679 39.2453 48.283 39.4088 48.7484 39.3711C48.9874 39.3585 49.2893 39.1195 49.4654 38.8553C49.5157 38.9308 49.6038 38.9937 49.717 39.044C49.8931 39.1195 50.0692 39.0943 50.2201 39.0189C50.283 39.1195 50.3837 39.2075 50.522 39.283C50.8365 39.434 51.1006 39.434 51.3774 39.3082C51.4151 39.7862 51.4277 40.2641 51.4528 40.7547C51.478 41.2956 51.4906 41.761 51.2264 42.2516C50.9371 42.7799 50.673 43.2956 50.2201 43.7107C49.8679 44.0377 49.4906 44.478 48.9748 44.5157C48.4717 44.478 48.0818 44.0377 47.7296 43.7107C47.3019 43.283 47.0377 42.7799 46.7484 42.239ZM54.3333 47.4088C54.1195 47.0314 53.9057 46.6415 53.7296 46.2516C53.4654 45.6604 52.912 45.6352 52.3333 45.4717C51.6918 45.283 51.0629 45.0314 50.434 44.8302C50.434 44.8302 50.434 44.8302 50.4214 44.8302C50.3837 44.5031 50.3585 44.1887 50.3711 43.8616V43.8491C50.7359 43.4717 51.0377 43.0943 51.2767 42.6164C51.3899 42.3774 51.5283 42.1509 51.6164 41.912C51.6164 41.8994 51.6164 41.8994 51.6164 41.8868C52.1572 41.9874 52.0063 41.044 52.1321 40.7547C52.195 40.6038 52.2201 40.478 52.2076 40.3648C52.8113 40.4528 53.0377 39.4591 52.6101 39.1321C52.8113 38.9811 52.9623 38.6918 52.9371 38.478C52.8868 38 52.7107 37.6604 52.2453 37.4717C52.3208 37.3711 52.3459 37.2453 52.2956 37.1069C52.2201 36.8931 52.0315 36.7673 51.8302 36.7673C51.8805 36.5157 51.8428 36.239 51.7296 36.1006C51.478 35.8113 51 35.5849 50.6352 35.7484C50.6101 35.6604 50.5723 35.5849 50.522 35.5346C50.4214 35.434 50.2579 35.434 50.1195 35.4969C50.0566 35.3208 49.9308 35.1698 49.7547 35.1195C49.6415 35.0943 49.5031 35.1069 49.3774 35.1447C49.2013 35.0063 48.9245 35.0566 48.7484 35.195C48.5975 35.1069 48.4088 35.0692 48.2704 35.1195C48.0943 35.1698 47.956 35.3208 47.9057 35.4969C47.7673 35.4465 47.6038 35.434 47.5031 35.5346C47.4528 35.5849 47.4151 35.6604 47.3899 35.7484C47.0252 35.5723 46.5346 35.7987 46.2956 36.1006C46.1824 36.239 46.1447 36.5157 46.195 36.7673C45.9811 36.7673 45.7925 36.8931 45.7296 37.1069C45.6792 37.2453 45.717 37.3711 45.7799 37.4717C45.3145 37.6478 45.1384 37.9874 45.0881 38.478C45.0629 38.6918 45.2138 38.9811 45.4151 39.1321C44.9748 39.4591 45.2013 40.4528 45.8176 40.3648C45.805 40.478 45.8302 40.6164 45.8931 40.7547C46.0189 41.0314 45.8805 41.9623 46.3962 41.8868V41.8994C46.4843 42.1509 46.6226 42.3774 46.7359 42.6038C46.9874 43.0943 47.2893 43.4591 47.6415 43.8365V43.8491C47.6541 44.1761 47.6289 44.4906 47.5912 44.8176H47.5786C46.9371 45.0063 46.3208 45.2704 45.6792 45.4591C45.1006 45.6226 44.5472 45.6478 44.283 46.239C44.1069 46.6289 43.8931 47.0189 43.6792 47.3962C42.283 46.0126 41.4277 44.1006 41.4277 42C41.4277 37.8113 44.8365 34.4025 49.0252 34.4025C53.2138 34.4025 56.6226 37.8113 56.6226 42C56.5975 44.1132 55.7296 46.0252 54.3333 47.4088ZM51.6793 41.0189C51.6667 40.7421 51.6541 40.4654 51.6415 40.1887C52.0063 40.1258 52.0315 40.5031 51.9182 40.7673C51.8931 40.8176 51.8805 40.8679 51.8679 40.9308C51.8554 41.044 51.8805 41.6855 51.6667 41.6981C51.7044 41.4717 51.6918 41.2453 51.6793 41.0189ZM46.3208 41.6855C46.1195 41.6478 46.1447 41.044 46.1321 40.9308C46.1321 40.8805 46.1069 40.8176 46.0818 40.7673C45.9686 40.5157 45.9937 40.1384 46.3459 40.1887C46.3333 40.4654 46.3208 40.7421 46.3082 41.0189C46.2956 41.2453 46.283 41.4591 46.3208 41.6855Z" fill="#E9E9E9"/>
<path d="M49.5155 43.3082C49.6035 43.2704 49.6916 43.2327 49.7293 43.1698C49.7671 43.1069 49.7922 43.0566 49.8048 42.9937C49.8174 42.9811 49.8174 42.9685 49.8174 42.956C49.8299 42.9434 49.8425 42.9308 49.8425 42.9056C49.8425 42.8176 49.8174 42.717 49.6916 42.6792C49.5784 42.6415 49.4777 42.6038 49.3394 42.6038C49.1884 42.6038 49.0752 42.6667 48.9872 42.7421C48.9117 42.6667 48.7985 42.6038 48.635 42.6038C48.4966 42.6038 48.396 42.6289 48.2828 42.6792C48.157 42.7295 48.1318 42.8302 48.1318 42.9056C48.1318 42.9308 48.1444 42.9434 48.157 42.956C48.157 42.9685 48.157 42.9811 48.1696 42.9937C48.1821 43.0566 48.2073 43.1195 48.245 43.1698C48.2828 43.2327 48.3708 43.2704 48.4589 43.3082C48.5972 43.3585 48.8111 43.3836 48.9746 43.3585C49.1507 43.3836 49.3771 43.3585 49.5155 43.3082Z" fill="#E9E9E9"/>
<path d="M57 68C57 66.3 58.3 65 60 65C61.7 65 63 66.3 63 68" stroke="#5AAD44" stroke-width="1.5" stroke-linecap="round" stroke-linejoin="round"/>
<path d="M57 68C57 66.3 58.3 65 60 65C61.7 65 63 66.3 63 68" stroke="#5AAD44" stroke-width="1.5" stroke-linecap="round" stroke-linejoin="round"/>
<path d="M63 68C63 69.7 61.7 71 60 71C58.3 71 57 69.7 57 68" stroke="#5AAD44" stroke-width="1.5" stroke-linecap="round" stroke-linejoin="round"/>
<path d="M67.4996 68C67.4996 67.7 67.4996 67.3 67.3996 67L69.1996 65.6C69.5996 65.3 69.6996 64.7 69.3996 64.3L67.7996 61.6C67.5996 61.2 66.9996 61 66.5996 61.2L64.9996 61.8C64.6996 61.9 64.2996 61.9 64.0996 61.7C63.8996 61.5 63.5996 61.4 63.2996 61.3C62.9996 61.1 62.7996 60.9 62.6996 60.5L62.4996 58.8C62.3996 58.3 61.9996 57.9 61.4996 57.9H58.3996C57.8996 57.9 57.4996 58.3 57.3996 58.8L57.1996 60.5C57.1996 60.8 56.8996 61.1 56.5996 61.3C56.2996 61.4 56.0996 61.6 55.7996 61.7C55.4996 61.9 55.1996 61.9 54.8996 61.8L53.2996 61.2C52.7996 61 52.2996 61.2 52.0996 61.6L50.4996 64.3C50.2996 64.7 50.3996 65.3 50.6996 65.6L52.4996 67C52.4996 67.3 52.3996 67.6 52.3996 68" stroke="#5AAD44" stroke-width="1.5" stroke-linecap="round" stroke-linejoin="round"/>
<path d="M67.4996 68C67.4996 68.3 67.4996 68.7 67.3996 69L69.1996 70.4C69.5996 70.7 69.6996 71.3 69.3996 71.7L67.7996 74.4C67.5996 74.8 66.9996 75 66.5996 74.8L64.9996 74.2C64.6996 74.1 64.2996 74.1 64.0996 74.3C63.8996 74.5 63.5996 74.6 63.2996 74.7C62.9996 74.9 62.7996 75.1 62.6996 75.5L62.4996 77.2C62.3996 77.7 61.9996 78.1 61.4996 78.1H58.3996C57.8996 78.1 57.4996 77.7 57.3996 77.2L57.1996 75.5C57.1996 75.2 56.8996 74.9 56.5996 74.7C56.2996 74.6 56.0996 74.4 55.7996 74.3C55.4996 74.1 55.1996 74.1 54.8996 74.2L53.2996 74.8C52.7996 75 52.2996 74.8 52.0996 74.4L50.4996 71.7C50.2996 71.3 50.3996 70.7 50.6996 70.4L52.4996 69C52.4996 68.7 52.3996 68.4 52.3996 68" stroke="#5AAD44" stroke-width="1.5" stroke-linecap="round" stroke-linejoin="round"/>
</svg>
