<svg viewBox="0 0 200 200" xmlns="http://www.w3.org/2000/svg">
    <path d="M77.0793 26.8668C77.6555 28.5378 79.1152 29.959 80.3252 30.0551C81.5352 30.1511 82.0538 28.8643 81.4584 27.1933C80.863 25.5224 79.4225 24.1011 78.2125 24.005C77.0025 23.909 76.4839 25.1958 77.0793 26.8668Z"
          fill="#1A2EB2"/>
    <path d="M71.4823 71.7511C73.0572 76.2646 77.0138 80.1251 80.2981 80.3556C83.5824 80.5861 84.9652 77.1289 83.3903 72.6154C81.8154 68.1019 77.8588 64.2414 74.5745 64.0109C71.2902 63.7804 69.9074 67.2376 71.4823 71.7511Z"
          fill="#C9981D"/>
    <path d="M43.3249 90.7521C46.3403 92.4999 48.7795 96.7253 48.7795 100.202C48.7795 103.678 46.3211 105.08 43.2865 103.332C40.2711 101.585 37.8319 97.3592 37.8319 93.8828C37.8319 90.4064 40.2903 89.0043 43.3249 90.7521Z"
          fill="#161922"/>
    <path d="M93.4077 153.253L128.272 133.127C128.692 132.885 129.373 132.885 129.798 133.127L155.224 147.805C155.644 148.047 155.644 148.441 155.224 148.683L120.36 168.81C119.939 169.052 119.258 169.052 118.834 168.81L93.4077 154.132C92.9871 153.89 92.9871 153.495 93.4077 153.253Z"
          fill="#040506"/>
    <path d="M83.6125 176C83.1919 176 82.7825 175.9 82.4625 175.713L54.0814 159.323C53.6422 159.07 53.3892 158.672 53.3892 158.229C53.3892 157.786 53.6422 157.392 54.0814 157.135L77.0326 143.879C77.3527 143.693 77.7583 143.592 78.1826 143.592C78.6069 143.592 79.0125 143.693 79.3326 143.879L107.714 160.269C108.153 160.522 108.406 160.92 108.406 161.363C108.406 161.806 108.153 162.2 107.714 162.457L84.7624 175.713C84.4424 175.9 84.0367 176 83.6125 176Z"
          fill="#040506"/>
    <path d="M60.181 148.319C60.181 148.319 60.5941 142.881 58.7333 138.244C56.8762 133.607 53.7277 130.336 50.3857 129.416C47.0436 128.501 43.7053 131.099 46.9283 133.938C50.1512 136.778 56.1839 140.198 57.6242 148.787L60.1847 148.319H60.181Z"
          fill="#040506"/>
    <path d="M59.4515 146.748C59.4515 146.748 59.4775 146.748 59.4887 146.748C59.5892 146.729 59.6524 146.633 59.6338 146.532C57.7358 137.027 51.6212 132.04 48.6513 130.73C48.5583 130.689 48.4503 130.73 48.4094 130.823C48.3685 130.916 48.4094 131.024 48.5024 131.065C51.409 132.345 57.4046 137.243 59.2728 146.599C59.2914 146.685 59.3659 146.748 59.4515 146.748Z"
          fill="#272C3A"/>
    <path d="M44.6283 144.336C44.7735 144.954 45.3392 145.371 45.8751 145.717C46.4073 146.06 46.9916 146.432 47.2037 147.031C47.6279 148.24 46.2956 149.577 46.772 150.767C46.9729 151.266 47.4568 151.601 47.9592 151.795C48.376 151.958 48.8151 152.04 49.2469 152.163C49.459 152.2 49.6711 152.223 49.8795 152.234C50.4973 152.26 51.156 152.357 51.6473 152.77C52.4214 153.421 52.4772 154.567 52.8419 155.512C53.2811 156.644 54.271 157.518 55.4099 157.902C56.37 158.218 57.8847 158.281 58.2197 157.894C58.4765 157.6 58.0894 156.495 58.1527 156.108C58.309 155.122 58.3723 154.117 58.3388 153.119C58.3239 152.632 58.309 152.237 58.4058 151.757C58.5063 151.255 58.603 150.753 58.6923 150.25C58.8375 149.439 59.1054 148.572 58.9082 147.742C58.6886 146.83 57.747 146.633 57.5498 145.74C57.4679 145.382 57.4605 145.018 57.386 144.66C57.159 143.607 56.2919 142.718 55.2461 142.464C53.616 142.066 51.8818 143.119 50.2591 142.68C49.8386 142.565 49.4478 142.357 49.0422 142.2C47.7545 141.694 46.1393 141.78 45.1754 142.766C44.7735 143.179 44.5018 143.771 44.632 144.333L44.6283 144.336Z"
          fill="#040506"/>
    <path d="M57.8774 155.308C57.8774 155.308 57.8849 155.308 57.8886 155.308C57.9667 155.304 58.0263 155.233 58.0226 155.155C57.3787 146.179 48.6143 143.224 46.4781 142.974C46.3999 142.967 46.3292 143.023 46.318 143.101C46.3106 143.179 46.3664 143.25 46.4446 143.261C48.5324 143.507 57.1033 146.395 57.736 155.178C57.7397 155.252 57.803 155.312 57.8774 155.312V155.308Z"
          fill="#272C3A"/>
    <path d="M48.7071 149.067C48.7369 149.067 48.7629 149.059 48.789 149.041C48.815 149.022 51.543 147.198 55.2423 148.486C55.3167 148.512 55.3986 148.471 55.4246 148.397C55.4507 148.322 55.4098 148.24 55.3353 148.214C51.4909 146.878 48.655 148.784 48.6252 148.802C48.5583 148.847 48.5434 148.936 48.588 149C48.6141 149.041 48.6587 149.063 48.7034 149.063L48.7071 149.067Z"
          fill="#272C3A"/>
    <path d="M119.593 165.896L97.572 153.179V84.1653L119.593 96.8783V165.896Z" fill="#161922"/>
    <path d="M119.593 96.8783L151.052 78.7168V147.731L119.593 165.896V96.8783Z" fill="#272C3A"/>
    <path d="M151.052 78.7168L119.593 96.8783L97.572 84.1652L129.031 66L151.052 78.7168Z" fill="#272C3A"/>
    <path d="M122.741 141.608L147.907 127.079V144.571L148.484 144.902L123.318 159.435L122.741 159.1V141.608Z"
          fill="#040506"/>
    <path d="M123.318 141.943L148.488 127.414L148.484 144.902L123.318 159.435V141.943Z" fill="#272C3A"/>
    <path d="M133.184 139.212L137.464 136.741C138.019 136.421 138.469 136.566 138.469 137.068C138.469 137.57 138.019 138.237 137.464 138.557L133.184 141.028C132.63 141.348 132.179 141.203 132.179 140.7C132.179 140.198 132.63 139.532 133.184 139.212Z"
          fill="#040506"/>
    <path d="M122.741 120.488L147.907 105.959V123.451L148.484 123.786L123.318 138.315L122.741 137.98V120.488Z"
          fill="#040506"/>
    <path d="M123.318 120.823L148.488 106.294L148.484 123.786L123.318 138.315V120.823Z" fill="#272C3A"/>
    <path d="M133.184 118.092L137.464 115.62C138.019 115.3 138.469 115.445 138.469 115.948C138.469 116.45 138.019 117.116 137.464 117.437L133.184 119.908C132.63 120.228 132.179 120.083 132.179 119.58C132.179 119.078 132.63 118.412 133.184 118.092Z"
          fill="#040506"/>
    <path d="M122.741 99.368L147.907 84.8388V102.327L122.741 116.856V99.368Z" fill="#040506"/>
    <path d="M160.49 95.0622L146.526 87.0049V102.412L160.49 110.47V95.0622Z" fill="#040506"/>
    <g opacity="0.1">
        <path d="M160.49 95.0622L146.526 87.0049V102.412L160.49 110.47V95.0622Z" fill="#040506"/>
    </g>
    <path d="M147.501 86.4392L146.526 87.0011L160.49 95.0622L161.465 94.4965L147.501 86.4392Z" fill="#272C3A"/>
    <path d="M151.435 88.14C151.435 87.9874 151.383 87.8832 151.301 87.8274C151.301 87.8274 151.29 87.8162 151.268 87.8087L150.557 87.3919C150.468 87.3398 150.345 87.351 150.211 87.4254L135.987 95.6279L135.574 93.9569C135.537 93.8303 135.462 93.741 135.369 93.6852L134.628 93.2535C134.498 93.179 134.334 93.1753 134.178 93.2684L128.127 96.7592C127.855 96.9156 127.635 97.2989 127.635 97.6115V117.79C127.635 117.939 127.684 118.047 127.769 118.103L128.532 118.546C128.622 118.59 128.737 118.579 128.867 118.505L150.959 105.751C151.231 105.594 151.45 105.211 151.45 104.898L151.443 88.1362L151.435 88.14Z"
          fill="#040506"/>
    <g opacity="0.2">
        <mask id="path-25-inside-1_8152_16965" fill="white">
            <path d="M135.354 93.6814C135.227 93.6107 135.067 93.6145 134.915 93.7001L128.864 97.1909C128.73 97.2691 128.607 97.4031 128.517 97.5594L127.781 97.1314C127.87 96.9751 127.993 96.8411 128.127 96.7629L134.178 93.2721C134.338 93.1828 134.502 93.1865 134.628 93.2609L135.358 93.6814H135.354Z"/>
        </mask>
        <path d="M135.354 93.6814C135.227 93.6107 135.067 93.6145 134.915 93.7001L128.864 97.1909C128.73 97.2691 128.607 97.4031 128.517 97.5594L127.781 97.1314C127.87 96.9751 127.993 96.8411 128.127 96.7629L134.178 93.2721C134.338 93.1828 134.502 93.1865 134.628 93.2609L135.358 93.6814H135.354Z"
              fill="#161922"/>
        <path d="M135.354 93.6814L134.866 94.5544L135.094 94.6814H135.354V93.6814ZM134.915 93.7001L134.426 92.8278L134.415 92.8339L134.915 93.7001ZM128.864 97.1909L128.364 96.3247L128.36 96.3272L128.864 97.1909ZM128.517 97.5594L128.015 98.4241L128.886 98.9299L129.386 98.0555L128.517 97.5594ZM127.781 97.1314L126.912 96.6353L126.42 97.4974L127.278 97.9961L127.781 97.1314ZM128.127 96.7629L127.627 95.8967L127.623 95.8992L128.127 96.7629ZM134.178 93.2721L133.691 92.3989L133.684 92.4023L133.678 92.4059L134.178 93.2721ZM134.628 93.2609L134.121 94.1229L134.129 94.1272L134.628 93.2609ZM135.358 93.6814V94.6814H139.094L135.857 92.8151L135.358 93.6814ZM135.842 92.8085C135.365 92.5418 134.831 92.6002 134.426 92.8279L135.404 94.5722C135.303 94.6287 135.09 94.6796 134.866 94.5544L135.842 92.8085ZM134.415 92.8339L128.364 96.3247L129.363 98.0571L135.415 94.5663L134.415 92.8339ZM128.36 96.3272C128.04 96.5134 127.804 96.7925 127.649 97.0632L129.386 98.0555C129.39 98.0486 129.394 98.0424 129.397 98.0374C129.401 98.0323 129.404 98.0293 129.405 98.0282C129.406 98.027 129.404 98.029 129.399 98.0333C129.394 98.0375 129.384 98.0453 129.367 98.0547L128.36 96.3272ZM129.02 96.6946L128.283 96.2667L127.278 97.9961L128.015 98.4241L129.02 96.6946ZM128.649 97.6275C128.653 97.6206 128.657 97.6144 128.66 97.6094C128.664 97.6043 128.667 97.6013 128.668 97.6002C128.669 97.599 128.667 97.601 128.662 97.6053C128.657 97.6095 128.647 97.6173 128.63 97.6267L127.623 95.8992C127.303 96.0855 127.067 96.3645 126.912 96.6353L128.649 97.6275ZM128.626 97.6292L134.678 94.1383L133.678 92.4059L127.627 95.8967L128.626 97.6292ZM134.665 94.1453C134.612 94.1749 134.531 94.2038 134.428 94.205C134.324 94.2063 134.217 94.1791 134.121 94.1228L135.135 92.399C134.672 92.1266 134.128 92.1545 133.691 92.3989L134.665 94.1453ZM134.129 94.1272L134.858 94.5478L135.857 92.8151L135.128 92.3946L134.129 94.1272ZM135.358 92.6814H135.354V94.6814H135.358V92.6814Z"
              fill="#161922" mask="url(#path-25-inside-1_8152_16965)"/>
    </g>
    <path opacity="0.2"
          d="M151.264 87.8087C151.179 87.7715 151.063 87.7864 150.94 87.8571L136.705 96.0707C136.433 96.2271 136.139 96.1117 136.05 95.8102L135.983 95.6316L150.207 87.4291C150.285 87.3845 150.36 87.3622 150.427 87.3622C150.475 87.3622 150.516 87.3733 150.553 87.3956L151.264 87.8125V87.8087Z"
          fill="#272C3A"/>
    <path d="M151.435 88.14L151.443 104.898C151.443 105.211 151.223 105.594 150.951 105.751L128.804 118.534C128.611 118.646 128.369 118.508 128.369 118.285V98.0432C128.369 97.8869 128.424 97.712 128.514 97.5594C128.603 97.4031 128.73 97.2691 128.86 97.191L134.911 93.6963C135.068 93.6108 135.224 93.607 135.354 93.6777L135.365 93.6852C135.458 93.741 135.533 93.8303 135.57 93.9569L135.983 95.6279L136.05 95.8065C136.139 96.108 136.433 96.2233 136.705 96.067L150.944 87.8534C151.067 87.7827 151.178 87.7715 151.264 87.805L151.283 87.8162C151.283 87.8162 151.29 87.8162 151.294 87.8199H151.298C151.379 87.8757 151.432 87.9837 151.432 88.1362L151.435 88.14Z"
          fill="#040506"/>
    <path opacity="0.3"
          d="M151.435 88.14L151.443 104.898C151.443 105.211 151.223 105.594 150.951 105.751L128.804 118.534C128.611 118.646 128.369 118.508 128.369 118.285V98.0432C128.369 97.8869 128.424 97.712 128.514 97.5594C128.603 97.4031 128.73 97.2691 128.86 97.191L134.911 93.6963C135.068 93.6108 135.224 93.607 135.354 93.6777L135.365 93.6852C135.458 93.741 135.533 93.8303 135.57 93.9569L135.983 95.6279L136.05 95.8065C136.139 96.108 136.433 96.2233 136.705 96.067L150.944 87.8534C151.067 87.7827 151.178 87.7715 151.264 87.805L151.283 87.8162C151.283 87.8162 151.29 87.8162 151.294 87.8199H151.298C151.379 87.8757 151.432 87.9837 151.432 88.1362L151.435 88.14Z"
          fill="#272C3A"/>
    <path opacity="0.5"
          d="M128.547 118.553C128.547 118.553 128.532 118.553 128.525 118.546L127.762 118.103C127.68 118.047 127.628 117.943 127.628 117.79V97.6115C127.628 97.4514 127.684 97.284 127.773 97.1277L128.51 97.5556C128.421 97.712 128.365 97.8831 128.365 98.0395V118.281C128.365 118.408 128.443 118.508 128.543 118.549L128.547 118.553Z"
          fill="#040506"/>
    <path d="M153.806 89.5207C153.806 89.3681 153.754 89.2639 153.672 89.2081C153.672 89.2081 153.661 89.1969 153.638 89.1895L152.928 88.7726C152.838 88.7243 152.715 88.7317 152.581 88.8099L138.357 97.0123L137.944 95.3413C137.907 95.2148 137.833 95.1254 137.74 95.0696L136.999 94.6379C136.869 94.5635 136.705 94.5598 136.549 94.6528L130.497 98.1437C130.226 98.3 130.006 98.6833 130.006 98.9959V119.175C130.006 119.323 130.054 119.431 130.14 119.487L130.903 119.93C130.992 119.975 131.108 119.964 131.238 119.889L153.33 107.135C153.601 106.979 153.821 106.595 153.821 106.283L153.813 89.5207H153.806Z"
          fill="#040506"/>
    <g opacity="0.1">
        <mask id="path-32-inside-2_8152_16965" fill="white">
            <path d="M137.725 95.0622C137.598 94.9915 137.438 94.9952 137.285 95.0808L131.234 98.5717C131.1 98.6498 130.977 98.7838 130.888 98.9401L130.151 98.5121C130.24 98.3558 130.363 98.2218 130.497 98.1437L136.549 94.6528C136.709 94.5635 136.872 94.5672 136.999 94.6416L137.728 95.0622H137.725Z"/>
        </mask>
        <path d="M137.725 95.0622C137.598 94.9915 137.438 94.9952 137.285 95.0808L131.234 98.5717C131.1 98.6498 130.977 98.7838 130.888 98.9401L130.151 98.5121C130.24 98.3558 130.363 98.2218 130.497 98.1437L136.549 94.6528C136.709 94.5635 136.872 94.5672 136.999 94.6416L137.728 95.0622H137.725Z"
              fill="#161922"/>
        <path d="M137.725 95.0622L137.237 95.9351L137.464 96.0622H137.725V95.0622ZM137.285 95.0808L136.796 94.2086L136.786 94.2146L137.285 95.0808ZM131.234 98.5717L130.734 97.7055L130.73 97.7079L131.234 98.5717ZM130.888 98.9401L130.386 99.8048L131.257 100.311L131.756 99.4363L130.888 98.9401ZM130.151 98.5121L129.283 98.016L128.79 98.8781L129.649 99.3769L130.151 98.5121ZM130.497 98.1437L129.998 97.2775L129.993 97.2799L130.497 98.1437ZM136.549 94.6528L136.061 93.7796L136.055 93.7831L136.049 93.7866L136.549 94.6528ZM136.999 94.6416L136.492 95.5036L136.499 95.508L136.999 94.6416ZM137.728 95.0622V96.0622H141.465L138.228 94.1959L137.728 95.0622ZM138.212 94.1892C137.735 93.9226 137.202 93.981 136.796 94.2086L137.775 95.9529C137.674 96.0094 137.461 96.0604 137.237 95.9351L138.212 94.1892ZM136.786 94.2146L130.734 97.7055L131.734 99.4379L137.785 95.947L136.786 94.2146ZM130.73 97.7079C130.411 97.8942 130.174 98.1732 130.02 98.444L131.756 99.4363C131.76 99.4293 131.764 99.4232 131.768 99.4181C131.772 99.413 131.774 99.41 131.775 99.4089C131.776 99.4078 131.775 99.4097 131.77 99.414C131.764 99.4182 131.754 99.426 131.738 99.4355L130.73 97.7079ZM131.39 98.0754L130.653 97.6474L129.649 99.3769L130.386 99.8048L131.39 98.0754ZM131.019 99.0083C131.023 99.0013 131.027 98.9952 131.031 98.9901C131.035 98.985 131.037 98.982 131.038 98.9809C131.04 98.9798 131.038 98.9818 131.033 98.986C131.028 98.9902 131.017 98.998 131.001 99.0075L129.993 97.2799C129.674 97.4662 129.438 97.7452 129.283 98.016L131.019 99.0083ZM130.997 99.0099L137.048 95.519L136.049 93.7866L129.998 97.2775L130.997 99.0099ZM137.036 95.526C136.983 95.5557 136.902 95.5845 136.798 95.5857C136.695 95.587 136.588 95.5598 136.492 95.5036L137.506 93.7797C137.043 93.5074 136.499 93.5352 136.061 93.7796L137.036 95.526ZM136.499 95.508L137.229 95.9285L138.228 94.1959L137.498 93.7753L136.499 95.508ZM137.728 94.0622H137.725V96.0622H137.728V94.0622Z"
              fill="#161922" mask="url(#path-32-inside-2_8152_16965)"/>
    </g>
    <path opacity="0.1"
          d="M153.634 89.1895C153.549 89.1522 153.434 89.1671 153.311 89.2378L139.076 97.4515C138.804 97.6078 138.51 97.4924 138.421 97.1909L138.354 97.0123L152.578 88.8099C152.656 88.7652 152.73 88.7429 152.797 88.7429C152.846 88.7429 152.886 88.754 152.924 88.7764L153.634 89.1932V89.1895Z"
          fill="#272C3A"/>
    <path d="M153.806 89.5244L153.813 106.283C153.813 106.595 153.594 106.979 153.322 107.135L131.175 119.923C130.981 120.034 130.739 119.893 130.739 119.673V99.4314C130.739 99.275 130.795 99.1001 130.884 98.9475C130.974 98.7912 131.1 98.6573 131.231 98.5791L137.282 95.0845C137.438 94.9989 137.594 94.9952 137.725 95.0659L137.736 95.0733C137.829 95.1292 137.903 95.2185 137.941 95.345L138.354 97.016L138.421 97.1947C138.51 97.4961 138.804 97.6115 139.076 97.4552L153.315 89.2416C153.437 89.1708 153.549 89.1597 153.635 89.1932L153.653 89.2043C153.653 89.2043 153.661 89.2043 153.664 89.2081H153.668C153.75 89.2639 153.802 89.3718 153.802 89.5244H153.806Z"
          fill="#040506"/>
    <path opacity="0.2"
          d="M153.806 89.5244L153.813 106.283C153.813 106.595 153.594 106.979 153.322 107.135L131.175 119.923C130.981 120.034 130.739 119.893 130.739 119.673V99.4314C130.739 99.275 130.795 99.1001 130.884 98.9475C130.974 98.7912 131.1 98.6573 131.231 98.5791L137.282 95.0845C137.438 94.9989 137.594 94.9952 137.725 95.0659L137.736 95.0733C137.829 95.1292 137.903 95.2185 137.941 95.345L138.354 97.016L138.421 97.1947C138.51 97.4961 138.804 97.6115 139.076 97.4552L153.315 89.2416C153.437 89.1708 153.549 89.1597 153.635 89.1932L153.653 89.2043C153.653 89.2043 153.661 89.2043 153.664 89.2081H153.668C153.75 89.2639 153.802 89.3718 153.802 89.5244H153.806Z"
          fill="#272C3A"/>
    <path opacity="0.4"
          d="M130.918 119.938C130.918 119.938 130.903 119.937 130.895 119.93L130.133 119.487C130.051 119.431 129.999 119.327 129.999 119.175V98.9959C129.999 98.8359 130.054 98.6684 130.144 98.5121L130.881 98.9401C130.791 99.0964 130.735 99.2676 130.735 99.4239V119.666C130.735 119.792 130.814 119.893 130.914 119.934L130.918 119.938Z"
          fill="#040506"/>
    <path d="M156.176 90.9051C156.176 90.7525 156.124 90.6483 156.043 90.5925C156.043 90.5925 156.031 90.5813 156.009 90.5739L155.298 90.1571C155.209 90.105 155.086 90.1161 154.952 90.1906L140.728 98.393L140.315 96.722C140.278 96.5955 140.203 96.5061 140.11 96.4503L139.37 96.0186C139.239 95.9442 139.076 95.9405 138.919 96.0335L132.868 99.5244C132.596 99.6807 132.377 100.064 132.377 100.377V120.555C132.377 120.704 132.425 120.812 132.511 120.868L133.274 121.311C133.363 121.355 133.478 121.344 133.609 121.27L155.7 108.516C155.972 108.36 156.191 107.976 156.191 107.664L156.184 90.9014L156.176 90.9051Z"
          fill="#040506"/>
    <mask id="path-39-inside-3_8152_16965" fill="white">
        <path d="M140.095 96.4429C139.969 96.3722 139.809 96.3759 139.656 96.4615L133.605 99.9524C133.471 100.031 133.348 100.165 133.259 100.321L132.522 99.8928C132.611 99.7365 132.734 99.6025 132.868 99.5244L138.919 96.0335C139.079 95.9442 139.243 95.9479 139.37 96.0223L140.099 96.4429H140.095Z"/>
    </mask>
    <path d="M140.095 96.4429C139.969 96.3722 139.809 96.3759 139.656 96.4615L133.605 99.9524C133.471 100.031 133.348 100.165 133.259 100.321L132.522 99.8928C132.611 99.7365 132.734 99.6025 132.868 99.5244L138.919 96.0335C139.079 95.9442 139.243 95.9479 139.37 96.0223L140.099 96.4429H140.095Z"
          fill="#040506"/>
    <path d="M140.095 96.4429L139.608 97.3158L139.835 97.4429H140.095V96.4429ZM139.656 96.4615L139.167 95.5893L139.157 95.5953L139.656 96.4615ZM133.605 99.9524L133.105 99.0862L133.101 99.0886L133.605 99.9524ZM133.259 100.321L132.757 101.186L133.627 101.691L134.127 100.817L133.259 100.321ZM132.522 99.8928L131.654 99.3967L131.161 100.259L132.02 100.758L132.522 99.8928ZM132.868 99.5244L132.368 98.6582L132.364 98.6606L132.868 99.5244ZM138.919 96.0335L138.432 95.1603L138.426 95.1638L138.42 95.1673L138.919 96.0335ZM139.37 96.0223L138.863 96.8843L138.87 96.8887L139.37 96.0223ZM140.099 96.4429V97.4429H143.836L140.599 95.5766L140.099 96.4429ZM140.583 95.5699C140.106 95.3033 139.573 95.3617 139.167 95.5894L140.146 97.3336C140.045 97.3901 139.832 97.4411 139.608 97.3158L140.583 95.5699ZM139.157 95.5953L133.105 99.0862L134.105 100.819L140.156 97.3277L139.157 95.5953ZM133.101 99.0886C132.782 99.2749 132.545 99.5539 132.391 99.8247L134.127 100.817C134.131 100.81 134.135 100.804 134.139 100.799C134.143 100.794 134.145 100.791 134.146 100.79C134.147 100.788 134.146 100.79 134.14 100.795C134.135 100.799 134.125 100.807 134.109 100.816L133.101 99.0886ZM133.761 99.4561L133.024 99.0281L132.02 100.758L132.757 101.186L133.761 99.4561ZM133.39 100.389C133.394 100.382 133.398 100.376 133.402 100.371C133.406 100.366 133.408 100.363 133.409 100.362C133.41 100.36 133.409 100.362 133.404 100.367C133.398 100.371 133.388 100.379 133.372 100.388L132.364 98.6606C132.045 98.8469 131.808 99.1259 131.654 99.3967L133.39 100.389ZM133.368 100.391L139.419 96.8997L138.42 95.1673L132.368 98.6582L133.368 100.391ZM139.407 96.9067C139.354 96.9364 139.272 96.9652 139.169 96.9665C139.066 96.9677 138.958 96.9406 138.863 96.8843L139.877 95.1604C139.414 94.8881 138.87 94.9159 138.432 95.1603L139.407 96.9067ZM138.87 96.8887L139.6 97.3092L140.599 95.5766L139.869 95.156L138.87 96.8887ZM140.099 95.4429H140.095V97.4429H140.099V95.4429Z"
          fill="#161922" mask="url(#path-39-inside-3_8152_16965)"/>
    <path d="M156.005 90.5739C155.92 90.5367 155.804 90.5516 155.682 90.6223L141.446 98.8359C141.175 98.9922 140.881 98.8768 140.791 98.5754L140.724 98.3967L154.948 90.1943C155.027 90.1496 155.101 90.1273 155.168 90.1273C155.216 90.1273 155.257 90.1385 155.295 90.1608L156.005 90.5776V90.5739Z"
          fill="#040506"/>
    <path d="M156.176 90.9051L156.184 107.664C156.184 107.976 155.964 108.36 155.693 108.516L133.545 121.303C133.352 121.415 133.11 121.277 133.11 121.054V100.812C133.11 100.656 133.166 100.481 133.255 100.328C133.344 100.172 133.471 100.038 133.601 99.9598L139.652 96.4652C139.809 96.3796 139.965 96.3759 140.095 96.4466L140.107 96.454C140.2 96.5099 140.274 96.5992 140.311 96.7257L140.724 98.3967L140.791 98.5754C140.881 98.8768 141.175 98.9922 141.446 98.8359L155.685 90.6223C155.808 90.5515 155.92 90.5404 156.005 90.5739L156.024 90.585C156.024 90.585 156.031 90.585 156.035 90.5888H156.039C156.121 90.6446 156.173 90.7525 156.173 90.9051H156.176Z"
          fill="#040506"/>
    <path opacity="0.1"
          d="M156.176 90.9051L156.184 107.664C156.184 107.976 155.964 108.36 155.693 108.516L133.545 121.303C133.352 121.415 133.11 121.277 133.11 121.054V100.812C133.11 100.656 133.166 100.481 133.255 100.328C133.344 100.172 133.471 100.038 133.601 99.9598L139.652 96.4652C139.809 96.3796 139.965 96.3759 140.095 96.4466L140.107 96.454C140.2 96.5099 140.274 96.5992 140.311 96.7257L140.724 98.3967L140.791 98.5754C140.881 98.8768 141.175 98.9922 141.446 98.8359L155.685 90.6223C155.808 90.5515 155.92 90.5404 156.005 90.5739L156.024 90.585C156.024 90.585 156.031 90.585 156.035 90.5888H156.039C156.121 90.6446 156.173 90.7525 156.173 90.9051H156.176Z"
          fill="#272C3A"/>
    <path opacity="0.3"
          d="M133.289 121.318C133.289 121.318 133.274 121.318 133.266 121.311L132.503 120.868C132.421 120.812 132.369 120.708 132.369 120.555V100.377C132.369 100.22 132.425 100.049 132.515 99.8928L133.251 100.321C133.162 100.477 133.106 100.648 133.106 100.805V121.047C133.106 121.173 133.184 121.274 133.285 121.314L133.289 121.318Z"
          fill="#040506"/>
    <path d="M158.547 92.2858C158.547 92.1332 158.495 92.029 158.413 91.9732C158.413 91.9732 158.402 91.962 158.38 91.9546L157.669 91.5378C157.579 91.4857 157.457 91.4968 157.323 91.5713L143.099 99.7737L142.686 98.1027C142.648 97.9762 142.574 97.8869 142.481 97.831L141.74 97.3993C141.61 97.3249 141.446 97.3212 141.29 97.4142L135.239 100.905C134.967 101.061 134.747 101.445 134.747 101.757V121.936C134.747 122.085 134.796 122.193 134.881 122.249L135.644 122.691C135.734 122.736 135.849 122.725 135.979 122.651L158.071 109.897C158.342 109.74 158.562 109.357 158.562 109.044L158.555 92.2821L158.547 92.2858Z"
          fill="#040506"/>
    <g opacity="0.5">
        <mask id="path-46-inside-4_8152_16965" fill="white">
            <path d="M142.466 97.8236C142.339 97.7529 142.179 97.7566 142.027 97.8422L135.975 101.333C135.841 101.411 135.719 101.545 135.629 101.701L134.892 101.274C134.982 101.117 135.104 100.983 135.238 100.905L141.29 97.4142C141.45 97.3249 141.614 97.3286 141.74 97.403L142.47 97.8236H142.466Z"/>
        </mask>
        <path d="M142.466 97.8236C142.339 97.7529 142.179 97.7566 142.027 97.8422L135.975 101.333C135.841 101.411 135.719 101.545 135.629 101.701L134.892 101.274C134.982 101.117 135.104 100.983 135.238 100.905L141.29 97.4142C141.45 97.3249 141.614 97.3286 141.74 97.403L142.47 97.8236H142.466Z"
              fill="#272C3A"/>
        <path d="M142.466 97.8236L141.978 98.6965L142.205 98.8236H142.466V97.8236ZM142.027 97.8422L141.537 96.97L141.527 96.976L142.027 97.8422ZM135.975 101.333L135.476 100.467L135.471 100.469L135.975 101.333ZM135.629 101.701L135.127 102.566L135.998 103.072L136.497 102.198L135.629 101.701ZM134.892 101.274L134.024 100.777L133.531 101.64L134.39 102.138L134.892 101.274ZM135.238 100.905L134.739 100.039L134.735 100.041L135.238 100.905ZM141.29 97.4142L140.802 96.541L140.796 96.5444L140.79 96.548L141.29 97.4142ZM141.74 97.403L141.233 98.265L141.241 98.2694L141.74 97.403ZM142.47 97.8236V98.8236H146.206L142.969 96.9572L142.47 97.8236ZM142.954 96.9506C142.476 96.684 141.943 96.7424 141.537 96.97L142.516 98.7143C142.415 98.7708 142.202 98.8218 141.978 98.6965L142.954 96.9506ZM141.527 96.976L135.476 100.467L136.475 102.199L142.526 98.7084L141.527 96.976ZM135.471 100.469C135.152 100.656 134.916 100.935 134.761 101.205L136.497 102.198C136.501 102.191 136.505 102.185 136.509 102.179C136.513 102.174 136.516 102.171 136.517 102.17C136.518 102.169 136.516 102.171 136.511 102.175C136.506 102.18 136.495 102.187 136.479 102.197L135.471 100.469ZM136.131 100.837L135.395 100.409L134.39 102.138L135.127 102.566L136.131 100.837ZM135.761 101.77C135.765 101.763 135.769 101.757 135.772 101.751C135.776 101.746 135.779 101.743 135.78 101.742C135.781 101.741 135.779 101.743 135.774 101.747C135.769 101.752 135.758 101.759 135.742 101.769L134.735 100.041C134.415 100.228 134.179 100.507 134.024 100.777L135.761 101.77ZM135.738 101.771L141.789 98.2804L140.79 96.548L134.739 100.039L135.738 101.771ZM141.777 98.2874C141.724 98.3171 141.643 98.3459 141.54 98.3471C141.436 98.3484 141.329 98.3212 141.233 98.265L142.247 96.5411C141.784 96.2688 141.24 96.2966 140.802 96.541L141.777 98.2874ZM141.241 98.2694L141.97 98.6899L142.969 96.9572L142.24 96.5367L141.241 98.2694ZM142.47 96.8236H142.466V98.8236H142.47V96.8236Z"
              fill="#161922" mask="url(#path-46-inside-4_8152_16965)"/>
    </g>
    <path opacity="0.5"
          d="M158.376 91.9546C158.29 91.9174 158.175 91.9323 158.052 92.003L143.817 100.217C143.545 100.373 143.251 100.258 143.162 99.9561L143.095 99.7774L157.319 91.575C157.397 91.5303 157.472 91.508 157.539 91.508C157.587 91.508 157.628 91.5192 157.665 91.5415L158.376 91.9583V91.9546Z"
          fill="#272C3A"/>
    <path d="M158.547 92.2858L158.555 109.044C158.555 109.361 158.335 109.74 158.063 109.897L135.916 122.684C135.722 122.796 135.48 122.658 135.48 122.435V102.193C135.48 102.036 135.536 101.862 135.626 101.709C135.715 101.553 135.841 101.419 135.972 101.341L142.023 97.8459C142.179 97.7603 142.336 97.7566 142.466 97.8273L142.477 97.8347C142.57 97.8906 142.645 97.9799 142.682 98.1064L143.095 99.7774L143.162 99.9561C143.251 100.258 143.545 100.373 143.817 100.217L158.056 92.003C158.179 91.9323 158.294 91.9211 158.376 91.9546L158.395 91.9657C158.395 91.9657 158.402 91.9658 158.406 91.9695H158.409C158.491 92.0253 158.543 92.1332 158.543 92.2858H158.547Z"
          fill="#161922"/>
    <path opacity="0.2"
          d="M135.659 122.699C135.659 122.699 135.644 122.699 135.637 122.691L134.874 122.249C134.792 122.193 134.74 122.089 134.74 121.936V101.757C134.74 101.601 134.796 101.43 134.885 101.274L135.622 101.702C135.533 101.858 135.477 102.029 135.477 102.185V122.427C135.477 122.554 135.555 122.654 135.656 122.695L135.659 122.699Z"
          fill="#040506"/>
    <path d="M137.282 108.46L123.318 100.403V115.814L137.282 123.871V108.46Z" fill="#161922"/>
    <path d="M124.293 99.837L123.318 100.403L137.282 108.46L138.257 107.898L124.293 99.837Z" fill="#040506"/>
    <path d="M136.999 107.6L162.168 93.0711L162.165 110.559L136.999 125.092V107.6Z" fill="#272C3A"/>
    <path d="M146.865 104.869L151.145 102.397C151.699 102.077 152.15 102.223 152.15 102.725C152.15 103.227 151.699 103.894 151.145 104.214L146.865 106.685C146.31 107.005 145.86 106.86 145.86 106.357C145.86 105.855 146.31 105.189 146.865 104.869Z"
          fill="#040506"/>
    <path d="M136.999 107.6L136.162 107.116V124.604L136.999 125.092V107.6Z" fill="#040506"/>
    <path d="M136.162 107.116L161.327 92.5872L162.168 93.0711L136.999 107.6L136.162 107.116Z" fill="#161922"/>
    <path d="M83.616 173.097V157.064L104.438 145.044V161.073L83.616 173.097Z" fill="#272C3A"/>
    <path d="M83.616 157.064L57.5833 142.036V158.066L83.616 173.097V157.064Z" fill="#161922"/>
    <path d="M83.6161 157.064L105.056 144.679L78.4096 129.29L56.9656 141.675L83.6161 157.064Z" fill="#040506"/>
    <path d="M83.616 157.064V161.073L105.056 148.694V144.679L83.616 157.064Z" fill="#272C3A"/>
    <path opacity="0.2" d="M83.616 161.073L104.438 149.048V149.93L83.616 161.955V161.073Z" fill="#040506"/>
    <path d="M56.9656 141.675L83.6161 157.064V161.073L56.9656 145.687V141.675Z" fill="#161922"/>
    <path opacity="0.2" d="M83.616 161.073L57.5833 146.045V146.923L83.616 161.955V161.073Z" fill="#040506"/>
    <path d="M90.4713 159.502L97.5833 155.393C97.8885 155.215 98.1378 155.36 98.1378 155.713V159.919C98.1378 160.272 97.8885 160.704 97.5833 160.879L90.4713 164.988C90.1661 165.166 89.9167 165.021 89.9167 164.668V160.462C89.9167 160.109 90.1661 159.677 90.4713 159.502Z"
          fill="#040506"/>
    <path d="M90.9253 159.978L97.1293 156.398C97.334 156.279 97.4977 156.376 97.4977 156.61V159.763C97.4977 159.997 97.3302 160.287 97.1293 160.403L90.9253 163.983C90.7206 164.102 90.5569 164.005 90.5569 163.771V160.619C90.5569 160.384 90.7244 160.098 90.9253 159.978Z"
          fill="#2F3546"/>
    <g opacity="0.5">
        <path d="M91.1003 160.812C91.0705 160.812 91.0407 160.797 91.0221 160.767C90.996 160.723 91.0109 160.671 91.0556 160.645L96.9134 157.265C96.9544 157.239 97.0102 157.254 97.0362 157.299C97.0623 157.344 97.0474 157.396 97.0027 157.422L91.1449 160.801C91.1449 160.801 91.1151 160.812 91.1003 160.812Z"
              fill="#040506"/>
        <path d="M91.1003 161.586C91.0705 161.586 91.0407 161.571 91.0221 161.542C90.996 161.497 91.0109 161.445 91.0556 161.419L96.9134 158.039C96.9544 158.013 97.0102 158.028 97.0362 158.073C97.0623 158.118 97.0474 158.17 97.0027 158.196L91.1449 161.575C91.1449 161.575 91.1151 161.586 91.1003 161.586Z"
              fill="#040506"/>
        <path d="M91.1003 162.36C91.0705 162.36 91.0407 162.345 91.0221 162.316C90.996 162.271 91.0109 162.219 91.0556 162.193L96.9134 158.814C96.9544 158.788 97.0102 158.802 97.0362 158.847C97.0623 158.892 97.0474 158.944 97.0027 158.97L91.1449 162.349C91.1449 162.349 91.1151 162.36 91.1003 162.36Z"
              fill="#040506"/>
        <path d="M91.1003 163.134C91.0705 163.134 91.0407 163.119 91.0221 163.09C90.996 163.045 91.0109 162.993 91.0556 162.967L96.9134 159.588C96.9544 159.562 97.0102 159.576 97.0362 159.621C97.0623 159.666 97.0474 159.718 97.0027 159.744L91.1449 163.123C91.1449 163.123 91.1151 163.134 91.1003 163.134Z"
              fill="#040506"/>
    </g>
    <path opacity="0.1"
          d="M103.318 143.674L83.6161 155.051L58.7073 140.663L58.0969 141.024L83.6161 155.706L103.929 144.028L103.318 143.674Z"
          fill="#272C3A"/>
    <path d="M83.616 155.051V139.018L104.438 126.997V143.026L83.616 155.051Z" fill="#272C3A"/>
    <path d="M83.616 139.018L57.5833 123.99V140.019L83.616 155.051V139.018Z" fill="#161922"/>
    <path d="M83.6161 139.018L105.056 126.633L78.4096 111.244L56.9656 123.629L83.6161 139.018Z" fill="#272C3A"/>
    <path d="M83.616 139.018V143.026L105.056 130.648V126.633L83.616 139.018Z" fill="#272C3A"/>
    <path opacity="0.2" d="M83.616 143.026L104.438 131.002V131.884L83.616 143.908V143.026Z" fill="#040506"/>
    <path d="M56.9656 123.629L83.6161 139.018V143.026L56.9656 127.641V123.629Z" fill="#161922"/>
    <path opacity="0.2" d="M83.616 143.026L57.5833 127.999V128.877L83.616 143.908V143.026Z" fill="#040506"/>
    <path d="M90.4713 141.456L97.5833 137.347C97.8885 137.169 98.1378 137.314 98.1378 137.667V141.873C98.1378 142.226 97.8885 142.658 97.5833 142.833L90.4713 146.942C90.1661 147.12 89.9167 146.975 89.9167 146.622V142.416C89.9167 142.063 90.1661 141.631 90.4713 141.456Z"
          fill="#040506"/>
    <path d="M90.9253 141.932L97.1293 138.352C97.334 138.233 97.4977 138.33 97.4977 138.564V141.716C97.4977 141.951 97.3302 142.241 97.1293 142.357L90.9253 145.937C90.7206 146.056 90.5569 145.959 90.5569 145.725V142.572C90.5569 142.338 90.7244 142.051 90.9253 141.932Z"
          fill="#2F3546"/>
    <g opacity="0.5">
        <path d="M91.1003 142.766C91.0705 142.766 91.0407 142.751 91.0221 142.721C90.996 142.677 91.0109 142.624 91.0556 142.598L96.9134 139.219C96.9544 139.193 97.0102 139.208 97.0362 139.253C97.0623 139.297 97.0474 139.349 97.0027 139.376L91.1449 142.755C91.1449 142.755 91.1151 142.766 91.1003 142.766Z"
              fill="#040506"/>
        <path d="M91.1003 143.54C91.0705 143.54 91.0407 143.525 91.0221 143.495C90.996 143.451 91.0109 143.399 91.0556 143.373L96.9134 139.993C96.9544 139.967 97.0102 139.982 97.0362 140.027C97.0623 140.071 97.0474 140.124 97.0027 140.15L91.1449 143.529C91.1449 143.529 91.1151 143.54 91.1003 143.54Z"
              fill="#040506"/>
        <path d="M91.1003 144.314C91.0705 144.314 91.0407 144.299 91.0221 144.269C90.996 144.225 91.0109 144.173 91.0556 144.147L96.9134 140.767C96.9544 140.741 97.0102 140.756 97.0362 140.801C97.0623 140.846 97.0474 140.898 97.0027 140.924L91.1449 144.303C91.1449 144.303 91.1151 144.314 91.1003 144.314Z"
              fill="#040506"/>
        <path d="M91.1003 145.088C91.0705 145.088 91.0407 145.073 91.0221 145.044C90.996 144.999 91.0109 144.947 91.0556 144.921L96.9134 141.542C96.9544 141.515 97.0102 141.53 97.0362 141.575C97.0623 141.62 97.0474 141.672 97.0027 141.698L91.1449 145.077C91.1449 145.077 91.1151 145.088 91.1003 145.088Z"
              fill="#040506"/>
    </g>
</svg>
