<svg width="24" height="24" viewBox="0 0 24 24" fill="none" xmlns="http://www.w3.org/2000/svg">
    <path fill-rule="evenodd" clip-rule="evenodd" d="M17.6943 12L20 13.6873V10.3127L17.6943 12ZM15.3846 8.5C15.3846 8.43417 15.378 8.37173 15.3661 8.31254C15.2792 7.88373 14.8665 7.5 14.3077 7.5H5.07692C4.43412 7.5 4 7.99515 4 8.5V15.5C4 16.0049 4.43412 16.5 5.07692 16.5L14.3077 16.5C14.8665 16.5 15.2792 16.1163 15.3661 15.6875C15.378 15.6283 15.3846 15.5658 15.3846 15.5V8.5ZM17.3846 14.2517V15.5C17.3846 15.7 17.3645 15.8954 17.3263 16.0845C17.2917 16.2552 17.2422 16.4207 17.1793 16.5797C16.7347 17.7031 15.6166 18.5 14.3077 18.5L5.07692 18.5C3.37759 18.5 2 17.1569 2 15.5V8.5C2 6.84315 3.37759 5.5 5.07692 5.5H14.3077C15.6166 5.5 16.7347 6.29691 17.1793 7.42026C17.2422 7.57926 17.2917 7.74479 17.3263 7.91554C17.3645 8.10458 17.3846 8.3 17.3846 8.5V9.74833L20.3587 7.57194C21.0348 7.07718 22 7.54751 22 8.37172V15.6283C22 16.4525 21.0348 16.9228 20.3587 16.4281L17.3846 14.2517Z" fill="#5D931F" style="fill:#5D931F;fill:color(display-p3 0.3652 0.5775 0.1225);fill-opacity:1;"/>
</svg>
