<svg viewBox="0 0 24 24" fill="none" xmlns="http://www.w3.org/2000/svg">
<path d="M13.293 8.29283C13.6834 7.90242 14.3165 7.90249 14.707 8.29283C15.0975 8.68334 15.0975 9.31637 14.707 9.7069L13.4141 10.9989L14.708 12.2928C15.0982 12.6833 15.0983 13.3164 14.708 13.7069C14.3176 14.0973 13.6845 14.0972 13.2939 13.7069L12 12.413L10.707 13.7069C10.3165 14.0972 9.68341 14.0973 9.29297 13.7069C8.9027 13.3164 8.90276 12.6833 9.29297 12.2928L10.5859 10.9989L9.29395 9.7069C8.90348 9.31637 8.90344 8.68334 9.29395 8.29283C9.68446 7.90249 10.3175 7.90242 10.708 8.29283L12 9.58483L13.293 8.29283Z" style="fill:#E54F4C;fill:color(display-p3 0.8980 0.3098 0.2980);fill-opacity:1;"/>
<path fill-rule="evenodd" clip-rule="evenodd" d="M9.98242 2.33776C11.3261 1.88709 12.6739 1.88709 14.0176 2.33776C14.0401 2.34529 14.0621 2.35403 14.084 2.36315L19.4629 4.60338C20.4159 4.96934 21 5.81936 21 6.7733V10.828C21 15.8919 17.3002 20.7466 12.2354 21.9715C12.0809 22.0089 11.9191 22.0089 11.7646 21.9715C6.69984 20.7466 3 15.8919 3 10.828V6.7733C3 5.81936 3.58411 4.96934 4.53711 4.60338L9.91602 2.36315C9.9379 2.35403 9.95995 2.34529 9.98242 2.33776ZM13.3496 4.2235C12.4408 3.9255 11.5592 3.9255 10.6504 4.2235L5.30469 6.45104C5.28834 6.45785 5.27136 6.46426 5.25488 6.47057C5.13869 6.51505 5.07948 6.57345 5.04883 6.61705C5.01739 6.66179 5 6.71366 5 6.7733V10.828C5 14.9061 7.96764 18.8709 12 19.9676C16.0324 18.8709 19 14.9061 19 10.828V6.7733C19 6.71366 18.9826 6.66179 18.9512 6.61705C18.9205 6.57345 18.8613 6.51505 18.7451 6.47057C18.7287 6.46428 18.7117 6.45786 18.6953 6.45104L13.3496 4.2235Z" style="fill:#E54F4C;fill:color(display-p3 0.8980 0.3098 0.2980);fill-opacity:1;"/>
</svg>
