<svg viewBox="0 0 56 56" fill="none" xmlns="http://www.w3.org/2000/svg">
<path fill-rule="evenodd" clip-rule="evenodd" d="M28 51.3333C40.8867 51.3333 51.3334 40.8866 51.3334 28C51.3334 15.1134 40.8867 4.66666 28 4.66666C15.1134 4.66666 4.66669 15.1134 4.66669 28C4.66669 40.8866 15.1134 51.3333 28 51.3333ZM27.1363 12.4444C26.0946 12.4444 25.2501 13.2594 25.2501 14.2648V28.3309H24.5642V16.2506C24.5642 15.2452 23.7197 14.4302 22.678 14.4302C21.6362 14.4302 20.7917 15.2452 20.7917 16.2506V28.3309H20.1058V20.8841C20.1058 19.8788 19.2613 19.0638 18.2196 19.0638C17.1778 19.0638 16.3334 19.8788 16.3334 20.8841V36.9361C16.3334 40.5919 19.4042 43.5555 23.1924 43.5555H26.6219C28.5183 43.5555 30.2349 42.8129 31.4765 41.6124C31.5322 41.5677 31.5864 41.5201 31.6387 41.4696L40.9221 32.5105C41.8408 31.624 41.8408 30.1866 40.9221 29.3C40.0035 28.4135 38.5141 28.4135 37.5954 29.3L33.4809 33.2708V17.2435C33.4809 16.2381 32.6364 15.4231 31.5947 15.4231C30.553 15.4231 29.7085 16.2381 29.7085 17.2435V28.3309H29.0226V14.2648C29.0226 13.2594 28.1781 12.4444 27.1363 12.4444Z" fill="#E63E1A"/>
</svg>
