<svg viewBox="0 0 24 24" xmlns="http://www.w3.org/2000/svg">
<path fill-rule="evenodd" clip-rule="evenodd" d="M4.12302 3.10133C5.60827 1.63289 7.91438 1.63289 9.39964 3.10133L10.6027 4.29076C11.2259 4.9069 11.5869 5.73865 11.5575 6.63726C11.5284 7.52905 11.1223 8.33214 10.5024 8.94495L10.1724 9.27129C10.5972 10.1021 11.2447 10.9718 12.1065 11.8238C12.8562 12.5651 13.7961 13.2183 14.7373 13.7196L15.151 13.3106C16.4357 12.0404 18.4411 12.0404 19.7258 13.3106L20.9289 14.5001C20.9565 14.5273 20.9832 14.5555 21.0089 14.5846C21.6712 15.333 21.9552 16.2553 21.9954 17.0906C22.0353 17.9188 21.8437 18.8023 21.3775 19.5396C21.3067 19.6516 21.2235 19.7551 21.1294 19.8481L20.4276 20.5419C19.2103 21.7455 17.6267 22.2099 15.9741 21.9128L15.9567 21.9097C12.9525 21.3385 9.7479 19.5567 7.14329 16.9861C4.41754 14.3941 2.73098 11.2318 2.14584 8.298C1.69091 6.54212 2.35115 4.85314 3.42124 3.79517L4.12302 3.10133ZM7.9935 4.52357C7.28741 3.82548 6.23525 3.82548 5.52916 4.52357L4.82738 5.21741C4.18471 5.85279 3.82621 6.83916 4.08694 7.81548C4.09266 7.83692 4.09767 7.85854 4.10196 7.88032C4.59644 10.3918 6.06806 13.2061 8.52787 15.5428L8.54193 15.5565C10.9164 17.9022 13.7769 19.4581 16.3254 19.9439L16.3279 19.9444C17.3568 20.1293 18.279 19.8537 19.0215 19.1197L19.7019 18.447C19.9107 18.104 20.02 17.6492 19.9978 17.1868C19.9752 16.7174 19.818 16.2601 19.5166 15.9162L18.3197 14.7329C17.8141 14.233 17.0627 14.233 16.5571 14.7329L15.6549 15.6249C15.5539 15.7248 15.4416 15.7973 15.3302 15.8463C15.0674 15.9619 14.7675 15.959 14.5069 15.8383C13.2047 15.2347 11.8074 14.3406 10.7004 13.2461C9.48869 12.0481 8.56777 10.7419 8.04775 9.4224C7.96653 9.2163 7.95604 8.98907 8.01793 8.77636C8.06828 8.60332 8.16411 8.44433 8.29426 8.31566L9.0963 7.52271C9.40888 7.21366 9.54863 6.8778 9.5586 6.57204C9.56854 6.26744 9.45095 5.96452 9.19655 5.713L7.9935 4.52357Z"/>
</svg>
