<svg viewBox="0 0 40 40" xmlns="http://www.w3.org/2000/svg">
<path d="M13.3333 16.6667C13.3333 15.7462 14.0795 15 15 15H25C25.9205 15 26.6667 15.7462 26.6667 16.6667C26.6667 17.5871 25.9205 18.3333 25 18.3333H15C14.0795 18.3333 13.3333 17.5871 13.3333 16.6667Z"/>
<path d="M15 20C14.0795 20 13.3333 20.7462 13.3333 21.6667C13.3333 22.5871 14.0795 23.3333 15 23.3333H25C25.9205 23.3333 26.6667 22.5871 26.6667 21.6667C26.6667 20.7462 25.9205 20 25 20H15Z"/>
<path d="M13.3333 26.6667C13.3333 25.7462 14.0795 25 15 25H20C20.9205 25 21.6667 25.7462 21.6667 26.6667C21.6667 27.5871 20.9205 28.3333 20 28.3333H15C14.0795 28.3333 13.3333 27.5871 13.3333 26.6667Z"/>
<path fill-rule="evenodd" clip-rule="evenodd" d="M28.1311 4.79779L31.8689 8.53553C32.8065 9.47321 33.3333 10.745 33.3333 12.0711V31.6667C33.3333 34.4281 31.0947 36.6667 28.3333 36.6667H11.6667C8.90523 36.6667 6.66666 34.4281 6.66666 31.6667V8.33333C6.66666 5.5719 8.90523 3.33333 11.6667 3.33333H24.5956C25.9217 3.33333 27.1934 3.86011 28.1311 4.79779ZM28.3333 33.3333C29.2538 33.3333 30 32.5871 30 31.6667V13.3333H26.6667C24.8257 13.3333 23.3333 11.8409 23.3333 10V6.66666H11.6667C10.7462 6.66666 9.99999 7.41285 9.99999 8.33333V31.6667C9.99999 32.5871 10.7462 33.3333 11.6667 33.3333H28.3333ZM26.6667 8.04737V10H28.6193L26.6667 8.04737Z"/>
</svg>
