<svg viewBox="0 0 24 24" xmlns="http://www.w3.org/2000/svg">
<path d="M4.58996 8.50399C5.05861 5.9419 7.30253 4 10 4C12.6975 4 14.9414 5.9419 15.41 8.50399C14.8999 8.54947 14.5 8.97803 14.5 9.5C14.5 10.0523 14.9477 10.5 15.5 10.5C16.0523 10.5 16.5 10.0523 16.5 9.5C16.5 5.91015 13.5899 3 10 3C6.41015 3 3.5 5.91015 3.5 9.5C3.5 10.0487 3.60714 10.8787 3.94924 11.5914C4.29692 12.3157 4.93735 13 6 13C6.27614 13 6.5 12.7761 6.5 12.5C6.5 12.2239 6.27614 12 6 12C5.46265 12 5.10308 11.6843 4.85076 11.1586C4.75055 10.9499 4.67526 10.721 4.62065 10.4928C5.11604 10.4332 5.5 10.0115 5.5 9.5C5.5 8.97803 5.10009 8.54947 4.58996 8.50399Z"/>
<path d="M6.26123 17.3889C5.32916 17.9326 5 18.5368 5 19C5 19.5523 4.55228 20 4 20C3.44772 20 3 19.5523 3 19C3 17.5302 4.01399 16.3844 5.25349 15.6613C6.51754 14.924 8.19792 14.5 10 14.5C11.8021 14.5 13.4825 14.924 14.7465 15.6613C15.986 16.3844 17 17.5302 17 19C17 19.5523 16.5523 20 16 20C15.4477 20 15 19.5523 15 19C15 18.5368 14.6708 17.9326 13.7388 17.3889C12.8312 16.8595 11.5116 16.5 10 16.5C8.48837 16.5 7.16875 16.8595 6.26123 17.3889Z"/>
<path fill-rule="evenodd" clip-rule="evenodd" d="M14 9.5C14 11.7091 12.2091 13.5 10 13.5C7.79086 13.5 6 11.7091 6 9.5C6 7.29086 7.79086 5.5 10 5.5C12.2091 5.5 14 7.29086 14 9.5ZM12 9.5C12 10.6046 11.1046 11.5 10 11.5C8.89543 11.5 8 10.6046 8 9.5C8 8.39543 8.89543 7.5 10 7.5C11.1046 7.5 12 8.39543 12 9.5Z"/>
<path d="M21 4C21 4.55228 20.5523 5 20 5C19.4477 5 19 4.55228 19 4C19 3.44772 19.4477 3 20 3C20.5523 3 21 3.44772 21 4Z"/>
<path d="M20 6C20.5523 6 21 6.44772 21 7V10C21.5523 10 22 10.4477 22 11C22 11.5523 21.5523 12 21 12H20C19.4477 12 19 11.5523 19 11V8C18.4477 8 18 7.55228 18 7C18 6.44772 18.4477 6 19 6H20Z"/>
</svg>
