<svg viewBox="0 0 24 24" xmlns="http://www.w3.org/2000/svg">
<path fill-rule="evenodd" clip-rule="evenodd" d="M21.2421 10.997C22.1012 10.5675 22.0357 9.32041 21.1364 8.98316L13.0534 5.95202C12.3742 5.69734 11.6258 5.69734 10.9466 5.95203L2.8636 8.98316C1.96427 9.32041 1.89882 10.5675 2.7579 10.997L3.5 11.368L3.5 14C3.5 14.2761 3.72386 14.5 4 14.5C4.27614 14.5 4.5 14.2761 4.5 14V11.868L5.03249 12.1343C5.10941 13.3641 5.35369 14.7945 6.07186 16.0362C7.0859 17.7895 8.94103 19 12 19C15.059 19 16.9141 17.7895 17.9281 16.0362C18.6463 14.7945 18.8906 13.3641 18.9675 12.1343L21.2421 10.997ZM12.3511 7.82468L18.5017 10.1311L12.4472 13.1584C12.1657 13.2991 11.8343 13.2991 11.5528 13.1584L5.49832 10.1311L11.6489 7.82468C11.8753 7.73979 12.1247 7.73979 12.3511 7.82468ZM16.8305 13.2028L13.3416 14.9472C12.4971 15.3695 11.5029 15.3695 10.6584 14.9472L7.1695 13.2028C7.28882 13.8571 7.48569 14.486 7.80314 15.0349C8.4141 16.0912 9.55897 17 12 17C14.441 17 15.5859 16.0912 16.1969 15.0349C16.5143 14.486 16.7112 13.8571 16.8305 13.2028Z"/>
<path d="M5 16C5 15.4477 4.55228 15 4 15C3.44772 15 3 15.4477 3 16V17C3 17.5523 3.44772 18 4 18C4.55228 18 5 17.5523 5 17V16Z"/>
</svg>
