<svg viewBox="0 0 24 24" fill="none" xmlns="http://www.w3.org/2000/svg">
    <path d="M14.9094 5.70221C15.8452 4.76593 17.3622 4.76593 18.2979 5.70221C19.234 6.63877 19.234 8.15746 18.2979 9.09402L15.0958 12.2978C14.1601 13.2341 12.6431 13.2341 11.7073 12.2978C11.3169 11.9072 10.6837 11.907 10.2931 12.2974C9.90245 12.6878 9.90229 13.321 10.2927 13.7116C12.0096 15.4295 14.7935 15.4295 16.5104 13.7116L19.7125 10.5079C21.4292 8.79034 21.4292 6.00589 19.7125 4.28836C18.0015 2.57646 15.2309 2.57057 13.5126 4.27069L11.3268 6.26053C10.9184 6.63232 10.8887 7.26479 11.2605 7.67319C11.6323 8.08159 12.2648 8.11126 12.6732 7.73947L14.8927 5.71888L14.9094 5.70221Z" fill="#454E68"/>
    <path d="M9.09061 18.2978C8.15483 19.2341 6.63784 19.2341 5.70205 18.2978C4.76598 17.3612 4.76598 15.8425 5.70205 14.906L8.90415 11.7022C9.83993 10.7659 11.3569 10.7659 12.2927 11.7022C12.6831 12.0928 13.3163 12.093 13.7069 11.7026C14.0975 11.3122 14.0977 10.679 13.7073 10.2884C11.9904 8.57055 9.20648 8.57055 7.48957 10.2884L4.28747 13.4921C2.57084 15.2097 2.57084 17.9941 4.28747 19.7116C5.99848 21.4235 8.76913 21.4294 10.4874 19.7293L12.6732 17.7395C13.0816 17.3677 13.1113 16.7352 12.7395 16.3268C12.3677 15.9184 11.7352 15.8887 11.3268 16.2605L9.10728 18.2811L9.09061 18.2978Z" fill="#454E68"/>
</svg>
