<svg viewBox="0 0 56 56" fill="none" xmlns="http://www.w3.org/2000/svg">
<path fill-rule="evenodd" clip-rule="evenodd" d="M28 4.66666C15.0506 4.66666 4.66663 15.0507 4.66663 28C4.66663 40.9493 15.0506 51.3333 28 51.3333C40.9493 51.3333 51.3333 40.9493 51.3333 28C51.3333 15.0507 40.9493 4.66666 28 4.66666ZM25.6666 21C25.6666 19.7113 24.622 18.6667 23.3333 18.6667C22.0446 18.6667 21 19.7113 21 21V35C21 36.2887 22.0446 37.3333 23.3333 37.3333C24.622 37.3333 25.6666 36.2887 25.6666 35V21ZM32.6666 18.6667C33.9553 18.6667 35 19.7113 35 21V35C35 36.2887 33.9553 37.3333 32.6666 37.3333C31.378 37.3333 30.3333 36.2887 30.3333 35V21C30.3333 19.7113 31.378 18.6667 32.6666 18.6667Z" fill="#FFC000"/>
</svg>
