<svg viewBox="0 0 24 24" xmlns="http://www.w3.org/2000/svg">
<path d="M12 9C12.5523 9 13 9.44772 13 10V12.5C13 13.0523 12.5523 13.5 12 13.5C11.4477 13.5 11 13.0523 11 12.5V10C11 9.44772 11.4477 9 12 9Z"/>
<path fill-rule="evenodd" clip-rule="evenodd" d="M10 4C10 3.44772 10.4477 3 11 3H13C13.5523 3 14 3.44772 14 4C14 4.55228 13.5523 5 13 5V6C13 6.02774 12.9989 6.05522 12.9967 6.0824C13.4105 6.15159 13.8101 6.26315 14.1906 6.41247C14.2211 6.37064 14.2552 6.33063 14.2929 6.29289L15.2929 5.29289C15.6834 4.90237 16.3166 4.90237 16.7071 5.29289C17.0976 5.68342 17.0976 6.31658 16.7071 6.70711L15.9397 7.47453C17.2021 8.57449 18 10.1941 18 12C18 15.3137 15.3137 18 12 18C8.68629 18 6 15.3137 6 12C6 9.02583 8.16399 6.5571 11.0033 6.0824C11.0011 6.05522 11 6.02774 11 6V5C10.4477 5 10 4.55228 10 4ZM16 12C16 14.2091 14.2091 16 12 16C9.79086 16 8 14.2091 8 12C8 9.79086 9.79086 8 12 8C14.2091 8 16 9.79086 16 12Z"/>
<path d="M5 12.5C5 13.3284 4.32843 14 3.5 14C2.67157 14 2 13.3284 2 12.5C2 11.6716 2.67157 11 3.5 11C4.32843 11 5 11.6716 5 12.5Z"/>
<path d="M22 12.5C22 13.3284 21.3284 14 20.5 14C19.6716 14 19 13.3284 19 12.5C19 11.6716 19.6716 11 20.5 11C21.3284 11 22 11.6716 22 12.5Z"/>
</svg>
