<svg viewBox="0 0 24 24" xmlns="http://www.w3.org/2000/svg">
    <rect x="2" y="12" width="3" height="9" fill="#2DD264"/>
    <path d="M5 12L7 11V20L5 21V12Z" fill="#24A850"/>
    <path d="M4 11H7L5 12H2L4 11Z" fill="#28BD5A"/>
    <path d="M11 8H14L12 9H9L11 8Z" fill="#28BD5A"/>
    <path d="M18 4H21L19 5H16L18 4Z" fill="#28BD5A"/>
    <rect x="9" y="9" width="3" height="12" fill="#2DD264"/>
    <rect x="16" y="5" width="3" height="16" fill="#2DD264"/>
    <path d="M12 9L14 8V20L12 21V9Z" fill="#24A850"/>
    <path d="M19 5L21.0001 4V20L19 21V5Z" fill="#24A850"/>
</svg>
