<svg viewBox="0 0 24 24" xmlns="http://www.w3.org/2000/svg">
<g>
<path d="M21.7071 3.70711C22.0976 3.31658 22.0976 2.68342 21.7071 2.29289C21.3166 1.90237 20.6834 1.90237 20.2929 2.29289L19 3.58576L17.7073 2.29299C17.3167 1.90246 16.6836 1.90246 16.293 2.29299C15.9025 2.68351 15.9025 3.31668 16.293 3.7072L17.5858 4.99997L16.2929 6.29289C15.9024 6.68342 15.9024 7.31658 16.2929 7.70711C16.6834 8.09763 17.3166 8.09763 17.7071 7.70711L19 6.41418L20.293 7.7072C20.6836 8.09772 21.3167 8.09772 21.7073 7.7072C22.0978 7.31668 22.0978 6.68351 21.7073 6.29299L20.4142 4.99997L21.7071 3.70711Z"/>
<path d="M21.7071 2.29295C22.0976 2.68348 22.0976 3.31664 21.7071 3.70717L20.4142 5.00003L21.7073 6.29305C22.0978 6.68357 22.0978 7.31674 21.7073 7.70726C21.3167 8.09778 20.6836 8.09778 20.293 7.70726L19 6.41425L17.7071 7.70717C17.3166 8.09769 16.6834 8.09769 16.2929 7.70717C15.9024 7.31664 15.9024 6.68348 16.2929 6.29295L17.5858 5.00003L16.293 3.70726C15.9025 3.31674 15.9025 2.68357 16.293 2.29305C16.6836 1.90252 17.3167 1.90252 17.7073 2.29305L19 3.58582L20.2929 2.29295C20.6834 1.90243 21.3166 1.90243 21.7071 2.29295Z"/>
<path fill-rule="evenodd" clip-rule="evenodd" d="M5.73894 2.39996H15.0919C14.8904 3.04244 15.0208 3.76652 15.483 4.30342H8.43679C8.5432 7.12258 10.0726 8.70074 12 10.3581C13.2796 9.25779 14.3838 8.19236 15.0126 6.77551C14.947 7.35935 15.1381 7.96654 15.5858 8.41427C15.7303 8.55881 15.8915 8.6766 16.0631 8.76764C15.3328 9.8839 14.3957 10.7853 13.459 11.6004C15.395 13.2852 17.3327 15.3388 17.4417 18.8965H18.2607C18.7793 18.8965 19.1998 19.3226 19.1998 19.8482C19.1998 20.3739 18.7793 20.8 18.2607 20.8H5.73893C5.22027 20.8 4.7998 20.3739 4.7998 19.8482C4.7998 19.3226 5.22027 18.8965 5.73893 18.8965H6.55821C6.66722 15.3388 8.60504 13.2852 10.541 11.6004C8.60475 9.91542 6.66639 7.86171 6.55744 4.30342H5.73894C5.22027 4.30342 4.7998 3.87731 4.7998 3.35169C4.7998 2.82607 5.22027 2.39996 5.73894 2.39996ZM15.5624 18.8965H15.4298C14.7105 18.2211 14.2344 17.9513 13.1928 17.3608C12.8611 17.1728 12.4721 16.9523 11.9997 16.6759C11.5273 16.9523 11.1384 17.1728 10.8067 17.3608C9.7651 17.9513 9.28899 18.2211 8.5697 18.8965H8.43757C8.54403 16.0778 10.073 14.4998 12 12.8427C13.927 14.4998 15.4559 16.0778 15.5624 18.8965Z"/>
</g>
</svg>
