<svg width="25" height="24" viewBox="0 0 25 24" fill="none" xmlns="http://www.w3.org/2000/svg">
<path d="M3.40918 5C2.85689 5 2.40918 5.44772 2.40918 6C2.40918 6.55228 2.85689 7 3.40918 7H9.40918C9.96146 7 10.4092 6.55228 10.4092 6C10.4092 5.44772 9.96146 5 9.40918 5H3.40918Z" fill="#00314D"/>
<path d="M3.40918 8C2.85689 8 2.40918 8.44772 2.40918 9C2.40918 9.55228 2.85689 10 3.40918 10H8.40918C8.96146 10 9.40918 9.55228 9.40918 9C9.40918 8.44772 8.96146 8 8.40918 8H3.40918Z" fill="#00314D"/>
<path d="M2.40918 12C2.40918 11.4477 2.85689 11 3.40918 11H9.40918C9.96146 11 10.4092 11.4477 10.4092 12C10.4092 12.5523 9.96146 13 9.40918 13H3.40918C2.85689 13 2.40918 12.5523 2.40918 12Z" fill="#00314D"/>
<path d="M3.40918 14C2.85689 14 2.40918 14.4477 2.40918 15C2.40918 15.5523 2.85689 16 3.40918 16H7.40918C7.96146 16 8.40918 15.5523 8.40918 15C8.40918 14.4477 7.96146 14 7.40918 14H3.40918Z" fill="#00314D"/>
<path d="M2.40918 18C2.40918 17.4477 2.85689 17 3.40918 17H5.40918C5.96146 17 6.40918 17.4477 6.40918 18C6.40918 18.5523 5.96146 19 5.40918 19H3.40918C2.85689 19 2.40918 18.5523 2.40918 18Z" fill="#00314D"/>
<path fill-rule="evenodd" clip-rule="evenodd" d="M19.4092 9C19.4092 11.2091 17.6183 13 15.4092 13C13.2 13 11.4092 11.2091 11.4092 9C11.4092 6.79086 13.2 5 15.4092 5C17.6183 5 19.4092 6.79086 19.4092 9ZM17.4092 9C17.4092 10.1046 16.5137 11 15.4092 11C14.3046 11 13.4092 10.1046 13.4092 9C13.4092 7.89543 14.3046 7 15.4092 7C16.5137 7 17.4092 7.89543 17.4092 9Z" fill="#00314D"/>
<path d="M10.4092 18.5C10.4092 18.0368 10.7383 17.4326 11.6704 16.8889C12.5779 16.3595 13.8976 16 15.4092 16C16.9208 16 18.2404 16.3595 19.1479 16.8889C20.08 17.4326 20.4092 18.0368 20.4092 18.5C20.4092 19.0523 20.8569 19.5 21.4092 19.5C21.9615 19.5 22.4092 19.0523 22.4092 18.5C22.4092 17.0302 21.3952 15.8844 20.1557 15.1613C18.8916 14.424 17.2113 14 15.4092 14C13.6071 14 11.9267 14.424 10.6627 15.1613C9.42317 15.8844 8.40918 17.0302 8.40918 18.5C8.40918 19.0523 8.85689 19.5 9.40918 19.5C9.96146 19.5 10.4092 19.0523 10.4092 18.5Z" fill="#00314D"/>
</svg>
