<svg viewBox="0 0 24 24" fill="none" xmlns="http://www.w3.org/2000/svg">
<path fill-rule="evenodd" clip-rule="evenodd" d="M9.86032 2.88628C11.042 1.70457 12.958 1.70457 14.1397 2.88628L21.1137 9.86032C22.2954 11.042 22.2954 12.958 21.1137 14.1397L14.1397 21.1137C12.958 22.2954 11.042 22.2954 9.86032 21.1137L2.88628 14.1397C1.70457 12.958 1.70457 11.042 2.88628 9.86032L9.86032 2.88628ZM12 10.5752L10.7175 9.29429C10.3246 8.9019 9.68756 8.9019 9.29467 9.29429C8.90178 9.68669 8.90178 10.3229 9.29467 10.7153L10.5818 12.0007L9.29616 13.2847C8.90327 13.6771 8.90327 14.3133 9.29616 14.7057C9.68905 15.0981 10.326 15.0981 10.7189 14.7057L12 13.4263L13.2811 14.7057C13.6739 15.0981 14.3109 15.0981 14.7038 14.7057C15.0967 14.3133 15.0967 13.6771 14.7038 13.2847L13.4182 12.0007L14.7053 10.7153C15.0982 10.3229 15.0982 9.68669 14.7053 9.2943C14.3124 8.9019 13.6754 8.9019 13.2825 9.2943L12 10.5752Z" fill="#F65855"/>
</svg>
