<svg viewBox="0 0 32 32" xmlns="http://www.w3.org/2000/svg">
    <path d="M10.365 4.828c0.648 0 1.174 0.556 1.174 1.241 0 4.326 2.368 6.471 5.212 8.977 0.028 0.025 0.056 0.050 0.084 0.074 2.772 2.442 5.973 5.262 5.973 10.81 0 0.686-0.526 1.241-1.174 1.241s-1.174-0.556-1.174-1.241c0-4.326-2.368-6.471-5.212-8.977-0.028-0.025-0.056-0.050-0.084-0.074-2.772-2.442-5.973-5.262-5.973-10.81 0-0.686 0.526-1.241 1.174-1.241z"></path>
    <path d="M21.635 4.828c0.648 0 1.174 0.556 1.174 1.241 0 5.548-3.201 8.368-5.973 10.81-0.028 0.025-0.056 0.050-0.084 0.074-2.844 2.506-5.212 4.651-5.212 8.977 0 0.686-0.526 1.241-1.174 1.241s-1.174-0.556-1.174-1.241c0-5.548 3.201-8.368 5.973-10.81 0.028-0.025 0.056-0.050 0.084-0.074 2.844-2.506 5.212-4.651 5.212-8.977 0-0.686 0.526-1.241 1.174-1.241z"></path>
    <path d="M7 5.241c0-0.686 0.526-1.241 1.174-1.241h15.652c0.648 0 1.174 0.556 1.174 1.241s-0.526 1.241-1.174 1.241h-15.652c-0.648 0-1.174-0.556-1.174-1.241z"></path>
    <path d="M7 26.759c0-0.686 0.526-1.241 1.174-1.241h15.652c0.648 0 1.174 0.556 1.174 1.241s-0.526 1.241-1.174 1.241h-15.652c-0.648 0-1.174-0.556-1.174-1.241z"></path>
    <path d="M15.139 12.624c0.239 0.245 0.52 0.533 0.861 0.893 0.341-0.361 0.622-0.648 0.861-0.893 0.859-0.88 1.185-1.214 1.85-2.417h-5.422c0.665 1.203 0.991 1.537 1.85 2.417z"></path>
    <path d="M17.491 23.514c-0.415-0.245-0.901-0.533-1.491-0.893-0.591 0.361-1.077 0.648-1.491 0.893-1.489 0.881-2.053 1.214-3.204 2.417h9.391c-1.151-1.203-1.716-1.536-3.204-2.417z"></path>
</svg>
