<svg viewBox="0 0 24 24" fill="none" xmlns="http://www.w3.org/2000/svg">
<path d="M13 3C13 2.44772 12.5523 2 12 2C11.4477 2 11 2.44772 11 3V9.5C11 10.0523 11.4477 10.5 12 10.5C12.5523 10.5 13 10.0523 13 9.5V3Z" fill="#1F9321"/>
<path d="M8.70711 8.29289C9.09763 8.68342 9.09763 9.31658 8.70711 9.70711C8.31658 10.0976 7.68342 10.0976 7.29289 9.70711L4.08578 6.5L7.29289 3.29289C7.68342 2.90237 8.31658 2.90237 8.70711 3.29289C9.09763 3.68342 9.09763 4.31658 8.70711 4.70711L6.91421 6.5L8.70711 8.29289Z" fill="#1F9321"/>
<path d="M15.2929 9.70711C14.9024 9.31658 14.9024 8.68342 15.2929 8.29289L17.0858 6.5L15.2929 4.70711C14.9024 4.31658 14.9024 3.68342 15.2929 3.29289C15.6834 2.90237 16.3166 2.90237 16.7071 3.29289L19.9142 6.5L16.7071 9.70711C16.3166 10.0976 15.6834 10.0976 15.2929 9.70711Z" fill="#1F9321"/>
<path d="M2.00477 19.0108C2.01473 20.6437 3.38086 21.9185 5.13062 21.9278L6.54791 21.9353C7.28209 21.9392 7.98865 21.679 8.50362 21.166C9.01468 20.6569 9.2498 19.9884 9.24564 19.307L9.24343 18.9441C9.98727 18.7196 10.8861 18.5968 11.9013 18.6022C12.7845 18.6069 13.7283 18.7654 14.5829 19.0086L14.5856 19.4634C14.5943 20.8758 15.7822 21.9844 17.2958 21.9924L18.7131 22C18.7456 22.0002 18.778 21.9993 18.8105 21.9975C19.6462 21.9499 20.3609 21.597 20.8795 21.1575C21.3938 20.7217 21.8036 20.1273 21.9643 19.462C21.9887 19.361 22.0006 19.2577 22 19.1543L21.9953 18.3828C21.9871 17.0444 21.3241 15.9123 20.1691 15.1629L20.157 15.155C18.0389 13.81 15.085 13.0234 12.0192 13.0046C8.86902 12.9307 5.99658 13.7465 3.91199 15.0449C2.60231 15.7641 1.99289 17.0628 2.00006 18.2393L2.00477 19.0108Z" fill="#1F9321"/>
</svg>
