<svg viewBox="0 0 24 24" fill="none" xmlns="http://www.w3.org/2000/svg">
<path fill-rule="evenodd" clip-rule="evenodd" d="M5 2C3.34315 2 2 3.38946 2 5.10345V15.4483C2 17.1623 3.34315 18.5517 5 18.5517H7.5C8.44427 18.5517 9.33344 19.0116 9.9 19.7931L11.2 21.5862C11.6 22.1379 12.4 22.1379 12.8 21.5862L14.1 19.7931C14.6666 19.0116 15.5557 18.5517 16.5 18.5517H19C20.6569 18.5517 22 17.1623 22 15.4483V5.10345C22 3.38946 20.6569 2 19 2H5ZM12 9.57523L10.7174 8.29429C10.3246 7.9019 9.68756 7.9019 9.29467 8.29429C8.90178 8.68669 8.90178 9.32288 9.29467 9.71528L10.5818 11.0007L9.29616 12.2847C8.90327 12.6771 8.90327 13.3133 9.29616 13.7057C9.68905 14.0981 10.326 14.0981 10.7189 13.7057L12 12.4263L13.2811 13.7057C13.6739 14.0981 14.3109 14.0981 14.7038 13.7057C15.0967 13.3133 15.0967 12.6771 14.7038 12.2847L13.4182 11.0007L14.7053 9.71528C15.0982 9.32288 15.0982 8.68669 14.7053 8.2943C14.3124 7.9019 13.6754 7.9019 13.2826 8.2943L12 9.57523Z" fill="#F65855"/>
</svg>
