<svg viewBox="0 0 24 24" fill="none" xmlns="http://www.w3.org/2000/svg">
    <path d="M9.10577 3.43589C9.10577 2.81457 9.60945 2.31089 10.2308 2.31089H13.7179C14.3393 2.31089 14.8429 2.81457 14.8429 3.43589C14.8429 4.05721 14.3393 4.56089 13.7179 4.56089H10.2308C9.60945 4.56089 9.10577 4.05721 9.10577 3.43589Z" fill="#F65855"/>
    <path d="M13.0993 9.53841C13.0993 8.91709 12.5957 8.41341 11.9743 8.41341C11.353 8.41341 10.8493 8.91709 10.8493 9.53841V13.0256C10.8493 13.6469 11.353 14.1506 11.9743 14.1506C12.5957 14.1506 13.0993 13.6469 13.0993 13.0256V9.53841Z" fill="#F65855"/>
    <path fill-rule="evenodd" clip-rule="evenodd" d="M3.87499 13.0257C3.87499 8.55251 7.5012 4.9263 11.9744 4.9263C13.8052 4.9263 15.4942 5.53381 16.8508 6.55824L17.3577 6.05127L17.2814 5.97496C16.8421 5.53562 16.8421 4.82331 17.2814 4.38397C17.7208 3.94463 18.4331 3.94463 18.8724 4.38397L20.616 6.12756C21.0554 6.5669 21.0554 7.27921 20.616 7.71855C20.1767 8.15789 19.4644 8.15789 19.025 7.71855L18.9487 7.64226L18.4418 8.14923C19.4662 9.50576 20.0737 11.1948 20.0737 13.0257C20.0737 17.4988 16.4475 21.125 11.9744 21.125C7.5012 21.125 3.87499 17.4988 3.87499 13.0257ZM11.9744 7.1763C8.74384 7.1763 6.12499 9.79515 6.12499 13.0257C6.12499 16.2562 8.74384 18.875 11.9744 18.875C15.2049 18.875 17.8237 16.2562 17.8237 13.0257C17.8237 9.79515 15.2049 7.1763 11.9744 7.1763Z" fill="#F65855"/>
</svg>
