<svg viewBox="0 0 16 16" xmlns="http://www.w3.org/2000/svg">
<g id="wgt-task-quantity">
<g id="Union">
<path d="M10.4714 7.47132C10.7317 7.21097 10.7317 6.78886 10.4714 6.52851C10.211 6.26816 9.78893 6.26816 9.52858 6.52851L7.33331 8.72378L6.13805 7.52851C5.8777 7.26816 5.45559 7.26816 5.19524 7.52851C4.93489 7.78886 4.93489 8.21097 5.19524 8.47132L6.86191 10.138C7.12226 10.3983 7.54437 10.3983 7.80472 10.138L10.4714 7.47132Z" fill="#2BA329"/>
<path fill-rule="evenodd" clip-rule="evenodd" d="M6.57353 1.92411C7.36134 1.1363 8.63862 1.1363 9.42643 1.92411L14.0758 6.57347C14.8636 7.36127 14.8636 8.63856 14.0758 9.42637L9.42643 14.0757C8.63862 14.8635 7.36134 14.8635 6.57353 14.0757L1.92417 9.42637C1.13636 8.63856 1.13636 7.36127 1.92417 6.57347L6.57353 1.92411ZM8.48362 2.86692L13.133 7.51628C13.4001 7.78339 13.4001 8.21645 13.133 8.48356L8.48362 13.1329C8.21651 13.4 7.78344 13.4 7.51634 13.1329L2.86698 8.48356C2.59987 8.21645 2.59987 7.78338 2.86698 7.51628L7.51634 2.86692C7.78345 2.59981 8.21651 2.59981 8.48362 2.86692Z" fill="#2BA329"/>
</g>
</g>
</svg>
