<svg viewBox="0 0 24 24" fill="none" xmlns="http://www.w3.org/2000/svg">
<path fill-rule="evenodd" clip-rule="evenodd" d="M5 2C3.34315 2 2 3.38946 2 5.10345V15.4483C2 17.1623 3.34315 18.5517 5 18.5517H7.5C8.44427 18.5517 9.33344 19.0116 9.9 19.7931L11.2 21.5862C11.6 22.1379 12.4 22.1379 12.8 21.5862L14.1 19.7931C14.6666 19.0116 15.5557 18.5517 16.5 18.5517H19C20.6569 18.5517 22 17.1623 22 15.4483V5.10345C22 3.38946 20.6569 2 19 2H5ZM8.92808 11.4462C8.3718 11.4462 7.92085 11.8971 7.92085 12.4534C7.92085 13.0097 8.3718 13.4606 8.92808 13.4606C8.91955 13.4606 8.92034 13.4609 8.93069 13.4639C8.96211 13.4731 9.08139 13.5081 9.29498 13.6403C9.54633 13.7959 9.83248 14.0268 10.1044 14.2987C10.3763 14.5707 10.6072 14.8568 10.7628 15.1082C10.8951 15.3217 10.93 15.441 10.9392 15.4724C10.9423 15.4828 10.9425 15.4836 10.9425 15.4751C10.9426 16.0313 11.3935 16.4822 11.9497 16.4822C12.506 16.4822 12.9569 16.0313 12.957 15.4751C12.957 15.4836 12.9572 15.4828 12.9602 15.4724C12.9695 15.441 13.0044 15.3217 13.1367 15.1082C13.2922 14.8568 13.5232 14.5707 13.7951 14.2987C14.067 14.0268 14.3532 13.7959 14.6045 13.6403C14.8181 13.5081 14.9374 13.4731 14.9688 13.4639C14.9791 13.4609 14.9799 13.4606 14.9714 13.4606C15.5277 13.4606 15.9786 13.0097 15.9786 12.4534C15.9786 11.8971 15.5277 11.4462 14.9714 11.4462C14.4334 11.4462 13.9211 11.6942 13.5442 11.9275C13.346 12.0502 13.1485 12.1921 12.957 12.3465L12.957 5.42443C12.957 4.86816 12.506 4.41721 11.9497 4.41721C11.3935 4.41721 10.9425 4.86815 10.9425 5.42443L10.9425 12.3465C10.751 12.1921 10.5535 12.0502 10.3553 11.9275C9.97839 11.6942 9.46608 11.4462 8.92808 11.4462Z" fill="#556AF6"/>
</svg>
