<svg viewBox="0 0 32 32" xmlns="http://www.w3.org/2000/svg">
    <path d="M25.333 22.133l-1.067-1.067c-1.067-1.067-2.667-1.067-3.733 0l-0.533 0.533c-0.4 0.4-1.067 0.533-1.6 0.267-1.733-0.8-3.333-1.867-4.8-3.333s-2.533-3.067-3.333-4.8c-0.267-0.533-0.133-1.2 0.267-1.733l0.533-0.533c1.067-1.067 1.067-2.667 0-3.733l-1.067-1.067c-1.067-1.067-2.667-1.067-3.733 0l-0.933 0.933c-0.933 0.933-1.467 2.4-1.067 3.867 0.667 3.467 2.667 7.333 6 10.533 3.2 3.2 7.067 5.333 10.533 6 1.467 0.267 2.8-0.133 3.867-1.2l0.933-0.933c0.667-0.933 0.667-2.667-0.267-3.733z"></path>
    <path d="M29.061 4.439c0.586 0.586 0.586 1.536 0 2.121l-8 8c-0.586 0.586-1.535 0.586-2.121 0s-0.586-1.536 0-2.121l8-8c0.586-0.586 1.535-0.586 2.121 0z"></path>
    <path d="M18.939 4.439c0.586-0.586 1.535-0.586 2.121 0l8 8c0.586 0.586 0.586 1.536 0 2.121s-1.535 0.586-2.121 0l-8-8c-0.586-0.586-0.586-1.536 0-2.121z"></path>
</svg>
