<svg viewBox="0 0 24 24" fill="none" xmlns="http://www.w3.org/2000/svg">
<path d="M7.952 7.19139C7.94582 5.96656 7.09591 5.01029 6.00732 5.00333L5.49296 5.00004C4.70866 4.99503 3.84284 5.42164 3.36336 6.33843C2.49774 7.79766 1.95383 9.80837 2.00309 12.0135C2.01558 14.1596 2.53994 16.2273 3.43661 17.7099L3.44186 17.7184C3.94144 18.5269 4.69622 18.991 5.58847 18.9967L6.10284 19C6.17176 19.0004 6.24058 18.9921 6.30796 18.975C6.7515 18.8625 7.14774 18.5756 7.43829 18.2156C7.73131 17.8526 7.96659 17.3523 7.99831 16.7673C7.99954 16.7446 8.0001 16.7219 7.99999 16.6991L7.99498 15.707C7.98963 14.6475 7.25057 13.816 6.30893 13.8099L6.00574 13.808C5.84362 13.2098 5.73798 12.5492 5.73486 11.9309C5.73128 11.2202 5.81314 10.5911 5.9628 10.0704L6.20472 10.0719C6.65901 10.0748 7.10469 9.91025 7.44409 9.55251C7.78609 9.19202 7.9596 8.69743 7.95701 8.1835L7.952 7.19139Z" fill="#1F9321"/>
<path d="M14.952 7.19139C14.9458 5.96656 14.0959 5.01029 13.0073 5.00333L12.493 5.00004C11.7087 4.99503 10.8428 5.42164 10.3634 6.33843C9.49774 7.79766 8.95383 9.80837 9.00309 12.0135C9.01558 14.1596 9.53994 16.2273 10.4366 17.7099L10.4419 17.7184C10.9414 18.5269 11.6962 18.991 12.5885 18.9967L13.1028 19C13.1718 19.0004 13.2406 18.9921 13.308 18.975C13.7515 18.8625 14.1477 18.5756 14.4383 18.2156C14.7313 17.8526 14.9666 17.3523 14.9983 16.7673C14.9995 16.7446 15.0001 16.7219 15 16.6991L14.995 15.707C14.9896 14.6475 14.2506 13.816 13.3089 13.8099L13.0057 13.808C12.8436 13.2098 12.738 12.5492 12.7349 11.9309C12.7313 11.2202 12.8131 10.5911 12.9628 10.0704L13.2047 10.0719C13.659 10.0748 14.1047 9.91025 14.4441 9.55251C14.7861 9.19202 14.9596 8.69743 14.957 8.1835L14.952 7.19139Z" fill="#1F9321"/>
<path d="M21.952 7.19139C21.9458 5.96656 21.0959 5.01029 20.0073 5.00333L19.493 5.00004C18.7087 4.99503 17.8428 5.42164 17.3634 6.33843C16.4977 7.79766 15.9538 9.80837 16.0031 12.0135C16.0156 14.1596 16.5399 16.2273 17.4366 17.7099L17.4419 17.7184C17.9414 18.5269 18.6962 18.991 19.5885 18.9967L20.1028 19C20.1718 19.0004 20.2406 18.9921 20.308 18.975C20.7515 18.8625 21.1477 18.5756 21.4383 18.2156C21.7313 17.8526 21.9666 17.3523 21.9983 16.7673C21.9995 16.7446 22.0001 16.7219 22 16.6991L21.995 15.707C21.9896 14.6475 21.2506 13.816 20.3089 13.8099L20.0057 13.808C19.8436 13.2098 19.738 12.5492 19.7349 11.9309C19.7313 11.2202 19.8131 10.5911 19.9628 10.0704L20.2047 10.0719C20.659 10.0748 21.1047 9.91025 21.4441 9.55251C21.7861 9.19202 21.9596 8.69743 21.957 8.1835L21.952 7.19139Z" fill="#1F9321"/>
</svg>
