<svg width="24" height="24" viewBox="0 0 24 24" fill="none" xmlns="http://www.w3.org/2000/svg">
<path fill-rule="evenodd" clip-rule="evenodd" d="M9.86032 2.88628C11.042 1.70457 12.958 1.70457 14.1397 2.88628L21.1137 9.86032C22.2954 11.042 22.2954 12.958 21.1137 14.1397L14.1397 21.1137C12.958 22.2954 11.042 22.2954 9.86032 21.1137L2.88628 14.1397C1.70457 12.958 1.70457 11.042 2.88628 9.86032L9.86032 2.88628ZM8.92808 12.4462C8.3718 12.4462 7.92085 12.8971 7.92085 13.4534C7.92085 14.0097 8.3718 14.4606 8.92808 14.4606C8.91955 14.4606 8.92034 14.4608 8.93069 14.4639C8.96211 14.4731 9.0814 14.5081 9.29498 14.6403C9.54633 14.7959 9.83248 15.0268 10.1044 15.2987C10.3763 15.5707 10.6072 15.8568 10.7628 16.1082C10.8951 16.3217 10.93 16.441 10.9392 16.4724C10.9423 16.4828 10.9425 16.4836 10.9425 16.4751C10.9426 17.0313 11.3935 17.4822 11.9497 17.4822C12.506 17.4822 12.9569 17.0313 12.957 16.4751C12.957 16.4836 12.9572 16.4828 12.9602 16.4724C12.9695 16.441 13.0044 16.3217 13.1367 16.1082C13.2922 15.8568 13.5232 15.5707 13.7951 15.2987C14.067 15.0268 14.3532 14.7959 14.6045 14.6403C14.8181 14.5081 14.9374 14.4731 14.9688 14.4639C14.9792 14.4609 14.98 14.4606 14.9714 14.4606C15.5277 14.4606 15.9786 14.0097 15.9786 13.4534C15.9786 12.8971 15.5277 12.4462 14.9714 12.4462C14.4334 12.4462 13.9211 12.6942 13.5442 12.9275C13.346 13.0502 13.1485 13.1921 12.957 13.3465L12.957 7.42443C12.957 6.86815 12.506 6.4172 11.9497 6.4172C11.3935 6.4172 10.9425 6.86815 10.9425 7.42443V13.3465C10.751 13.1921 10.5535 13.0502 10.3553 12.9275C9.97839 12.6942 9.46608 12.4462 8.92808 12.4462Z" fill="#556AF6"/>
</svg>
