<svg viewBox="0 0 24 24" fill="none" xmlns="http://www.w3.org/2000/svg">
<path d="M3.03322 9H8.96678C9.65258 9 10.2037 9.49905 9.927 10.0465C9.37702 11.1344 10.1123 12.2471 8.95554 13.2647C8.01215 14.0946 7.14059 14.8613 6.78712 15.5C7.14059 16.1387 8.01215 16.9054 8.95554 17.7353C10.1123 18.7529 9.37702 19.8656 9.927 20.9535C10.2037 21.501 9.65258 22 8.96678 22H3.03322C2.34742 22 1.7963 21.501 2.073 20.9535C2.62298 19.8656 1.88772 18.7529 3.04446 17.7353C3.98785 16.9054 4.8594 16.1387 5.21287 15.5C4.8594 14.8613 3.98785 14.0946 3.04446 13.2647C1.88772 12.2471 2.62298 11.1344 2.073 10.0465C1.7963 9.49905 2.34742 9 3.03322 9Z" fill="#2D82D2"/>
<path d="M14.4397 2.66084C13.5485 1.77977 12.1649 1.77977 11.2738 2.66084L10.8527 3.07714C10.2107 3.71192 9.81455 4.72531 10.0875 5.77884C10.4386 7.53912 11.4505 9.43649 13.0859 10.9917C14.6486 12.5341 16.5713 13.6032 18.3738 13.9459L18.3842 13.9477C19.3757 14.126 20.3259 13.8473 21.0563 13.1252L21.4773 12.7089C21.5337 12.6531 21.5837 12.591 21.6262 12.5238C21.9059 12.0814 22.0209 11.5513 21.9969 11.0544C21.9728 10.5533 21.8024 9.99983 21.405 9.55078C21.3896 9.53335 21.3736 9.51644 21.357 9.50007L20.6352 8.78642C19.8644 8.02429 18.6612 8.02429 17.8904 8.78642L17.6422 9.03181C17.0774 8.73101 16.5135 8.33908 16.0637 7.89434C15.5467 7.38311 15.1581 6.86132 14.9033 6.36282L15.1013 6.16701C15.4732 5.79932 15.7169 5.31747 15.7344 4.7824C15.752 4.24323 15.5354 3.74418 15.1615 3.3745L14.4397 2.66084Z" fill="#1F9321"/>
</svg>
