<svg viewBox="0 0 16 16" xmlns="http://www.w3.org/2000/svg">
<g id="wgt-combined-talk-time">
<path id="Subtract" d="M4.60463 10.6485C4.4364 10.8274 4.33335 11.0683 4.33335 11.3333C4.33335 11.8811 4.77378 12.326 5.31983 12.3332C5.37219 12.9034 5.27291 13.3173 5.01715 13.5969C4.62919 14.0211 3.98633 14.0073 3.46971 13.9963C3.38038 13.9944 3.29569 13.9926 3.2154 13.9929C2.918 13.9938 2.6017 13.8357 2.30067 13.5355C1.55579 12.7929 0.680961 10.9001 0.666845 8.01007C0.659079 6.38599 0.93836 4.85833 1.4532 3.70856C1.92847 2.64712 2.56577 2.01254 3.158 2.0111C3.23754 2.01079 3.32142 2.0084 3.41024 2.0058C3.91424 1.99131 4.54156 1.97331 4.93597 2.36656C5.21595 2.64572 5.32747 3.07199 5.27614 3.66828C4.75048 3.69793 4.33335 4.13358 4.33335 4.66667C4.33335 4.92472 4.43103 5.15984 4.59144 5.33717C4.2789 5.54186 3.90779 5.54023 3.51624 5.53852C3.46897 5.53829 3.4209 5.53809 3.37213 5.53822C3.23014 5.53854 3.09309 5.79138 3.00526 6.21463C2.91692 6.6405 2.87395 7.24218 2.87754 8.00295C2.8865 9.75681 3.13202 10.2623 3.27758 10.4074C3.32764 10.4573 3.36666 10.4636 3.395 10.4635C3.44419 10.4633 3.49244 10.4629 3.53998 10.4624C3.92607 10.4584 4.29439 10.4546 4.60463 10.6485Z" fill="#2BA329"/>
<path id="Subtract_2" d="M11.3954 10.6485C11.5637 10.8274 11.6667 11.0683 11.6667 11.3333C11.6667 11.8811 11.2263 12.326 10.6802 12.3332C10.6279 12.9034 10.7271 13.3173 10.9829 13.5969C11.3709 14.0211 12.0137 14.0073 12.5303 13.9963C12.6197 13.9944 12.7044 13.9926 12.7847 13.9929C13.082 13.9938 13.3983 13.8357 13.6994 13.5355C14.4443 12.7929 15.3191 10.9001 15.3332 8.01007C15.341 6.38599 15.0617 4.85833 14.5468 3.70856C14.0716 2.64712 13.4343 2.01254 12.842 2.0111C12.7625 2.01079 12.6786 2.0084 12.5898 2.0058C12.0858 1.99131 11.4585 1.97331 11.0641 2.36656C10.7841 2.64572 10.6726 3.07199 10.7239 3.66828C11.2496 3.69793 11.6667 4.13358 11.6667 4.66667C11.6667 4.92472 11.569 5.15984 11.4086 5.33717C11.7212 5.54186 12.0923 5.54023 12.4838 5.53852C12.5311 5.53829 12.5791 5.53809 12.6279 5.53822C12.7699 5.53854 12.907 5.79138 12.9948 6.21463C13.0831 6.6405 13.1261 7.24218 13.1225 8.00295C13.1135 9.75681 12.868 10.2623 12.7225 10.4074C12.6724 10.4573 12.6334 10.4636 12.605 10.4635C12.5559 10.4633 12.5076 10.4629 12.4601 10.4624C12.074 10.4584 11.7057 10.4546 11.3954 10.6485Z" fill="#E63E1A"/>
<path id="Union" fill-rule="evenodd" clip-rule="evenodd" d="M5.33335 4C4.96516 4 4.66669 4.29848 4.66669 4.66667C4.66669 5.0074 4.9223 5.28842 5.25223 5.32845L6.58801 8.00001L5.25224 10.6716C4.9223 10.7116 4.66669 10.9926 4.66669 11.3333C4.66669 11.7015 4.96516 12 5.33335 12H10.6667C11.0349 12 11.3334 11.7015 11.3334 11.3333C11.3334 10.9926 11.0777 10.7116 10.7478 10.6716L9.41204 8.00001L10.7478 5.32845C11.0777 5.28842 11.3334 5.00739 11.3334 4.66667C11.3334 4.29848 11.0349 4 10.6667 4H5.33335ZM9.25466 10.6667L8.00002 8.1574L6.74539 10.6667H9.25466ZM9.25466 5.33333L8.00002 7.84261L6.74538 5.33333H9.25466Z" />
</g>
</svg>
