<svg viewBox="0 0 24 24" fill="none" xmlns="http://www.w3.org/2000/svg">
<path d="M15.295 3.00727C15.6884 2.61393 16.3261 2.61393 16.7194 3.00727C17.0999 3.3877 17.2868 3.92531 17.3883 4.35681C17.4417 4.58376 17.481 4.82375 17.5073 5.06832L20.2806 2.29501C20.6739 1.90166 21.3116 1.90166 21.705 2.29501C22.0983 2.68835 22.0983 3.32609 21.705 3.71944L18.9317 6.49275C19.1763 6.51905 19.4162 6.55831 19.6432 6.61171C20.0747 6.71323 20.6123 6.90013 20.9927 7.28056C21.3861 7.67391 21.3861 8.31165 20.9927 8.70499C20.5994 9.09834 19.9616 9.09834 19.5683 8.70499C19.5743 8.71103 19.5736 8.71063 19.5641 8.70544C19.5354 8.68974 19.4263 8.63014 19.1818 8.5726C18.8941 8.5049 18.5284 8.46584 18.1439 8.46584C17.7593 8.46584 17.3937 8.5049 17.1059 8.5726C16.8614 8.63014 16.7523 8.68974 16.7236 8.70545C16.7141 8.71063 16.7134 8.71103 16.7194 8.70499C16.3261 9.09829 15.6884 9.09827 15.2951 8.70494C14.9017 8.31161 14.9017 7.67391 15.295 7.28056C15.289 7.2866 15.2894 7.28587 15.2946 7.27638C15.3103 7.24765 15.3699 7.13859 15.4274 6.89407C15.4951 6.60631 15.5342 6.24069 15.5342 5.85613C15.5342 5.47158 15.4951 5.10595 15.4274 4.81819C15.3699 4.57368 15.3102 4.46459 15.2945 4.43586C15.2894 4.4264 15.289 4.42567 15.295 4.4317C14.9017 4.03836 14.9017 3.40062 15.295 3.00727Z" fill="#F1B10D"/>
<path d="M12.1447 11.8617C11.4176 11.1177 10.7767 10.1922 10.283 9.26537L10.6921 8.85158C11.9627 7.56646 11.9627 5.56052 10.6921 4.2754L9.50231 3.07199C9.47503 3.0444 9.44683 3.01772 9.41777 2.992C8.66911 2.32944 7.74645 2.04537 6.91093 2.00513C6.08242 1.96523 5.19869 2.15695 4.46109 2.62321C4.34906 2.69403 4.24557 2.77734 4.15256 2.87141L3.45849 3.57341C2.25451 4.79113 1.78994 6.37517 2.08712 8.02828L2.09024 8.04565C2.66162 11.0507 4.44397 14.2563 7.01545 16.8616C7.03648 16.8838 7.05755 16.9058 7.07866 16.9278L12.1447 11.8617Z" fill="#F65855"/>
<path d="M12.1383 11.8553C12.8823 12.5824 13.8078 13.2233 14.7346 13.717L15.1484 13.3079C16.4335 12.0372 18.4395 12.0372 19.7246 13.3079L20.928 14.4977C20.9556 14.525 20.9823 14.5532 21.008 14.5822C21.6706 15.3309 21.9546 16.2535 21.9949 17.0891C22.0348 17.9176 21.843 18.8013 21.3768 19.5389C21.306 19.6509 21.2227 19.7544 21.1286 19.8474L20.4266 20.5415C19.2089 21.7455 17.6248 22.2101 15.9717 21.9129L15.9544 21.9098C12.9493 21.3384 9.74373 19.556 7.13836 16.9845C7.11624 16.9635 7.0942 16.9424 7.07222 16.9213L12.1383 11.8553Z" fill="#1F9321"/>
</svg>
