<svg viewBox="0 0 24 24" fill="none" xmlns="http://www.w3.org/2000/svg">
<path d="M15.295 3.00727C15.6884 2.61393 16.3261 2.61393 16.7194 3.00727C17.0999 3.3877 17.2868 3.92531 17.3883 4.35681C17.4417 4.58376 17.481 4.82375 17.5073 5.06832L20.2806 2.29501C20.6739 1.90166 21.3116 1.90166 21.705 2.29501C22.0983 2.68835 22.0983 3.32609 21.705 3.71944L18.9317 6.49275C19.1763 6.51905 19.4162 6.55831 19.6432 6.61171C20.0747 6.71323 20.6123 6.90013 20.9927 7.28056C21.3861 7.67391 21.3861 8.31165 20.9927 8.70499C20.5994 9.09834 19.9616 9.09834 19.5683 8.70499C19.5743 8.71103 19.5736 8.71063 19.5641 8.70544C19.5354 8.68974 19.4263 8.63014 19.1818 8.5726C18.8941 8.5049 18.5284 8.46584 18.1439 8.46584C17.7593 8.46584 17.3937 8.5049 17.1059 8.5726C16.8614 8.63014 16.7523 8.68974 16.7236 8.70545C16.7141 8.71063 16.7134 8.71103 16.7194 8.70499C16.3261 9.09829 15.6884 9.09827 15.2951 8.70494C14.9017 8.31161 14.9017 7.67391 15.295 7.28056C15.289 7.2866 15.2894 7.28587 15.2946 7.27638C15.3103 7.24765 15.3699 7.13859 15.4274 6.89407C15.4951 6.60631 15.5342 6.24069 15.5342 5.85613C15.5342 5.47158 15.4951 5.10595 15.4274 4.81819C15.3699 4.57368 15.3102 4.46459 15.2945 4.43586C15.2894 4.4264 15.289 4.42567 15.295 4.4317C14.9017 4.03836 14.9017 3.40062 15.295 3.00727Z" fill="#F1B10D"/>
<path d="M9.39964 3.10133C7.91438 1.63289 5.60827 1.63289 4.12302 3.10133L3.42124 3.79517C2.35115 4.85314 1.69091 6.54212 2.14584 8.298C2.23259 8.73292 2.34353 9.17286 2.47849 9.61522C4.04323 8.63621 6.10246 8.82564 7.47585 10.1835L8.13751 10.8377C8.84846 11.5406 9.29096 12.5267 9.25543 13.6157C9.23946 14.1051 9.12954 14.5597 8.95366 14.9701L8.96458 14.9809L8.9923 15.0079C10.3692 14.4103 12.0175 14.6739 13.1551 15.7986L13.8168 16.4528C13.8635 16.4991 13.9087 16.5468 13.9523 16.5961C14.6745 17.4121 14.9553 18.3821 14.9949 19.2036C15.0309 19.9517 14.8787 20.7799 14.4581 21.5304C14.9607 21.6885 15.4614 21.8155 15.9567 21.9097L15.9741 21.9128C17.6267 22.2099 19.2103 21.7455 20.4276 20.5419L21.1294 19.8481C21.2235 19.7551 21.3067 19.6516 21.3775 19.5396C21.8437 18.8023 22.0353 17.9188 21.9954 17.0906C21.9552 16.2553 21.6712 15.333 21.0089 14.5846C20.9832 14.5555 20.9565 14.5273 20.9289 14.5001L19.7258 13.3106C18.4411 12.0404 16.4357 12.0404 15.151 13.3106L14.7373 13.7196C13.7961 13.2183 12.8562 12.5651 12.1065 11.8238C11.2447 10.9718 10.5972 10.1021 10.1724 9.27129L10.5024 8.94495C11.1223 8.33214 11.5284 7.52905 11.5575 6.63726C11.5869 5.73865 11.2259 4.9069 10.6027 4.29076L9.39964 3.10133Z" fill="#F1B10D"/>
<path d="M3.16763 11.6057C3.98449 10.7981 5.25282 10.7981 6.06969 11.6057L6.73135 12.2599C7.07409 12.5988 7.27262 13.0563 7.2565 13.5505C7.2405 14.041 7.0171 14.4827 6.67621 14.8197L6.49467 14.9992C6.7283 15.4562 7.08444 15.9345 7.55842 16.4031C7.97075 16.8108 8.48766 17.1701 9.00533 17.4458L9.23284 17.2209C9.93944 16.5223 11.0423 16.5223 11.7489 17.2209L12.4106 17.8751C12.4258 17.8901 12.4404 17.9056 12.4546 17.9215C12.8189 18.3332 12.9751 18.8405 12.9972 19.2999C13.0191 19.7554 12.9137 20.2413 12.6573 20.6468C12.6184 20.7084 12.5726 20.7653 12.5209 20.8165L12.1349 21.1981C11.4654 21.8601 10.5944 22.1155 9.68552 21.9521L9.67597 21.9504C8.0237 21.6362 6.26122 20.6562 4.82873 19.2424C3.32961 17.8168 2.40203 16.0775 2.08021 14.4639C1.83001 13.4982 2.19313 12.5692 2.78166 11.9873L3.16763 11.6057Z" fill="#F1B10D"/>
</svg>
