<svg viewBox="0 0 32 32" xmlns="http://www.w3.org/2000/svg">
    <path d="M25.201 22.267l-1.067-1.067c-1.067-1.067-2.667-1.067-3.733 0l-0.533 0.533c-0.4 0.4-1.067 0.533-1.6 0.267-1.733-0.8-3.333-1.867-4.8-3.333s-2.533-3.067-3.333-4.8c-0.267-0.533-0.133-1.2 0.267-1.733l0.533-0.533c1.067-1.067 1.067-2.667 0-3.733l-1.067-1.067c-1.067-1.067-2.667-1.067-3.733 0l-0.933 0.933c-0.933 0.933-1.467 2.4-1.067 3.867 0.667 3.467 2.667 7.333 6 10.533 3.2 3.2 7.067 5.333 10.533 6 1.467 0.267 2.8-0.133 3.867-1.2l0.933-0.933c0.667-0.933 0.667-2.667-0.267-3.733z"></path>
    <path d="M26.107 13.578c0 0.828-0.672 1.5-1.5 1.5h-5.657c-0.828 0-1.5-0.672-1.5-1.5s0.672-1.5 1.5-1.5h5.657c0.828 0 1.5 0.672 1.5 1.5z"></path>
    <path d="M18.95 15.078c-0.828 0-1.5-0.672-1.5-1.5v-5.657c0-0.828 0.672-1.5 1.5-1.5s1.5 0.672 1.5 1.5v5.657c0 0.828-0.671 1.5-1.5 1.5z"></path>
    <path d="M28.061 4.739c0.586 0.586 0.586 1.536 0 2.121l-7 7c-0.586 0.586-1.535 0.586-2.121 0s-0.586-1.536 0-2.121l7-7c0.586-0.586 1.535-0.586 2.121 0z"></path>
</svg>
