<svg viewBox="0 0 24 24" fill="none" xmlns="http://www.w3.org/2000/svg">
<path d="M18.9999 3.57521L17.7174 2.29428C17.3245 1.90189 16.6875 1.90189 16.2946 2.29428C15.9017 2.68667 15.9017 3.32287 16.2946 3.71526L17.5817 5.00073L16.2961 6.28471C15.9032 6.6771 15.9032 7.3133 16.2961 7.70569C16.689 8.09808 17.326 8.09808 17.7188 7.70569L18.9999 6.42625L20.281 7.70569C20.6739 8.09808 21.3109 8.09808 21.7037 7.70569C22.0966 7.3133 22.0966 6.6771 21.7037 6.28471L20.4181 5.00073L21.7052 3.71526C22.0981 3.32287 22.0981 2.68667 21.7052 2.29428C21.3124 1.90189 20.6754 1.90189 20.2825 2.29428L18.9999 3.57521Z" fill="#F65855"/>
<path d="M4.12302 3.10133C5.60827 1.63289 7.91438 1.63289 9.39964 3.10133L10.6027 4.29076C11.2259 4.9069 11.5869 5.73865 11.5575 6.63726C11.5284 7.52905 11.1223 8.33214 10.5024 8.94495L10.1724 9.27129C10.5972 10.1021 11.2447 10.9718 12.1065 11.8238C12.8562 12.5651 13.7961 13.2183 14.7373 13.7196L15.151 13.3106C16.4357 12.0404 18.4411 12.0404 19.7258 13.3106L20.9289 14.5001C20.9565 14.5273 20.9832 14.5555 21.0089 14.5846C21.6712 15.333 21.9552 16.2553 21.9954 17.0906C22.0353 17.9188 21.8437 18.8023 21.3775 19.5396C21.3067 19.6516 21.2235 19.7551 21.1294 19.8481L20.4276 20.5419C19.2103 21.7455 17.6267 22.2099 15.9741 21.9128L15.9567 21.9097C15.4614 21.8155 14.9607 21.6885 14.4581 21.5304C14.8787 20.7799 15.0309 19.9517 14.9949 19.2036C14.9553 18.3821 14.6745 17.4121 13.9523 16.5961C13.9087 16.5468 13.8635 16.4991 13.8168 16.4528L13.1551 15.7986C12.0175 14.6739 10.3692 14.4103 8.9923 15.0079L8.96458 14.9809L8.95366 14.9701C9.12954 14.5597 9.23946 14.1051 9.25543 13.6157C9.29096 12.5267 8.84846 11.5406 8.13751 10.8377L7.47585 10.1835C6.10246 8.82564 4.04323 8.63621 2.47849 9.61522C2.34353 9.17286 2.23259 8.73292 2.14584 8.298C1.69091 6.54212 2.35115 4.85314 3.42124 3.79517L4.12302 3.10133Z" fill="#F65855"/>
<path d="M6.06969 11.6057C5.25282 10.7981 3.98449 10.7981 3.16763 11.6057L2.78166 11.9873C2.19313 12.5692 1.83001 13.4982 2.08021 14.4639C2.40203 16.0775 3.32961 17.8168 4.82873 19.2424C6.26122 20.6562 8.0237 21.6362 9.67597 21.9504L9.68552 21.9521C10.5944 22.1155 11.4654 21.8601 12.1349 21.1981L12.5209 20.8165C12.5726 20.7653 12.6184 20.7084 12.6573 20.6468C12.9137 20.2413 13.0191 19.7554 12.9972 19.2999C12.9751 18.8405 12.8189 18.3332 12.4546 17.9215C12.4404 17.9056 12.4258 17.8901 12.4106 17.8751L11.7489 17.2209C11.0423 16.5223 9.93944 16.5223 9.23284 17.2209L9.00533 17.4458C8.48766 17.1701 7.97075 16.8108 7.55842 16.4031C7.08444 15.9345 6.7283 15.4562 6.49467 14.9992L6.67621 14.8197C7.0171 14.4827 7.2405 14.041 7.2565 13.5505C7.27262 13.0563 7.07409 12.5988 6.73135 12.2599L6.06969 11.6057Z" fill="#F65855"/>
</svg>
