<svg viewBox="0 0 24 24" xmlns="http://www.w3.org/2000/svg">
<path d="M12 5C11.8187 5 11.6392 5.0088 11.4619 5.02606C10.9122 5.07956 10.51 5.56853 10.5635 6.11822C10.617 6.66791 11.1059 7.07015 11.6556 7.01666C11.7686 7.00566 11.8835 7 12 7C12.1165 7 12.2314 7.00566 12.3444 7.01666C12.8941 7.07015 13.383 6.66791 13.4365 6.11822C13.49 5.56853 13.0878 5.07956 12.5381 5.02606C12.3608 5.0088 12.1813 5 12 5Z"/>
<path d="M15.4896 6.24867C15.0629 5.89806 14.4328 5.95977 14.0822 6.38649C13.7316 6.81322 13.7933 7.44337 14.22 7.79397C14.3974 7.93974 14.5603 8.1026 14.706 8.28001C15.0566 8.70674 15.6868 8.76845 16.1135 8.41784C16.5402 8.06723 16.6019 7.43708 16.2513 7.01036C16.0229 6.73231 15.7677 6.47712 15.4896 6.24867Z"/>
<path d="M9.78001 7.79397C10.2067 7.44337 10.2684 6.81322 9.91784 6.38649C9.56723 5.95977 8.93708 5.89806 8.51036 6.24867C8.23231 6.47712 7.97712 6.73231 7.74867 7.01036C7.39806 7.43708 7.45977 8.06723 7.88649 8.41784C8.31322 8.76845 8.94337 8.70674 9.29397 8.28001C9.43974 8.10261 9.6026 7.93974 9.78001 7.79397Z"/>
<path d="M17.4739 9.96189C17.4204 9.4122 16.9315 9.00996 16.3818 9.06345C15.8321 9.11695 15.4298 9.60593 15.4833 10.1556C15.4943 10.2686 15.5 10.3835 15.5 10.5C15.5 10.6165 15.4943 10.7314 15.4833 10.8444C15.4298 11.3941 15.8321 11.883 16.3818 11.9365C16.9315 11.99 17.4204 11.5878 17.4739 11.0381C17.4912 10.8608 17.5 10.6813 17.5 10.5C17.5 10.3187 17.4912 10.1392 17.4739 9.96189Z"/>
<path d="M8.51666 10.1556C8.57015 9.60593 8.16791 9.11695 7.61822 9.06345C7.06853 9.00996 6.57956 9.4122 6.52606 9.96189C6.5088 10.1392 6.5 10.3187 6.5 10.5C6.5 10.6813 6.5088 10.8608 6.52606 11.0381C6.57956 11.5878 7.06853 11.99 7.61822 11.9365C8.16791 11.883 8.57015 11.3941 8.51666 10.8444C8.50566 10.7314 8.5 10.6165 8.5 10.5C8.5 10.3835 8.50566 10.2686 8.51666 10.1556Z"/>
<path d="M9.29397 12.72C8.94337 12.2933 8.31322 12.2316 7.88649 12.5822C7.45977 12.9328 7.39806 13.5629 7.74867 13.9896C7.97712 14.2677 8.23231 14.5229 8.51036 14.7513C8.93708 15.1019 9.56723 15.0402 9.91784 14.6135C10.2684 14.1868 10.2067 13.5566 9.78001 13.206C9.60261 13.0603 9.43974 12.8974 9.29397 12.72Z"/>
<path d="M16.2513 13.9896C16.6019 13.5629 16.5402 12.9328 16.1135 12.5822C15.6868 12.2316 15.0566 12.2933 14.706 12.72C14.5603 12.8974 14.3974 13.0603 14.22 13.206C13.7933 13.5566 13.7316 14.1868 14.0822 14.6135C14.4328 15.0402 15.0629 15.1019 15.4896 14.7513C15.7677 14.5229 16.0229 14.2677 16.2513 13.9896Z"/>
<path d="M12.5381 15.9739C13.0878 15.9204 13.49 15.4315 13.4365 14.8818C13.383 14.3321 12.8941 13.9298 12.3444 13.9833C12.2314 13.9943 12.1165 14 12 14C11.8835 14 11.7686 13.9943 11.6556 13.9833C11.1059 13.9298 10.617 14.3321 10.5635 14.8818C10.51 15.4315 10.9122 15.9204 11.4619 15.9739C11.6392 15.9912 11.8187 16 12 16C12.1813 16 12.3608 15.9912 12.5381 15.9739Z"/>
<path fill-rule="evenodd" clip-rule="evenodd" d="M2 5.10345C2 3.38946 3.34315 2 5 2H19C20.6569 2 22 3.38946 22 5.10345V15.4483C22 17.1623 20.6569 18.5517 19 18.5517H16.5C15.5557 18.5517 14.6666 19.0116 14.1 19.7931L12.8 21.5862C12.4 22.1379 11.6 22.1379 11.2 21.5862L9.9 19.7931C9.33344 19.0116 8.44427 18.5517 7.5 18.5517H5C3.34315 18.5517 2 17.1623 2 15.4483V5.10345ZM5 4.06897H19C19.5523 4.06897 20 4.53212 20 5.10345V15.4483C20 16.0196 19.5523 16.4828 19 16.4828H16.5C14.9262 16.4828 13.4443 17.2493 12.5 18.5517L12 19.2414L11.5 18.5517C10.5557 17.2493 9.07379 16.4828 7.5 16.4828H5C4.44772 16.4828 4 16.0196 4 15.4483V5.10345C4 4.53212 4.44772 4.06897 5 4.06897Z"/>
</svg>
