<svg viewBox="0 0 24 24" fill="none" xmlns="http://www.w3.org/2000/svg">
<path fill-rule="evenodd" clip-rule="evenodd" d="M14.1397 2.88628C12.958 1.70457 11.042 1.70457 9.86032 2.88628L2.88628 9.86032C1.70457 11.042 1.70457 12.958 2.88628 14.1397L9.86032 21.1137C11.042 22.2954 12.958 22.2954 14.1397 21.1137L21.1137 14.1397C22.2954 12.958 22.2954 11.042 21.1137 9.86032L14.1397 2.88628ZM16.2071 9.29289C16.5976 9.68342 16.5976 10.3166 16.2071 10.7071L12.2071 14.7071C11.8166 15.0976 11.1834 15.0976 10.7929 14.7071L8.29289 12.2071C7.90237 11.8166 7.90237 11.1834 8.29289 10.7929C8.68342 10.4024 9.31658 10.4024 9.70711 10.7929L11.5 12.5858L14.7929 9.29289C15.1834 8.90237 15.8166 8.90237 16.2071 9.29289Z" fill="#1F9321"/>
</svg>
