<svg viewBox="0 0 16 16" xmlns="http://www.w3.org/2000/svg">
<g id="wgt-total-vm-time">
<path id="Union" fill-rule="evenodd" clip-rule="evenodd" d="M5.33335 1.33337C4.96516 1.33337 4.66669 1.63185 4.66669 2.00004C4.66669 2.34077 4.9223 2.6218 5.25223 2.66182L6.58801 5.33338L5.25224 8.00493C4.9223 8.04495 4.66669 8.32597 4.66669 8.66671C4.66669 9.0349 4.96516 9.33337 5.33335 9.33337H10.6667C11.0349 9.33337 11.3334 9.0349 11.3334 8.66671C11.3334 8.32598 11.0777 8.04495 10.7478 8.00493L9.41204 5.33338L10.7478 2.66182C11.0777 2.62179 11.3334 2.34077 11.3334 2.00004C11.3334 1.63185 11.0349 1.33337 10.6667 1.33337H5.33335ZM9.25466 8.00004L8.00002 5.49077L6.74539 8.00004H9.25466ZM9.25466 2.66671L8.00002 5.17599L6.74538 2.66671H9.25466Z" fill="#FFC000"/>
<g id="Union_2">
<path d="M7.33331 11.3333C7.33331 10.9651 7.63179 10.6666 7.99998 10.6666C8.36817 10.6666 8.66665 10.9651 8.66665 11.3333V14C8.66665 14.3681 8.36817 14.6666 7.99998 14.6666C7.63179 14.6666 7.33331 14.3681 7.33331 14V11.3333Z" />
<path d="M5.33331 12C5.33331 11.6318 5.63179 11.3333 5.99998 11.3333C6.36817 11.3333 6.66665 11.6318 6.66665 12V13.3333C6.66665 13.7015 6.36817 14 5.99998 14C5.63179 14 5.33331 13.7015 5.33331 13.3333V12Z"/>
<path d="M2.66665 12.6666C2.66665 13.0348 2.36817 13.3333 1.99998 13.3333C1.63179 13.3333 1.33331 13.0348 1.33331 12.6666C1.33331 12.2984 1.63179 12 1.99998 12C2.36817 12 2.66665 12.2984 2.66665 12.6666Z" />
<path d="M3.33331 12.6666C3.33331 12.2984 3.63179 12 3.99998 12C4.36817 12 4.66665 12.2984 4.66665 12.6666C4.66665 13.0348 4.36817 13.3333 3.99998 13.3333C3.63179 13.3333 3.33331 13.0348 3.33331 12.6666Z" />
<path d="M9.33331 12.6666C9.33331 12.2984 9.63179 12 9.99998 12C10.3682 12 10.6666 12.2984 10.6666 12.6666C10.6666 13.0348 10.3682 13.3333 9.99998 13.3333C9.63179 13.3333 9.33331 13.0348 9.33331 12.6666Z" />
<path d="M11.3333 12C11.3333 11.6318 11.6318 11.3333 12 11.3333C12.3682 11.3333 12.6666 11.6318 12.6666 12V13.3333C12.6666 13.7015 12.3682 14 12 14C11.6318 14 11.3333 13.7015 11.3333 13.3333V12Z" />
<path d="M13.3333 12.6666C13.3333 12.2984 13.6318 12 14 12C14.3682 12 14.6666 12.2984 14.6666 12.6666C14.6666 13.0348 14.3682 13.3333 14 13.3333C13.6318 13.3333 13.3333 13.0348 13.3333 12.6666Z" />
</g>
</g>
</svg>
