<svg viewBox="0 0 16 16" xmlns="http://www.w3.org/2000/svg">
<g id="wgt-after-call-work-time">
<path id="Union" fill-rule="evenodd" clip-rule="evenodd" d="M7.99998 1.33337C7.63179 1.33337 7.33331 1.63185 7.33331 2.00004C7.33331 2.34077 7.58893 2.6218 7.91886 2.66182L9.25463 5.33338L7.91886 8.00493C7.58893 8.04495 7.33331 8.32597 7.33331 8.66671C7.33331 9.0349 7.63179 9.33337 7.99998 9.33337H13.3333C13.7015 9.33337 14 9.0349 14 8.66671C14 8.32598 13.7444 8.04495 13.4144 8.00493L12.0787 5.33338L13.4144 2.66182C13.7444 2.62179 14 2.34077 14 2.00004C14 1.63185 13.7015 1.33337 13.3333 1.33337H7.99998ZM11.9213 8.00004L10.6666 5.49077L9.41202 8.00004H11.9213ZM11.9213 2.66671L10.6666 5.17599L9.41201 2.66671H11.9213Z" fill="#E63E1A"/>
<path id="Subtract" d="M4.7969 5.14199L3.99486 4.34904C3.52414 3.88365 2.82269 3.88365 2.35197 4.34904L1.88412 4.81161C1.45567 5.23519 1.21667 5.89277 1.39049 6.54365C1.39431 6.55795 1.39764 6.57235 1.4005 6.58688C1.73015 8.26124 2.71124 10.1374 4.35111 11.6952L4.36048 11.7043C5.94349 13.2682 7.85046 14.3054 9.54945 14.6293L9.55114 14.6296C10.2371 14.7529 10.8519 14.5691 11.3469 14.0798L11.8004 13.6313C11.9396 13.4027 12.0125 13.0995 11.9977 12.7912C11.9826 12.4783 11.8779 12.1734 11.6769 11.9441L10.879 11.1552C10.5419 10.822 10.041 10.822 9.70395 11.1552L9.10243 11.7499C9.03511 11.8165 8.96028 11.8648 8.886 11.8975C8.71077 11.9746 8.51083 11.9727 8.33714 11.8922C7.46902 11.4898 6.53746 10.8937 5.79944 10.164C4.99166 9.3654 4.37771 8.49461 4.03103 7.61493C3.97688 7.47752 3.96989 7.32603 4.01115 7.18423C4.04472 7.06887 4.1086 6.96288 4.19537 6.8771L4.73006 6.34847C4.93845 6.14244 5.03162 5.91852 5.03827 5.71469C5.04489 5.51162 4.96649 5.30968 4.7969 5.14199Z" fill="#E63E1A"/>
</g>
</svg>
