<svg viewBox="0 0 16 16" xmlns="http://www.w3.org/2000/svg">
<g id="wgt-total-talk-time">
<path id="Union" fill-rule="evenodd" clip-rule="evenodd" d="M5.33335 2C4.96516 2 4.66669 2.29848 4.66669 2.66667C4.66669 3.0074 4.9223 3.28842 5.25223 3.32845L6.58801 6.00001L5.25224 8.67155C4.9223 8.71157 4.66669 8.9926 4.66669 9.33333C4.66669 9.70152 4.96516 10 5.33335 10H10.6667C11.0349 10 11.3334 9.70152 11.3334 9.33333C11.3334 8.9926 11.0777 8.71158 10.7478 8.67155L9.41204 6.00001L10.7478 3.32845C11.0777 3.28842 11.3334 3.00739 11.3334 2.66667C11.3334 2.29848 11.0349 2 10.6667 2H5.33335ZM9.25466 8.66667L8.00002 6.1574L6.74539 8.66667H9.25466ZM9.25466 3.33333L8.00002 5.84261L6.74538 3.33333H9.25466Z" fill="#E63E1A"/>
<path id="Union_2" d="M1.33331 10.6666V14.6666H1.99998L1.99998 13.3333H7.99998V12H1.99998V10.6666H1.33331Z" fill="#2BA329"/>
<path id="Union_3" d="M14 13.3333V14.6666H14.6667V10.6666H14V12H8V13.3333H14Z" fill="#6B89F6"/>
</g>
</svg>
