<svg viewBox="0 0 16 16" fill="none" xmlns="http://www.w3.org/2000/svg">
<path fill-rule="evenodd" clip-rule="evenodd" d="M6.26641 2.06753C5.27623 1.08857 3.73883 1.08857 2.74866 2.06753L2.2808 2.53009C1.56741 3.2354 1.12726 4.36139 1.43054 5.53198C1.82063 7.48784 2.94501 9.59603 4.76217 11.324C6.49858 13.0378 8.63498 14.2257 10.6378 14.6065L10.6494 14.6085C11.7511 14.8066 12.8068 14.497 13.6184 13.6946L14.0863 13.232C14.149 13.17 14.2045 13.1011 14.2517 13.0264C14.5624 12.5348 14.6902 11.9459 14.6636 11.3937C14.6368 10.8369 14.4475 10.222 14.0059 9.72303C13.9887 9.70366 13.971 9.68486 13.9526 9.66668L13.1505 8.87373C12.294 8.02693 10.9571 8.02693 10.1006 8.87373L9.82487 9.14638C9.19737 8.81216 8.57079 8.37668 8.07098 7.88253C7.49645 7.3145 7.06475 6.73474 6.78155 6.18084L7.0016 5.96328C7.41482 5.55474 7.68561 5.01935 7.70501 4.42482C7.72455 3.82574 7.48391 3.27125 7.06844 2.86049L6.26641 2.06753ZM3.68608 3.01569C4.15681 2.5503 4.85825 2.5503 5.32898 3.01569L6.13101 3.80865C6.30061 3.97633 6.37901 4.17827 6.37238 4.38134C6.36573 4.58518 6.27257 4.80909 6.06418 5.01512L5.52949 5.54375C5.44272 5.62954 5.37883 5.73552 5.34526 5.85089C5.304 5.99269 5.311 6.14418 5.36515 6.28158C5.71183 7.16125 6.32577 8.03205 7.13356 8.83069C7.87158 9.56036 8.80313 10.1564 9.67126 10.5588C9.84495 10.6393 10.0449 10.6413 10.2201 10.5642C10.2944 10.5315 10.3692 10.4832 10.4365 10.4166L11.0381 9.82189C11.3751 9.48865 11.8761 9.48865 12.2131 9.82189L13.011 10.6108C13.212 10.8401 13.3167 11.1449 13.3318 11.4579C13.3467 11.7661 13.2738 12.0693 13.1346 12.298L12.681 12.7464C12.186 13.2358 11.5712 13.4195 10.8853 13.2962L10.8836 13.2959C9.18458 12.972 7.27761 11.9348 5.6946 10.3709L5.68523 10.3619C4.04535 8.80408 3.06427 6.92788 2.73462 5.25352C2.73176 5.23901 2.72842 5.22459 2.72461 5.2103C2.55079 4.55942 2.78979 3.90184 3.21823 3.47825L3.68608 3.01569Z" fill="#2BA329"/>
<path d="M13.7407 4.98553C13.7203 4.85732 13.7606 4.72676 13.8471 4.63679L14.4685 3.99092C14.8648 3.57893 14.6334 2.88974 14.0695 2.80238L13.2465 2.6749C13.1293 2.65673 13.0253 2.57801 12.9712 2.46099L12.6385 1.74208C12.3863 1.19713 11.6143 1.19704 11.3619 1.74193L11.0291 2.46079C10.9748 2.57796 10.8707 2.65671 10.7538 2.6749L9.93049 2.80242C9.36653 2.88977 9.13517 3.57896 9.53151 3.99096L10.1528 4.63679C10.2393 4.72673 10.2799 4.85746 10.2592 4.98593L10.1209 5.84607C10.0272 6.42899 10.6452 6.86312 11.1589 6.57518L11.8309 6.19845C11.9368 6.13909 12.0631 6.13912 12.1688 6.19844L12.841 6.57532C13.3547 6.8633 13.9728 6.42917 13.8791 5.84623L13.7407 4.98553Z" fill="#FFC000"/>
</svg>
