<svg viewBox="0 0 24 24" fill="none" xmlns="http://www.w3.org/2000/svg">
<path d="M16.6458 2H20.3542C20.7829 2 21.1273 2.3071 20.9544 2.64398C20.6106 3.31351 21.0702 3.99819 20.3472 4.62442C19.7576 5.13513 19.2129 5.60697 18.992 6C19.2129 6.39303 19.7576 6.86487 20.3472 7.37558C21.0702 8.00181 20.6106 8.68649 20.9544 9.35602C21.1273 9.69289 20.7829 10 20.3542 10H16.6458C16.2171 10 15.8727 9.69289 16.0456 9.35602C16.3894 8.68649 15.9298 8.00181 16.6528 7.37558C17.2424 6.86487 17.7871 6.39303 18.008 6C17.7871 5.60697 17.2424 5.13513 16.6528 4.62442C15.9298 3.99819 16.3894 3.31351 16.0456 2.64398C15.8727 2.3071 16.2171 2 16.6458 2Z" fill="#2D82D2"/>
<path d="M9.39964 3.10139C7.91438 1.63295 5.60827 1.63295 4.12302 3.10139L3.42124 3.79523C2.35115 4.8532 1.69091 6.54218 2.14584 8.29807C2.73098 11.2319 4.41754 14.3941 7.14329 16.9862C9.7479 19.5568 12.9525 21.3386 15.9567 21.9098L15.9741 21.9129C17.6267 22.21 19.2103 21.7456 20.4276 20.542L21.1294 19.8481C21.2235 19.7551 21.3067 19.6517 21.3775 19.5397C21.8437 18.8023 22.0353 17.9189 21.9954 17.0907C21.9552 16.2554 21.6712 15.333 21.0089 14.5846C20.9832 14.5556 20.9565 14.5274 20.9289 14.5001L19.7258 13.3107C18.4411 12.0405 16.4357 12.0405 15.151 13.3107L14.7373 13.7197C13.7961 13.2183 12.8562 12.5651 12.1065 11.8239C11.2447 10.9718 10.5972 10.1022 10.1724 9.27135L10.5024 8.94501C11.1223 8.3322 11.5284 7.52911 11.5575 6.63732C11.5869 5.73871 11.2259 4.90696 10.6027 4.29082L9.39964 3.10139Z" fill="#1F9321"/>
</svg>
