<svg width="24" height="24" viewBox="0 0 24 24" fill="none" xmlns="http://www.w3.org/2000/svg">
<path fill-rule="evenodd" clip-rule="evenodd" d="M5 2C3.34315 2 2 3.38946 2 5.10345V15.4483C2 17.1623 3.34315 18.5517 5 18.5517H7.5C8.44427 18.5517 9.33344 19.0116 9.9 19.7931L11.2 21.5862C11.6 22.1379 12.4 22.1379 12.8 21.5862L14.1 19.7931C14.6666 19.0116 15.5557 18.5517 16.5 18.5517H19C20.6569 18.5517 22 17.1623 22 15.4483V5.10345C22 3.38946 20.6569 2 19 2H5ZM12 4.5C12.5523 4.5 13 4.94772 13 5.5V15.5C13 16.0523 12.5523 16.5 12 16.5C11.4477 16.5 11 16.0523 11 15.5V5.5C11 4.94772 11.4477 4.5 12 4.5ZM8.70711 7.29289C9.09763 7.68342 9.09763 8.31658 8.70711 8.70711L6.91421 10.5L8.70711 12.2929C9.09763 12.6834 9.09763 13.3166 8.70711 13.7071C8.31658 14.0976 7.68342 14.0976 7.29289 13.7071L4.08578 10.5L7.29289 7.29289C7.68342 6.90237 8.31658 6.90237 8.70711 7.29289ZM15.2929 8.70711C14.9024 8.31658 14.9024 7.68342 15.2929 7.29289C15.6834 6.90237 16.3166 6.90237 16.7071 7.29289L19.9142 10.5L16.7071 13.7071C16.3166 14.0976 15.6834 14.0976 15.2929 13.7071C14.9024 13.3166 14.9024 12.6834 15.2929 12.2929L17.0858 10.5L15.2929 8.70711Z" fill="#556AF6"/>
</svg>
