<svg width="24" height="24" viewBox="0 0 24 24" fill="none" xmlns="http://www.w3.org/2000/svg">
<path d="M17.7174 2.29428L18.9999 3.57521L20.2825 2.29428C20.6754 1.90189 21.3124 1.90189 21.7052 2.29428C22.0981 2.68667 22.0981 3.32287 21.7052 3.71526L20.4182 5.00073L21.7038 6.28471C22.0966 6.6771 22.0966 7.3133 21.7038 7.70569C21.3109 8.09808 20.6739 8.09808 20.281 7.70569L18.9999 6.42625L17.7189 7.70569C17.326 8.09808 16.689 8.09808 16.2961 7.70569C15.9032 7.3133 15.9032 6.6771 16.2961 6.28471L17.5817 5.00073L16.2946 3.71526C15.9017 3.32287 15.9017 2.68667 16.2946 2.29428C16.6875 1.90189 17.3245 1.90189 17.7174 2.29428Z" fill="#F65855"/>
<path d="M4.12302 3.10139C5.60827 1.63295 7.91438 1.63295 9.39964 3.10139L10.6027 4.29082C11.2259 4.90696 11.5869 5.73871 11.5575 6.63732C11.5284 7.52911 11.1223 8.3322 10.5024 8.94501L10.1724 9.27135C10.5972 10.1022 11.2447 10.9718 12.1065 11.8239C12.8562 12.5651 13.7961 13.2183 14.7373 13.7197L15.151 13.3107C16.4357 12.0405 18.4411 12.0405 19.7258 13.3107L20.9289 14.5001C20.9565 14.5274 20.9832 14.5556 21.0089 14.5846C21.6712 15.333 21.9552 16.2554 21.9954 17.0907C22.0353 17.9189 21.8437 18.8023 21.3775 19.5397C21.3067 19.6517 21.2235 19.7551 21.1294 19.8481L20.4276 20.542C19.2103 21.7456 17.6267 22.21 15.9741 21.9129L15.9567 21.9098C12.9525 21.3386 9.7479 19.5568 7.14329 16.9862C4.41754 14.3941 2.73098 11.2319 2.14584 8.29807C1.69091 6.54218 2.35115 4.8532 3.42124 3.79523L4.12302 3.10139Z" fill="#F65855"/>
</svg>
