<svg viewBox="0 0 24 24" xmlns="http://www.w3.org/2000/svg">
<path d="M21.9908 18.4655C21.916 17.6769 21.3984 16.8998 20.4083 16.0895C19.2434 15.136 18.344 14.6741 17.5779 14.636C16.6212 14.5883 16.0452 15.1809 15.4354 15.8084C15.3732 15.8725 15.3099 15.9374 15.2451 16.0032C15.2076 16.0411 15.1467 16.0838 15.0072 16.0769C14.6408 16.0586 13.7357 15.7156 11.6609 13.7533L8.72507 16.6891C12.7139 20.4365 16.3391 21.8965 18.3023 21.9943C19.1414 22.0361 19.7923 21.848 20.1849 21.4503C20.2908 21.3429 20.4053 21.2331 20.5264 21.1169C21.227 20.4449 22.0992 19.6083 21.9908 18.4655Z"/>
<path d="M9.29606 11.2897C8.97483 10.9107 8.70738 10.5645 8.49538 10.253C7.99078 9.51145 7.80141 8.95575 7.98903 8.76611C8.05344 8.70092 8.11741 8.63718 8.18036 8.57454C8.73424 8.02282 9.25737 7.50173 9.32609 6.70701C9.39903 5.86306 8.94686 4.89871 7.8603 3.58045C7.02003 2.55901 6.21778 2.04284 5.4076 2.00248C4.3082 1.94772 3.50362 2.8101 2.85722 3.50299C2.74336 3.62517 2.63577 3.74046 2.53085 3.84688C1.74844 4.63808 1.83519 6.42358 2.7628 8.62304C3.52037 10.4194 4.7705 12.3543 6.3654 14.2204L2.29289 18.2929C1.90237 18.6834 1.90237 19.3166 2.29289 19.7071C2.68342 20.0976 3.31658 20.0976 3.70711 19.7071L18.7071 4.70711C19.0976 4.31658 19.0976 3.68342 18.7071 3.29289C18.3166 2.90237 17.6834 2.90237 17.2929 3.29289L9.29606 11.2897Z"/>
</svg>
