<svg viewBox="0 0 24 24" fill="none" xmlns="http://www.w3.org/2000/svg">
    <path d="M9.03322 2H14.9668C15.6526 2 16.2037 2.46066 15.927 2.96598C15.377 3.97026 16.1123 4.99728 14.9555 5.93663C14.0121 6.7027 13.1406 7.41046 12.7871 8C13.1406 8.58954 14.0121 9.2973 14.9555 10.0634C16.1123 11.0027 15.377 12.0297 15.927 13.034C16.2037 13.5393 15.6526 14 14.9668 14H9.03322C8.34742 14 7.7963 13.5393 8.073 13.034C8.62298 12.0297 7.88772 11.0027 9.04446 10.0634C9.98785 9.2973 10.8594 8.58954 11.2129 8C10.8594 7.41046 9.98785 6.7027 9.04446 5.93663C7.88772 4.99728 8.62298 3.97026 8.073 2.96598C7.7963 2.46066 8.34742 2 9.03322 2Z" fill="#2D82D2"/>
    <path d="M11 17C11 16.4477 11.4477 16 12 16C12.5523 16 13 16.4477 13 17V21C13 21.5523 12.5523 22 12 22C11.4477 22 11 21.5523 11 21V17Z" fill="#454E68"/>
    <path d="M8 18C8 17.4477 8.44772 17 9 17C9.55228 17 10 17.4477 10 18V20C10 20.5523 9.55228 21 9 21C8.44772 21 8 20.5523 8 20V18Z" fill="#454E68"/>
    <path d="M4 19C4 19.5523 3.55228 20 3 20C2.44772 20 2 19.5523 2 19C2 18.4477 2.44772 18 3 18C3.55228 18 4 18.4477 4 19Z" fill="#454E68"/>
    <path d="M5 19C5 18.4477 5.44772 18 6 18C6.55228 18 7 18.4477 7 19C7 19.5523 6.55228 20 6 20C5.44772 20 5 19.5523 5 19Z" fill="#454E68"/>
    <path d="M14 19C14 18.4477 14.4477 18 15 18C15.5523 18 16 18.4477 16 19C16 19.5523 15.5523 20 15 20C14.4477 20 14 19.5523 14 19Z" fill="#454E68"/>
    <path d="M17 18C17 17.4477 17.4477 17 18 17C18.5523 17 19 17.4477 19 18V20C19 20.5523 18.5523 21 18 21C17.4477 21 17 20.5523 17 20V18Z" fill="#454E68"/>
    <path d="M20 19C20 18.4477 20.4477 18 21 18C21.5523 18 22 18.4477 22 19C22 19.5523 21.5523 20 21 20C20.4477 20 20 19.5523 20 19Z" fill="#454E68"/>
</svg>
