<svg width="24" height="24" viewBox="0 0 24 24" fill="none" xmlns="http://www.w3.org/2000/svg">
<path d="M3.03322 9H8.96678C9.65258 9 10.2037 9.49905 9.927 10.0465C9.37702 11.1344 10.1123 12.2471 8.95554 13.2647C8.01215 14.0946 7.14059 14.8613 6.78712 15.5C7.14059 16.1387 8.01215 16.9054 8.95554 17.7353C10.1123 18.7529 9.37702 19.8656 9.927 20.9535C10.2037 21.501 9.65258 22 8.96678 22H3.03322C2.34742 22 1.7963 21.501 2.073 20.9535C2.62298 19.8656 1.88772 18.7529 3.04446 17.7353C3.98785 16.9054 4.8594 16.1387 5.21287 15.5C4.8594 14.8613 3.98785 14.0946 3.04446 13.2647C1.88772 12.2471 2.62298 11.1344 2.073 10.0465C1.7963 9.49905 2.34742 9 3.03322 9Z" fill="#2D82D2"/>
<path d="M16.0868 7.91702C15.6505 7.4706 15.266 6.91532 14.9698 6.35922L15.2153 6.11095C15.9776 5.33987 15.9776 4.13631 15.2153 3.36524L14.5014 2.64319C14.485 2.62664 14.4681 2.61063 14.4507 2.5952C14.0015 2.19766 13.4479 2.02722 12.9466 2.00308C12.4494 1.97914 11.9192 2.09417 11.4767 2.37393C11.4094 2.41642 11.3473 2.46641 11.2915 2.52284L10.8751 2.94405C10.1527 3.67468 9.87397 4.6251 10.0523 5.61696L10.0541 5.62739C10.397 7.43044 11.4664 9.35376 13.0093 10.917C13.0219 10.9303 13.0345 10.9435 13.0472 10.9567L16.0868 7.91702Z" fill="#F1B10D"/>
<path d="M16.083 7.91316C16.5294 8.34945 17.0847 8.73399 17.6408 9.03019L17.8891 8.78472C18.6601 8.02235 19.8637 8.02235 20.6348 8.78472L21.3568 9.49861C21.3734 9.51498 21.3894 9.5319 21.4048 9.54934C21.8023 9.99853 21.9728 10.5521 21.9969 11.0534C22.0209 11.5505 21.9058 12.0808 21.6261 12.5233C21.5836 12.5906 21.5336 12.6527 21.4772 12.7085L21.056 13.1249C20.3253 13.8473 19.3749 14.126 18.383 13.9477L18.3726 13.9459C16.5696 13.603 14.6462 12.5336 13.083 10.9907C13.0697 10.9781 13.0565 10.9655 13.0433 10.9528L16.083 7.91316Z" fill="#1F9321"/>
</svg>
