<svg viewBox="0 0 16 16" xmlns="http://www.w3.org/2000/svg">
    <path fill-rule="evenodd" clip-rule="evenodd" d="M0.600098 11.1667C0.600098 7.08579 3.93588 3.75 8.01676 3.75C8.43098 3.75 8.76676 4.08579 8.76676 4.5C8.76676 4.91421 8.43098 5.25 8.01676 5.25C4.76431 5.25 2.1001 7.91421 2.1001 11.1667C2.1001 11.5809 1.76431 11.9167 1.3501 11.9167C0.935884 11.9167 0.600098 11.5809 0.600098 11.1667Z" fill="#FF4444"/>
    <path fill-rule="evenodd" clip-rule="evenodd" d="M2.78974 5.91421C5.67536 3.0286 10.3929 3.0286 13.2785 5.91421C13.5714 6.20711 13.5714 6.68198 13.2785 6.97487C12.9856 7.26777 12.5107 7.26777 12.2178 6.97487C9.918 4.67504 6.15023 4.67504 3.8504 6.97487C3.55751 7.26777 3.08263 7.26777 2.78974 6.97487C2.49685 6.68198 2.49685 6.20711 2.78974 5.91421Z" fill="#FFC107"/>
    <path fill-rule="evenodd" clip-rule="evenodd" d="M15.47 11.1667C15.47 7.08579 12.1342 3.75 8.0533 3.75C7.63909 3.75 7.3033 4.08579 7.3033 4.5C7.3033 4.91421 7.63909 5.25 8.0533 5.25C11.3058 5.25 13.97 7.91421 13.97 11.1667C13.97 11.5809 14.3058 11.9167 14.72 11.9167C15.1342 11.9167 15.47 11.5809 15.47 11.1667Z" fill="#5AAD44"/>
    <path fill-rule="evenodd" clip-rule="evenodd" d="M13.0227 6.02472C13.3125 5.72876 13.3075 5.25391 13.0116 4.96412C12.7156 4.67432 12.2408 4.67932 11.951 4.97528L8.95829 8.03163C8.67479 7.89392 8.35647 7.81668 8.02012 7.81668C6.83271 7.81668 5.87012 8.77927 5.87012 9.96668C5.87012 11.1541 6.83271 12.1167 8.02012 12.1167C9.20753 12.1167 10.1701 11.1541 10.1701 9.96668C10.1701 9.66467 10.1078 9.3772 9.99544 9.11642L13.0227 6.02472ZM7.37012 9.96668C7.37012 9.6077 7.66113 9.31668 8.02012 9.31668C8.3791 9.31668 8.67012 9.6077 8.67012 9.96668C8.67012 10.3257 8.3791 10.6167 8.02012 10.6167C7.66113 10.6167 7.37012 10.3257 7.37012 9.96668Z" fill="#ADADAD"/>
</svg>
