<svg viewBox="0 0 16 16" xmlns="http://www.w3.org/2000/svg">
<g id="wgt-available">
<g id="Subtract">
<path d="M12.3333 6.64609C12.2241 6.6597 12.1129 6.66671 12 6.66671C11.6561 6.66671 11.3274 6.60161 11.0256 6.48307C11.0089 6.54141 11 6.60301 11 6.66671C11 7.0349 11.2985 7.33337 11.6666 7.33337C12.0348 7.33337 12.3333 7.0349 12.3333 6.66671C12.3333 6.65983 12.3333 6.65296 12.3333 6.64609Z" fill="#00314D"/>
<path fill-rule="evenodd" clip-rule="evenodd" d="M9.35906 4.37188C9.47329 5.19061 9.95926 5.89028 10.6409 6.29487C10.6579 6.41638 10.6666 6.54052 10.6666 6.66671C10.6666 8.13947 9.47274 9.33337 7.99998 9.33337C6.52722 9.33337 5.33331 8.13947 5.33331 6.66671C5.33331 5.19395 6.52722 4.00004 7.99998 4.00004C8.49636 4.00004 8.96107 4.13567 9.35906 4.37188ZM9.33331 6.66671C9.33331 7.40309 8.73636 8.00004 7.99998 8.00004C7.2636 8.00004 6.66665 7.40309 6.66665 6.66671C6.66665 5.93033 7.2636 5.33337 7.99998 5.33337C8.73636 5.33337 9.33331 5.93033 9.33331 6.66671Z" fill="#00314D"/>
<path d="M9.42918 3.28902C8.98998 3.10295 8.507 3.00004 7.99998 3.00004C6.20167 3.00004 4.70572 4.29464 4.39328 6.0027C4.73337 6.03302 4.99998 6.31873 4.99998 6.66671C4.99998 7.00768 4.74401 7.28886 4.41375 7.32857C4.45015 7.48073 4.50035 7.63328 4.56715 7.77246C4.73537 8.1229 4.97508 8.33337 5.33331 8.33337C5.51741 8.33337 5.66665 8.48261 5.66665 8.66671C5.66665 8.8508 5.51741 9.00004 5.33331 9.00004C4.62488 9.00004 4.19793 8.54385 3.96614 8.06095C3.73807 7.58581 3.66665 7.03251 3.66665 6.66671C3.66665 4.27347 5.60675 2.33337 7.99998 2.33337C8.59805 2.33337 9.16783 2.45453 9.68609 2.67365C9.57612 2.8651 9.48921 3.07149 9.42918 3.28902Z" fill="#00314D"/>
<path d="M5.50747 11.926C4.88609 12.2885 4.66665 12.6913 4.66665 13C4.66665 13.3682 4.36817 13.6667 3.99998 13.6667C3.63179 13.6667 3.33331 13.3682 3.33331 13C3.33331 12.0202 4.0093 11.2563 4.83564 10.7743C5.67834 10.2827 6.79859 10 7.99998 10C9.20137 10 10.3216 10.2827 11.1643 10.7743C11.9907 11.2563 12.6666 12.0202 12.6666 13C12.6666 13.3682 12.3682 13.6667 12 13.6667C11.6318 13.6667 11.3333 13.3682 11.3333 13C11.3333 12.6913 11.1139 12.2885 10.4925 11.926C9.88748 11.5731 9.00773 11.3334 7.99998 11.3334C6.99223 11.3334 6.11248 11.5731 5.50747 11.926Z" fill="#00314D"/>
</g>
<circle id="Ellipse 2" cx="12" cy="4" r="2" fill="#2BA329"/>
</g>
</svg>
