<svg  viewBox="0 0 16 16" fill="none" xmlns="http://www.w3.org/2000/svg">
    <path fill-rule="evenodd" clip-rule="evenodd" d="M12.6179 9.592C12.4014 9.81694 12.3007 10.1433 12.3517 10.4639L12.6977 12.6156C12.932 14.0729 11.3868 15.1583 10.1026 14.4383L8.42204 13.4961C8.15766 13.3478 7.84211 13.3478 7.5774 13.4962L5.89721 14.438C4.61304 15.1578 3.06791 14.0725 3.30224 12.6152L3.64802 10.4649C3.6997 10.1437 3.59835 9.81686 3.38198 9.592L1.82879 7.97743C0.837964 6.94744 1.41636 5.22445 2.82625 5.00609L4.88464 4.68728C5.17674 4.6418 5.43713 4.44492 5.57267 4.152L6.4049 2.35486C7.03573 0.992624 8.96567 0.992846 9.59618 2.35523L10.428 4.15251C10.5634 4.44505 10.8232 4.64187 11.1164 4.68729L13.1737 5.00599C14.5836 5.22439 15.162 6.94736 14.1712 7.97733L12.6179 9.592Z" fill="#FFC000"/>
</svg>