<svg viewBox="0 0 24 24" xmlns="http://www.w3.org/2000/svg">
<g>
<path d="M21.7071 2.29295C22.0976 2.68348 22.0976 3.31664 21.7071 3.70717L20.4142 5.00003L21.7073 6.29305C22.0978 6.68357 22.0978 7.31674 21.7073 7.70726C21.3167 8.09778 20.6836 8.09778 20.293 7.70726L19 6.41425L17.7071 7.70717C17.3166 8.09769 16.6834 8.09769 16.2929 7.70717C15.9024 7.31664 15.9024 6.68348 16.2929 6.29295L17.5858 5.00003L16.293 3.70726C15.9025 3.31674 15.9025 2.68357 16.293 2.29305C16.6836 1.90252 17.3167 1.90252 17.7073 2.29305L19 3.58582L20.2929 2.29295C20.6834 1.90243 21.3166 1.90243 21.7071 2.29295Z"/>
<path fill-rule="evenodd" clip-rule="evenodd" d="M12 5.00006C13.2378 5.00006 14.3443 5.56233 15.0781 6.4454C14.8835 7.12203 15.0527 7.88118 15.5858 8.41427C15.7099 8.53835 15.8462 8.64271 15.9908 8.72736C15.9969 8.81748 16 8.90841 16 9.00006C16 11.2092 14.2091 13.0001 12 13.0001C9.79086 13.0001 8 11.2092 8 9.00006C8 6.79092 9.79086 5.00006 12 5.00006ZM12 11.0001C13.1046 11.0001 14 10.1046 14 9.00006C14 7.89549 13.1046 7.00006 12 7.00006C10.8954 7.00006 10 7.89549 10 9.00006C10 10.1046 10.8954 11.0001 12 11.0001Z"/>
<path d="M7 19.0001C7 18.5369 7.32916 17.9327 8.26123 17.389C9.16875 16.8596 10.4884 16.5001 12 16.5001C13.5116 16.5001 14.8312 16.8596 15.7388 17.389C16.6708 17.9327 17 18.5369 17 19.0001C17 19.5523 17.4477 20.0001 18 20.0001C18.5523 20.0001 19 19.5523 19 19.0001C19 17.5302 17.986 16.3845 16.7465 15.6614C15.4825 14.924 13.8021 14.5001 12 14.5001C10.1979 14.5001 8.51754 14.924 7.25349 15.6614C6.01399 16.3845 5 17.5302 5 19.0001C5 19.5523 5.44772 20.0001 6 20.0001C6.55228 20.0001 7 19.5523 7 19.0001Z"/>
</g>
</svg>
