<?xml version="1.0" encoding="UTF-8"?><!DOCTYPE svg PUBLIC "-//W3C//DTD SVG 1.1//EN"
  "http://www.w3.org/Graphics/SVG/1.1/DTD/svg11.dtd">
<svg xmlns="http://www.w3.org/2000/svg" xmlns:xlink="http://www.w3.org/1999/xlink">
  <symbol id="plyr-airplay" viewBox="0 0 24 24">
      <path d="M19 4H5C4.44771 4 4 4.44772 4 5V19C4 19.5523 4.44772 20 5 20H6C6.55228 20 7 20.4477 7 21C7 21.5523 6.55228 22 6 22H5C3.34315 22 2 20.6569 2 19V5C2 3.34315 3.34315 2 5 2H19C20.6569 2 22 3.34315 22 5V19C22 20.6569 20.6569 22 19 22H18C17.4477 22 17 21.5523 17 21C17 20.4477 17.4477 20 18 20H19C19.5523 20 20 19.5523 20 19V5C20 4.44771 19.5523 4 19 4Z" />
      <path d="M15.0455 22H8.95451C8.206 22 7.74967 21.2713 8.14638 20.7094L11.1919 16.3964C11.5651 15.8679 12.4349 15.8679 12.8081 16.3964L15.8536 20.7094C16.2503 21.2713 15.794 22 15.0455 22Z" />
  </symbol>
  <symbol id="plyr-captions-off" viewBox="0 0 18 18">
    <path
      d="M1 1c-.6 0-1 .4-1 1v11c0 .6.4 1 1 1h4.6l2.7 2.7c.2.2.4.3.7.3.3 0 .5-.1.7-.3l2.7-2.7H17c.6 0 1-.4 1-1V2c0-.6-.4-1-1-1H1zm4.52 10.15c1.99 0 3.01-1.32 3.28-2.41l-1.29-.39c-.19.66-.78 1.45-1.99 1.45-1.14 0-2.2-.83-2.2-2.34 0-1.61 1.12-2.37 2.18-2.37 1.23 0 1.78.75 1.95 1.43l1.3-.41C8.47 4.96 7.46 3.76 5.5 3.76c-1.9 0-3.61 1.44-3.61 3.7 0 2.26 1.65 3.69 3.63 3.69zm7.57 0c1.99 0 3.01-1.32 3.28-2.41l-1.29-.39c-.19.66-.78 1.45-1.99 1.45-1.14 0-2.2-.83-2.2-2.34 0-1.61 1.12-2.37 2.18-2.37 1.23 0 1.78.75 1.95 1.43l1.3-.41c-.28-1.15-1.29-2.35-3.25-2.35-1.9 0-3.61 1.44-3.61 3.7 0 2.26 1.65 3.69 3.63 3.69z"
      fill-rule="evenodd" fill-opacity=".5"/>
  </symbol>
  <symbol id="plyr-captions-on" viewBox="0 0 18 18">
    <path
      d="M1 1c-.6 0-1 .4-1 1v11c0 .6.4 1 1 1h4.6l2.7 2.7c.2.2.4.3.7.3.3 0 .5-.1.7-.3l2.7-2.7H17c.6 0 1-.4 1-1V2c0-.6-.4-1-1-1H1zm4.52 10.15c1.99 0 3.01-1.32 3.28-2.41l-1.29-.39c-.19.66-.78 1.45-1.99 1.45-1.14 0-2.2-.83-2.2-2.34 0-1.61 1.12-2.37 2.18-2.37 1.23 0 1.78.75 1.95 1.43l1.3-.41C8.47 4.96 7.46 3.76 5.5 3.76c-1.9 0-3.61 1.44-3.61 3.7 0 2.26 1.65 3.69 3.63 3.69zm7.57 0c1.99 0 3.01-1.32 3.28-2.41l-1.29-.39c-.19.66-.78 1.45-1.99 1.45-1.14 0-2.2-.83-2.2-2.34 0-1.61 1.12-2.37 2.18-2.37 1.23 0 1.78.75 1.95 1.43l1.3-.41c-.28-1.15-1.29-2.35-3.25-2.35-1.9 0-3.61 1.44-3.61 3.7 0 2.26 1.65 3.69 3.63 3.69z"
      fill-rule="evenodd"/>
  </symbol>
  <symbol id="plyr-download" viewBox="0 0 24 24">
      <path d="M8 13.2762C8 12.7621 8.44772 12.3453 9 12.3453C9.53415 12.3453 10.0428 12.5745 10.417 12.7902C10.6138 12.9036 10.8098 13.0348 11 13.1774L11 3.93096C11 3.4168 11.4477 3 12 3C12.5523 3 13 3.4168 13 3.93096L13 13.1774C13.1902 13.0348 13.3862 12.9036 13.583 12.7902C13.9572 12.5745 14.4659 12.3453 15 12.3453C15.5523 12.3453 16 12.7621 16 13.2762C16 13.7904 15.5523 14.2072 15 14.2072C15.0085 14.2072 15.0077 14.2074 14.9974 14.2102C14.9662 14.2187 14.8478 14.2511 14.6357 14.3733C14.3862 14.5171 14.1021 14.7305 13.8321 14.9819C13.5621 15.2332 13.3329 15.4977 13.1784 15.73C13.0471 15.9274 13.0124 16.0376 13.0033 16.0667C13.0002 16.0763 13 16.077 13 16.0691C13 16.5832 12.5523 17 12 17C11.4477 17 11 16.5832 11 16.0691C11 16.077 10.9998 16.0763 10.9967 16.0667C10.9876 16.0376 10.9529 15.9274 10.8216 15.73C10.6671 15.4977 10.4379 15.2332 10.1679 14.9819C9.89792 14.7305 9.61382 14.5171 9.36427 14.3733C9.15223 14.2511 9.0338 14.2187 9.0026 14.2102C8.99234 14.2074 8.99154 14.2072 9 14.2072C8.44771 14.2072 8 13.7904 8 13.2762Z" />
      <path d="M9 19C8.44772 19 8 19.4477 8 20C8 20.5523 8.44772 21 9 21H15C15.5523 21 16 20.5523 16 20C16 19.4477 15.5523 19 15 19H9Z" />
  </symbol>
  <symbol id="plyr-enter-fullscreen" viewBox="0 0 24 24">
      <path fill-rule="evenodd" clip-rule="evenodd" d="M17.2806 10.9927C17.6739 11.3861 18.3116 11.3861 18.705 10.9927C19.0983 10.5994 19.0983 9.96164 18.705 9.5683C18.711 9.57433 18.7106 9.5736 18.7055 9.56414C18.6897 9.5354 18.6301 9.42632 18.5726 9.18181C18.5049 8.89405 18.4658 8.52842 18.4658 8.14387C18.4658 7.75931 18.5049 7.39369 18.5726 7.10593C18.6301 6.86141 18.6897 6.75235 18.7054 6.72362C18.7106 6.71413 18.711 6.7134 18.705 6.71944C19.0983 6.32609 19.0983 5.68839 18.7049 5.29506C18.3116 4.90173 17.6739 4.90171 17.2806 5.29501C17.2866 5.28897 17.2859 5.28937 17.2764 5.29455C17.2477 5.31026 17.1386 5.36986 16.8941 5.4274C16.6063 5.4951 16.2407 5.53416 15.8561 5.53416C15.4716 5.53416 15.1059 5.4951 14.8182 5.4274C14.5737 5.36986 14.4646 5.31026 14.4359 5.29456C14.4264 5.28937 14.4257 5.28897 14.4317 5.29501C14.0384 4.90166 13.4006 4.90166 13.0073 5.29501C12.6139 5.68835 12.6139 6.32609 13.0073 6.71944C13.3877 7.09987 13.9253 7.28676 14.3568 7.38829C14.5838 7.44169 14.8237 7.48095 15.0683 7.50725L12.295 10.2806C11.9017 10.6739 11.9017 11.3116 12.295 11.705C12.6884 12.0983 13.3261 12.0983 13.7194 11.705L16.4927 8.93168C16.519 9.17625 16.5583 9.41624 16.6117 9.64319C16.7132 10.0747 16.9001 10.6123 17.2806 10.9927ZM6.71944 13.0073C6.32609 12.6139 5.68835 12.6139 5.29501 13.0073C4.90166 13.4006 4.90166 14.0384 5.29501 14.4317C5.28898 14.4257 5.28937 14.4264 5.29455 14.4359C5.31025 14.4646 5.36986 14.5737 5.42739 14.8182C5.4951 15.1059 5.53416 15.4716 5.53416 15.8561C5.53416 16.2407 5.4951 16.6063 5.42739 16.8941C5.36986 17.1386 5.31026 17.2476 5.29456 17.2764C5.28937 17.2859 5.28897 17.2866 5.29501 17.2806C4.90171 17.6739 4.90173 18.3116 5.29506 18.7049C5.68839 19.0983 6.32609 19.0983 6.71944 18.705C6.7134 18.711 6.71413 18.7106 6.72361 18.7054C6.75235 18.6897 6.86141 18.6301 7.10593 18.5726C7.39368 18.5049 7.75931 18.4658 8.14387 18.4658C8.52842 18.4658 8.89405 18.5049 9.18181 18.5726C9.42632 18.6301 9.53538 18.6897 9.56411 18.7054C9.5736 18.7106 9.57433 18.711 9.5683 18.705C9.96164 19.0983 10.5994 19.0983 10.9927 18.705C11.3861 18.3116 11.3861 17.6739 10.9927 17.2806C10.6123 16.9001 10.0747 16.7132 9.64319 16.6117C9.41624 16.5583 9.17625 16.519 8.93168 16.4927L11.705 13.7194C12.0983 13.3261 12.0983 12.6884 11.705 12.295C11.3116 11.9017 10.6739 11.9017 10.2806 12.295L7.50725 15.0683C7.48095 14.8237 7.44169 14.5838 7.38829 14.3568C7.28676 13.9253 7.09987 13.3877 6.71944 13.0073Z" />
  </symbol>
  <symbol id="plyr-exit-fullscreen" viewBox="0 0 24 24">
      <path d="M12.295 6.00727C12.6884 5.61393 13.3261 5.61393 13.7194 6.00727C14.0999 6.3877 14.2868 6.92531 14.3883 7.35681C14.4417 7.58376 14.481 7.82375 14.5073 8.06832L17.2806 5.29501C17.6739 4.90166 18.3116 4.90166 18.705 5.29501C19.0983 5.68835 19.0983 6.32609 18.705 6.71944L15.9317 9.49275C16.1763 9.51905 16.4162 9.55831 16.6432 9.61171C17.0747 9.71323 17.6123 9.90013 17.9927 10.2806C18.3861 10.6739 18.3861 11.3116 17.9927 11.705C17.5994 12.0983 16.9616 12.0983 16.5683 11.705C16.5743 11.711 16.5736 11.7106 16.5641 11.7054C16.5354 11.6897 16.4263 11.6301 16.1818 11.5726C15.8941 11.5049 15.5284 11.4658 15.1439 11.4658C14.7593 11.4658 14.3937 11.5049 14.1059 11.5726C13.8614 11.6301 13.7523 11.6897 13.7236 11.7054C13.7141 11.7106 13.7134 11.711 13.7194 11.705C13.3261 12.0983 12.6884 12.0983 12.2951 11.7049C11.9017 11.3116 11.9017 10.6739 12.295 10.2806C12.289 10.2866 12.2894 10.2859 12.2946 10.2764C12.3103 10.2476 12.3699 10.1386 12.4274 9.89407C12.4951 9.60631 12.5342 9.24069 12.5342 8.85613C12.5342 8.47158 12.4951 8.10595 12.4274 7.81819C12.3699 7.57368 12.3103 7.4646 12.2945 7.43586C12.2894 7.4264 12.289 7.42567 12.295 7.4317C11.9017 7.03836 11.9017 6.40062 12.295 6.00727Z" />
      <path d="M11.705 17.9927C11.3116 18.3861 10.6739 18.3861 10.2806 17.9927C9.90013 17.6123 9.71324 17.0747 9.61171 16.6432C9.55831 16.4162 9.51905 16.1763 9.49275 15.9317L6.71944 18.705C6.32609 19.0983 5.68835 19.0983 5.29501 18.705C4.90166 18.3116 4.90166 17.6739 5.29501 17.2806L8.06832 14.5073C7.82375 14.481 7.58376 14.4417 7.35681 14.3883C6.92531 14.2868 6.3877 14.0999 6.00728 13.7194C5.61393 13.3261 5.61393 12.6884 6.00728 12.295C6.40062 11.9017 7.03836 11.9017 7.4317 12.295C7.42567 12.289 7.4264 12.2894 7.43588 12.2946C7.46462 12.3103 7.57368 12.3699 7.81819 12.4274C8.10595 12.4951 8.47158 12.5342 8.85613 12.5342C9.24069 12.5342 9.60632 12.4951 9.89407 12.4274C10.1386 12.3699 10.2477 12.3103 10.2764 12.2946C10.2859 12.2894 10.2866 12.289 10.2806 12.295C10.6739 11.9017 11.3116 11.9017 11.7049 12.2951C12.0983 12.6884 12.0983 13.3261 11.705 13.7194C11.711 13.7134 11.7106 13.7141 11.7054 13.7236C11.6897 13.7524 11.6301 13.8614 11.5726 14.1059C11.5049 14.3937 11.4658 14.7593 11.4658 15.1439C11.4658 15.5284 11.5049 15.8941 11.5726 16.1818C11.6301 16.4263 11.6898 16.5354 11.7055 16.5641C11.7106 16.5736 11.711 16.5743 11.705 16.5683C12.0983 16.9616 12.0983 17.5994 11.705 17.9927Z" />
  </symbol>
  <symbol id="plyr-fast-forward" viewBox="0 0 24 24">
      <path d="M5 8.95451V15.0455C5 15.794 5.85702 16.2503 6.51773 15.8536L11.5899 12.8081C12.2116 12.4349 12.2116 11.5651 11.5899 11.1919L6.51773 8.14638C5.85702 7.74967 5 8.206 5 8.95451Z" />
      <path d="M11.9439 8.95451V15.0455C11.9439 15.794 12.8009 16.2503 13.4616 15.8536L18.5338 12.8081C19.1554 12.4349 19.1554 11.5651 18.5338 11.1919L13.4616 8.14638C12.8009 7.74967 11.9439 8.206 11.9439 8.95451Z" />
  </symbol>
  <symbol id="plyr-logo-vimeo" viewBox="0 0 18 18">
    <path
      d="M17 5.3c-.1 1.6-1.2 3.7-3.3 6.4-2.2 2.8-4 4.2-5.5 4.2-.9 0-1.7-.9-2.4-2.6C5 10.9 4.4 6 3 6c-.1 0-.5.3-1.2.8l-.8-1c.8-.7 3.5-3.4 4.7-3.5 1.2-.1 2 .7 2.3 2.5.3 2 .8 6.1 1.8 6.1.9 0 2.5-3.4 2.6-4 .1-.9-.3-1.9-2.3-1.1.8-2.6 2.3-3.8 4.5-3.8 1.7.1 2.5 1.2 2.4 3.3z"/>
  </symbol>
  <symbol id="plyr-logo-youtube" viewBox="0 0 18 18">
    <path
      d="M16.8 5.8c-.2-1.3-.8-2.2-2.2-2.4C12.4 3 9 3 9 3s-3.4 0-5.6.4C2 3.6 1.3 4.5 1.2 5.8 1 7.1 1 9 1 9s0 1.9.2 3.2c.2 1.3.8 2.2 2.2 2.4C5.6 15 9 15 9 15s3.4 0 5.6-.4c1.4-.3 2-1.1 2.2-2.4.2-1.3.2-3.2.2-3.2s0-1.9-.2-3.2zM7 12V6l5 3-5 3z"/>
  </symbol>
  <symbol id="plyr-muted" viewBox="0 0 24 24">
      <path fill-rule="evenodd" clip-rule="evenodd" d="M13.4034 3.28448C12.4886 2.83609 11.2637 2.87318 10.3469 3.71828L6.69663 6.75992H4.83333C4.12012 6.75992 3.38324 6.9999 2.81818 7.55384C2.25131 8.10955 2 8.84172 2 9.55715V14.4867C2 15.2022 2.25131 15.9343 2.81818 16.49C3.38324 17.044 4.12012 17.284 4.83333 17.284H6.69699L10.3891 20.3605L10.3928 20.3635L10.3986 20.3684L10.4024 20.3715C12.136 21.7877 15 20.6809 15 18.1837V5.85983C15 4.69493 14.3257 3.73657 13.4034 3.28448ZM11.6945 5.19617C11.9307 4.97334 12.249 4.94599 12.5232 5.08035C12.7973 5.21474 13 5.49873 13 5.85983V18.1837C13 18.8682 12.1943 19.2518 11.6686 18.8233L11.6678 18.8226L7.42104 15.284H4.83333C4.56087 15.284 4.35423 15.1951 4.21827 15.0618C4.0841 14.9303 4 14.7376 4 14.4867V9.55715C4 9.30632 4.08411 9.11356 4.21827 8.98204C4.35423 8.84875 4.56087 8.75992 4.83333 8.75992H7.42068L11.6721 5.21735L11.6945 5.19617Z"/>
      <path d="M21.5 9.58579C21.1095 9.19526 20.4763 9.19526 20.0858 9.58579L19.2929 10.3787L18.5 9.58579C18.1095 9.19526 17.4763 9.19526 17.0858 9.58579C16.6953 9.97631 16.6953 10.6095 17.0858 11L17.8787 11.7929L17.0858 12.5858C16.6953 12.9763 16.6953 13.6095 17.0858 14C17.4763 14.3905 18.1095 14.3905 18.5 14L19.2929 13.2071L20.0858 14C20.4763 14.3905 21.1095 14.3905 21.5 14C21.8905 13.6095 21.8905 12.9763 21.5 12.5858L20.7071 11.7929L21.5 11C21.8905 10.6095 21.8905 9.97631 21.5 9.58579Z"/>
  </symbol>
  <symbol id="plyr-pause" viewBox="0 0 24 24">
      <path fill-rule="evenodd" clip-rule="evenodd" d="M2 12C2 6.45029 6.45029 2 12 2C17.5497 2 22 6.45029 22 12C22 17.5497 17.5497 22 12 22C6.45029 22 2 17.5497 2 12ZM12 4C7.55486 4 4 7.55486 4 12C4 16.4451 7.55486 20 12 20C16.4451 20 20 16.4451 20 12C20 7.55486 16.4451 4 12 4ZM10 8C10.5523 8 11 8.44772 11 9V15C11 15.5523 10.5523 16 10 16C9.44772 16 9 15.5523 9 15V9C9 8.44772 9.44772 8 10 8ZM15 9C15 8.44772 14.5523 8 14 8C13.4477 8 13 8.44772 13 9V15C13 15.5523 13.4477 16 14 16C14.5523 16 15 15.5523 15 15V9Z"/>
  </symbol>
  <symbol id="plyr-pip" viewBox="0 0 24 24">
      <path fill-rule="evenodd" clip-rule="evenodd" d="M11 2C11.5523 2 12 2.44772 12 3C12 3.55228 11.5523 4 11 4H5C4.44771 4 4 4.44772 4 5V19C4 19.5523 4.44772 20 5 20H19C19.5523 20 20 19.5523 20 19V13C20 12.4477 20.4477 12 21 12C21.5523 12 22 12.4477 22 13V19C22 20.6569 20.6569 22 19 22H5C3.34315 22 2 20.6569 2 19V5C2 3.34315 3.34315 2 5 2H11ZM20.705 8.99273C20.3116 9.38607 19.6739 9.38607 19.2806 8.99273C18.9001 8.6123 18.7132 8.07469 18.6117 7.64319C18.5583 7.41624 18.519 7.17625 18.4927 6.93168L15.7194 9.70499C15.3261 10.0983 14.6884 10.0983 14.295 9.70499C13.9017 9.31165 13.9017 8.67391 14.295 8.28056L17.0683 5.50725C16.8237 5.48095 16.5838 5.44169 16.3568 5.38829C15.9253 5.28676 15.3877 5.09987 15.0073 4.71944C14.6139 4.32609 14.6139 3.68835 15.0073 3.29501C15.4006 2.90166 16.0384 2.90166 16.4317 3.29501C16.4257 3.28897 16.4264 3.28937 16.4359 3.29456C16.4646 3.31026 16.5737 3.36986 16.8182 3.4274C17.1059 3.4951 17.4716 3.53416 17.8561 3.53416C18.2407 3.53416 18.6063 3.4951 18.8941 3.4274C19.1386 3.36986 19.2477 3.31026 19.2764 3.29455C19.2859 3.28937 19.2866 3.28897 19.2806 3.29501C19.6739 2.90171 20.3116 2.90173 20.7049 3.29506C21.0983 3.68839 21.0983 4.32609 20.705 4.71944C20.711 4.7134 20.7106 4.71413 20.7054 4.72362C20.6897 4.75235 20.6301 4.86141 20.5726 5.10593C20.5049 5.39369 20.4658 5.75931 20.4658 6.14387C20.4658 6.52842 20.5049 6.89405 20.5726 7.18181C20.6301 7.42632 20.6898 7.5354 20.7055 7.56414C20.7106 7.5736 20.711 7.57433 20.705 7.5683C21.0983 7.96164 21.0983 8.59938 20.705 8.99273Z" />
  </symbol>
  <symbol id="plyr-play" viewBox="0 0 24 24">
      <path d="M9 8.80433V15.1958C9 15.9813 9.86395 16.4601 10.53 16.0438L15.6432 12.8481C16.2699 12.4564 16.2699 11.5438 15.6432 11.1521L10.53 7.95634C9.86395 7.54005 9 8.0189 9 8.80433Z"/>
      <path fill-rule="evenodd" clip-rule="evenodd" d="M12 2C6.45029 2 2 6.45029 2 12C2 17.5497 6.45029 22 12 22C17.5497 22 22 17.5497 22 12C22 6.45029 17.5497 2 12 2ZM4 12C4 7.55486 7.55486 4 12 4C16.4451 4 20 7.55486 20 12C20 16.4451 16.4451 20 12 20C7.55486 20 4 16.4451 4 12Z"/>
  </symbol>
  <symbol id="plyr-restart" viewBox="0 0 24 24">
      <path fill-rule="evenodd" clip-rule="evenodd" d="M12.4777 20.5223C8.39738 20.5223 5.03054 17.4676 4.53932 13.5204C4.47112 12.9723 4.02996 12.5223 3.47768 12.5223C2.92539 12.5223 2.47243 12.9713 2.52691 13.5209C3.02799 18.5749 7.29185 22.5223 12.4777 22.5223C18.0005 22.5223 22.4777 18.0452 22.4777 12.5223C22.4778 12.5047 22.4777 12.487 22.4777 12.4693C22.4777 7.63284 19.1289 3.63494 14.2003 2.65221L14.2832 2.0995C14.337 1.74065 14.0026 1.44506 13.6508 1.54062L9.91864 2.55458C9.49991 2.66834 9.41105 3.22006 9.77308 3.45833L13.0314 5.60282C13.3394 5.80554 13.7548 5.6214 13.8093 5.25794L13.9018 4.64187C17.8887 5.47743 20.458 8.68844 20.458 12.4693C20.458 14.727 19.5227 16.7673 18.0166 18.2276C17.9386 18.3032 17.8722 18.3879 17.8184 18.4787C16.4022 19.7494 14.5302 20.5223 12.4777 20.5223Z" />
  </symbol>
  <symbol id="plyr-rewind" viewBox="0 0 24 24">
      <path d="M19 15.0455L19 8.95451C19 8.206 18.143 7.74967 17.4823 8.14638L12.4101 11.1919C11.7884 11.5651 11.7884 12.4349 12.4101 12.8081L17.4823 15.8536C18.143 16.2503 19 15.794 19 15.0455Z"/>
      <path d="M12.0561 15.0455L12.0561 8.95451C12.0561 8.206 11.1991 7.74967 10.5384 8.14638L5.46623 11.1919C4.84459 11.5651 4.84459 12.4349 5.46623 12.8081L10.5384 15.8536C11.1991 16.2503 12.0561 15.794 12.0561 15.0455Z" />
</symbol>
  <symbol id="plyr-settings" viewBox="0 0 24 24">
      <path fill-rule="evenodd" clip-rule="evenodd" d="M11.9995 2C11.3003 2 10.6297 2.27776 10.1353 2.77217C9.64091 3.26659 9.36315 3.93716 9.36315 4.63636V4.77277C9.36263 4.84057 9.34242 4.90677 9.30497 4.96332C9.28534 4.99296 9.26143 5.01927 9.23415 5.04148C9.18006 5.05517 9.12706 5.0734 9.07575 5.09605C9.01177 5.12428 8.9408 5.13271 8.87198 5.12023C8.80439 5.10797 8.74193 5.0761 8.69236 5.02863L8.64883 4.9851C8.40398 4.73998 8.11322 4.54553 7.79317 4.41286C7.47312 4.28018 7.13006 4.21189 6.7836 4.21189C6.43714 4.21189 6.09408 4.28018 5.77403 4.41286C5.45415 4.54546 5.16353 4.73978 4.91877 4.98471C4.67383 5.22948 4.47952 5.5201 4.34691 5.83998C4.21424 6.16002 4.14595 6.50309 4.14595 6.84955C4.14595 7.196 4.21424 7.53907 4.34691 7.85912C4.47959 8.17916 4.67404 8.46993 4.91916 8.71477L4.96269 8.7583C5.01016 8.80787 5.04203 8.87033 5.05429 8.93793C5.06676 9.00674 5.05834 9.07771 5.0301 9.14169C5.0216 9.16096 5.0137 9.1805 5.00643 9.20027C4.98219 9.26619 4.93868 9.32328 4.88155 9.36414C4.82657 9.40346 4.76143 9.42599 4.69401 9.42909H4.63588C3.93667 9.42909 3.2661 9.70685 2.77168 10.2013C2.27727 10.6957 1.99951 11.3662 1.99951 12.0655C1.99951 12.7647 2.27727 13.4352 2.77168 13.9296C3.2661 14.4241 3.93667 14.7018 4.63588 14.7018H4.7724C4.84016 14.7024 4.90632 14.7226 4.96283 14.76C5.01974 14.7977 5.06434 14.8512 5.09123 14.914L5.09556 14.9238C5.12379 14.9877 5.13222 15.0587 5.11974 15.1275C5.10749 15.1951 5.07562 15.2576 5.02815 15.3071L4.98423 15.3511C4.73929 15.5958 4.54497 15.8865 4.41237 16.2063C4.2797 16.5264 4.21141 16.8694 4.21141 17.2159C4.21141 17.5624 4.2797 17.9054 4.41237 18.2255C4.5449 18.5452 4.73908 18.8357 4.98383 19.0804C5.22868 19.3255 5.51944 19.5199 5.83949 19.6526C6.15954 19.7853 6.5026 19.8536 6.84906 19.8536C7.19552 19.8536 7.53858 19.7853 7.85863 19.6526C8.17851 19.52 8.46952 19.3253 8.71428 19.0804L8.75781 19.0368C8.80738 18.9894 8.86984 18.9575 8.93744 18.9452C9.00625 18.9327 9.07722 18.9412 9.1412 18.9694C9.16047 18.9779 9.18001 18.9858 9.19979 18.9931C9.2657 19.0173 9.32279 19.0608 9.36365 19.118C9.40298 19.1729 9.42551 19.2381 9.4286 19.3055V19.3636C9.4286 20.0628 9.70636 20.7334 10.2008 21.2278C10.6797 21.7068 11.324 21.9824 11.9995 21.9992C12.675 21.9824 13.3193 21.7068 13.7982 21.2278C14.2927 20.7334 14.5704 20.0628 14.5704 19.3636V19.3055C14.5735 19.2381 14.596 19.1729 14.6354 19.118C14.6762 19.0608 14.7333 19.0173 14.7992 18.9931C14.819 18.9858 14.8385 18.9779 14.8578 18.9694C14.9218 18.9412 14.9928 18.9327 15.0616 18.9452C15.1292 18.9575 15.1916 18.9894 15.2412 19.0368L15.2847 19.0804C15.5295 19.3253 15.8205 19.52 16.1404 19.6526C16.4604 19.7853 16.8035 19.8536 17.15 19.8536C17.4964 19.8536 17.8395 19.7853 18.1595 19.6526C18.4796 19.5199 18.7703 19.3255 19.0152 19.0804C19.2599 18.8357 19.4541 18.5452 19.5867 18.2255C19.7193 17.9054 19.7876 17.5624 19.7876 17.2159C19.7876 16.8694 19.7193 16.5264 19.5867 16.2063C19.4541 15.8865 19.2597 15.5958 19.0148 15.3511L18.9709 15.3071C18.9234 15.2576 18.8915 15.1951 18.8793 15.1275C18.8668 15.0587 18.8752 14.9877 18.9035 14.9238L18.9078 14.914C18.9347 14.8512 18.9793 14.7977 19.0362 14.76C19.0927 14.7226 19.1589 14.7024 19.2266 14.7018H19.3631C20.0624 14.7018 20.7329 14.4241 21.2273 13.9296C21.7218 13.4352 21.9995 12.7647 21.9995 12.0655C21.9995 11.3662 21.7218 10.6957 21.2273 10.2013C20.7329 9.70685 20.0624 9.42909 19.3631 9.42909H19.305C19.2376 9.42599 19.1725 9.40346 19.1175 9.36414C19.0603 9.32328 19.0168 9.26619 18.9926 9.20027C18.9853 9.1805 18.9774 9.16096 18.9689 9.14169C18.9407 9.07771 18.9323 9.00674 18.9447 8.93793C18.957 8.87033 18.9889 8.80787 19.0363 8.7583L19.0799 8.71477C19.325 8.46993 19.5194 8.17916 19.6521 7.85912C19.7848 7.53907 19.8531 7.196 19.8531 6.84955C19.8531 6.50309 19.7848 6.16002 19.6521 5.83998C19.5195 5.5201 19.3252 5.22948 19.0803 4.98471C18.8355 4.73978 18.5449 4.54546 18.225 4.41286C17.9049 4.28018 17.5619 4.21189 17.2154 4.21189C16.869 4.21189 16.5259 4.28018 16.2059 4.41286C15.8858 4.54553 15.595 4.73998 15.3502 4.9851L15.3067 5.02863C15.2571 5.0761 15.1946 5.10797 15.127 5.12023C15.0582 5.13271 14.9873 5.12428 14.9233 5.09605C14.872 5.0734 14.819 5.05517 14.7649 5.04148C14.7376 5.01927 14.7137 4.99296 14.6941 4.96332C14.6566 4.90677 14.6364 4.84057 14.6359 4.77277V4.63636C14.6359 3.93716 14.3581 3.26659 13.8637 2.77217C13.3693 2.27776 12.6987 2 11.9995 2ZM12.384 19.8136C12.2802 19.9174 12.1442 19.9817 11.9995 19.9966C11.8548 19.9817 11.7188 19.9174 11.615 19.8136C11.4956 19.6943 11.4286 19.5324 11.4286 19.3636V19.29L11.4283 19.2666C11.4173 18.7952 11.2647 18.338 10.9904 17.9545C10.7222 17.5795 10.3498 17.2919 9.91972 17.1271C9.49776 16.9476 9.03226 16.8954 8.58062 16.9773C8.1186 17.0611 7.69223 17.2813 7.35657 17.6096L7.29928 17.6669C7.24019 17.7261 7.17 17.773 7.09275 17.8051C7.01549 17.8371 6.93268 17.8536 6.84906 17.8536C6.76543 17.8536 6.68262 17.8371 6.60537 17.8051C6.52811 17.773 6.45793 17.7261 6.39883 17.6669L6.39804 17.6661C6.33888 17.607 6.29194 17.5369 6.25991 17.4596C6.22789 17.3823 6.21141 17.2995 6.21141 17.2159C6.21141 17.1323 6.22789 17.0495 6.25991 16.9722C6.29194 16.895 6.33927 16.8244 6.39843 16.7653L6.44757 16.7162L6.45528 16.7084C6.78362 16.3727 7.00388 15.9464 7.08765 15.4843C7.1711 15.0241 7.1153 14.5495 6.92746 14.1212C6.7467 13.702 6.44776 13.3446 6.06713 13.0925C5.68502 12.8395 5.23726 12.7036 4.77895 12.7018H4.63588C4.4671 12.7018 4.30524 12.6348 4.1859 12.5154C4.06656 12.3961 3.99951 12.2342 3.99951 12.0655C3.99951 11.8967 4.06656 11.7348 4.1859 11.6155C4.30524 11.4961 4.4671 11.4291 4.63588 11.4291H4.70951L4.7329 11.4288C5.20431 11.4178 5.66151 11.2652 6.04505 10.9909C6.42002 10.7227 6.70763 10.3503 6.87239 9.92022C7.05189 9.49826 7.10409 9.03276 7.0222 8.58111C6.93843 8.11909 6.71821 7.69272 6.38987 7.35706L6.33259 7.29977C6.27342 7.24067 6.22648 7.17049 6.19446 7.09323C6.16244 7.01598 6.14595 6.93317 6.14595 6.84955C6.14595 6.76592 6.16244 6.68311 6.19446 6.60586C6.22648 6.5286 6.27342 6.45842 6.33259 6.39932L6.33338 6.39853C6.39248 6.33937 6.46266 6.29243 6.53991 6.2604C6.61717 6.22838 6.69998 6.21189 6.7836 6.21189C6.86723 6.21189 6.95004 6.22838 7.02729 6.2604C7.10455 6.29243 7.17512 6.33976 7.23422 6.39892L7.28327 6.44806L7.29116 6.45577C7.62682 6.78411 8.05315 7.00437 8.51517 7.08814C8.91025 7.15978 9.31594 7.1288 9.69381 6.99977C9.77795 6.98711 9.86032 6.96373 9.9389 6.93005C10.3601 6.74951 10.7194 6.44973 10.9725 6.06762C11.2255 5.68551 11.3613 5.23775 11.3631 4.77944V4.63636C11.3631 4.46759 11.4302 4.30573 11.5495 4.18639C11.6689 4.06705 11.8307 4 11.9995 4C12.1683 4 12.3301 4.06705 12.4495 4.18639C12.5688 4.30573 12.6359 4.46759 12.6359 4.63636V4.77944C12.6377 5.23775 12.7735 5.68551 13.0266 6.06762C13.2796 6.44973 13.6389 6.74951 14.0601 6.93005C14.1387 6.96373 14.2211 6.98711 14.3052 6.99977C14.6831 7.1288 15.0888 7.15978 15.4839 7.08814C15.9459 7.00437 16.3722 6.78411 16.7079 6.45577L16.7158 6.44806L16.7648 6.39892C16.8239 6.33976 16.8945 6.29243 16.9717 6.2604C17.049 6.22838 17.1318 6.21189 17.2154 6.21189C17.299 6.21189 17.3819 6.22838 17.4591 6.2604C17.5364 6.29243 17.6065 6.33937 17.6656 6.39853L17.6664 6.39932C17.7256 6.45842 17.7725 6.5286 17.8046 6.60586C17.8366 6.68311 17.8531 6.76592 17.8531 6.84955C17.8531 6.93317 17.8366 7.01598 17.8046 7.09323C17.7725 7.17049 17.7256 7.24067 17.6664 7.29977L17.6092 7.35706C17.2808 7.69272 17.0606 8.11909 16.9768 8.58111C16.8949 9.03276 16.9471 9.49826 17.1266 9.92022C17.2914 10.3503 17.579 10.7227 17.954 10.9909C18.3375 11.2652 18.7947 11.4178 19.2661 11.4288L19.2895 11.4291H19.3631C19.5319 11.4291 19.6938 11.4961 19.8131 11.6155C19.9325 11.7348 19.9995 11.8967 19.9995 12.0655C19.9995 12.2342 19.9325 12.3961 19.8131 12.5154C19.6938 12.6348 19.5319 12.7018 19.3631 12.7018H19.2201C18.7618 12.7036 18.314 12.8395 17.9319 13.0925C17.5513 13.3446 17.2523 13.702 17.0716 14.1212C16.8837 14.5495 16.8279 15.0241 16.9114 15.4843C16.9951 15.9464 17.2154 16.3727 17.5437 16.7084L17.5515 16.7162L17.6006 16.7653C17.6598 16.8244 17.7071 16.895 17.7391 16.9722C17.7711 17.0495 17.7876 17.1323 17.7876 17.2159C17.7876 17.2995 17.7711 17.3823 17.7391 17.4596C17.7071 17.5369 17.6601 17.607 17.601 17.6661L17.6002 17.6669C17.5411 17.7261 17.4709 17.773 17.3937 17.8051C17.3164 17.8371 17.2336 17.8536 17.15 17.8536C17.0663 17.8536 16.9835 17.8371 16.9063 17.8051C16.829 17.773 16.7588 17.7261 16.6997 17.6669L16.6425 17.6096C16.3068 17.2813 15.8804 17.0611 15.4184 16.9773C14.9668 16.8954 14.5013 16.9476 14.0793 17.1271C13.6492 17.2919 13.2768 17.5795 13.0086 17.9545C12.7343 18.338 12.5817 18.7952 12.5707 19.2666L12.5704 19.29V19.3636C12.5704 19.5324 12.5034 19.6943 12.384 19.8136ZM10.9995 12C10.9995 11.4477 11.4472 11 11.9995 11C12.5518 11 12.9995 11.4477 12.9995 12C12.9995 12.5523 12.5518 13 11.9995 13C11.4472 13 10.9995 12.5523 10.9995 12ZM11.9995 9C10.3427 9 8.99951 10.3431 8.99951 12C8.99951 13.6569 10.3427 15 11.9995 15C13.6564 15 14.9995 13.6569 14.9995 12C14.9995 10.3431 13.6564 9 11.9995 9Z"/>
  </symbol>
  <symbol id="plyr-volume" viewBox="0 0 24 24">
      <path fill-rule="evenodd" clip-rule="evenodd" d="M10.3469 3.71828C11.2637 2.87318 12.4886 2.83609 13.4034 3.28448C14.3257 3.73657 15 4.69493 15 5.85983V18.1837C15 20.6809 12.136 21.7877 10.4024 20.3715L10.3986 20.3684L10.3928 20.3635L10.3891 20.3605L6.69699 17.284H4.83333C4.12012 17.284 3.38324 17.044 2.81818 16.49C2.25131 15.9343 2 15.2022 2 14.4867V9.55715C2 8.84172 2.25131 8.10955 2.81818 7.55384C3.38324 6.9999 4.12012 6.75992 4.83333 6.75992H6.69663L10.3469 3.71828ZM12.5232 5.08035C12.249 4.94599 11.9307 4.97334 11.6945 5.19617L11.6721 5.21735L7.42068 8.75992H4.83333C4.56087 8.75992 4.35423 8.84875 4.21827 8.98204C4.08411 9.11356 4 9.30632 4 9.55715V14.4867C4 14.7376 4.0841 14.9303 4.21827 15.0618C4.35423 15.1951 4.56087 15.284 4.83333 15.284H7.42104L11.6678 18.8226L11.6686 18.8233C12.1943 19.2518 13 18.8682 13 18.1837V5.85983C13 5.49873 12.7973 5.21474 12.5232 5.08035ZM18.4472 6.65505C17.9532 6.40806 17.3525 6.60828 17.1055 7.10226C16.8621 7.58924 17.0532 8.17991 17.5319 8.43319C17.5345 8.43473 17.539 8.43746 17.5452 8.44143C17.5675 8.45578 17.6121 8.48631 17.6723 8.53645C17.792 8.63621 17.9755 8.81556 18.1679 9.10418C18.1985 9.15006 18.2296 9.19552 18.2609 9.24129C18.6169 9.76205 19 10.3224 19 12C19 13.6776 18.6169 14.238 18.2609 14.7587C18.2296 14.8045 18.1985 14.8499 18.1679 14.8958C17.9755 15.1844 17.792 15.3638 17.6723 15.4636C17.6121 15.5137 17.5675 15.5442 17.5452 15.5586C17.539 15.5625 17.5345 15.5653 17.5319 15.5668C17.0532 15.8201 16.8621 16.4108 17.1055 16.8977C17.3525 17.3917 17.9532 17.5919 18.4472 17.345L18.4486 17.3442L18.4501 17.3435L18.4532 17.3419L18.4599 17.3385L18.4756 17.3303C18.487 17.3242 18.5003 17.3169 18.5154 17.3083C18.5457 17.2912 18.5831 17.2689 18.6267 17.2409C18.7137 17.185 18.8253 17.1061 18.9527 17C19.2079 16.7873 19.5244 16.4666 19.832 16.0052C20.4534 15.0732 21 14.175 21 12C21 9.82502 20.4534 8.92677 19.832 7.99477C19.5244 7.53339 19.2079 7.21274 18.9527 7C18.8253 6.89389 18.7137 6.81505 18.6267 6.75908C18.5831 6.73109 18.5457 6.7088 18.5154 6.69166C18.5003 6.68309 18.487 6.6758 18.4756 6.66972L18.4599 6.6615L18.4532 6.65806L18.4472 6.65505Z"/>
  </symbol>
</svg>
