<svg width="131" height="130" viewBox="0 0 131 130" fill="none" xmlns="http://www.w3.org/2000/svg">
<path d="M74.4262 108.826C48.7408 110.471 7.02874 95.2734 22.5903 70.8137C34.646 51.861 24.8082 38.4154 18.5836 32.6938C7.60111 22.6095 19.0844 -3.03025 70.9204 0.295412C118.285 3.29923 135.849 34.8751 129.875 63.2326C124.509 88.6221 103.904 106.931 74.4262 108.826Z" fill="#DFDFDF"/>
<path d="M47.1221 79.7562L37.5098 89.3647L40.6464 92.5002L50.2587 82.8916L47.1221 79.7562Z" fill="#94979B"/>
<path d="M36.0714 86.4074L0 122.465L7.53806 130L43.6095 93.9425L36.0714 86.4074Z" fill="#94979B"/>
<path d="M36.0531 86.4259L33.5488 88.9292L41.0869 96.4643L43.5911 93.9611L36.0531 86.4259Z" fill="white"/>
<path d="M74.1038 14.4922C51.5664 14.4922 33.2861 32.7654 33.2861 55.2941C33.2861 77.8228 51.5664 96.096 74.1038 96.096C96.6412 96.096 114.921 77.8228 114.921 55.2941C114.921 32.7654 96.6412 14.4922 74.1038 14.4922ZM74.1038 88.6222C55.6804 88.6222 40.7628 73.7104 40.7628 55.2941C40.7628 36.8778 55.6804 21.966 74.1038 21.966C92.5272 21.966 107.445 36.8778 107.445 55.2941C107.445 73.7104 92.4914 88.6222 74.1038 88.6222Z" fill="white"/>
<g opacity="0.7">
<path opacity="0.7" d="M89.702 48.8573C86.9116 43.8867 87.1263 38.4512 90.2028 36.7705C93.2436 35.054 98.0015 37.736 100.756 42.7066C103.546 47.6772 103.332 53.1127 100.255 54.7934C97.2144 56.5099 92.4923 53.8279 89.702 48.8573Z" fill="white"/>
<path opacity="0.7" d="M88.3796 35.586C89.7376 34.501 89.9086 32.4584 88.7615 31.0237C87.6144 29.5891 85.5836 29.3056 84.2256 30.3906C82.8675 31.4757 82.6965 33.5182 83.8436 34.9529C84.9907 36.3875 87.0215 36.671 88.3796 35.586Z" fill="white"/>
</g>
<path d="M23.1273 49.5725C25.0949 40.0246 14.5774 38.8088 13.6473 44.3516C12.3952 51.6466 21.4817 57.5827 23.1273 49.5725Z" fill="#DFDFDF"/>
<path d="M20.3019 57.6542C16.4383 58.7627 18.8709 62.9108 21.0889 62.1957C23.9865 61.2301 23.5573 56.7244 20.3019 57.6542Z" fill="#DFDFDF"/>
</svg>
