<svg viewBox="0 0 24 24" xmlns="http://www.w3.org/2000/svg">
<path fill-rule="evenodd" clip-rule="evenodd" d="M11.959 2.00018L12.0017 2L12.0445 2.00018L12.1008 2C14.9905 2 17.3597 3.41811 17.5835 5.22036C17.624 5.30176 17.6617 5.38476 17.6967 5.46927C17.8657 5.87713 17.9409 6.34558 17.9744 7.00018L18.0012 7C19.1058 7 20.0012 7.89543 20.0012 9C20.0012 9.45025 19.8524 9.86576 19.6013 10.2C19.8442 10.3825 20.0012 10.6729 20.0012 11V14C20.0012 14.5523 19.5535 15 19.0012 15C18.4489 15 18.0012 14.5523 18.0012 14C18.0012 15.8638 18.0012 16.7956 17.6967 17.5307C17.2908 18.5108 16.5121 19.2895 15.532 19.6955C14.7969 20 13.8651 20 12.0017 20C10.1383 20 9.20648 20 8.47146 19.6955C7.49135 19.2895 6.71266 18.5108 6.30668 17.5307C6.0022 16.7956 6.0022 15.8638 6.0022 14C6.0022 14.5523 5.55448 15 5.0022 15C4.44991 15 4.0022 14.5523 4.0022 14V11C4.0022 10.6729 4.15925 10.3825 4.40207 10.2C4.15098 9.86576 4.0022 9.45025 4.0022 9C4.0022 7.89543 4.89763 7 6.0022 7L6.02906 7.00018C6.06253 6.34558 6.13774 5.87713 6.30668 5.46927C6.34168 5.38476 6.37945 5.30176 6.41989 5.22036C6.64377 3.41811 9.01294 2 11.9026 2L11.959 2.00018ZM12.0017 18C12.9607 18 13.5798 17.9989 14.0537 17.9666C14.5097 17.9355 14.6834 17.8822 14.7666 17.8478C15.2566 17.6448 15.646 17.2554 15.849 16.7654C15.8835 16.6821 15.9367 16.5085 15.9678 16.0525C16.0001 15.5785 16.0012 14.9592 16.0012 14V10C16.0012 10 15.0013 9.00011 12.0017 9C9.00209 9.00011 8.0022 10 8.0022 10V14C8.0022 14.9592 8.00328 15.5785 8.03562 16.0525C8.06673 16.5085 8.11996 16.6821 8.15444 16.7654C8.35743 17.2554 8.74677 17.6448 9.23683 17.8478C9.32006 17.8822 9.49372 17.9355 9.94972 17.9666C10.4236 17.9989 11.0427 18 12.0017 18ZM15.6008 5.5H15.6083V6.5C15.6083 7.05228 15.1606 7.5 14.6083 7.5H9.40112C8.84884 7.5 8.40112 7.05228 8.40112 6.5V5.5H8.40259C8.40259 5.45447 8.43533 5.12731 9.08725 4.71245C9.71545 4.31269 10.7054 4 11.9026 4C11.9358 4 11.9688 4.00024 12.0017 4.00072C12.0346 4.00024 12.0676 4 12.1008 4C13.298 4 14.288 4.31269 14.9162 4.71245C15.5681 5.12731 15.6008 5.45447 15.6008 5.5Z"/>
<path d="M9.0022 21C9.0022 20.4477 9.44991 20 10.0022 20H10.006C10.5566 20 11.0022 20 11.0022 21C11.0022 21.5523 10.5545 22 10.0022 22C9.5022 22 9.2522 22 9.1272 21.875C9.0022 21.75 9.0022 21.5 9.0022 21Z"/>
<path d="M14.0012 20C14.5535 20 15.0012 20.4477 15.0012 21C15.0012 21.5 15.0012 21.75 14.8762 21.875C14.7512 22 14.5012 22 14.0012 22C13.4489 22 13.0012 21.5523 13.0012 21C13.0012 20 13.4469 20 13.9974 20H14.0012Z"/>
</svg>
