<svg viewBox="0 0 32 32" xmlns="http://www.w3.org/2000/svg">
    <path d="M25.201 22.267l-1.067-1.067c-1.067-1.067-2.667-1.067-3.733 0l-0.533 0.533c-0.4 0.4-1.067 0.533-1.6 0.267-1.733-0.8-3.333-1.867-4.8-3.333s-2.533-3.067-3.333-4.8c-0.267-0.533-0.133-1.2 0.267-1.733l0.533-0.533c1.067-1.067 1.067-2.667 0-3.733l-1.067-1.067c-1.067-1.067-2.667-1.067-3.733 0l-0.933 0.933c-0.933 0.933-1.467 2.4-1.067 3.867 0.667 3.467 2.667 7.333 6 10.533 3.2 3.2 7.067 5.333 10.533 6 1.467 0.267 2.8-0.133 3.867-1.2l0.933-0.933c0.667-0.933 0.667-2.667-0.267-3.733z"></path>
    <path d="M28.443 5.658c0.557 0.613 0.512 1.562-0.101 2.119l-4.4 4c-0.566 0.514-1.428 0.521-2.001 0.015l-2.267-2c-0.621-0.548-0.68-1.496-0.132-2.117s1.496-0.68 2.117-0.132l1.259 1.111 3.406-3.096c0.613-0.557 1.562-0.512 2.119 0.101z"></path>
</svg>
