<svg viewBox="0 0 16 16" xmlns="http://www.w3.org/2000/svg">
    <path d="M6.0705 2.29059C6.0705 1.87637 6.40628 1.54059 6.8205 1.54059H9.14528C9.5595 1.54059 9.89528 1.87637 9.89528 2.29059C9.89528 2.7048 9.5595 3.04059 9.14528 3.04059H6.8205C6.40628 3.04059 6.0705 2.7048 6.0705 2.29059Z" />
    <path d="M8.73288 6.35893C8.73288 5.94472 8.39709 5.60893 7.98288 5.60893C7.56867 5.60893 7.23288 5.94472 7.23288 6.35893V8.68372C7.23288 9.09793 7.56867 9.43372 7.98288 9.43372C8.39709 9.43372 8.73288 9.09793 8.73288 8.68372V6.35893Z" />
    <path fill-rule="evenodd" clip-rule="evenodd" d="M2.58331 8.68377C2.58331 5.70167 5.00078 3.28419 7.98289 3.28419C9.20348 3.28419 10.3295 3.6892 11.2338 4.37215L11.5718 4.03418L11.5209 3.9833C11.228 3.69041 11.228 3.21554 11.5209 2.92264C11.8138 2.62975 12.2887 2.62975 12.5816 2.92264L13.744 4.08504C14.0369 4.37793 14.0369 4.8528 13.744 5.1457C13.4511 5.43859 12.9762 5.43859 12.6833 5.1457L12.6325 5.09484L12.2945 5.43281C12.9775 6.33717 13.3825 7.46317 13.3825 8.68377C13.3825 11.6659 10.965 14.0833 7.98289 14.0833C5.00078 14.0833 2.58331 11.6659 2.58331 8.68377ZM7.98289 4.78419C5.82921 4.78419 4.08331 6.53009 4.08331 8.68377C4.08331 10.8374 5.82921 12.5833 7.98289 12.5833C10.1366 12.5833 11.8825 10.8374 11.8825 8.68377C11.8825 6.53009 10.1366 4.78419 7.98289 4.78419Z" />
</svg>
