<svg viewBox="0 0 24 24" xmlns="http://www.w3.org/2000/svg">
<path d="M15.3691 9.73706C15.8447 9.25941 15.8797 8.44626 15.4474 7.92084C15.015 7.39543 14.279 7.35671 13.8034 7.83436L11.1609 10.4883L10.1838 9.53591C9.70187 9.06611 8.96643 9.11689 8.54118 9.64933C8.11593 10.1818 8.16189 10.9943 8.64385 11.4641L10.4025 13.1783C10.8473 13.612 11.5163 13.6065 11.9553 13.1656L15.3691 9.73706Z"/>
<path fill-rule="evenodd" clip-rule="evenodd" d="M5 2C3.34315 2 2 3.38946 2 5.10345V15.4483C2 17.1623 3.34315 18.5517 5 18.5517H7.5C8.44427 18.5517 9.33344 19.0116 9.9 19.7931L11.2 21.5862C11.6 22.1379 12.4 22.1379 12.8 21.5862L14.1 19.7931C14.6666 19.0116 15.5557 18.5517 16.5 18.5517H19C20.6569 18.5517 22 17.1623 22 15.4483V5.10345C22 3.38946 20.6569 2 19 2H5ZM19 4.06897H5C4.44772 4.06897 4 4.53212 4 5.10345V15.4483C4 16.0196 4.44772 16.4828 5 16.4828H7.5C9.07379 16.4828 10.5557 17.2493 11.5 18.5517L12 19.2414L12.5 18.5517C13.4443 17.2493 14.9262 16.4828 16.5 16.4828H19C19.5523 16.4828 20 16.0196 20 15.4483V5.10345C20 4.53212 19.5523 4.06897 19 4.06897Z"/>
</svg>
