<svg width="74" height="38" viewBox="0 0 74 38" fill="none" xmlns="http://www.w3.org/2000/svg">
<g opacity="0.8">
<rect width="74" height="38" rx="5" fill="#FFC000"/>
<path d="M25.2348 23.12C24.3868 23.12 23.6188 22.936 22.9308 22.568C22.2508 22.192 21.7148 21.676 21.3228 21.02C20.9388 20.364 20.7468 19.624 20.7468 18.8C20.7468 17.976 20.9428 17.236 21.3348 16.58C21.7268 15.924 22.2628 15.412 22.9428 15.044C23.6308 14.668 24.3988 14.48 25.2468 14.48C25.9348 14.48 26.5628 14.6 27.1308 14.84C27.6988 15.08 28.1788 15.428 28.5708 15.884L27.5628 16.832C26.9548 16.176 26.2068 15.848 25.3188 15.848C24.7428 15.848 24.2268 15.976 23.7708 16.232C23.3148 16.48 22.9588 16.828 22.7028 17.276C22.4468 17.724 22.3188 18.232 22.3188 18.8C22.3188 19.368 22.4468 19.876 22.7028 20.324C22.9588 20.772 23.3148 21.124 23.7708 21.38C24.2268 21.628 24.7428 21.752 25.3188 21.752C26.2068 21.752 26.9548 21.42 27.5628 20.756L28.5708 21.716C28.1788 22.172 27.6948 22.52 27.1188 22.76C26.5508 23 25.9228 23.12 25.2348 23.12ZM29.9215 14.096H31.4215V23H29.9215V14.096ZM36.2703 23.084C35.6223 23.084 35.0383 22.944 34.5183 22.664C33.9983 22.384 33.5903 21.996 33.2943 21.5C33.0063 20.996 32.8623 20.428 32.8623 19.796C32.8623 19.164 33.0063 18.6 33.2943 18.104C33.5903 17.608 33.9983 17.22 34.5183 16.94C35.0383 16.66 35.6223 16.52 36.2703 16.52C36.9263 16.52 37.5143 16.66 38.0343 16.94C38.5543 17.22 38.9583 17.608 39.2463 18.104C39.5423 18.6 39.6903 19.164 39.6903 19.796C39.6903 20.428 39.5423 20.996 39.2463 21.5C38.9583 21.996 38.5543 22.384 38.0343 22.664C37.5143 22.944 36.9263 23.084 36.2703 23.084ZM36.2703 21.8C36.8223 21.8 37.2783 21.616 37.6383 21.248C37.9983 20.88 38.1783 20.396 38.1783 19.796C38.1783 19.196 37.9983 18.712 37.6383 18.344C37.2783 17.976 36.8223 17.792 36.2703 17.792C35.7183 17.792 35.2623 17.976 34.9023 18.344C34.5503 18.712 34.3743 19.196 34.3743 19.796C34.3743 20.396 34.5503 20.88 34.9023 21.248C35.2623 21.616 35.7183 21.8 36.2703 21.8ZM43.1046 23.084C42.5846 23.084 42.0766 23.016 41.5806 22.88C41.0846 22.744 40.6886 22.572 40.3926 22.364L40.9686 21.224C41.2566 21.416 41.6006 21.572 42.0006 21.692C42.4086 21.804 42.8086 21.86 43.2006 21.86C44.0966 21.86 44.5446 21.624 44.5446 21.152C44.5446 20.928 44.4286 20.772 44.1966 20.684C43.9726 20.596 43.6086 20.512 43.1046 20.432C42.5766 20.352 42.1446 20.26 41.8086 20.156C41.4806 20.052 41.1926 19.872 40.9446 19.616C40.7046 19.352 40.5846 18.988 40.5846 18.524C40.5846 17.916 40.8366 17.432 41.3406 17.072C41.8526 16.704 42.5406 16.52 43.4046 16.52C43.8446 16.52 44.2846 16.572 44.7246 16.676C45.1646 16.772 45.5246 16.904 45.8046 17.072L45.2286 18.212C44.6846 17.892 44.0726 17.732 43.3926 17.732C42.9526 17.732 42.6166 17.8 42.3846 17.936C42.1606 18.064 42.0486 18.236 42.0486 18.452C42.0486 18.692 42.1686 18.864 42.4086 18.968C42.6566 19.064 43.0366 19.156 43.5486 19.244C44.0606 19.324 44.4806 19.416 44.8086 19.52C45.1366 19.624 45.4166 19.8 45.6486 20.048C45.8886 20.296 46.0086 20.648 46.0086 21.104C46.0086 21.704 45.7486 22.184 45.2286 22.544C44.7086 22.904 44.0006 23.084 43.1046 23.084ZM53.3244 19.832C53.3244 19.936 53.3164 20.084 53.3004 20.276H48.2724C48.3604 20.748 48.5884 21.124 48.9564 21.404C49.3324 21.676 49.7964 21.812 50.3484 21.812C51.0524 21.812 51.6324 21.58 52.0884 21.116L52.8924 22.04C52.6044 22.384 52.2404 22.644 51.8004 22.82C51.3604 22.996 50.8644 23.084 50.3124 23.084C49.6084 23.084 48.9884 22.944 48.4524 22.664C47.9164 22.384 47.5004 21.996 47.2044 21.5C46.9164 20.996 46.7724 20.428 46.7724 19.796C46.7724 19.172 46.9124 18.612 47.1924 18.116C47.4804 17.612 47.8764 17.22 48.3804 16.94C48.8844 16.66 49.4524 16.52 50.0844 16.52C50.7084 16.52 51.2644 16.66 51.7524 16.94C52.2484 17.212 52.6324 17.6 52.9044 18.104C53.1844 18.6 53.3244 19.176 53.3244 19.832ZM50.0844 17.72C49.6044 17.72 49.1964 17.864 48.8604 18.152C48.5324 18.432 48.3324 18.808 48.2604 19.28H51.8964C51.8324 18.816 51.6364 18.44 51.3084 18.152C50.9804 17.864 50.5724 17.72 50.0844 17.72Z" fill="#F7F7F7"/>
</g>
</svg>
