<svg width="93" height="38" viewBox="0 0 93 38" fill="none" xmlns="http://www.w3.org/2000/svg">
<g opacity="0.8" filter="url(#filter0_ii)">
<path d="M0 19C0 8.50659 8.50659 0 19 0H74C84.4934 0 93 8.50659 93 19C93 29.4934 84.4934 38 74 38H19C8.50659 38 0 29.4934 0 19Z" fill="#2BA329"/>
<path d="M25.3598 23.12C24.5118 23.12 23.7438 22.936 23.0558 22.568C22.3758 22.192 21.8398 21.676 21.4478 21.02C21.0638 20.364 20.8718 19.624 20.8718 18.8C20.8718 17.976 21.0678 17.236 21.4598 16.58C21.8518 15.924 22.3878 15.412 23.0678 15.044C23.7558 14.668 24.5238 14.48 25.3718 14.48C26.0598 14.48 26.6878 14.6 27.2558 14.84C27.8238 15.08 28.3038 15.428 28.6958 15.884L27.6878 16.832C27.0798 16.176 26.3318 15.848 25.4438 15.848C24.8678 15.848 24.3518 15.976 23.8958 16.232C23.4398 16.48 23.0838 16.828 22.8278 17.276C22.5718 17.724 22.4438 18.232 22.4438 18.8C22.4438 19.368 22.5718 19.876 22.8278 20.324C23.0838 20.772 23.4398 21.124 23.8958 21.38C24.3518 21.628 24.8678 21.752 25.4438 21.752C26.3318 21.752 27.0798 21.42 27.6878 20.756L28.6958 21.716C28.3038 22.172 27.8198 22.52 27.2438 22.76C26.6758 23 26.0478 23.12 25.3598 23.12ZM32.6921 23.084C32.0441 23.084 31.4601 22.944 30.9401 22.664C30.4201 22.384 30.0121 21.996 29.7161 21.5C29.4281 20.996 29.2841 20.428 29.2841 19.796C29.2841 19.164 29.4281 18.6 29.7161 18.104C30.0121 17.608 30.4201 17.22 30.9401 16.94C31.4601 16.66 32.0441 16.52 32.6921 16.52C33.3481 16.52 33.9361 16.66 34.4561 16.94C34.9761 17.22 35.3801 17.608 35.6681 18.104C35.9641 18.6 36.1121 19.164 36.1121 19.796C36.1121 20.428 35.9641 20.996 35.6681 21.5C35.3801 21.996 34.9761 22.384 34.4561 22.664C33.9361 22.944 33.3481 23.084 32.6921 23.084ZM32.6921 21.8C33.2441 21.8 33.7001 21.616 34.0601 21.248C34.4201 20.88 34.6001 20.396 34.6001 19.796C34.6001 19.196 34.4201 18.712 34.0601 18.344C33.7001 17.976 33.2441 17.792 32.6921 17.792C32.1401 17.792 31.6841 17.976 31.3241 18.344C30.9721 18.712 30.7961 19.196 30.7961 19.796C30.7961 20.396 30.9721 20.88 31.3241 21.248C31.6841 21.616 32.1401 21.8 32.6921 21.8ZM41.1825 16.52C41.9905 16.52 42.6385 16.756 43.1265 17.228C43.6145 17.7 43.8585 18.4 43.8585 19.328V23H42.3585V19.52C42.3585 18.96 42.2265 18.54 41.9625 18.26C41.6985 17.972 41.3225 17.828 40.8345 17.828C40.2825 17.828 39.8465 17.996 39.5265 18.332C39.2065 18.66 39.0465 19.136 39.0465 19.76V23H37.5465V16.592H38.9745V17.42C39.2225 17.124 39.5345 16.9 39.9105 16.748C40.2865 16.596 40.7105 16.52 41.1825 16.52ZM49.3973 16.52C50.2053 16.52 50.8533 16.756 51.3413 17.228C51.8293 17.7 52.0733 18.4 52.0733 19.328V23H50.5733V19.52C50.5733 18.96 50.4413 18.54 50.1773 18.26C49.9133 17.972 49.5373 17.828 49.0493 17.828C48.4973 17.828 48.0613 17.996 47.7413 18.332C47.4213 18.66 47.2613 19.136 47.2613 19.76V23H45.7613V16.592H47.1893V17.42C47.4373 17.124 47.7493 16.9 48.1253 16.748C48.5013 16.596 48.9253 16.52 49.3973 16.52ZM60.0588 19.832C60.0588 19.936 60.0508 20.084 60.0348 20.276H55.0068C55.0948 20.748 55.3228 21.124 55.6908 21.404C56.0668 21.676 56.5308 21.812 57.0828 21.812C57.7868 21.812 58.3668 21.58 58.8228 21.116L59.6268 22.04C59.3388 22.384 58.9748 22.644 58.5348 22.82C58.0948 22.996 57.5988 23.084 57.0468 23.084C56.3428 23.084 55.7228 22.944 55.1868 22.664C54.6508 22.384 54.2348 21.996 53.9388 21.5C53.6508 20.996 53.5068 20.428 53.5068 19.796C53.5068 19.172 53.6468 18.612 53.9268 18.116C54.2148 17.612 54.6108 17.22 55.1148 16.94C55.6188 16.66 56.1868 16.52 56.8188 16.52C57.4428 16.52 57.9988 16.66 58.4868 16.94C58.9828 17.212 59.3668 17.6 59.6388 18.104C59.9188 18.6 60.0588 19.176 60.0588 19.832ZM56.8188 17.72C56.3388 17.72 55.9308 17.864 55.5948 18.152C55.2668 18.432 55.0668 18.808 54.9948 19.28H58.6308C58.5668 18.816 58.3708 18.44 58.0428 18.152C57.7148 17.864 57.3068 17.72 56.8188 17.72ZM64.4396 23.084C63.7756 23.084 63.1796 22.944 62.6516 22.664C62.1236 22.384 61.7116 21.996 61.4156 21.5C61.1196 20.996 60.9716 20.428 60.9716 19.796C60.9716 19.164 61.1196 18.6 61.4156 18.104C61.7116 17.608 62.1196 17.22 62.6396 16.94C63.1676 16.66 63.7676 16.52 64.4396 16.52C65.0716 16.52 65.6236 16.648 66.0956 16.904C66.5756 17.16 66.9356 17.528 67.1756 18.008L66.0236 18.68C65.8396 18.384 65.6076 18.164 65.3276 18.02C65.0556 17.868 64.7556 17.792 64.4276 17.792C63.8676 17.792 63.4036 17.976 63.0356 18.344C62.6676 18.704 62.4836 19.188 62.4836 19.796C62.4836 20.404 62.6636 20.892 63.0236 21.26C63.3916 21.62 63.8596 21.8 64.4276 21.8C64.7556 21.8 65.0556 21.728 65.3276 21.584C65.6076 21.432 65.8396 21.208 66.0236 20.912L67.1756 21.584C66.9276 22.064 66.5636 22.436 66.0836 22.7C65.6116 22.956 65.0636 23.084 64.4396 23.084ZM72.4063 22.652C72.2303 22.796 72.0143 22.904 71.7583 22.976C71.5103 23.048 71.2463 23.084 70.9663 23.084C70.2623 23.084 69.7183 22.9 69.3343 22.532C68.9503 22.164 68.7583 21.628 68.7583 20.924V17.84H67.7023V16.64H68.7583V15.176H70.2583V16.64H71.9743V17.84H70.2583V20.888C70.2583 21.2 70.3343 21.44 70.4863 21.608C70.6383 21.768 70.8583 21.848 71.1463 21.848C71.4823 21.848 71.7623 21.76 71.9863 21.584L72.4063 22.652Z" fill="#F7F7F7"/>
</g>
<defs>
<filter id="filter0_ii" x="-2" y="-2" width="96" height="41" filterUnits="userSpaceOnUse" color-interpolation-filters="sRGB">
<feFlood flood-opacity="0" result="BackgroundImageFix"/>
<feBlend mode="normal" in="SourceGraphic" in2="BackgroundImageFix" result="shape"/>
<feColorMatrix in="SourceAlpha" type="matrix" values="0 0 0 0 0 0 0 0 0 0 0 0 0 0 0 0 0 0 127 0" result="hardAlpha"/>
<feOffset dx="-2" dy="-2"/>
<feGaussianBlur stdDeviation="1"/>
<feComposite in2="hardAlpha" operator="arithmetic" k2="-1" k3="1"/>
<feColorMatrix type="matrix" values="0 0 0 0 0 0 0 0 0 0 0 0 0 0 0 0 0 0 0.15 0"/>
<feBlend mode="normal" in2="shape" result="effect1_innerShadow"/>
<feColorMatrix in="SourceAlpha" type="matrix" values="0 0 0 0 0 0 0 0 0 0 0 0 0 0 0 0 0 0 127 0" result="hardAlpha"/>
<feOffset dx="1" dy="1"/>
<feGaussianBlur stdDeviation="1"/>
<feComposite in2="hardAlpha" operator="arithmetic" k2="-1" k3="1"/>
<feColorMatrix type="matrix" values="0 0 0 0 1 0 0 0 0 1 0 0 0 0 1 0 0 0 1 0"/>
<feBlend mode="normal" in2="effect1_innerShadow" result="effect2_innerShadow"/>
</filter>
</defs>
</svg>
