<svg width="93" height="39" viewBox="0 0 93 39" fill="none" xmlns="http://www.w3.org/2000/svg">
<g filter="url(#filter0_ii)">
<path d="M0 19.2949C0 8.80151 8.50659 0.294922 19 0.294922H74C84.4934 0.294922 93 8.80151 93 19.2949V19.2949C93 29.7883 84.4934 38.2949 74 38.2949H19C8.50659 38.2949 0 29.7883 0 19.2949V19.2949Z" fill="#2BA329"/>
<path d="M25.3598 23.4149C24.5118 23.4149 23.7438 23.2309 23.0558 22.8629C22.3758 22.4869 21.8398 21.9709 21.4478 21.3149C21.0638 20.6589 20.8718 19.9189 20.8718 19.0949C20.8718 18.2709 21.0678 17.5309 21.4598 16.8749C21.8518 16.2189 22.3878 15.7069 23.0678 15.3389C23.7558 14.9629 24.5238 14.7749 25.3718 14.7749C26.0598 14.7749 26.6878 14.8949 27.2558 15.1349C27.8238 15.3749 28.3038 15.7229 28.6958 16.1789L27.6878 17.1269C27.0798 16.4709 26.3318 16.1429 25.4438 16.1429C24.8678 16.1429 24.3518 16.2709 23.8958 16.5269C23.4398 16.7749 23.0838 17.1229 22.8278 17.5709C22.5718 18.0189 22.4438 18.5269 22.4438 19.0949C22.4438 19.6629 22.5718 20.1709 22.8278 20.6189C23.0838 21.0669 23.4398 21.4189 23.8958 21.6749C24.3518 21.9229 24.8678 22.0469 25.4438 22.0469C26.3318 22.0469 27.0798 21.7149 27.6878 21.0509L28.6958 22.0109C28.3038 22.4669 27.8198 22.8149 27.2438 23.0549C26.6758 23.2949 26.0478 23.4149 25.3598 23.4149ZM32.6921 23.3789C32.0441 23.3789 31.4601 23.2389 30.9401 22.9589C30.4201 22.6789 30.0121 22.2909 29.7161 21.7949C29.4281 21.2909 29.2841 20.7229 29.2841 20.0909C29.2841 19.4589 29.4281 18.8949 29.7161 18.3989C30.0121 17.9029 30.4201 17.5149 30.9401 17.2349C31.4601 16.9549 32.0441 16.8149 32.6921 16.8149C33.3481 16.8149 33.9361 16.9549 34.4561 17.2349C34.9761 17.5149 35.3801 17.9029 35.6681 18.3989C35.9641 18.8949 36.1121 19.4589 36.1121 20.0909C36.1121 20.7229 35.9641 21.2909 35.6681 21.7949C35.3801 22.2909 34.9761 22.6789 34.4561 22.9589C33.9361 23.2389 33.3481 23.3789 32.6921 23.3789ZM32.6921 22.0949C33.2441 22.0949 33.7001 21.9109 34.0601 21.5429C34.4201 21.1749 34.6001 20.6909 34.6001 20.0909C34.6001 19.4909 34.4201 19.0069 34.0601 18.6389C33.7001 18.2709 33.2441 18.0869 32.6921 18.0869C32.1401 18.0869 31.6841 18.2709 31.3241 18.6389C30.9721 19.0069 30.7961 19.4909 30.7961 20.0909C30.7961 20.6909 30.9721 21.1749 31.3241 21.5429C31.6841 21.9109 32.1401 22.0949 32.6921 22.0949ZM41.1825 16.8149C41.9905 16.8149 42.6385 17.0509 43.1265 17.5229C43.6145 17.9949 43.8585 18.6949 43.8585 19.6229V23.2949H42.3585V19.8149C42.3585 19.2549 42.2265 18.8349 41.9625 18.5549C41.6985 18.2669 41.3225 18.1229 40.8345 18.1229C40.2825 18.1229 39.8465 18.2909 39.5265 18.6269C39.2065 18.9549 39.0465 19.4309 39.0465 20.0549V23.2949H37.5465V16.8869H38.9745V17.7149C39.2225 17.4189 39.5345 17.1949 39.9105 17.0429C40.2865 16.8909 40.7105 16.8149 41.1825 16.8149ZM49.3973 16.8149C50.2053 16.8149 50.8533 17.0509 51.3413 17.5229C51.8293 17.9949 52.0733 18.6949 52.0733 19.6229V23.2949H50.5733V19.8149C50.5733 19.2549 50.4413 18.8349 50.1773 18.5549C49.9133 18.2669 49.5373 18.1229 49.0493 18.1229C48.4973 18.1229 48.0613 18.2909 47.7413 18.6269C47.4213 18.9549 47.2613 19.4309 47.2613 20.0549V23.2949H45.7613V16.8869H47.1893V17.7149C47.4373 17.4189 47.7493 17.1949 48.1253 17.0429C48.5013 16.8909 48.9253 16.8149 49.3973 16.8149ZM60.0588 20.1269C60.0588 20.2309 60.0508 20.3789 60.0348 20.5709H55.0068C55.0948 21.0429 55.3228 21.4189 55.6908 21.6989C56.0668 21.9709 56.5308 22.1069 57.0828 22.1069C57.7868 22.1069 58.3668 21.8749 58.8228 21.4109L59.6268 22.3349C59.3388 22.6789 58.9748 22.9389 58.5348 23.1149C58.0948 23.2909 57.5988 23.3789 57.0468 23.3789C56.3428 23.3789 55.7228 23.2389 55.1868 22.9589C54.6508 22.6789 54.2348 22.2909 53.9388 21.7949C53.6508 21.2909 53.5068 20.7229 53.5068 20.0909C53.5068 19.4669 53.6468 18.9069 53.9268 18.4109C54.2148 17.9069 54.6108 17.5149 55.1148 17.2349C55.6188 16.9549 56.1868 16.8149 56.8188 16.8149C57.4428 16.8149 57.9988 16.9549 58.4868 17.2349C58.9828 17.5069 59.3668 17.8949 59.6388 18.3989C59.9188 18.8949 60.0588 19.4709 60.0588 20.1269ZM56.8188 18.0149C56.3388 18.0149 55.9308 18.1589 55.5948 18.4469C55.2668 18.7269 55.0668 19.1029 54.9948 19.5749H58.6308C58.5668 19.1109 58.3708 18.7349 58.0428 18.4469C57.7148 18.1589 57.3068 18.0149 56.8188 18.0149ZM64.4396 23.3789C63.7756 23.3789 63.1796 23.2389 62.6516 22.9589C62.1236 22.6789 61.7116 22.2909 61.4156 21.7949C61.1196 21.2909 60.9716 20.7229 60.9716 20.0909C60.9716 19.4589 61.1196 18.8949 61.4156 18.3989C61.7116 17.9029 62.1196 17.5149 62.6396 17.2349C63.1676 16.9549 63.7676 16.8149 64.4396 16.8149C65.0716 16.8149 65.6236 16.9429 66.0956 17.1989C66.5756 17.4549 66.9356 17.8229 67.1756 18.3029L66.0236 18.9749C65.8396 18.6789 65.6076 18.4589 65.3276 18.3149C65.0556 18.1629 64.7556 18.0869 64.4276 18.0869C63.8676 18.0869 63.4036 18.2709 63.0356 18.6389C62.6676 18.9989 62.4836 19.4829 62.4836 20.0909C62.4836 20.6989 62.6636 21.1869 63.0236 21.5549C63.3916 21.9149 63.8596 22.0949 64.4276 22.0949C64.7556 22.0949 65.0556 22.0229 65.3276 21.8789C65.6076 21.7269 65.8396 21.5029 66.0236 21.2069L67.1756 21.8789C66.9276 22.3589 66.5636 22.7309 66.0836 22.9949C65.6116 23.2509 65.0636 23.3789 64.4396 23.3789ZM72.4063 22.9469C72.2303 23.0909 72.0143 23.1989 71.7583 23.2709C71.5103 23.3429 71.2463 23.3789 70.9663 23.3789C70.2623 23.3789 69.7183 23.1949 69.3343 22.8269C68.9503 22.4589 68.7583 21.9229 68.7583 21.2189V18.1349H67.7023V16.9349H68.7583V15.4709H70.2583V16.9349H71.9743V18.1349H70.2583V21.1829C70.2583 21.4949 70.3343 21.7349 70.4863 21.9029C70.6383 22.0629 70.8583 22.1429 71.1463 22.1429C71.4823 22.1429 71.7623 22.0549 71.9863 21.8789L72.4063 22.9469Z" fill="#F7F7F7"/>
</g>
<defs>
<filter id="filter0_ii" x="-2" y="-1.70508" width="96" height="41" filterUnits="userSpaceOnUse" color-interpolation-filters="sRGB">
<feFlood flood-opacity="0" result="BackgroundImageFix"/>
<feBlend mode="normal" in="SourceGraphic" in2="BackgroundImageFix" result="shape"/>
<feColorMatrix in="SourceAlpha" type="matrix" values="0 0 0 0 0 0 0 0 0 0 0 0 0 0 0 0 0 0 127 0" result="hardAlpha"/>
<feOffset dx="-2" dy="-2"/>
<feGaussianBlur stdDeviation="1"/>
<feComposite in2="hardAlpha" operator="arithmetic" k2="-1" k3="1"/>
<feColorMatrix type="matrix" values="0 0 0 0 0 0 0 0 0 0 0 0 0 0 0 0 0 0 0.15 0"/>
<feBlend mode="normal" in2="shape" result="effect1_innerShadow"/>
<feColorMatrix in="SourceAlpha" type="matrix" values="0 0 0 0 0 0 0 0 0 0 0 0 0 0 0 0 0 0 127 0" result="hardAlpha"/>
<feOffset dx="1" dy="1"/>
<feGaussianBlur stdDeviation="1"/>
<feComposite in2="hardAlpha" operator="arithmetic" k2="-1" k3="1"/>
<feColorMatrix type="matrix" values="0 0 0 0 1 0 0 0 0 1 0 0 0 0 1 0 0 0 1 0"/>
<feBlend mode="normal" in2="effect1_innerShadow" result="effect2_innerShadow"/>
</filter>
</defs>
</svg>
