<svg width="18" height="12" viewBox="0 0 18 12" fill="none" xmlns="http://www.w3.org/2000/svg">
<path d="M1.70711 3.62623C1.31658 3.2357 0.683417 3.2357 0.292893 3.62623C-0.0976311 4.01675 -0.0976311 4.64992 0.292893 5.04044L1.70711 3.62623ZM7 10.3333L6.29289 11.0404C6.48043 11.228 6.73478 11.3333 7 11.3333C7.26522 11.3333 7.51957 11.228 7.70711 11.0404L7 10.3333ZM17.0404 1.70711C17.431 1.31658 17.431 0.683417 17.0404 0.292893C16.6499 -0.0976311 16.0167 -0.097631 15.6262 0.292893L17.0404 1.70711ZM0.292893 5.04044L6.29289 11.0404L7.70711 9.62623L1.70711 3.62623L0.292893 5.04044ZM7.70711 11.0404L17.0404 1.70711L15.6262 0.292893L6.29289 9.62623L7.70711 11.0404Z" fill="#2BA329"/>
</svg>
