<svg width="124" height="127" viewBox="0 0 124 127" fill="none" xmlns="http://www.w3.org/2000/svg">
<path d="M31.2772 48.211C25.7251 35.211 5.022 41.8223 9.57365 61.211C14.621 82.711 8.8259 101.031 1.49792 104.211" stroke="#56CCF2" stroke-linecap="round"/>
<path d="M111.705 31.2949C108.172 42.7949 121.304 43.9065 116.752 63.2951C111.705 84.7951 124.323 97.7951 111.705 109.295" stroke="#56CCF2" stroke-linecap="round"/>
<path d="M28.7534 60.7113C21.053 49.7113 31.7818 37.9156 21.053 40.7114C12.3906 42.9687 3.26416 54.2109 10.583 68.7113C20.5482 88.4547 -1.02586 106.211 7.04988 115.211" stroke="#9B51E0" stroke-linecap="round"/>
<path d="M119.277 117.294C108.678 109.794 116.847 78.9636 118.268 66.2941C119.782 52.794 115.65 37.294 99.4987 41.794" stroke="#9B51E0" stroke-linecap="round"/>
<path d="M28.7353 96.0074C26.104 95.0779 24.7417 92.1885 25.5961 89.3488L35.5347 56.3153C37.0545 51.2639 42.3931 48.3382 47.0739 49.9916C51.7896 51.6574 53.7853 57.2425 51.3694 62.0133L35.6879 92.9803C34.3509 95.6206 31.3452 96.9293 28.7353 96.0074Z" fill="#FF8B7B"/>
<path d="M95.202 95.5074C97.8333 94.5779 99.1955 91.6885 98.3412 88.8488L88.4026 55.8153C86.8828 50.7639 81.5442 47.8382 76.8634 49.4916C72.1476 51.1574 70.152 56.7425 72.5679 61.5133L88.2493 92.4803C89.5864 95.1206 92.5921 96.4293 95.202 95.5074Z" fill="#FF8B7B"/>
<path d="M58.8857 26.9622C58.2485 34.4177 55.9164 47.6698 49.7153 50.6449C49.7153 50.6449 52.8776 60.3942 64.6747 66.9757C75.7383 65.7842 80.7577 50.5442 80.7577 50.5442C69.5801 52.2342 66.092 47.771 68.9795 42.8107L58.8857 26.9622Z" fill="#FF8B7B"/>
<ellipse cx="60.6183" cy="117.295" rx="48.4544" ry="9" fill="#0A1B35"/>
<path d="M79.5795 67.5329C81.5403 71.9165 81.5738 76.9722 81.5738 76.9722C85.7695 76.2213 85.7793 74.2142 91.4973 73.2948C94.0668 72.8817 98.6539 74.0626 97.9973 73.2948C97.9973 73.2948 96.275 68.2163 92.5974 59.8047C90.1492 54.7107 92.8339 52.6565 86.0742 50.3873C77.2813 48.8616 76.1301 57.9288 79.5795 67.5329Z" fill="#FFC107"/>
<path d="M42.3304 67.5329C40.3696 71.9165 40.3361 76.9722 40.3361 76.9722C36.1404 76.2213 36.1306 74.2142 30.4127 73.2948C27.8431 72.8817 23.2561 74.0626 23.9127 73.2948C23.9127 73.2948 25.635 68.2163 29.3125 59.8047C31.7607 54.7107 29.076 52.6565 35.8357 50.3873C44.6286 48.8616 45.7798 57.9288 42.3304 67.5329Z" fill="#FFC107"/>
<path d="M56.8451 16.9717C53.4573 25.3144 51.0764 29.9656 53.1354 36.1348C56.1646 45.498 67.7249 47.0018 73.3713 40.0023C78.492 33.7095 83.1832 21.1284 76.8968 13.8361C70.7719 6.77062 60.1735 8.73822 56.8451 16.9717Z" fill="#FF8B7B"/>
<path d="M59.4771 2.893C60.1694 -1.52976 68.275 -0.737735 71.0968 4.28747C75.8052 8.93313 79.0997 8.93313 75.8052 7.11868C68.138 2.89615 83.3361 4.28747 83.3361 4.28747C83.3361 4.28747 75.8052 6.01187 85.6471 8.93313C89.1228 13.2346 86.9394 19.762 81.6915 21.4192C81.635 24.5714 80.9814 29.4686 78.9987 31.7946C79.9929 28.904 80.0475 24.6798 79.8922 21.7763C77.5392 21.9866 74.74 21.2941 71.661 19.2435C70.5079 18.4556 69.4571 17.6566 68.5061 16.9336C64.8352 14.1424 62.6514 12.4819 61.8059 16.9564C60.4034 24.5241 55.9351 29.6142 52.4458 28.1794C49.0669 26.8034 49.7004 13.0486 52.1916 8.4562C54.1229 4.76092 55.7056 5.26431 56.9373 5.65606C58.0942 6.02404 58.9415 6.29352 59.4771 2.893Z" fill="#171A2A"/>
<path d="M93.379 94.5938C89.9555 93.7339 88.1097 90.3987 89.4103 87.4223L103.704 54.7119C104.413 53.0889 106.497 52.341 108.253 53.0793C109.704 53.6894 110.475 55.1362 110.094 56.536L100.817 90.6782C100.012 93.6396 96.6426 95.4135 93.379 94.5938Z" fill="#FF8B7B"/>
<path d="M110.584 44.4011L104.182 50.8754C103.313 51.7541 103.064 53.0689 103.549 54.2091C103.953 55.158 104.808 55.8445 105.825 56.0368L107.747 56.4002C107.747 56.4002 108.687 57.0911 111.37 57.9459C113.026 58.4751 115.098 58.0332 116.777 57.4512C116.78 57.4502 116.78 57.4502 116.78 57.4502C118.506 56.8485 119.814 56.0971 119.814 56.0971L119.714 54.9198L118.734 52.7031L117.318 49.4937L118.072 49.2634L118.176 44.8828L118.433 44.2064L118.568 43.8491C118.568 43.8491 118.159 42.6526 116.11 42.7697C116.11 42.7697 113.863 43.2029 111.647 44.2625C111.568 44.2983 111.491 44.3389 111.411 44.3805L110.87 44.3911L110.584 44.4011Z" fill="#FF8B7B"/>
<path opacity="0.5" d="M110.37 44.6244L109.532 44.9454L109.718 45.2975L104.162 51.0537C104.364 52.9024 104.931 54.4513 106.264 54.4821C109.598 54.5637 110.839 52.4764 110.839 52.4764C112.031 56.3093 113.798 57.5819 114.761 58.0008C117.375 57.4977 119.811 56.0983 119.811 56.0983L119.711 54.9211L117.315 49.4949L118.069 49.2647L118.113 47.3606L114.612 49.2009L112.583 47.4099L111.51 44.1831L110.974 44.3895L110.585 44.398L110.37 44.6244Z" fill="#BF5034"/>
<path opacity="0.5" d="M110.865 44.3957L111.451 45.6136L118.431 44.21L118.566 43.8527C118.566 43.8527 118.157 42.6562 116.108 42.7733C116.108 42.7733 113.862 43.2065 111.645 44.2661C111.566 44.3019 111.489 44.3425 111.409 44.3841L110.865 44.3957Z" fill="#BF5034"/>
<path d="M111.703 44.9369C112.194 44.7573 112.843 44.5427 113.525 44.3258C114.954 43.8701 116.525 43.4139 117.086 43.3002C118.146 43.082 118.872 43.5579 119.191 44.6021C119.51 45.6463 118.903 46.3983 118.903 46.3983L114.797 47.5895L112.166 48.3534C112.166 48.3534 112.093 48.3978 111.992 48.4873C111.277 48.4421 110.819 48.2366 110.542 47.9448C109.736 47.0978 110.461 45.5459 110.862 45.2898C110.98 45.2153 111.287 45.0906 111.703 44.9369Z" fill="#FF8B7B"/>
<path d="M114.8 47.5885L118.906 46.3973C119.126 46.5736 119.301 46.749 119.444 46.9291C120.626 48.3921 119.488 49.8566 119.488 49.8566L113.476 51.4036C113.476 51.4036 113.307 51.4711 113.098 51.6083C112.469 51.6691 111.672 51.5492 111.415 50.6438C111.258 50.0926 111.304 49.644 111.432 49.2978C111.577 48.8998 111.823 48.6329 111.992 48.4872C112.093 48.3977 112.166 48.3534 112.166 48.3534L114.8 47.5885Z" fill="#FF8B7B"/>
<path d="M113.635 55.4679C113.596 55.7158 113.63 56.0504 113.818 56.4911C114.397 57.8511 115.246 57.4976 119.814 56.0972C119.814 56.0972 121.179 55.1968 120.254 53.6712C120.167 53.5261 120.058 53.3736 119.921 53.2158L114.128 54.7941C114.126 54.7951 113.72 54.9473 113.635 55.4679Z" fill="#FF8B7B"/>
<path d="M113.479 51.4049C113.479 51.4049 112.835 51.6647 112.489 52.1935C112.316 52.4608 112.217 52.7953 112.312 53.202C112.573 54.3008 113.143 54.8336 114.126 54.7952L119.918 53.2169C119.918 53.2169 121.047 51.9688 120.021 50.4685C119.886 50.2682 119.71 50.0652 119.489 49.8589L113.479 51.4049Z" fill="#FF8B7B"/>
<path opacity="0.5" d="M112.166 48.3533C112.166 48.3533 111.666 48.6565 111.432 49.2977L119.442 46.9301C119.299 46.7523 119.123 46.5745 118.903 46.3983L112.166 48.3533Z" fill="#BF5034"/>
<path opacity="0.5" d="M113.479 51.4049C113.479 51.4049 112.835 51.6647 112.489 52.1935L120.021 50.4685C119.885 50.2683 119.71 50.0652 119.489 49.8589L113.479 51.4049Z" fill="#BF5034"/>
<path opacity="0.5" d="M113.635 55.4679L120.252 53.6722C120.165 53.5271 120.055 53.3746 119.918 53.2168L114.126 54.7951C114.126 54.7951 113.72 54.9473 113.635 55.4679Z" fill="#BF5034"/>
<path opacity="0.5" d="M113.525 44.3257C113.559 44.3786 113.586 44.4426 113.615 44.5113C113.859 45.1376 114.144 46.1265 114.8 47.5884C114.823 47.6429 114.85 47.6988 114.873 47.7533C115.165 48.3933 115.527 49.1209 115.987 49.9449C116.089 50.1256 116.063 50.3538 115.92 50.5025C115.81 50.6155 115.657 50.7543 115.463 50.8937L113.476 51.4059C113.476 51.4059 113.308 51.4735 113.099 51.6107C112.47 51.6715 111.673 51.5516 111.416 50.6462C111.259 50.095 111.305 49.6464 111.433 49.3001C111.578 48.9021 111.824 48.6353 111.993 48.4896C111.278 48.4444 110.82 48.2389 110.543 47.9471C110.676 46.8011 111.23 45.6971 111.703 44.9368C112.088 44.3187 112.416 43.9312 112.416 43.9312C112.416 43.9312 113.128 43.6152 113.525 44.3257Z" fill="#BF5034"/>
<path d="M108.791 53.6108C107.454 55.3567 104.683 54.8524 104.035 52.7452L103.858 52.1707C103.686 51.614 103.766 51.0121 104.077 50.5211L104.953 49.1338L108.325 43.9531C108.542 43.6199 108.932 43.4436 109.328 43.4988L112.416 43.9312C112.857 43.9929 113.213 44.3246 113.303 44.7585C113.511 45.7651 114.048 47.7119 115.334 49.8903C115.474 50.1276 115.396 50.428 115.16 50.5679C114.306 51.0716 112.308 51.8338 110.845 49.1154C110.843 49.1164 111.335 52.1499 108.791 53.6108Z" fill="#FF8B7B"/>
<path d="M31.6203 95.0947C35.0439 94.2348 36.8896 90.8995 35.589 87.9232L21.2955 55.2128C20.5863 53.5898 18.5021 52.8418 16.7462 53.5802C15.2953 54.1903 14.5246 55.637 14.905 57.0368L24.1824 91.179C24.9871 94.1404 28.3568 95.9144 31.6203 95.0947Z" fill="#FF8B7B"/>
<path d="M14.4156 44.9021L20.8177 51.3764C21.6866 52.2551 21.9364 53.5699 21.451 54.7101C21.0471 55.6589 20.1924 56.3454 19.1755 56.5377L17.2534 56.9012C17.2534 56.9012 16.3135 57.592 13.6305 58.4468C11.9743 58.976 9.90173 58.5341 8.22292 57.9522C8.22056 57.9512 8.22056 57.9512 8.22056 57.9512C6.49445 57.3495 5.18568 56.598 5.18568 56.598L5.2859 55.4208L6.26572 53.204L7.68199 49.9947L6.9281 49.7644L6.82454 45.3838L6.56679 44.7074L6.43214 44.35C6.43214 44.35 6.84121 43.1536 8.89054 43.2706C8.89054 43.2706 11.1366 43.7039 13.3526 44.7635C13.432 44.7993 13.5094 44.8399 13.5891 44.8815L14.1303 44.8921L14.4156 44.9021Z" fill="#FF8B7B"/>
<path opacity="0.5" d="M14.6302 45.1254L15.468 45.4464L15.2819 45.7985L20.8385 51.5546C20.6362 53.4034 20.0687 54.9523 18.736 54.9831C15.4022 55.0647 14.1609 52.9774 14.1609 52.9774C12.9693 56.8102 11.2026 58.0829 10.2392 58.5017C7.62471 57.9987 5.18862 56.5993 5.18862 56.5993L5.28884 55.422L7.68493 49.9959L6.93104 49.7656L6.88685 47.8616L10.3881 49.7019L12.4172 47.9109L13.4901 44.6841L14.0259 44.8904L14.4148 44.899L14.6302 45.1254Z" fill="#BF5034"/>
<path opacity="0.5" d="M14.1346 44.8967L13.5494 46.1146L6.56875 44.711L6.4341 44.3536C6.4341 44.3536 6.84317 43.1572 8.8925 43.2742C8.8925 43.2742 11.1385 43.7075 13.3546 44.7671C13.434 44.8029 13.5114 44.8435 13.5911 44.8851L14.1346 44.8967Z" fill="#BF5034"/>
<path d="M13.2974 45.4378C12.8059 45.2583 12.1566 45.0437 11.475 44.8268C10.0459 44.3711 8.47502 43.9149 7.91375 43.8011C6.85404 43.583 6.12806 44.0589 5.80885 45.1031C5.48964 46.1473 6.09658 46.8993 6.09658 46.8993L10.2027 48.0905L12.8341 48.8544C12.8341 48.8544 12.9071 48.8987 13.0082 48.9883C13.7235 48.943 14.1812 48.7376 14.4585 48.4458C15.2645 47.5988 14.5387 46.0468 14.1382 45.7908C14.0196 45.7163 13.7135 45.5916 13.2974 45.4378Z" fill="#FF8B7B"/>
<path d="M10.2003 48.0894L6.09419 46.8983C5.87439 47.0745 5.6995 47.2499 5.556 47.4301C4.37366 48.8931 5.51253 50.3576 5.51253 50.3576L11.5246 51.9045C11.5246 51.9045 11.6935 51.9721 11.9023 52.1093C12.5307 52.1701 13.3278 52.0502 13.5852 51.1448C13.7419 50.5936 13.6962 50.145 13.568 49.7987C13.4228 49.4008 13.1772 49.1339 13.0082 48.9882C12.9071 48.8987 12.8341 48.8543 12.8341 48.8543L10.2003 48.0894Z" fill="#FF8B7B"/>
<path d="M11.3646 55.9689C11.4038 56.2168 11.37 56.5514 11.1824 56.9921C10.6035 58.3521 9.7545 57.9985 5.18624 56.5982C5.18624 56.5982 3.82116 55.6977 4.74615 54.1722C4.833 54.0271 4.94244 53.8746 5.07922 53.7168L10.8719 55.2951C10.8742 55.2961 11.2799 55.4483 11.3646 55.9689Z" fill="#FF8B7B"/>
<path d="M11.5212 51.9059C11.5212 51.9059 12.1651 52.1657 12.5107 52.6945C12.6836 52.9618 12.7835 53.2963 12.6883 53.703C12.4266 54.8018 11.8573 55.3346 10.8742 55.2962L5.08159 53.7178C5.08159 53.7178 3.95356 52.4698 4.9792 50.9695C5.11456 50.7692 5.29008 50.5662 5.51151 50.3599L11.5212 51.9059Z" fill="#FF8B7B"/>
<path opacity="0.5" d="M12.8341 48.8543C12.8341 48.8543 13.3343 49.1574 13.568 49.7987L5.55841 47.431C5.7009 47.2533 5.8768 47.0755 6.09659 46.8992L12.8341 48.8543Z" fill="#BF5034"/>
<path opacity="0.5" d="M11.5212 51.9059C11.5212 51.9059 12.1651 52.1657 12.5107 52.6945L4.97925 50.9695C5.1146 50.7692 5.29013 50.5662 5.51156 50.3599L11.5212 51.9059Z" fill="#BF5034"/>
<path opacity="0.5" d="M11.3646 55.9689L4.74854 54.1732C4.83538 54.0281 4.94482 53.8756 5.08161 53.7178L10.8743 55.2961C10.8743 55.2961 11.28 55.4483 11.3646 55.9689Z" fill="#BF5034"/>
<path opacity="0.5" d="M11.475 44.8267C11.4414 44.8796 11.4141 44.9436 11.3849 45.0123C11.1406 45.6386 10.856 46.6275 10.2003 48.0894C10.1771 48.1439 10.1505 48.1998 10.1273 48.2543C9.83544 48.8942 9.47281 49.6219 9.01345 50.4459C8.91148 50.6266 8.93687 50.8547 9.07959 51.0034C9.19017 51.1164 9.34267 51.2553 9.53669 51.3946L11.5236 51.9069C11.5236 51.9069 11.6925 51.9744 11.9014 52.1116C12.5297 52.1725 13.3269 52.0526 13.5842 51.1472C13.7409 50.596 13.6952 50.1474 13.567 49.8011C13.4218 49.4031 13.1762 49.1363 13.0072 48.9906C13.7225 48.9453 14.1802 48.7399 14.4575 48.4481C14.3245 47.3021 13.77 46.198 13.2974 45.4378C12.9118 44.8197 12.584 44.4322 12.584 44.4322C12.584 44.4322 11.8721 44.1162 11.475 44.8267Z" fill="#BF5034"/>
<path d="M16.2087 54.1118C17.5456 55.8577 20.3172 55.3534 20.9655 53.2462L21.1423 52.6716C21.3136 52.115 21.2337 51.5131 20.9234 51.0221L20.0466 49.6348L16.6755 44.4541C16.4582 44.1209 16.0683 43.9446 15.6717 43.9998L12.584 44.4321C12.1429 44.4939 11.7873 44.8256 11.6972 45.2595C11.4887 46.2661 10.9523 48.2129 9.6659 50.3912C9.52588 50.6286 9.60405 50.9289 9.83959 51.0689C10.6942 51.5726 12.6917 52.3347 14.1551 49.6164C14.1574 49.6174 13.6652 52.6509 16.2087 54.1118Z" fill="#FF8B7B"/>
<path d="M52.9066 54.2222C53.7246 56.6396 56.9876 59.4003 61.1218 59.6226C65.2561 59.4003 68.5191 56.6396 69.337 54.2222C69.4941 53.7581 69.6521 53.3389 69.8071 52.9278C70.2834 51.6644 70.731 50.4773 71.0329 48.2949C72.6859 48.407 74.3388 48.5191 75.8541 48.6312C82.8792 49.1916 86.9226 50.5568 86.9226 50.5568C86.7849 51.0612 87.0826 51.4764 87.3803 51.8916C87.6781 52.3068 87.9758 52.722 87.838 53.2263V53.3384C87.2782 55.2744 86.6874 57.1913 86.1018 59.0916L86.1013 59.0933C84.3819 64.6729 82.7067 69.0543 81.9875 74.4044C80.474 85.7218 80.8676 96.3161 81.1702 104.46C81.2699 107.144 83.0491 113.98 83.0575 116.07C83.0723 119.757 81.3939 118.064 81.2262 119.53C78.2668 120.062 70.5404 121.063 61.1218 121.295C51.7032 121.063 43.9768 120.062 41.0175 119.53C40.8498 118.064 39.1713 119.229 39.1861 115.542C39.1945 113.452 40.9737 107.144 41.0735 104.46C41.376 96.3161 41.7696 85.7218 40.2562 74.4044C39.537 69.0543 37.8619 64.6735 36.1425 59.0939L36.1418 59.0916C35.5562 57.1913 34.9655 55.2744 34.4056 53.3384V53.2263C34.2679 52.722 34.5656 52.3068 34.8633 51.8916C35.161 51.4764 35.4587 51.0612 35.321 50.5568C35.321 50.5568 39.3645 49.1916 46.3896 48.6312C47.9048 48.5191 49.5578 48.407 51.2107 48.2949C51.5127 50.4773 51.9602 51.6644 52.4365 52.9278C52.5915 53.3389 52.7496 53.7581 52.9066 54.2222Z" fill="#FFC107"/>
<path d="M60.8061 83.2449C61.7352 83.4097 62.7325 83.1629 63.5746 82.571C65.2589 81.3871 66.4255 78.8406 66.6282 75.6995C67.0179 70.7914 64.8969 66.2851 61.8513 65.4273C60.7329 65.1231 59.6323 65.3514 58.6699 66.028C56.9856 67.2118 55.819 69.7583 55.6163 72.8994C55.2266 77.8076 57.3477 82.3138 60.3932 83.1717C60.5997 83.2083 60.7029 83.2266 60.8061 83.2449ZM61.4741 66.4194C61.5773 66.4377 61.6805 66.456 61.6805 66.456C64.1238 67.1011 65.9693 71.3467 65.6821 75.6377C65.4445 78.3489 64.5185 80.7263 62.9716 81.7227C62.2498 82.2301 61.476 82.4106 60.6672 82.1613C58.224 81.5162 56.3784 77.2706 56.6657 72.9796C56.9032 70.2684 57.8293 67.891 59.3761 66.8945C60.0809 66.49 60.7515 66.2912 61.4741 66.4194Z" fill="white"/>
<path d="M48.1684 23.9087C48.351 26.3122 49.4984 28.5547 51.042 29.8768C53.3258 31.9135 55.6243 30.2242 55.9735 27.4095C56.305 24.8718 55.5617 20.7081 52.9271 19.7616C50.1212 18.8598 47.8954 21.1656 48.1684 23.9087Z" fill="#FF8B7B"/>
</svg>
