<svg width="20" height="38" xmlns="http://www.w3.org/2000/svg" fill="none">

 <g>
  <title>Layer 1</title>
  <path stroke="null" id="svg_3" fill="#030302" d="m7.33996,8.72233l2.866,3.01729c0.183,0.1919 0.183,0.5031 0,0.6949c-0.182,0.1919 -0.478,0.1919 -0.66,0l-2.536,-2.6698l-2.537,2.6697c-0.182,0.1919 -0.478,0.1919 -0.66,0c-0.182,-0.1918 -0.182,-0.503 0,-0.6949l2.867,-3.01726c0.091,-0.09593 0.21,-0.14384 0.33,-0.14384c0.119,0 0.238,0.048 0.33,0.14391z"/>
  <path stroke="null" id="svg_4" fill="#030302" d="m6.67972,28.43452l-2.866,-3.0173c-0.183,-0.1919 -0.183,-0.5031 0,-0.6949c0.182,-0.1919 0.478,-0.1919 0.66,0l2.536,2.6698l2.537,-2.6697c0.182,-0.1919 0.478,-0.1919 0.66,0c0.182,0.1918 0.182,0.503 0,0.6949l-2.867,3.0173c-0.091,0.0959 -0.21,0.1438 -0.33,0.1438c-0.119,0 -0.238,-0.048 -0.33,-0.1439z"/>
 </g>
</svg>