<svg width="24" height="24" viewBox="0 0 24 24" fill="none" xmlns="http://www.w3.org/2000/svg">
<g opacity="0.8" filter="url(#filter0_ii)">
<rect width="24" height="24" rx="5" fill="#F7F7F7"/>
<path d="M8.53033 7.46967C8.23744 7.17678 7.76256 7.17678 7.46967 7.46967C7.17678 7.76256 7.17678 8.23744 7.46967 8.53033L10.9393 12L7.46967 15.4697C7.17678 15.7626 7.17678 16.2374 7.46967 16.5303C7.76256 16.8232 8.23744 16.8232 8.53033 16.5303L12 13.0607L15.4697 16.5303C15.7626 16.8232 16.2374 16.8232 16.5303 16.5303C16.8232 16.2374 16.8232 15.7626 16.5303 15.4697L13.0607 12L16.5303 8.53033C16.8232 8.23744 16.8232 7.76256 16.5303 7.46967C16.2374 7.17678 15.7626 7.17678 15.4697 7.46967L12 10.9393L8.53033 7.46967Z" fill="#00314D"/>
</g>
<defs>
<filter id="filter0_ii" x="-1" y="-1" width="26" height="26" filterUnits="userSpaceOnUse" color-interpolation-filters="sRGB">
<feFlood flood-opacity="0" result="BackgroundImageFix"/>
<feBlend mode="normal" in="SourceGraphic" in2="BackgroundImageFix" result="shape"/>
<feColorMatrix in="SourceAlpha" type="matrix" values="0 0 0 0 0 0 0 0 0 0 0 0 0 0 0 0 0 0 127 0" result="hardAlpha"/>
<feOffset dx="-1" dy="-1"/>
<feGaussianBlur stdDeviation="1"/>
<feComposite in2="hardAlpha" operator="arithmetic" k2="-1" k3="1"/>
<feColorMatrix type="matrix" values="0 0 0 0 0.4 0 0 0 0 0.4 0 0 0 0 0.4 0 0 0 0.1 0"/>
<feBlend mode="normal" in2="shape" result="effect1_innerShadow"/>
<feColorMatrix in="SourceAlpha" type="matrix" values="0 0 0 0 0 0 0 0 0 0 0 0 0 0 0 0 0 0 127 0" result="hardAlpha"/>
<feOffset dx="1" dy="1"/>
<feGaussianBlur stdDeviation="1"/>
<feComposite in2="hardAlpha" operator="arithmetic" k2="-1" k3="1"/>
<feColorMatrix type="matrix" values="0 0 0 0 1 0 0 0 0 1 0 0 0 0 1 0 0 0 0.8 0"/>
<feBlend mode="normal" in2="effect1_innerShadow" result="effect2_innerShadow"/>
</filter>
</defs>
</svg>
