<svg width="24" height="24" viewBox="0 0 24 24" fill="none" xmlns="http://www.w3.org/2000/svg">
<g opacity="0.8" filter="url(#filter0_ii)">
<rect width="24" height="24" rx="5" fill="#F7F7F7"/>
<path d="M12.75 6.34326C12.75 5.92905 12.4142 5.59326 12 5.59326C11.5858 5.59326 11.25 5.92905 11.25 6.34326V11.2501H6.34314C5.92893 11.2501 5.59314 11.5859 5.59314 12.0001C5.59314 12.4143 5.92893 12.7501 6.34314 12.7501H11.25V17.657C11.25 18.0712 11.5858 18.407 12 18.407C12.4142 18.407 12.75 18.0712 12.75 17.657V12.7501H17.6568C18.0711 12.7501 18.4068 12.4143 18.4068 12.0001C18.4068 11.5859 18.0711 11.2501 17.6568 11.2501H12.75V6.34326Z" fill="#00314D"/>
</g>
<defs>
<filter id="filter0_ii" x="-1" y="-1" width="26" height="26" filterUnits="userSpaceOnUse" color-interpolation-filters="sRGB">
<feFlood flood-opacity="0" result="BackgroundImageFix"/>
<feBlend mode="normal" in="SourceGraphic" in2="BackgroundImageFix" result="shape"/>
<feColorMatrix in="SourceAlpha" type="matrix" values="0 0 0 0 0 0 0 0 0 0 0 0 0 0 0 0 0 0 127 0" result="hardAlpha"/>
<feOffset dx="-1" dy="-1"/>
<feGaussianBlur stdDeviation="1"/>
<feComposite in2="hardAlpha" operator="arithmetic" k2="-1" k3="1"/>
<feColorMatrix type="matrix" values="0 0 0 0 0.4 0 0 0 0 0.4 0 0 0 0 0.4 0 0 0 0.1 0"/>
<feBlend mode="normal" in2="shape" result="effect1_innerShadow"/>
<feColorMatrix in="SourceAlpha" type="matrix" values="0 0 0 0 0 0 0 0 0 0 0 0 0 0 0 0 0 0 127 0" result="hardAlpha"/>
<feOffset dx="1" dy="1"/>
<feGaussianBlur stdDeviation="1"/>
<feComposite in2="hardAlpha" operator="arithmetic" k2="-1" k3="1"/>
<feColorMatrix type="matrix" values="0 0 0 0 1 0 0 0 0 1 0 0 0 0 1 0 0 0 0.8 0"/>
<feBlend mode="normal" in2="effect1_innerShadow" result="effect2_innerShadow"/>
</filter>
</defs>
</svg>
