<svg width="88" height="38" viewBox="0 0 88 38" fill="none" xmlns="http://www.w3.org/2000/svg">
<g opacity="0.8" filter="url(#filter0_ii)">
<path d="M0 19C0 8.50659 8.50659 0 19 0H69C79.4934 0 88 8.50659 88 19C88 29.4934 79.4934 38 69 38H19C8.50659 38 0 29.4934 0 19Z" fill="#E63E1A"/>
<path d="M30.9306 23L29.2146 20.54C29.1426 20.548 29.0346 20.552 28.8906 20.552H26.9946V23H25.4346V14.6H28.8906C29.6186 14.6 30.2506 14.72 30.7866 14.96C31.3306 15.2 31.7466 15.544 32.0346 15.992C32.3226 16.44 32.4666 16.972 32.4666 17.588C32.4666 18.22 32.3106 18.764 31.9986 19.22C31.6946 19.676 31.2546 20.016 30.6786 20.24L32.6106 23H30.9306ZM30.8946 17.588C30.8946 17.052 30.7186 16.64 30.3666 16.352C30.0146 16.064 29.4986 15.92 28.8186 15.92H26.9946V19.268H28.8186C29.4986 19.268 30.0146 19.124 30.3666 18.836C30.7186 18.54 30.8946 18.124 30.8946 17.588ZM40.092 19.832C40.092 19.936 40.084 20.084 40.068 20.276H35.04C35.128 20.748 35.356 21.124 35.724 21.404C36.1 21.676 36.564 21.812 37.116 21.812C37.82 21.812 38.4 21.58 38.856 21.116L39.66 22.04C39.372 22.384 39.008 22.644 38.568 22.82C38.128 22.996 37.632 23.084 37.08 23.084C36.376 23.084 35.756 22.944 35.22 22.664C34.684 22.384 34.268 21.996 33.972 21.5C33.684 20.996 33.54 20.428 33.54 19.796C33.54 19.172 33.68 18.612 33.96 18.116C34.248 17.612 34.644 17.22 35.148 16.94C35.652 16.66 36.22 16.52 36.852 16.52C37.476 16.52 38.032 16.66 38.52 16.94C39.016 17.212 39.4 17.6 39.672 18.104C39.952 18.6 40.092 19.176 40.092 19.832ZM36.852 17.72C36.372 17.72 35.964 17.864 35.628 18.152C35.3 18.432 35.1 18.808 35.028 19.28H38.664C38.6 18.816 38.404 18.44 38.076 18.152C37.748 17.864 37.34 17.72 36.852 17.72ZM40.8728 25.412C40.2408 25.412 39.7608 25.288 39.4328 25.04L39.8648 23.924C40.0888 24.092 40.3808 24.176 40.7408 24.176C41.0208 24.176 41.2328 24.088 41.3768 23.912C41.5288 23.744 41.6048 23.492 41.6048 23.156V16.592H43.1048V23.12C43.1048 23.832 42.9088 24.392 42.5168 24.8C42.1248 25.208 41.5768 25.412 40.8728 25.412ZM42.3488 15.536C42.0768 15.536 41.8488 15.452 41.6648 15.284C41.4808 15.108 41.3888 14.892 41.3888 14.636C41.3888 14.38 41.4808 14.168 41.6648 14C41.8488 13.824 42.0768 13.736 42.3488 13.736C42.6208 13.736 42.8488 13.82 43.0328 13.988C43.2168 14.148 43.3088 14.352 43.3088 14.6C43.3088 14.864 43.2168 15.088 43.0328 15.272C42.8568 15.448 42.6288 15.536 42.3488 15.536ZM51.0959 19.832C51.0959 19.936 51.0879 20.084 51.0719 20.276H46.0439C46.1319 20.748 46.3599 21.124 46.7279 21.404C47.1039 21.676 47.5679 21.812 48.1199 21.812C48.8239 21.812 49.4039 21.58 49.8599 21.116L50.6639 22.04C50.3759 22.384 50.0119 22.644 49.5719 22.82C49.1319 22.996 48.6359 23.084 48.0839 23.084C47.3799 23.084 46.7599 22.944 46.2239 22.664C45.6879 22.384 45.2719 21.996 44.9759 21.5C44.6879 20.996 44.5439 20.428 44.5439 19.796C44.5439 19.172 44.6839 18.612 44.9639 18.116C45.2519 17.612 45.6479 17.22 46.1519 16.94C46.6559 16.66 47.2239 16.52 47.8559 16.52C48.4799 16.52 49.0359 16.66 49.5239 16.94C50.0199 17.212 50.4039 17.6 50.6759 18.104C50.9559 18.6 51.0959 19.176 51.0959 19.832ZM47.8559 17.72C47.3759 17.72 46.9679 17.864 46.6319 18.152C46.3039 18.432 46.1039 18.808 46.0319 19.28H49.6679C49.6039 18.816 49.4079 18.44 49.0799 18.152C48.7519 17.864 48.3439 17.72 47.8559 17.72ZM55.4767 23.084C54.8127 23.084 54.2167 22.944 53.6887 22.664C53.1607 22.384 52.7487 21.996 52.4527 21.5C52.1567 20.996 52.0087 20.428 52.0087 19.796C52.0087 19.164 52.1567 18.6 52.4527 18.104C52.7487 17.608 53.1567 17.22 53.6767 16.94C54.2047 16.66 54.8047 16.52 55.4767 16.52C56.1087 16.52 56.6607 16.648 57.1327 16.904C57.6127 17.16 57.9727 17.528 58.2127 18.008L57.0607 18.68C56.8767 18.384 56.6447 18.164 56.3647 18.02C56.0927 17.868 55.7927 17.792 55.4647 17.792C54.9047 17.792 54.4407 17.976 54.0727 18.344C53.7047 18.704 53.5207 19.188 53.5207 19.796C53.5207 20.404 53.7007 20.892 54.0607 21.26C54.4287 21.62 54.8967 21.8 55.4647 21.8C55.7927 21.8 56.0927 21.728 56.3647 21.584C56.6447 21.432 56.8767 21.208 57.0607 20.912L58.2127 21.584C57.9647 22.064 57.6007 22.436 57.1207 22.7C56.6487 22.956 56.1007 23.084 55.4767 23.084ZM63.4434 22.652C63.2674 22.796 63.0514 22.904 62.7954 22.976C62.5474 23.048 62.2834 23.084 62.0034 23.084C61.2994 23.084 60.7554 22.9 60.3714 22.532C59.9874 22.164 59.7954 21.628 59.7954 20.924V17.84H58.7394V16.64H59.7954V15.176H61.2954V16.64H63.0114V17.84H61.2954V20.888C61.2954 21.2 61.3714 21.44 61.5234 21.608C61.6754 21.768 61.8954 21.848 62.1834 21.848C62.5194 21.848 62.7994 21.76 63.0234 21.584L63.4434 22.652Z" fill="#F7F7F7"/>
</g>
<defs>
<filter id="filter0_ii" x="-2" y="-2" width="91" height="41" filterUnits="userSpaceOnUse" color-interpolation-filters="sRGB">
<feFlood flood-opacity="0" result="BackgroundImageFix"/>
<feBlend mode="normal" in="SourceGraphic" in2="BackgroundImageFix" result="shape"/>
<feColorMatrix in="SourceAlpha" type="matrix" values="0 0 0 0 0 0 0 0 0 0 0 0 0 0 0 0 0 0 127 0" result="hardAlpha"/>
<feOffset dx="-2" dy="-2"/>
<feGaussianBlur stdDeviation="1"/>
<feComposite in2="hardAlpha" operator="arithmetic" k2="-1" k3="1"/>
<feColorMatrix type="matrix" values="0 0 0 0 0 0 0 0 0 0 0 0 0 0 0 0 0 0 0.15 0"/>
<feBlend mode="normal" in2="shape" result="effect1_innerShadow"/>
<feColorMatrix in="SourceAlpha" type="matrix" values="0 0 0 0 0 0 0 0 0 0 0 0 0 0 0 0 0 0 127 0" result="hardAlpha"/>
<feOffset dx="1" dy="1"/>
<feGaussianBlur stdDeviation="1"/>
<feComposite in2="hardAlpha" operator="arithmetic" k2="-1" k3="1"/>
<feColorMatrix type="matrix" values="0 0 0 0 1 0 0 0 0 1 0 0 0 0 1 0 0 0 1 0"/>
<feBlend mode="normal" in2="effect1_innerShadow" result="effect2_innerShadow"/>
</filter>
</defs>
</svg>
