<svg width="74" height="38" viewBox="0 0 74 38" fill="none" xmlns="http://www.w3.org/2000/svg">
<g opacity="0.8" filter="url(#filter0_ii)">
<rect width="74" height="38" rx="5" fill="#FFC000"/>
<path d="M26.2593 23.12C25.6113 23.12 24.9833 23.028 24.3753 22.844C23.7753 22.66 23.2993 22.416 22.9473 22.112L23.4873 20.9C23.8313 21.172 24.2513 21.396 24.7473 21.572C25.2513 21.74 25.7553 21.824 26.2593 21.824C26.8833 21.824 27.3473 21.724 27.6513 21.524C27.9633 21.324 28.1193 21.06 28.1193 20.732C28.1193 20.492 28.0313 20.296 27.8553 20.144C27.6873 19.984 27.4713 19.86 27.2073 19.772C26.9433 19.684 26.5833 19.584 26.1273 19.472C25.4873 19.32 24.9673 19.168 24.5673 19.016C24.1753 18.864 23.8353 18.628 23.5473 18.308C23.2673 17.98 23.1273 17.54 23.1273 16.988C23.1273 16.524 23.2513 16.104 23.4993 15.728C23.7553 15.344 24.1353 15.04 24.6393 14.816C25.1513 14.592 25.7753 14.48 26.5113 14.48C27.0233 14.48 27.5273 14.544 28.0233 14.672C28.5193 14.8 28.9473 14.984 29.3073 15.224L28.8153 16.436C28.4473 16.22 28.0633 16.056 27.6633 15.944C27.2633 15.832 26.8753 15.776 26.4993 15.776C25.8833 15.776 25.4233 15.88 25.1193 16.088C24.8233 16.296 24.6753 16.572 24.6753 16.916C24.6753 17.156 24.7593 17.352 24.9273 17.504C25.1033 17.656 25.3233 17.776 25.5873 17.864C25.8513 17.952 26.2113 18.052 26.6673 18.164C27.2913 18.308 27.8033 18.46 28.2033 18.62C28.6033 18.772 28.9433 19.008 29.2233 19.328C29.5113 19.648 29.6553 20.08 29.6553 20.624C29.6553 21.088 29.5273 21.508 29.2713 21.884C29.0233 22.26 28.6433 22.56 28.1313 22.784C27.6193 23.008 26.9953 23.12 26.2593 23.12ZM33.5062 16.52C34.4502 16.52 35.1702 16.748 35.6662 17.204C36.1702 17.652 36.4222 18.332 36.4222 19.244V23H35.0062V22.22C34.8222 22.5 34.5582 22.716 34.2142 22.868C33.8782 23.012 33.4702 23.084 32.9902 23.084C32.5102 23.084 32.0902 23.004 31.7302 22.844C31.3702 22.676 31.0902 22.448 30.8902 22.16C30.6982 21.864 30.6022 21.532 30.6022 21.164C30.6022 20.588 30.8142 20.128 31.2382 19.784C31.6702 19.432 32.3462 19.256 33.2662 19.256H34.9222V19.16C34.9222 18.712 34.7862 18.368 34.5142 18.128C34.2502 17.888 33.8542 17.768 33.3262 17.768C32.9662 17.768 32.6102 17.824 32.2582 17.936C31.9142 18.048 31.6222 18.204 31.3822 18.404L30.7942 17.312C31.1302 17.056 31.5342 16.86 32.0062 16.724C32.4782 16.588 32.9782 16.52 33.5062 16.52ZM33.3022 21.992C33.6782 21.992 34.0102 21.908 34.2982 21.74C34.5942 21.564 34.8022 21.316 34.9222 20.996V20.252H33.3742C32.5102 20.252 32.0782 20.536 32.0782 21.104C32.0782 21.376 32.1862 21.592 32.4022 21.752C32.6182 21.912 32.9182 21.992 33.3022 21.992ZM44.2301 16.592L41.4821 23H39.9341L37.1861 16.592H38.7461L40.7381 21.344L42.7901 16.592H44.2301ZM51.0158 19.832C51.0158 19.936 51.0078 20.084 50.9918 20.276H45.9638C46.0518 20.748 46.2798 21.124 46.6478 21.404C47.0238 21.676 47.4878 21.812 48.0398 21.812C48.7438 21.812 49.3238 21.58 49.7798 21.116L50.5838 22.04C50.2958 22.384 49.9318 22.644 49.4918 22.82C49.0518 22.996 48.5558 23.084 48.0038 23.084C47.2998 23.084 46.6798 22.944 46.1438 22.664C45.6078 22.384 45.1918 21.996 44.8958 21.5C44.6078 20.996 44.4638 20.428 44.4638 19.796C44.4638 19.172 44.6038 18.612 44.8838 18.116C45.1718 17.612 45.5678 17.22 46.0718 16.94C46.5758 16.66 47.1438 16.52 47.7758 16.52C48.3998 16.52 48.9558 16.66 49.4438 16.94C49.9398 17.212 50.3238 17.6 50.5958 18.104C50.8758 18.6 51.0158 19.176 51.0158 19.832ZM47.7758 17.72C47.2958 17.72 46.8878 17.864 46.5518 18.152C46.2238 18.432 46.0238 18.808 45.9518 19.28H49.5878C49.5238 18.816 49.3278 18.44 48.9998 18.152C48.6718 17.864 48.2638 17.72 47.7758 17.72Z" fill="#F7F7F7"/>
</g>
<defs>
<filter id="filter0_ii" x="-1" y="-1" width="76" height="40" filterUnits="userSpaceOnUse" color-interpolation-filters="sRGB">
<feFlood flood-opacity="0" result="BackgroundImageFix"/>
<feBlend mode="normal" in="SourceGraphic" in2="BackgroundImageFix" result="shape"/>
<feColorMatrix in="SourceAlpha" type="matrix" values="0 0 0 0 0 0 0 0 0 0 0 0 0 0 0 0 0 0 127 0" result="hardAlpha"/>
<feOffset dx="-1" dy="-1"/>
<feGaussianBlur stdDeviation="1"/>
<feComposite in2="hardAlpha" operator="arithmetic" k2="-1" k3="1"/>
<feColorMatrix type="matrix" values="0 0 0 0 0 0 0 0 0 0 0 0 0 0 0 0 0 0 0.1 0"/>
<feBlend mode="normal" in2="shape" result="effect1_innerShadow"/>
<feColorMatrix in="SourceAlpha" type="matrix" values="0 0 0 0 0 0 0 0 0 0 0 0 0 0 0 0 0 0 127 0" result="hardAlpha"/>
<feOffset dx="1" dy="1"/>
<feGaussianBlur stdDeviation="1"/>
<feComposite in2="hardAlpha" operator="arithmetic" k2="-1" k3="1"/>
<feColorMatrix type="matrix" values="0 0 0 0 1 0 0 0 0 1 0 0 0 0 1 0 0 0 0.5 0"/>
<feBlend mode="normal" in2="effect1_innerShadow" result="effect2_innerShadow"/>
</filter>
</defs>
</svg>
