<svg width="70" height="38" viewBox="0 0 70 38" fill="none" xmlns="http://www.w3.org/2000/svg">
<g opacity="0.8">
<rect x="0.5" width="69" height="38" rx="5" fill="#FFC000"/>
<path d="M24.2593 23.12C23.6113 23.12 22.9833 23.028 22.3753 22.844C21.7753 22.66 21.2993 22.416 20.9473 22.112L21.4873 20.9C21.8313 21.172 22.2513 21.396 22.7473 21.572C23.2513 21.74 23.7553 21.824 24.2593 21.824C24.8833 21.824 25.3473 21.724 25.6513 21.524C25.9633 21.324 26.1193 21.06 26.1193 20.732C26.1193 20.492 26.0313 20.296 25.8553 20.144C25.6873 19.984 25.4713 19.86 25.2073 19.772C24.9433 19.684 24.5833 19.584 24.1273 19.472C23.4873 19.32 22.9673 19.168 22.5673 19.016C22.1753 18.864 21.8353 18.628 21.5473 18.308C21.2673 17.98 21.1273 17.54 21.1273 16.988C21.1273 16.524 21.2513 16.104 21.4993 15.728C21.7553 15.344 22.1353 15.04 22.6393 14.816C23.1513 14.592 23.7753 14.48 24.5113 14.48C25.0233 14.48 25.5273 14.544 26.0233 14.672C26.5193 14.8 26.9473 14.984 27.3073 15.224L26.8153 16.436C26.4473 16.22 26.0633 16.056 25.6633 15.944C25.2633 15.832 24.8753 15.776 24.4993 15.776C23.8833 15.776 23.4233 15.88 23.1193 16.088C22.8233 16.296 22.6753 16.572 22.6753 16.916C22.6753 17.156 22.7593 17.352 22.9273 17.504C23.1033 17.656 23.3233 17.776 23.5873 17.864C23.8513 17.952 24.2113 18.052 24.6673 18.164C25.2913 18.308 25.8033 18.46 26.2033 18.62C26.6033 18.772 26.9433 19.008 27.2233 19.328C27.5113 19.648 27.6553 20.08 27.6553 20.624C27.6553 21.088 27.5273 21.508 27.2713 21.884C27.0233 22.26 26.6433 22.56 26.1313 22.784C25.6193 23.008 24.9953 23.12 24.2593 23.12ZM31.5062 16.52C32.4502 16.52 33.1702 16.748 33.6662 17.204C34.1702 17.652 34.4222 18.332 34.4222 19.244V23H33.0062V22.22C32.8222 22.5 32.5582 22.716 32.2142 22.868C31.8782 23.012 31.4702 23.084 30.9902 23.084C30.5102 23.084 30.0902 23.004 29.7302 22.844C29.3702 22.676 29.0902 22.448 28.8902 22.16C28.6982 21.864 28.6022 21.532 28.6022 21.164C28.6022 20.588 28.8142 20.128 29.2382 19.784C29.6702 19.432 30.3462 19.256 31.2662 19.256H32.9222V19.16C32.9222 18.712 32.7862 18.368 32.5142 18.128C32.2502 17.888 31.8542 17.768 31.3262 17.768C30.9662 17.768 30.6102 17.824 30.2582 17.936C29.9142 18.048 29.6222 18.204 29.3822 18.404L28.7942 17.312C29.1302 17.056 29.5342 16.86 30.0062 16.724C30.4782 16.588 30.9782 16.52 31.5062 16.52ZM31.3022 21.992C31.6782 21.992 32.0102 21.908 32.2982 21.74C32.5942 21.564 32.8022 21.316 32.9222 20.996V20.252H31.3742C30.5102 20.252 30.0782 20.536 30.0782 21.104C30.0782 21.376 30.1862 21.592 30.4022 21.752C30.6182 21.912 30.9182 21.992 31.3022 21.992ZM42.2301 16.592L39.4821 23H37.9341L35.1861 16.592H36.7461L38.7381 21.344L40.7901 16.592H42.2301ZM49.0158 19.832C49.0158 19.936 49.0078 20.084 48.9918 20.276H43.9638C44.0518 20.748 44.2798 21.124 44.6478 21.404C45.0238 21.676 45.4878 21.812 46.0398 21.812C46.7438 21.812 47.3238 21.58 47.7798 21.116L48.5838 22.04C48.2958 22.384 47.9318 22.644 47.4918 22.82C47.0518 22.996 46.5558 23.084 46.0038 23.084C45.2998 23.084 44.6798 22.944 44.1438 22.664C43.6078 22.384 43.1918 21.996 42.8958 21.5C42.6078 20.996 42.4638 20.428 42.4638 19.796C42.4638 19.172 42.6038 18.612 42.8838 18.116C43.1718 17.612 43.5678 17.22 44.0718 16.94C44.5758 16.66 45.1438 16.52 45.7758 16.52C46.3998 16.52 46.9558 16.66 47.4438 16.94C47.9398 17.212 48.3238 17.6 48.5958 18.104C48.8758 18.6 49.0158 19.176 49.0158 19.832ZM45.7758 17.72C45.2958 17.72 44.8878 17.864 44.5518 18.152C44.2238 18.432 44.0238 18.808 43.9518 19.28H47.5878C47.5238 18.816 47.3278 18.44 46.9998 18.152C46.6718 17.864 46.2638 17.72 45.7758 17.72Z" fill="#F7F7F7"/>
</g>
</svg>
