<svg width="92" height="38" viewBox="0 0 92 38" fill="none" xmlns="http://www.w3.org/2000/svg">
<g filter="url(#filter0_ii)">
<path d="M0 19C0 8.50659 8.50659 0 19 0H73C83.4934 0 92 8.50659 92 19C92 29.4934 83.4934 38 73 38H19C8.50659 38 0 29.4934 0 19Z" fill="#2BA329"/>
<path d="M25.0875 23.12C24.4395 23.12 23.8115 23.028 23.2035 22.844C22.6035 22.66 22.1275 22.416 21.7755 22.112L22.3155 20.9C22.6595 21.172 23.0795 21.396 23.5755 21.572C24.0795 21.74 24.5835 21.824 25.0875 21.824C25.7115 21.824 26.1755 21.724 26.4795 21.524C26.7915 21.324 26.9475 21.06 26.9475 20.732C26.9475 20.492 26.8595 20.296 26.6835 20.144C26.5155 19.984 26.2995 19.86 26.0355 19.772C25.7715 19.684 25.4115 19.584 24.9555 19.472C24.3155 19.32 23.7955 19.168 23.3955 19.016C23.0035 18.864 22.6635 18.628 22.3755 18.308C22.0955 17.98 21.9555 17.54 21.9555 16.988C21.9555 16.524 22.0795 16.104 22.3275 15.728C22.5835 15.344 22.9635 15.04 23.4675 14.816C23.9795 14.592 24.6035 14.48 25.3395 14.48C25.8515 14.48 26.3555 14.544 26.8515 14.672C27.3475 14.8 27.7755 14.984 28.1355 15.224L27.6435 16.436C27.2755 16.22 26.8915 16.056 26.4915 15.944C26.0915 15.832 25.7035 15.776 25.3275 15.776C24.7115 15.776 24.2515 15.88 23.9475 16.088C23.6515 16.296 23.5035 16.572 23.5035 16.916C23.5035 17.156 23.5875 17.352 23.7555 17.504C23.9315 17.656 24.1515 17.776 24.4155 17.864C24.6795 17.952 25.0395 18.052 25.4955 18.164C26.1195 18.308 26.6315 18.46 27.0315 18.62C27.4315 18.772 27.7715 19.008 28.0515 19.328C28.3395 19.648 28.4835 20.08 28.4835 20.624C28.4835 21.088 28.3555 21.508 28.0995 21.884C27.8515 22.26 27.4715 22.56 26.9595 22.784C26.4475 23.008 25.8235 23.12 25.0875 23.12ZM36.0903 16.592V23H34.6623V22.184C34.4223 22.472 34.1223 22.696 33.7623 22.856C33.4023 23.008 33.0143 23.084 32.5983 23.084C31.7423 23.084 31.0663 22.848 30.5703 22.376C30.0823 21.896 29.8383 21.188 29.8383 20.252V16.592H31.3383V20.048C31.3383 20.624 31.4663 21.056 31.7223 21.344C31.9863 21.624 32.3583 21.764 32.8383 21.764C33.3743 21.764 33.7983 21.6 34.1103 21.272C34.4303 20.936 34.5903 20.456 34.5903 19.832V16.592H36.0903ZM40.9943 23.084C40.3303 23.084 39.7343 22.944 39.2063 22.664C38.6783 22.384 38.2663 21.996 37.9703 21.5C37.6743 20.996 37.5263 20.428 37.5263 19.796C37.5263 19.164 37.6743 18.6 37.9703 18.104C38.2663 17.608 38.6743 17.22 39.1943 16.94C39.7223 16.66 40.3223 16.52 40.9943 16.52C41.6263 16.52 42.1783 16.648 42.6503 16.904C43.1303 17.16 43.4903 17.528 43.7303 18.008L42.5783 18.68C42.3943 18.384 42.1623 18.164 41.8823 18.02C41.6103 17.868 41.3103 17.792 40.9823 17.792C40.4223 17.792 39.9583 17.976 39.5903 18.344C39.2223 18.704 39.0383 19.188 39.0383 19.796C39.0383 20.404 39.2183 20.892 39.5783 21.26C39.9463 21.62 40.4143 21.8 40.9823 21.8C41.3103 21.8 41.6103 21.728 41.8823 21.584C42.1623 21.432 42.3943 21.208 42.5783 20.912L43.7303 21.584C43.4823 22.064 43.1183 22.436 42.6383 22.7C42.1663 22.956 41.6183 23.084 40.9943 23.084ZM47.8732 23.084C47.2092 23.084 46.6132 22.944 46.0852 22.664C45.5572 22.384 45.1452 21.996 44.8492 21.5C44.5532 20.996 44.4052 20.428 44.4052 19.796C44.4052 19.164 44.5532 18.6 44.8492 18.104C45.1452 17.608 45.5532 17.22 46.0732 16.94C46.6012 16.66 47.2012 16.52 47.8732 16.52C48.5052 16.52 49.0572 16.648 49.5292 16.904C50.0092 17.16 50.3692 17.528 50.6092 18.008L49.4572 18.68C49.2732 18.384 49.0412 18.164 48.7612 18.02C48.4892 17.868 48.1892 17.792 47.8612 17.792C47.3012 17.792 46.8372 17.976 46.4692 18.344C46.1012 18.704 45.9172 19.188 45.9172 19.796C45.9172 20.404 46.0972 20.892 46.4572 21.26C46.8252 21.62 47.2932 21.8 47.8612 21.8C48.1892 21.8 48.4892 21.728 48.7612 21.584C49.0412 21.432 49.2732 21.208 49.4572 20.912L50.6092 21.584C50.3612 22.064 49.9972 22.436 49.5172 22.7C49.0452 22.956 48.4972 23.084 47.8732 23.084ZM57.8361 19.832C57.8361 19.936 57.8281 20.084 57.8121 20.276H52.7841C52.8721 20.748 53.1001 21.124 53.4681 21.404C53.8441 21.676 54.3081 21.812 54.8601 21.812C55.5641 21.812 56.1441 21.58 56.6001 21.116L57.4041 22.04C57.1161 22.384 56.7521 22.644 56.3121 22.82C55.8721 22.996 55.3761 23.084 54.8241 23.084C54.1201 23.084 53.5001 22.944 52.9641 22.664C52.4281 22.384 52.0121 21.996 51.7161 21.5C51.4281 20.996 51.2841 20.428 51.2841 19.796C51.2841 19.172 51.4241 18.612 51.7041 18.116C51.9921 17.612 52.3881 17.22 52.8921 16.94C53.3961 16.66 53.9641 16.52 54.5961 16.52C55.2201 16.52 55.7761 16.66 56.2641 16.94C56.7601 17.212 57.1441 17.6 57.4161 18.104C57.6961 18.6 57.8361 19.176 57.8361 19.832ZM54.5961 17.72C54.1161 17.72 53.7081 17.864 53.3721 18.152C53.0441 18.432 52.8441 18.808 52.7721 19.28H56.4081C56.3441 18.816 56.1481 18.44 55.8201 18.152C55.4921 17.864 55.0841 17.72 54.5961 17.72ZM61.257 23.084C60.737 23.084 60.229 23.016 59.733 22.88C59.237 22.744 58.841 22.572 58.545 22.364L59.121 21.224C59.409 21.416 59.753 21.572 60.153 21.692C60.561 21.804 60.961 21.86 61.353 21.86C62.249 21.86 62.697 21.624 62.697 21.152C62.697 20.928 62.581 20.772 62.349 20.684C62.125 20.596 61.761 20.512 61.257 20.432C60.729 20.352 60.297 20.26 59.961 20.156C59.633 20.052 59.345 19.872 59.097 19.616C58.857 19.352 58.737 18.988 58.737 18.524C58.737 17.916 58.989 17.432 59.493 17.072C60.005 16.704 60.693 16.52 61.557 16.52C61.997 16.52 62.437 16.572 62.877 16.676C63.317 16.772 63.677 16.904 63.957 17.072L63.381 18.212C62.837 17.892 62.225 17.732 61.545 17.732C61.105 17.732 60.769 17.8 60.537 17.936C60.313 18.064 60.201 18.236 60.201 18.452C60.201 18.692 60.321 18.864 60.561 18.968C60.809 19.064 61.189 19.156 61.701 19.244C62.213 19.324 62.633 19.416 62.961 19.52C63.289 19.624 63.569 19.8 63.801 20.048C64.041 20.296 64.161 20.648 64.161 21.104C64.161 21.704 63.901 22.184 63.381 22.544C62.861 22.904 62.153 23.084 61.257 23.084ZM67.4328 23.084C66.9128 23.084 66.4048 23.016 65.9088 22.88C65.4128 22.744 65.0168 22.572 64.7208 22.364L65.2968 21.224C65.5848 21.416 65.9288 21.572 66.3288 21.692C66.7368 21.804 67.1368 21.86 67.5288 21.86C68.4248 21.86 68.8728 21.624 68.8728 21.152C68.8728 20.928 68.7568 20.772 68.5248 20.684C68.3008 20.596 67.9368 20.512 67.4328 20.432C66.9048 20.352 66.4728 20.26 66.1368 20.156C65.8088 20.052 65.5208 19.872 65.2728 19.616C65.0328 19.352 64.9128 18.988 64.9128 18.524C64.9128 17.916 65.1648 17.432 65.6688 17.072C66.1808 16.704 66.8688 16.52 67.7328 16.52C68.1728 16.52 68.6128 16.572 69.0528 16.676C69.4928 16.772 69.8528 16.904 70.1328 17.072L69.5568 18.212C69.0128 17.892 68.4008 17.732 67.7208 17.732C67.2808 17.732 66.9448 17.8 66.7128 17.936C66.4888 18.064 66.3768 18.236 66.3768 18.452C66.3768 18.692 66.4968 18.864 66.7368 18.968C66.9848 19.064 67.3648 19.156 67.8768 19.244C68.3888 19.324 68.8088 19.416 69.1368 19.52C69.4648 19.624 69.7448 19.8 69.9768 20.048C70.2168 20.296 70.3368 20.648 70.3368 21.104C70.3368 21.704 70.0768 22.184 69.5568 22.544C69.0368 22.904 68.3288 23.084 67.4328 23.084Z" fill="#F7F7F7"/>
</g>
<defs>
<filter id="filter0_ii" x="-2" y="-2" width="95" height="41" filterUnits="userSpaceOnUse" color-interpolation-filters="sRGB">
<feFlood flood-opacity="0" result="BackgroundImageFix"/>
<feBlend mode="normal" in="SourceGraphic" in2="BackgroundImageFix" result="shape"/>
<feColorMatrix in="SourceAlpha" type="matrix" values="0 0 0 0 0 0 0 0 0 0 0 0 0 0 0 0 0 0 127 0" result="hardAlpha"/>
<feOffset dx="-2" dy="-2"/>
<feGaussianBlur stdDeviation="1"/>
<feComposite in2="hardAlpha" operator="arithmetic" k2="-1" k3="1"/>
<feColorMatrix type="matrix" values="0 0 0 0 0 0 0 0 0 0 0 0 0 0 0 0 0 0 0.15 0"/>
<feBlend mode="normal" in2="shape" result="effect1_innerShadow"/>
<feColorMatrix in="SourceAlpha" type="matrix" values="0 0 0 0 0 0 0 0 0 0 0 0 0 0 0 0 0 0 127 0" result="hardAlpha"/>
<feOffset dx="1" dy="1"/>
<feGaussianBlur stdDeviation="1"/>
<feComposite in2="hardAlpha" operator="arithmetic" k2="-1" k3="1"/>
<feColorMatrix type="matrix" values="0 0 0 0 1 0 0 0 0 1 0 0 0 0 1 0 0 0 1 0"/>
<feBlend mode="normal" in2="effect1_innerShadow" result="effect2_innerShadow"/>
</filter>
</defs>
</svg>
