<svg width="142" height="38" viewBox="0 0 142 38" fill="none" xmlns="http://www.w3.org/2000/svg">
<g opacity="0.8">
<rect x="0.5" width="141" height="38" rx="5" fill="#FFC000"/>
<path d="M26.1428 18.62C26.6468 18.78 27.0388 19.04 27.3188 19.4C27.6068 19.752 27.7508 20.168 27.7508 20.648C27.7508 21.152 27.5868 21.592 27.2588 21.968C26.9308 22.336 26.4908 22.62 25.9388 22.82C25.3948 23.02 24.7988 23.12 24.1508 23.12C23.5908 23.12 23.0268 23.044 22.4588 22.892C21.8988 22.732 21.3788 22.496 20.8988 22.184L21.4028 21.044C21.7708 21.292 22.1788 21.484 22.6268 21.62C23.0748 21.748 23.5188 21.812 23.9588 21.812C24.5908 21.812 25.1148 21.688 25.5308 21.44C25.9548 21.192 26.1668 20.852 26.1668 20.42C26.1668 20.052 26.0148 19.772 25.7108 19.58C25.4068 19.388 24.9868 19.292 24.4508 19.292H22.4948V18.068H24.3308C24.7948 18.068 25.1588 17.972 25.4228 17.78C25.6868 17.588 25.8188 17.328 25.8188 17C25.8188 16.608 25.6388 16.304 25.2788 16.088C24.9268 15.872 24.4748 15.764 23.9228 15.764C23.5468 15.764 23.1588 15.82 22.7588 15.932C22.3588 16.036 21.9828 16.192 21.6308 16.4L21.1388 15.14C21.5708 14.908 22.0268 14.736 22.5068 14.624C22.9948 14.504 23.4788 14.444 23.9588 14.444C24.5828 14.444 25.1548 14.54 25.6748 14.732C26.2028 14.924 26.6228 15.2 26.9348 15.56C27.2468 15.912 27.4028 16.328 27.4028 16.808C27.4028 17.224 27.2908 17.588 27.0668 17.9C26.8428 18.212 26.5348 18.452 26.1428 18.62ZM31.7398 16.52C32.6838 16.52 33.4038 16.748 33.8998 17.204C34.4038 17.652 34.6558 18.332 34.6558 19.244V23H33.2398V22.22C33.0558 22.5 32.7918 22.716 32.4478 22.868C32.1118 23.012 31.7038 23.084 31.2238 23.084C30.7438 23.084 30.3238 23.004 29.9638 22.844C29.6038 22.676 29.3238 22.448 29.1238 22.16C28.9318 21.864 28.8358 21.532 28.8358 21.164C28.8358 20.588 29.0478 20.128 29.4718 19.784C29.9038 19.432 30.5798 19.256 31.4998 19.256H33.1558V19.16C33.1558 18.712 33.0198 18.368 32.7478 18.128C32.4838 17.888 32.0878 17.768 31.5598 17.768C31.1998 17.768 30.8438 17.824 30.4918 17.936C30.1478 18.048 29.8558 18.204 29.6158 18.404L29.0278 17.312C29.3638 17.056 29.7678 16.86 30.2398 16.724C30.7118 16.588 31.2118 16.52 31.7398 16.52ZM31.5358 21.992C31.9118 21.992 32.2438 21.908 32.5318 21.74C32.8278 21.564 33.0358 21.316 33.1558 20.996V20.252H31.6078C30.7438 20.252 30.3118 20.536 30.3118 21.104C30.3118 21.376 30.4198 21.592 30.6358 21.752C30.8518 21.912 31.1518 21.992 31.5358 21.992ZM41.4319 17.864H38.0119V23H36.5119V16.592H41.4319V17.864ZM46.0756 16.52C46.6996 16.52 47.2556 16.656 47.7436 16.928C48.2396 17.2 48.6276 17.584 48.9076 18.08C49.1876 18.576 49.3276 19.148 49.3276 19.796C49.3276 20.444 49.1876 21.02 48.9076 21.524C48.6276 22.02 48.2396 22.404 47.7436 22.676C47.2556 22.948 46.6996 23.084 46.0756 23.084C45.2116 23.084 44.5276 22.796 44.0236 22.22V25.328H42.5236V16.592H43.9516V17.432C44.1996 17.128 44.5036 16.9 44.8636 16.748C45.2316 16.596 45.6356 16.52 46.0756 16.52ZM45.9076 21.8C46.4596 21.8 46.9116 21.616 47.2636 21.248C47.6236 20.88 47.8036 20.396 47.8036 19.796C47.8036 19.196 47.6236 18.712 47.2636 18.344C46.9116 17.976 46.4596 17.792 45.9076 17.792C45.5476 17.792 45.2236 17.876 44.9356 18.044C44.6476 18.204 44.4196 18.436 44.2516 18.74C44.0836 19.044 43.9996 19.396 43.9996 19.796C43.9996 20.196 44.0836 20.548 44.2516 20.852C44.4196 21.156 44.6476 21.392 44.9356 21.56C45.2236 21.72 45.5476 21.8 45.9076 21.8ZM56.6927 16.592L53.6927 23.516C53.4127 24.212 53.0727 24.7 52.6727 24.98C52.2727 25.268 51.7887 25.412 51.2207 25.412C50.9007 25.412 50.5847 25.36 50.2727 25.256C49.9607 25.152 49.7047 25.008 49.5047 24.824L50.1047 23.72C50.2487 23.856 50.4167 23.964 50.6087 24.044C50.8087 24.124 51.0087 24.164 51.2087 24.164C51.4727 24.164 51.6887 24.096 51.8567 23.96C52.0327 23.824 52.1927 23.596 52.3367 23.276L52.4447 23.024L49.6487 16.592H51.2087L53.2247 21.332L55.2527 16.592H56.6927ZM61.4102 19.664C61.8102 19.776 62.1182 19.96 62.3342 20.216C62.5582 20.464 62.6702 20.764 62.6702 21.116C62.6702 21.508 62.5382 21.856 62.2742 22.16C62.0102 22.456 61.6462 22.688 61.1822 22.856C60.7182 23.024 60.1902 23.108 59.5982 23.108C59.1022 23.108 58.6182 23.052 58.1462 22.94C57.6742 22.82 57.2462 22.652 56.8622 22.436L57.2942 21.32C57.6062 21.496 57.9582 21.632 58.3502 21.728C58.7422 21.824 59.1342 21.872 59.5262 21.872C60.0302 21.872 60.4222 21.796 60.7022 21.644C60.9902 21.484 61.1342 21.268 61.1342 20.996C61.1342 20.748 61.0222 20.556 60.7982 20.42C60.5822 20.284 60.2742 20.216 59.8742 20.216H58.6262V19.208H59.7542C60.1302 19.208 60.4222 19.144 60.6302 19.016C60.8462 18.888 60.9542 18.708 60.9542 18.476C60.9542 18.244 60.8262 18.06 60.5702 17.924C60.3142 17.788 59.9622 17.72 59.5142 17.72C58.8742 17.72 58.1982 17.876 57.4862 18.188L57.1022 17.084C57.9422 16.692 58.7902 16.496 59.6462 16.496C60.1902 16.496 60.6782 16.572 61.1102 16.724C61.5422 16.868 61.8782 17.076 62.1182 17.348C62.3662 17.612 62.4902 17.916 62.4902 18.26C62.4902 18.572 62.3942 18.852 62.2022 19.1C62.0102 19.34 61.7462 19.528 61.4102 19.664ZM64.2268 16.592H65.7268V20.816L69.2668 16.592H70.6348V23H69.1348V18.776L65.6068 23H64.2268V16.592ZM77.7285 17.864H75.4845V23H73.9845V17.864H71.7285V16.592H77.7285V17.864ZM82.0326 18.704C82.8486 18.704 83.4726 18.888 83.9046 19.256C84.3446 19.624 84.5646 20.144 84.5646 20.816C84.5646 21.52 84.3246 22.064 83.8446 22.448C83.3646 22.832 82.6886 23.02 81.8166 23.012L78.8166 23V16.592H80.3166V18.692L82.0326 18.704ZM81.6846 21.908C82.1246 21.916 82.4606 21.824 82.6926 21.632C82.9246 21.44 83.0406 21.16 83.0406 20.792C83.0406 20.432 82.9286 20.168 82.7046 20C82.4806 19.832 82.1406 19.744 81.6846 19.736L80.3166 19.724V21.896L81.6846 21.908ZM97.6714 19.784C97.6714 20.776 97.3394 21.556 96.6754 22.124C96.0194 22.692 95.0794 23.016 93.8554 23.096V25.328H92.4394V23.108C91.2154 23.028 90.2754 22.704 89.6194 22.136C88.9634 21.568 88.6354 20.784 88.6354 19.784C88.6354 18.792 88.9634 18.02 89.6194 17.468C90.2754 16.908 91.2154 16.588 92.4394 16.508V14.096H93.8554V16.508C95.0794 16.588 96.0194 16.908 96.6754 17.468C97.3394 18.028 97.6714 18.8 97.6714 19.784ZM90.1114 19.784C90.1114 20.4 90.2994 20.88 90.6754 21.224C91.0594 21.568 91.6474 21.776 92.4394 21.848V17.78C91.6474 17.844 91.0594 18.044 90.6754 18.38C90.2994 18.716 90.1114 19.184 90.1114 19.784ZM93.8554 21.848C95.4234 21.704 96.2074 21.016 96.2074 19.784C96.2074 19.176 96.0114 18.708 95.6194 18.38C95.2354 18.044 94.6474 17.844 93.8554 17.78V21.848ZM101.431 16.52C102.375 16.52 103.095 16.748 103.591 17.204C104.095 17.652 104.347 18.332 104.347 19.244V23H102.931V22.22C102.747 22.5 102.483 22.716 102.139 22.868C101.803 23.012 101.395 23.084 100.915 23.084C100.435 23.084 100.015 23.004 99.6552 22.844C99.2952 22.676 99.0152 22.448 98.8152 22.16C98.6232 21.864 98.5272 21.532 98.5272 21.164C98.5272 20.588 98.7392 20.128 99.1632 19.784C99.5952 19.432 100.271 19.256 101.191 19.256H102.847V19.16C102.847 18.712 102.711 18.368 102.439 18.128C102.175 17.888 101.779 17.768 101.251 17.768C100.891 17.768 100.535 17.824 100.183 17.936C99.8392 18.048 99.5472 18.204 99.3072 18.404L98.7192 17.312C99.0552 17.056 99.4592 16.86 99.9312 16.724C100.403 16.588 100.903 16.52 101.431 16.52ZM101.227 21.992C101.603 21.992 101.935 21.908 102.223 21.74C102.519 21.564 102.727 21.316 102.847 20.996V20.252H101.299C100.435 20.252 100.003 20.536 100.003 21.104C100.003 21.376 100.111 21.592 100.327 21.752C100.543 21.912 100.843 21.992 101.227 21.992ZM106.203 16.592H107.703V20.816L111.243 16.592H112.611V23H111.111V18.776L107.583 23H106.203V16.592ZM109.311 15.836C108.663 15.836 108.167 15.688 107.823 15.392C107.487 15.088 107.315 14.648 107.307 14.072H108.303C108.311 14.36 108.399 14.588 108.567 14.756C108.743 14.924 108.987 15.008 109.299 15.008C109.603 15.008 109.843 14.924 110.019 14.756C110.203 14.588 110.299 14.36 110.307 14.072H111.327C111.319 14.648 111.143 15.088 110.799 15.392C110.455 15.688 109.959 15.836 109.311 15.836ZM120.437 16.592V23H118.937V17.864H116.537L116.477 19.136C116.437 19.984 116.357 20.696 116.237 21.272C116.125 21.84 115.929 22.292 115.649 22.628C115.377 22.956 115.001 23.12 114.521 23.12C114.297 23.12 114.021 23.076 113.693 22.988L113.765 21.728C113.877 21.752 113.973 21.764 114.053 21.764C114.357 21.764 114.585 21.644 114.737 21.404C114.889 21.156 114.985 20.864 115.025 20.528C115.073 20.184 115.113 19.696 115.145 19.064L115.253 16.592H120.437Z" fill="#F7F7F7"/>
</g>
</svg>
