<svg width="27" height="21" viewBox="0 0 27 21" fill="none" xmlns="http://www.w3.org/2000/svg">
<path d="M26.5489 4.49968L26.295 2.2065L24 0.5H21.5L20.9 1.64352C20.9 1.77046 20.7731 1.8974 20.7096 2.02434C20.3288 2.53211 19.821 3.1668 19.2498 3.8015C18.0438 5.00744 16.711 6.27686 15.3781 7.48279C12.7123 9.89466 9.85616 12.3065 7 14.6549L8.90411 17.5111C12.3315 15.7974 15.5685 13.8298 18.742 11.6718L18.7423 11.6716C20.329 10.5292 21.9156 9.38681 23.4388 8.05402C24.2005 7.35585 24.9621 6.65767 25.7237 5.70561C25.9141 5.45173 26.1046 5.26133 26.295 4.94398L26.5489 4.49968Z" fill="#FF8B7B"/>
<path d="M8.5 13.5L3.67662 15.7527L0 20L2.5 21H5L6.78666 20.3225C6.78666 20.3225 10.6192 18.4274 11 15L8.5 13.5Z" fill="#FF8B7B"/>
</svg>
