<svg width="68" height="113" viewBox="0 0 68 113" fill="none" xmlns="http://www.w3.org/2000/svg">
<path d="M48.9884 12.9412C48.8615 13.5124 48.671 14.1471 48.5441 14.7183C48.5441 14.7183 48.5441 14.7183 48.5441 14.7818C47.5286 19.0978 46.8939 23.4138 46.4496 27.4759C45.1167 39.7256 45.7514 50.1347 45.4975 52.864H20.9345C17.1263 27.0316 23.2829 13.195 23.2829 13.195C23.2829 13.195 25.314 12.6238 27.9163 12.243C28.6779 12.116 29.5665 11.9891 30.3916 11.9256C33.1843 11.6717 37.6907 11.7987 40.8007 11.9256C41.5624 11.9891 42.324 12.0526 43.0222 12.1161C46.2592 12.4334 48.9884 12.9412 48.9884 12.9412Z" fill="#FFC107"/>
<path d="M48.544 14.7181C48.544 14.7816 48.544 14.7816 48.544 14.7816C47.5285 19.0976 46.8938 23.4135 46.4495 27.4756C43.7837 23.7309 43.0221 19.7957 43.4664 17.3204C43.9741 14.5912 46.9572 14.5277 48.544 14.7181Z" fill="#D1A110"/>
<path d="M43.0867 12.1158L42.3886 13.0679C42.2616 13.2583 39.0881 17.5743 32.3602 18.7802L31.789 18.9071L31.2178 18.6532C29.1233 17.6377 27.9173 16.3049 27.6635 14.6546C27.5365 13.766 27.7269 12.9409 27.9808 12.3062C28.7424 12.1793 29.631 12.0523 30.4561 11.9889C33.2488 11.735 37.7552 11.8619 40.8653 11.9889C41.5634 11.9889 42.3251 12.0523 43.0867 12.1158Z" fill="white"/>
<path d="M40.4214 0.183838C39.5963 3.54776 38.6442 9.70438 40.8657 11.9258C40.8657 11.9258 38.073 15.7341 32.0433 16.8765C27.4734 14.7185 30.4566 11.9258 30.4566 11.9258C34.2648 11.0373 34.2648 8.24457 33.757 5.64229L40.4214 0.183838Z" fill="#FF8B7B"/>
<path d="M47.7206 14.7183C48.6092 14.9087 49.3073 15.0991 50.069 15.2895C50.8306 15.4799 51.5922 15.7338 52.2904 15.9242C53.7502 16.3685 55.2735 16.9397 56.7333 17.511C58.1932 18.0822 59.653 18.7169 61.0493 19.4785C61.7475 19.8594 62.4457 20.2402 63.1438 20.621C63.4612 20.8114 63.842 21.0653 64.1594 21.2557L64.6671 21.5731C64.7306 21.5731 64.9845 21.7635 65.1749 21.8904C65.3653 22.0174 65.5557 22.2078 65.7461 22.3982C66.4443 23.0963 66.8886 24.0484 67.0155 24.8101C67.2059 25.5717 67.206 26.2064 67.1425 26.7776C67.079 27.9201 66.8251 28.8087 66.5078 29.6973C65.9365 31.3475 65.1749 32.8073 64.3498 34.1402C62.763 36.8694 60.9224 39.2813 58.8913 41.6297L56.0986 39.6621C57.4315 37.1233 58.7009 34.4575 59.7799 31.8552C60.2877 30.5858 60.732 29.253 60.9859 28.047C61.1128 27.4758 61.1763 26.9046 61.1763 26.5872C61.1763 26.3968 61.1128 26.3333 61.1128 26.3968C61.1128 26.3968 61.1763 26.6507 61.3667 26.8411C61.4302 26.9046 61.4301 26.9046 61.4936 26.968C61.4936 26.968 61.6206 27.095 61.4936 26.968L61.0493 26.7142C60.732 26.5872 60.4781 26.3968 60.1608 26.2699C59.526 26.016 58.8913 25.6986 58.2566 25.4448C56.9872 24.8735 55.6544 24.4292 54.3215 23.9215C52.9886 23.4772 51.6557 23.0329 50.3229 22.5886C49.6247 22.3982 48.99 22.2078 48.2918 22.0173L46.3242 21.5096L47.7206 14.7183Z" fill="#FF8B7B"/>
<path d="M44.4825 13.3854C47.8465 10.5927 60.0327 17.1936 60.0327 17.1936L52.8606 26.2064C52.8606 26.2064 51.5912 25.889 46.5136 23.6041C41.1821 21.1922 40.8647 16.3685 44.4825 13.3854Z" fill="#FFC107"/>
<path d="M55.654 39.7888L52.8613 43.47L58.5737 43.8509C58.5737 43.8509 60.4778 40.1061 58.4467 39.281L55.654 39.7888Z" fill="#FF8B7B"/>
<path d="M53.1787 48.675L57.939 48.7385L58.5737 43.8513L52.8613 43.4705L53.1787 48.675Z" fill="#FF8B7B"/>
<path d="M29.7304 32.0501C29.2029 32.0501 28.6754 31.824 28.2651 31.4284C27.4445 30.6372 27.0343 29.1679 27.2101 27.4725C27.4446 24.8164 29.0271 22.6124 30.7854 22.4429C31.4302 22.3863 32.0163 22.6124 32.4852 23.0645C33.3058 23.8557 33.7161 25.325 33.5402 27.0204C33.3058 29.6765 31.7233 31.8805 29.9649 32.0501C29.8477 32.0501 29.789 32.0501 29.7304 32.0501ZM30.9027 23.008C30.8441 23.008 30.7854 23.008 30.7854 23.008C29.3787 23.121 27.9721 25.212 27.7376 27.529C27.6204 28.9984 27.9135 30.3547 28.6754 31.0328C29.0271 31.3719 29.4374 31.5415 29.9063 31.4849C31.313 31.3719 32.7197 29.2809 32.9541 26.9639C33.0713 25.4946 32.7783 24.1382 32.0163 23.4601C31.6646 23.1775 31.313 23.008 30.9027 23.008Z" fill="white"/>
<path d="M24.8068 110.431H20.237L16.873 99.8318H21.4429L24.8068 110.431Z" fill="#FF8B7B"/>
<path d="M19.3476 107.766H24.4887C24.6791 107.766 24.8061 107.893 24.8695 108.083L25.5677 112.145C25.6312 112.59 25.3138 112.97 24.8695 112.97C23.0924 112.97 22.2038 112.843 19.9189 112.843C18.5225 112.843 13.8892 112.97 11.9851 112.97C10.081 112.97 9.89056 111.066 10.7157 110.876C14.27 110.114 17.3801 109.035 18.586 108.02C18.7764 107.829 19.0937 107.766 19.3476 107.766Z" fill="#171A2A"/>
<path d="M21.4429 99.8318H16.873L18.5868 105.29H23.1566L21.4429 99.8318Z" fill="#EA7063"/>
<path d="M17.8255 108.527C17.4446 108.527 17.1273 108.464 16.9369 108.273C16.7465 108.146 16.683 107.956 16.7465 107.702C16.7465 107.512 16.8734 107.448 16.9369 107.385C17.4446 107.131 18.9044 108.019 19.0314 108.146C19.0949 108.146 19.0949 108.21 19.0949 108.273C19.0949 108.337 19.0314 108.337 19.0314 108.337C18.714 108.464 18.2063 108.527 17.8255 108.527ZM17.1908 107.575C17.1273 107.575 17.0638 107.575 17.0638 107.575C17.0638 107.575 17.0004 107.639 17.0004 107.702C17.0004 107.892 17.0003 108.019 17.1273 108.083C17.3812 108.273 17.9524 108.337 18.714 108.146C18.1428 107.956 17.5081 107.575 17.1908 107.575Z" fill="#FF4444"/>
<path d="M18.9672 108.4C18.4595 108.146 17.5709 107.131 17.6978 106.623C17.6978 106.496 17.7613 106.369 18.0786 106.306C18.269 106.306 18.396 106.306 18.5229 106.433C19.0307 106.877 19.0942 108.21 19.0942 108.273C19.0942 108.337 19.0942 108.337 18.9672 108.4C19.0307 108.4 19.0307 108.4 18.9672 108.4ZM18.1421 106.56C17.9517 106.56 17.9517 106.623 17.9517 106.686C17.8882 107.004 18.396 107.702 18.8403 108.083C18.7768 107.639 18.6499 106.94 18.396 106.686C18.3325 106.56 18.2056 106.56 18.1421 106.56Z" fill="#FF4444"/>
<path d="M29.63 52.8638C29.63 52.8638 -1.53388 54.4505 0.68758 67.5889C3.09945 81.9966 16.4917 103.83 16.4917 103.83H24.4889C24.4889 103.83 19.0305 82.8218 16.4917 73.682C14.7145 67.335 36.3579 71.0163 40.293 67.5254C43.4031 64.7327 44.9898 59.9724 45.4341 52.8638C35.9136 52.8638 29.63 52.8638 29.63 52.8638Z" fill="#171A2A"/>
<path d="M24.997 104.021H15.9842L14.207 101.165H24.9335L24.997 104.021Z" fill="#FF4444"/>
</svg>
