<svg width="20" height="27" viewBox="0 0 20 27" fill="none" xmlns="http://www.w3.org/2000/svg">
<path d="M4.62414 9.83806C2.33921 10.7901 0.752441 17.1371 3.54513 18.597C6.4013 20.0568 9.00358 8.06089 4.62414 9.83806Z" fill="#0F264C"/>
<path d="M15.4145 15.106C14.9067 19.6758 14.8433 22.3416 12.4314 24.6265C8.81359 28.1174 3.29169 26.0229 2.46658 21.5165C1.70493 17.4544 2.65699 10.6631 7.22685 8.8859C11.6698 7.1722 15.9223 10.5996 15.4145 15.106Z" fill="#FF8B7B"/>
<path d="M11.8599 5.20456C14.3353 3.6178 18.1435 5.20456 17.3818 7.36255C16.1759 10.7899 19.3494 7.48949 19.2859 11.6151C19.2859 14.2808 16.2394 20.6278 14.3987 20.4374C12.4946 20.247 11.733 16.8831 12.9389 13.1383C13.8275 10.3457 11.4156 11.4246 7.98822 11.8055C0.943021 12.5036 -3.88072 3.30045 4.24348 3.80822C12.0503 4.31598 11.2252 0 11.2252 0C11.2252 0 14.0179 4.56985 9.57498 4.63332C5.06859 4.56985 6.71882 8.44155 11.8599 5.20456Z" fill="#171A2A"/>
<path d="M17.1915 20.1201C16.4933 21.1356 15.4143 21.8338 14.3988 22.0242C12.8755 22.3415 12.3043 21.0087 12.8755 19.6758C13.3833 18.4698 14.7796 16.8196 16.1759 17.0735C17.6357 17.3908 18.0166 18.9776 17.1915 20.1201Z" fill="#FF8B7B"/>
</svg>
