<svg width="64" height="61" viewBox="0 0 64 61" fill="none" xmlns="http://www.w3.org/2000/svg">
<path d="M9.34961 57.5908H13.9195L14.4907 46.9912H9.92085L9.34961 57.5908Z" fill="#FF8B7B"/>
<path d="M9.09568 54.9253H14.2368C14.4272 54.9253 14.5541 55.0522 14.6176 55.2426L15.3158 59.3047C15.3792 59.749 15.0619 60.1299 14.6176 60.1299C12.8404 60.1299 11.9518 60.0029 9.66691 60.0029C8.27057 60.0029 3.63723 60.1299 1.73313 60.1299C-0.170983 60.1299 -0.361394 58.2257 0.46372 58.0353C4.01806 57.2737 7.12811 56.1947 8.33404 55.1792C8.52445 54.9888 8.77833 54.9253 9.09568 54.9253Z" fill="#171A2A"/>
<path d="M9.92087 46.9912H14.4907L14.2368 52.4497H9.60352L9.92087 46.9912Z" fill="#EA7063"/>
<path d="M47.7497 0.0229751C47.7497 0.0229751 16.0146 -1.05601 11.762 11.5746C7.12871 25.4111 8.08077 50.9896 8.08077 50.9896H16.0146C16.0146 50.9896 19.0611 32.7102 21.1556 23.4435C23.3136 13.796 54.3506 18.1755 58.2858 14.6846C61.3958 11.8919 62.9826 7.13165 63.4269 0.0229751C53.9063 0.0229751 47.7497 0.0229751 47.7497 0.0229751Z" fill="#0A1B35"/>
<path d="M16.585 51.1804H7.57225L7.31836 48.3242L17.1563 48.5781L16.585 51.1804Z" fill="#FF4444"/>
<path d="M7.50904 55.6864C7.12822 55.6864 6.81087 55.6229 6.62046 55.4325C6.43005 55.3056 6.36658 55.1151 6.43005 54.8613C6.43005 54.6708 6.55699 54.6074 6.62046 54.5439C7.12823 54.29 8.58804 55.1786 8.71498 55.3056C8.77845 55.3056 8.77845 55.369 8.77845 55.4325C8.77845 55.496 8.71498 55.496 8.71498 55.496C8.39762 55.6229 7.95334 55.6864 7.50904 55.6864ZM6.87434 54.7343C6.81087 54.7343 6.7474 54.7343 6.7474 54.7343C6.7474 54.7343 6.68393 54.7978 6.68393 54.8613C6.68393 55.0517 6.68393 55.1786 6.81087 55.2421C7.06475 55.4325 7.63598 55.496 8.39762 55.3056C7.88986 55.1151 7.25516 54.7343 6.87434 54.7343Z" fill="#FF4444"/>
<path d="M8.71527 55.5594C8.71527 55.5594 8.65179 55.5594 8.71527 55.5594C8.2075 55.3055 7.31892 54.29 7.44586 53.7822C7.44586 53.6553 7.50933 53.5283 7.82668 53.4648C8.0171 53.4648 8.14403 53.4648 8.27098 53.5918C8.77874 54.0361 8.84221 55.369 8.84221 55.4324C8.84221 55.4959 8.77874 55.4959 8.71527 55.5594ZM7.89016 53.7187C7.82669 53.7187 7.82669 53.7187 7.89016 53.7187C7.69975 53.7187 7.69975 53.7822 7.69975 53.8457C7.63628 54.163 8.14403 54.8612 8.58833 55.242C8.52486 54.7977 8.39792 54.0996 8.14404 53.8457C8.0171 53.7187 7.95363 53.7187 7.89016 53.7187Z" fill="#FF4444"/>
</svg>
