<svg width="20" height="30" viewBox="0 0 20 30" fill="none" xmlns="http://www.w3.org/2000/svg">
<path d="M12.1863 16.7607C13.9 13.3967 15.6137 10.0963 17.2004 6.6689L10.9169 3.68579C7.55296 10.2867 4.37945 17.078 1.07899 23.6789L0.444289 24.8849L0.190413 25.3292C0.190413 25.4561 0.0634703 25.583 0 25.71L1.07899 29.3913H5.01415C5.20456 29.1374 5.39498 28.947 5.58539 28.6296L5.83926 28.1853L6.02968 27.868L6.72784 26.662C8.63195 23.4251 10.4726 20.0611 12.1863 16.7607Z" fill="#FF8B7B"/>
<path d="M19.1048 3.36855C20.4377 7.49412 11.9962 19.5535 11.9962 19.5535L3.04688 14.5393C3.04688 14.5393 5.5222 8.50965 8.88613 3.81285C12.4405 -1.01089 17.645 -1.13784 19.1048 3.36855Z" fill="#FFC107"/>
</svg>
