<svg width="180" height="83" viewBox="0 0 180 83" fill="none" xmlns="http://www.w3.org/2000/svg">
<path d="M171.878 6.0459L166.61 42.9221L166.102 46.6034H162.738L163.246 42.9221L168.514 6.0459H171.878Z" fill="#C4C4C4"/>
<path d="M28.1807 6.0459L22.9127 42.9221L22.4049 46.6034H19.041L19.5488 42.9221L24.8168 6.0459H28.1807Z" fill="#C4C4C4"/>
<path d="M150.362 42.9219L149.854 46.6031L146.998 82.9082H143.697L146.49 46.6031L146.998 42.9219H150.362Z" fill="#DFDFDF"/>
<path d="M6.66438 42.9219L6.15662 46.6031L3.30046 82.9082H0L2.79269 46.6031L3.30046 42.9219H6.66438Z" fill="#DFDFDF"/>
<path d="M23.6113 42.9219L24.1191 46.6031L26.9753 82.9082H30.2757L27.483 46.6031L26.9753 42.9219H23.6113Z" fill="#C4C4C4"/>
<path d="M167.307 42.9219L167.814 46.6031L170.671 82.9082H173.971L171.178 46.6031L170.671 42.9219H167.307Z" fill="#C4C4C4"/>
<path d="M176.702 11.1867H23.1035L25.9597 0.904541H179.494L176.702 11.1867Z" fill="#C4C4C4"/>
<path d="M173.147 11.1867H19.5488L22.405 0.904541H176.003L173.147 11.1867Z" fill="#DFDFDF"/>
<path d="M174.543 24.0078H20.9453L23.8015 13.7256H177.4L174.543 24.0078Z" fill="#C4C4C4"/>
<path d="M171.053 24.008H17.4551L20.3112 13.7258H173.846L171.053 24.008Z" fill="#DFDFDF"/>
<path d="M172.385 36.8288H18.7871L21.6433 26.5466H175.241L172.385 36.8288Z" fill="#C4C4C4"/>
<path d="M168.895 36.8288H15.2969L18.153 26.5466H171.751L168.895 36.8288Z" fill="#DFDFDF"/>
<path d="M154.232 42.9219H1.33203V46.6031H154.232V42.9219Z" fill="#DFDFDF"/>
<path d="M175.241 42.9219H154.232V46.6031H175.241V42.9219Z" fill="#C4C4C4"/>
</svg>
